<?xml version="1.0" encoding="UTF-8"?>
<svg id="svg5" width="288.32mm" height="288.32mm" version="1.1" viewBox="0 0 288.32 288.32" xml:space="preserve" xmlns="http://www.w3.org/2000/svg"><g id="g10619" transform="translate(-3071.8 -1236.2)"><rect id="rect10574" x="3071.8" y="1236.2" width="288.32" height="288.32" fill="#fff"/><rect id="rect10576" x="3091.9" y="1259.3" width="248.17" height="248.17" fill="#fff6ec"/><g id="text10592" fill="#004221" stroke-linecap="square" stroke-miterlimit="4.2" stroke-width="1.1702" style="paint-order:markers fill stroke" aria-label="WWW.SCACCHI.FERMO.IT"><path id="path8833" d="m3163.6 1502.4c-0.3246 0-0.6091 0.054-0.8537 0.1622-0.2446 0.1036-0.4377 0.2542-0.5788 0.4517-0.1364 0.1975-0.2046 0.4305-0.2046 0.6987 0 0.2681 0.061 0.489 0.1834 0.663 0.1224 0.1693 0.2896 0.3083 0.5013 0.4165 0.2116 0.1034 0.4512 0.1904 0.7193 0.2609l0.4517 0.1127c0.2258 0.056 0.4234 0.1227 0.5927 0.1979 0.174 0.071 0.308 0.1671 0.402 0.2894 0.099 0.1176 0.1483 0.2748 0.1483 0.4723 0 0.2964-0.1106 0.541-0.3317 0.7338-0.2211 0.1882-0.5359 0.2822-0.9452 0.2822-0.4044 0-0.7385-0.1081-1.002-0.3245-0.2586-0.2211-0.3881-0.5597-0.3881-1.016v-0.1338h-0.4516v0.1338c0 0.3951 0.08 0.7221 0.2398 0.9808 0.1599 0.254 0.3787 0.4446 0.6562 0.5716 0.2776 0.1222 0.593 0.1834 0.9457 0.1834 0.3481 0 0.6513-0.057 0.91-0.1695 0.2588-0.1176 0.4584-0.2818 0.5995-0.4935 0.1458-0.2117 0.2191-0.4613 0.2191-0.7483 0-0.2869-0.066-0.5173-0.1979-0.6914-0.1318-0.1787-0.3056-0.3173-0.522-0.416-0.2164-0.1033-0.4539-0.1857-0.7126-0.247l-0.4516-0.1132c-0.2258-0.056-0.4234-0.1195-0.5927-0.1901-0.1646-0.071-0.2941-0.1646-0.3881-0.2822-0.089-0.1176-0.1339-0.2753-0.1339-0.4728 0-0.2964 0.1107-0.5223 0.3318-0.6775 0.2258-0.16 0.5103-0.2398 0.8537-0.2398 0.2398 0 0.4562 0.037 0.649 0.1127 0.1929 0.075 0.3455 0.193 0.4584 0.3529s0.1695 0.3691 0.1695 0.6279v0.3317h0.4517v-0.3317c0-0.3293-0.078-0.6022-0.2331-0.8186-0.1505-0.221-0.3572-0.3879-0.6206-0.5007-0.2588-0.1129-0.5504-0.1695-0.8749-0.1695zm10.757 0c-0.5786 0-1.042 0.1719-1.3901 0.5152-0.3433 0.3387-0.5147 0.8375-0.5147 1.496v1.1147c0 0.6585 0.1714 1.1593 0.5147 1.5027 0.3481 0.3387 0.8115 0.508 1.3901 0.508v5e-4c0.5739 0 1.0111-0.1602 1.3121-0.48 0.3057-0.3246 0.4589-0.7643 0.4589-1.3193v-0.092h-0.4517v0.1059c0 0.4045-0.1081 0.7361-0.3245 0.9948-0.2117 0.254-0.5432 0.3808-0.9948 0.3808-0.4562 0-0.8135-0.1384-1.0722-0.416-0.254-0.2775-0.3814-0.6682-0.3814-1.1715v-1.143c0-0.5034 0.1274-0.8936 0.3814-1.171 0.2587-0.2776 0.616-0.4165 1.0722-0.4165 0.4516 0 0.7831 0.1294 0.9948 0.388 0.2164 0.254 0.3245 0.5836 0.3245 0.9881v0.049h0.4517v-0.035c0-0.555-0.1532-0.9928-0.4589-1.3126-0.301-0.3246-0.7382-0.4868-1.3121-0.4868zm21.218 0c-0.5786 0-1.042 0.1719-1.3901 0.5152-0.3434 0.3387-0.5152 0.8375-0.5152 1.496v1.1147c0 0.6585 0.1718 1.1593 0.5152 1.5027 0.3481 0.3387 0.8115 0.508 1.3901 0.508v5e-4c0.5738 0 1.011-0.1602 1.312-0.48 0.3058-0.3246 0.4589-0.7643 0.4589-1.3193v-0.092h-0.4516v0.1059c0 0.4045-0.1082 0.7361-0.3246 0.9948-0.2116 0.254-0.5432 0.3808-0.9947 0.3808-0.4563 0-0.8141-0.1384-1.0728-0.416-0.254-0.2775-0.3809-0.6682-0.3809-1.1715v-1.143c0-0.5034 0.1269-0.8936 0.3809-1.171 0.2587-0.2776 0.6165-0.4165 1.0728-0.4165 0.4515 0 0.7831 0.1294 0.9947 0.388 0.2164 0.254 0.3246 0.5836 0.3246 0.9881v0.049h0.4516v-0.035c0-0.555-0.1531-0.9928-0.4589-1.3126-0.301-0.3246-0.7382-0.4868-1.312-0.4868zm10.715 0c-0.5786 0-1.0421 0.1719-1.3901 0.5152-0.3434 0.3387-0.5153 0.8375-0.5153 1.496v1.1147c0 0.6585 0.1719 1.1593 0.5153 1.5027 0.348 0.3387 0.8115 0.508 1.3901 0.508v5e-4c0.5738 0 1.011-0.1602 1.312-0.48 0.3058-0.3246 0.4589-0.7643 0.4589-1.3193v-0.092h-0.4516v0.1059c0 0.4045-0.1082 0.7361-0.3246 0.9948-0.2116 0.254-0.5432 0.3808-0.9947 0.3808-0.4563 0-0.8141-0.1384-1.0728-0.416-0.254-0.2775-0.3809-0.6682-0.3809-1.1715v-1.143c0-0.5034 0.1269-0.8936 0.3809-1.171 0.2587-0.2776 0.6165-0.4165 1.0728-0.4165 0.4515 0 0.7831 0.1294 0.9947 0.388 0.2164 0.254 0.3246 0.5836 0.3246 0.9881v0.049h0.4516v-0.035c0-0.555-0.1531-0.9928-0.4589-1.3126-0.301-0.3246-0.7382-0.4868-1.312-0.4868zm80.327 0c-0.5785 0-1.0394 0.1719-1.3828 0.5152-0.3434 0.3387-0.5152 0.8375-0.5152 1.496v1.1147c0 0.6585 0.1718 1.1593 0.5152 1.5027 0.3434 0.3387 0.8043 0.508 1.3828 0.508 0.5786 0 1.0395-0.1693 1.3829-0.508 0.3433-0.3434 0.5152-0.8442 0.5152-1.5027v-1.1147c0-0.6585-0.1719-1.1573-0.5152-1.496-0.3434-0.3433-0.8043-0.5152-1.3829-0.5152zm-169.3 0.099 0.8676 4.9392h0.8398l1.0231-4.671h0.085l1.0232 4.671h0.8397l0.8677-4.9392h-0.4584l-0.7901 4.671h-0.085l-1.0227-4.671h-0.833l-1.0227 4.671h-0.085l-0.7902-4.671zm12.302 0 0.8676 4.9392h0.8403l1.0226-4.671h0.085l1.0232 4.671h0.8392l0.8682-4.9392h-0.4589l-0.7901 4.671h-0.085l-1.0232-4.671h-0.8325l-1.0232 4.671h-0.085l-0.7902-4.671zm12.302 0 0.8677 4.9392h0.8403l1.0231-4.671h0.085l1.0232 4.671h0.8392l0.8682-4.9392h-0.4589l-0.7901 4.671h-0.085l-1.0232-4.671h-0.8325l-1.0232 4.671h-0.085l-0.7901-4.671zm42.57 0-1.6159 4.9392h0.4729l0.4232-1.3126h2.2438l0.4232 1.3126h0.4728l-1.6159-4.9392zm30.768 0v4.9392h0.4516v-2.2722h2.5115v2.2722h0.4517v-4.9392h-0.4517v2.2582h-2.5115v-2.2582zm10.82 0v4.9392h0.4517v-4.9392zm15.7 0v4.9392h0.4517v-2.2722h2.2789v-0.4088h-2.2789v-1.8489h2.4836v-0.4093zm10.016 0v4.9392h3.0127v-0.4093h-2.5611v-1.8629h2.3353v-0.4088h-2.3353v-1.8489h2.5332v-0.4093zm10.193 0v4.9392l0.4517 5e-4v-2.0954h1.8769c0.1646 0 0.2869 0.04 0.3669 0.1204 0.085 0.08 0.1266 0.1946 0.1266 0.3452v1.6298h0.4516v-1.6789c0-0.2164-0.056-0.3741-0.1689-0.4729-0.113-0.097-0.252-0.1483-0.4166-0.155v-0.085c0.2164-0.061 0.4044-0.1854 0.5643-0.3736 0.16-0.1928 0.2403-0.4566 0.2403-0.7906v-0.071c0-0.2776-0.068-0.5126-0.2046-0.7054-0.1317-0.1976-0.3152-0.3482-0.5503-0.4517-0.2306-0.1035-0.4989-0.1555-0.8047-0.1555zm10.644 0v4.9392h0.4372v-4.671h0.085l1.496 4.671h0.8041l1.496-4.671h0.085v4.671h0.4377v-4.9392h-0.8821l-1.4956 4.671h-0.085l-1.4961-4.671zm30.803 0v4.9392h0.4517v-4.9392zm7.4482 0v0.4093h1.651v4.5299h0.4517v-4.5299h1.651v-0.4093zm-126.03 0.2682h0.085l0.9524 2.9492h-1.9896zm101.77 0.042c0.461 0 0.8163 0.1389 1.0656 0.4165 0.254 0.2774 0.3809 0.6676 0.3809 1.171v1.143c0 0.5033-0.1269 0.894-0.3809 1.1715-0.2493 0.2776-0.6046 0.416-1.0656 0.416-0.4562 0-0.8115-0.1384-1.0655-0.416-0.254-0.2775-0.3809-0.6682-0.3809-1.1715v-1.143c0-0.5034 0.1269-0.8936 0.3809-1.171 0.254-0.2776 0.6093-0.4165 1.0655-0.4165zm-24.181 0.099h1.4392c0.3762 0 0.6608 0.087 0.8537 0.2609 0.1976 0.1694 0.2966 0.414 0.2966 0.7338v0.035c0 0.3198-0.1011 0.5664-0.3033 0.7405-0.1976 0.1693-0.4802 0.2543-0.847 0.2543h-1.4392zm-108.01 3.824c-0.1078 0-0.1972 0.042-0.2677 0.1127-0.075 0.075-0.1127 0.1718-0.1127 0.2894s0.037 0.2136 0.1127 0.2888c0.075 0.075 0.1718 0.1132 0.2894 0.1132s0.2142-0.038 0.2894-0.1132c0.075-0.075 0.1126-0.1712 0.1126-0.2888s-0.037-0.2142-0.1126-0.2894c-0.075-0.075-0.1718-0.1127-0.2894-0.1127-0.01 0-0.015-3e-4 -0.022 0zm79.706 0c-0.1078 0-0.1971 0.042-0.2677 0.1127-0.075 0.075-0.1132 0.1718-0.1132 0.2894s0.038 0.2136 0.1132 0.2888c0.075 0.075 0.1718 0.1132 0.2894 0.1132s0.2141-0.038 0.2894-0.1132c0.075-0.075 0.1127-0.1712 0.1127-0.2888s-0.037-0.2142-0.1127-0.2894c-0.075-0.075-0.1718-0.1127-0.2894-0.1127-0.01 0-0.015-3e-4 -0.022 0zm61.656 0c-0.1078 0-0.1971 0.042-0.2677 0.1127-0.075 0.075-0.1126 0.1718-0.1126 0.2894s0.037 0.2136 0.1126 0.2888c0.075 0.075 0.1718 0.1132 0.2894 0.1132s0.2141-0.038 0.2894-0.1132c0.075-0.075 0.1132-0.1712 0.1132-0.2888s-0.038-0.2142-0.1132-0.2894c-0.075-0.075-0.1718-0.1127-0.2894-0.1127-0.01 0-0.015-3e-4 -0.022 0z"/></g><g id="text10596" fill="#004221" stroke-linecap="square" stroke-miterlimit="4.2" stroke-width="1.2248" style="paint-order:markers fill stroke" aria-label="ASD.SCACCHI.FERMO"><path id="path8798" d="m3138.3 1252.5c-0.605 0-1.1338 0.1007-1.5854 0.3023-0.4436 0.1936-0.7902 0.476-1.0403 0.847-0.242 0.3629-0.3628 0.8025-0.3628 1.3188 0 0.5162 0.1088 0.9357 0.3266 1.2583 0.2259 0.3227 0.5442 0.5849 0.9555 0.7865 0.4195 0.1936 0.92 0.3547 1.5007 0.4837l0.278 0.061c0.363 0.081 0.6693 0.1698 0.9194 0.2666 0.258 0.089 0.4517 0.2053 0.5808 0.3504 0.1371 0.1452 0.2057 0.335 0.2057 0.569 0 0.3387-0.1371 0.6167-0.4114 0.8345-0.2661 0.2178-0.6736 0.3266-1.2221 0.3266-0.5404 0-0.9676-0.1245-1.2821-0.3746-0.3146-0.2581-0.4718-0.6416-0.4718-1.1498v-0.3385h-1.573v0.3385c0 0.613 0.1409 1.1374 0.4232 1.573s0.6735 0.7702 1.1736 1.0041c0.5 0.2339 1.0768 0.3509 1.7301 0.3509v-5e-4c0.6533 0 1.218-0.1094 1.6939-0.3272 0.484-0.2258 0.855-0.5321 1.1132-0.9193 0.2661-0.3952 0.3994-0.8511 0.3994-1.3673s-0.1252-0.9395-0.3752-1.2702-0.6009-0.5968-1.0526-0.7984c-0.4437-0.2017-0.9681-0.3671-1.573-0.4961l-0.2781-0.06c-0.3387-0.073-0.6172-0.1574-0.835-0.2542-0.2178-0.097-0.3827-0.2176-0.4956-0.3628-0.1049-0.1452-0.1576-0.3226-0.1576-0.5323 0-0.3146 0.1131-0.561 0.339-0.7384 0.2338-0.1855 0.5929-0.278 1.0769-0.278 0.3226 0 0.6006 0.048 0.8346 0.1452 0.2338 0.089 0.4112 0.2339 0.5322 0.4356 0.1291 0.1936 0.1938 0.4515 0.1938 0.7741v0.3628h1.5725v-0.3628c0-0.613-0.1371-1.1212-0.4113-1.5244-0.2662-0.4114-0.6372-0.7178-1.1131-0.9194-0.4678-0.2097-1.0038-0.3147-1.6087-0.3147zm31.42 0c-0.6049 0-1.1332 0.1007-1.5849 0.3023-0.4436 0.1936-0.7907 0.476-1.0408 0.847-0.2419 0.3629-0.3627 0.8025-0.3627 1.3188 0 0.5162 0.1088 0.9357 0.3265 1.2583 0.2259 0.3227 0.5447 0.5849 0.9561 0.7865 0.4194 0.1936 0.9194 0.3547 1.5001 0.4837l0.278 0.061c0.363 0.081 0.6698 0.1698 0.9199 0.2666 0.2581 0.089 0.4518 0.2053 0.5808 0.3504 0.1372 0.1452 0.2057 0.335 0.2057 0.569 0 0.3387-0.1376 0.6167-0.4119 0.8345-0.2661 0.2178-0.6731 0.3266-1.2216 0.3266-0.5405 0-0.9681-0.1245-1.2826-0.3746-0.3146-0.2581-0.4718-0.6416-0.4718-1.1498v-0.3385h-1.573v0.3385c0 0.613 0.1414 1.1374 0.4237 1.573s0.6735 0.7702 1.1736 1.0041 1.0768 0.3509 1.7301 0.3509v-5e-4c0.6533 0 1.2181-0.1094 1.694-0.3272 0.4839-0.2258 0.8549-0.5321 1.1131-0.9193 0.2661-0.3952 0.3989-0.8511 0.3989-1.3673s-0.1252-0.9395-0.3752-1.2702-0.6004-0.5968-1.0521-0.7984c-0.4436-0.2017-0.968-0.3671-1.573-0.4961l-0.2786-0.06c-0.3388-0.073-0.6168-0.1574-0.8345-0.2542-0.2178-0.097-0.3832-0.2176-0.4961-0.3628-0.1049-0.1452-0.1571-0.3226-0.1571-0.5323 0-0.3146 0.1126-0.561 0.3385-0.7384 0.2339-0.1855 0.593-0.278 1.0769-0.278 0.3226 0 0.6006 0.048 0.8346 0.1452 0.2339 0.089 0.4113 0.2339 0.5322 0.4356 0.1291 0.1936 0.1938 0.4515 0.1938 0.7741v0.3628h1.5731v-0.3628c0-0.613-0.1371-1.1212-0.4114-1.5244-0.2662-0.4114-0.6372-0.7178-1.1131-0.9194-0.4678-0.2097-1.0043-0.3147-1.6092-0.3147zm11.986 5e-4c-1.0485 0-1.8793 0.2944-2.4923 0.8832-0.613 0.5807-0.9193 1.4158-0.9193 2.5048v2.0324c0 1.0888 0.3063 1.9278 0.9193 2.5166 0.613 0.5808 1.4438 0.8708 2.4923 0.8708v5e-4c1.0406 0 1.843-0.2824 2.4076-0.847 0.5727-0.5727 0.8589-1.3551 0.8589-2.3471v-0.1695h-1.5725v0.218c0 0.4921-0.1414 0.9034-0.4238 1.2341-0.2742 0.3226-0.6974 0.4837-1.2702 0.4837-0.5646 0-1.008-0.173-1.3306-0.5199-0.3227-0.3549-0.4842-0.8271-0.4842-1.4159v-2.081c0-0.5969 0.1615-1.0686 0.4842-1.4155 0.3226-0.3468 0.766-0.5203 1.3306-0.5203 0.5728 0 0.996 0.1616 1.2702 0.4842 0.2824 0.3226 0.4238 0.7339 0.4238 1.234v0.1209h1.5725v-0.073c0-0.9922-0.2862-1.7707-0.8589-2.3353-0.5646-0.5727-1.367-0.8589-2.4076-0.8589zm23.754 0c-1.0485 0-1.8793 0.2944-2.4923 0.8832-0.613 0.5807-0.9199 1.4158-0.9199 2.5048v2.0324c0 1.0888 0.3069 1.9278 0.9199 2.5166 0.613 0.5808 1.4438 0.8708 2.4923 0.8708v5e-4c1.0406 0 1.843-0.2824 2.4076-0.847 0.5727-0.5727 0.8589-1.3551 0.8589-2.3471v-0.1695h-1.573v0.218c0 0.4921-0.1409 0.9034-0.4233 1.2341-0.2742 0.3226-0.6974 0.4837-1.2702 0.4837-0.5646 0-1.0085-0.173-1.3311-0.5199-0.3227-0.3549-0.4837-0.8271-0.4837-1.4159v-2.081c0-0.5969 0.161-1.0686 0.4837-1.4155 0.3226-0.3468 0.7665-0.5203 1.3311-0.5203 0.5728 0 0.996 0.1616 1.2702 0.4842 0.2824 0.3226 0.4233 0.7339 0.4233 1.234v0.1209h1.573v-0.073c0-0.9922-0.2862-1.7707-0.8589-2.3353-0.5646-0.5727-1.367-0.8589-2.4076-0.8589zm12.022 0c-1.0486 0-1.8793 0.2944-2.4923 0.8832-0.613 0.5807-0.9199 1.4158-0.9199 2.5048v2.0324c0 1.0888 0.3069 1.9278 0.9199 2.5166 0.613 0.5808 1.4437 0.8708 2.4923 0.8708v5e-4c1.0405 0 1.843-0.2824 2.4076-0.847 0.5727-0.5727 0.8589-1.3551 0.8589-2.3471v-0.1695h-1.5725v0.218c0 0.4921-0.1414 0.9034-0.4237 1.2341-0.2742 0.3226-0.6976 0.4837-1.2703 0.4837-0.5646 0-1.0085-0.173-1.3311-0.5199-0.3226-0.3549-0.4837-0.8271-0.4837-1.4159v-2.081c0-0.5969 0.1611-1.0686 0.4837-1.4155 0.3226-0.3468 0.7665-0.5203 1.3311-0.5203 0.5727 0 0.9961 0.1616 1.2703 0.4842 0.2823 0.3226 0.4237 0.7339 0.4237 1.234v0.1209h1.5725v-0.073c0-0.9922-0.2862-1.7707-0.8589-2.3353-0.5646-0.5727-1.3671-0.8589-2.4076-0.8589zm87.926 0c-1.0647 0-1.9118 0.2944-2.5409 0.8832-0.6291 0.5807-0.9436 1.4158-0.9436 2.5048v2.0324c0 1.0888 0.3145 1.9278 0.9436 2.5166 0.6291 0.5808 1.4762 0.8708 2.5409 0.8708s1.9113-0.29 2.5405-0.8708c0.6291-0.5888 0.9436-1.4278 0.9436-2.5166v-2.0324c0-1.089-0.3145-1.9241-0.9436-2.5048-0.6292-0.5888-1.4758-0.8832-2.5405-0.8832zm-180.16 0.1695-2.2262 8.4693h1.6454l0.4599-1.8635h3.0246l0.4599 1.8635h1.6454l-2.2262-8.4693zm21.528 0v1.4036h1.1131v5.6622h-1.1131v1.4035h3.4845c1.1373 0 2.0002-0.2867 2.589-0.8594 0.5969-0.5807 0.8956-1.4398 0.8956-2.5771v-1.5968c0-1.1373-0.2987-1.9925-0.8956-2.5652-0.5888-0.5807-1.4517-0.8708-2.589-0.8708zm45.282 0-2.2262 8.4693h1.6458l0.4595-1.8635h3.0246l0.4599 1.8635h1.6454l-2.2263-8.4693zm34.227 0v8.4693h1.5974v-3.5212h3.1455v3.5212h1.5973v-8.4693h-1.5973v3.4965h-3.1455v-3.4965zm12.168 0v8.4693h1.5968v-8.4693zm15.26 0v8.4693h1.5968v-3.5212h3.436v-1.4516h-3.436v-2.0449h3.7264v-1.4516zm10.691 0v8.4693h5.5175v-1.4521h-3.9202v-2.0929h3.5088v-1.4521h-3.5088v-2.0206h3.8473v-1.4516zm10.934 0v8.4693h1.5968v-3.1941h2.2262c0.2339 0 0.3993 0.06 0.4961 0.1814 0.1048 0.1209 0.1571 0.2782 0.1571 0.4718v2.5409h1.5973v-2.7709c0-0.3387-0.089-0.6091-0.2661-0.8108-0.1775-0.2099-0.4278-0.3225-0.7504-0.3385v-0.2181c0.3549-0.1452 0.6536-0.3747 0.8956-0.6893s0.3627-0.7259 0.3627-1.2341v-0.1452c0-0.4598-0.1088-0.8591-0.3266-1.1978-0.2178-0.3388-0.5241-0.6011-0.9193-0.7865-0.3952-0.1856-0.8593-0.2781-1.3916-0.2781zm11.877 0v8.4693h1.5487v-7.2957h0.2176l1.4521 7.2957h2.6375l1.4516-7.2957h0.2181v7.2957h1.5482v-8.4693h-2.9641l-1.464 7.38h-0.2176l-1.464-7.38zm-160.68 1.0041h0.2176l1.0283 4.1259h-2.2742zm66.809 0h0.2181l1.0283 4.1259h-2.2748zm112.07 0.2543c0.5969 0 1.0605 0.173 1.3912 0.5198 0.3307 0.3469 0.4961 0.8109 0.4961 1.3917v2.129c0 0.5808-0.1654 1.0449-0.4961 1.3917-0.3307 0.3469-0.7943 0.5204-1.3912 0.5204-0.5888 0-1.0528-0.1735-1.3916-0.5204-0.3307-0.3468-0.4961-0.8109-0.4961-1.3917v-2.129c0-0.5808 0.1654-1.0448 0.4961-1.3917 0.3388-0.3468 0.8028-0.5198 1.3916-0.5198zm-155.92 0.1932h0.7989c0.6453 0 1.117 0.1697 1.4154 0.5085 0.2984 0.3307 0.4476 0.8062 0.4476 1.4273v1.694c0 0.613-0.1492 1.0891-0.4476 1.4278-0.2984 0.3388-0.7701 0.508-1.4154 0.508h-0.7989zm127.45 0h1.9115c0.3872 0 0.6859 0.105 0.8955 0.3147 0.2098 0.2017 0.3147 0.4721 0.3147 0.8108v0.121c0 0.3388-0.1093 0.613-0.3271 0.8227-0.2096 0.2016-0.504 0.3023-0.8831 0.3023h-1.9115zm-116.84 4.8881c-0.3227 0-0.5969 0.1089-0.8227 0.3266-0.2178 0.2097-0.3266 0.484-0.3266 0.8227 0 0.3388 0.1088 0.6173 0.3266 0.8351 0.2258 0.2096 0.5 0.3142 0.8227 0.3142 0.3307 0 0.6049-0.1046 0.8227-0.3142 0.2178-0.2178 0.3271-0.4963 0.3271-0.8351 0-0.3387-0.1093-0.613-0.3271-0.8227-0.2178-0.2177-0.492-0.3266-0.8227-0.3266zm86.788 0c-0.3227 0-0.5968 0.1089-0.8227 0.3266-0.2177 0.2097-0.3266 0.484-0.3266 0.8227 0 0.3388 0.1089 0.6173 0.3266 0.8351 0.2259 0.2096 0.5 0.3142 0.8227 0.3142 0.3307 0 0.6049-0.1046 0.8227-0.3142 0.2178-0.2178 0.3271-0.4963 0.3271-0.8351 0-0.3387-0.1093-0.613-0.3271-0.8227-0.2178-0.2177-0.492-0.3266-0.8227-0.3266z"/></g><g id="text10600" transform="rotate(-90)" fill="#00e676" stroke-linecap="square" stroke-miterlimit="30" stroke-width=".48012" style="paint-order:markers fill stroke" aria-label='" Fermo eppur si muove "'><path id="path8720" d="m-1325.8 3335.2c0-0.107-0.043-0.1602-0.1287-0.1602-0.107 0-0.2102 0.025-0.3101 0.075-0.1 0.043-0.2142 0.1-0.3426 0.171-0.071 0.043-0.1495 0.1034-0.2351 0.1819-0.079 0.071-0.1285 0.1532-0.1499 0.246-0.057 0.1997-0.1072 0.3992-0.1498 0.5989-0.043 0.1926-0.1 0.3959-0.1711 0.6098-0.035 0.1-0.067 0.1998-0.096 0.2997-0.021 0.1-0.053 0.2106-0.096 0.3318-0.014 0.05-0.024 0.1105-0.032 0.1819-0.01 0.064 0.01 0.096 0.053 0.096v-5e-4c0.029 0 0.082-0.032 0.1607-0.096 0.078-0.071 0.1457-0.1426 0.2031-0.214 0.093-0.1069 0.1928-0.2357 0.2997-0.3855 0.1141-0.1569 0.228-0.3277 0.3421-0.5131 0.1213-0.1855 0.232-0.3712 0.3318-0.5566 0.1072-0.1926 0.1928-0.3782 0.2568-0.5565 0.043-0.107 0.064-0.2102 0.064-0.3101zm-1.6154 0c0-0.107-0.043-0.1602-0.1287-0.1602-0.1069 0-0.2102 0.025-0.3101 0.075-0.1 0.043-0.2142 0.1-0.3426 0.171-0.071 0.043-0.1495 0.1034-0.2351 0.1819-0.079 0.071-0.1285 0.1532-0.1499 0.246-0.057 0.1997-0.1072 0.3992-0.1498 0.5989-0.043 0.1926-0.1 0.3959-0.1711 0.6098-0.035 0.1-0.067 0.1998-0.096 0.2997-0.021 0.1-0.053 0.2106-0.096 0.3318-0.014 0.05-0.024 0.1105-0.032 0.1819-0.01 0.064 0.01 0.096 0.053 0.096v-5e-4c0.028 0 0.082-0.032 0.1607-0.096 0.078-0.071 0.1457-0.1426 0.2031-0.214 0.093-0.1069 0.1927-0.2357 0.2997-0.3855 0.1141-0.1569 0.228-0.3277 0.3421-0.5131 0.1213-0.1855 0.2319-0.3712 0.3317-0.5566 0.1072-0.1926 0.1929-0.3782 0.2569-0.5565 0.043-0.107 0.064-0.2102 0.064-0.3101zm-5.5418 3.2841c0-0.2068-0.086-0.3777-0.2569-0.5132-0.1712-0.1427-0.435-0.2139-0.7916-0.2139-0.3638 0-0.7166 0.1032-1.0589 0.31-0.3424 0.2068-0.6493 0.4777-0.9203 0.8129-0.271 0.3353-0.4849 0.7098-0.6419 1.1234-0.1569 0.4137-0.2356 0.8276-0.2356 1.2413 0 0.2139 0.064 0.4172 0.1927 0.6098 0.1356 0.1855 0.2995 0.3387 0.492 0.4599 0.1997 0.1141 0.3891 0.1711 0.5674 0.1711l-1e-3 -6e-4c0.2996 0 0.5704-0.057 0.8128-0.171 0.2426-0.1212 0.4602-0.2856 0.6527-0.4925 0.1926-0.2068 0.3565-0.435 0.492-0.6847 0.014-0.014 0.021-0.031 0.021-0.053 0.01-0.029 0.011-0.054 0.011-0.075 0-0.071-0.032-0.107-0.096-0.107-0.05 0-0.1138 0.039-0.1922 0.1173-0.1427 0.1569-0.2997 0.2926-0.4708 0.4067-0.1712 0.1069-0.3675 0.1607-0.5886 0.1607-0.2425 0-0.4282-0.082-0.5566-0.246-0.1214-0.1712-0.1783-0.3819-0.171-0.6315 0.01-0.093 0.022-0.189 0.043-0.2888 0.021-0.1 0.047-0.1962 0.075-0.2889 0.015-0.035 0.029-0.057 0.043-0.064 0.022-0.014 0.051-0.025 0.086-0.032 0.2711-0.057 0.553-0.1246 0.8454-0.2031 0.2996-0.079 0.5704-0.1785 0.8129-0.2997 0.2496-0.1212 0.4497-0.267 0.5995-0.4382 0.1568-0.1712 0.2351-0.3749 0.2351-0.6103zm-0.908-0.064c0 0.01-6e-4 0.021 0 0.032-0.01 0.2069-0.064 0.3851-0.1711 0.5349-0.107 0.1426-0.2427 0.2639-0.4067 0.3638-0.1569 0.1002-0.3207 0.1789-0.4919 0.2356-0.1712 0.05-0.3175 0.089-0.4388 0.1178l6e-4 -5e-4c-0.057 0.01-0.082-0.014-0.075-0.064 0.021-0.1568 0.075-0.3244 0.1602-0.5028 0.086-0.1783 0.1889-0.3422 0.3101-0.4919 0.1284-0.157 0.264-0.2852 0.4067-0.385 0.1426-0.1 0.282-0.1499 0.4175-0.1499 0.1 0 0.1743 0.036 0.2243 0.107 0.044 0.062 0.066 0.1303 0.066 0.2036zm-3.1894 0.1602c0-0.2924-0.039-0.5031-0.1174-0.6315-0.078-0.1355-0.1678-0.2031-0.2676-0.2031-0.107 0-0.2284 0.032-0.3638 0.096-0.1356 0.064-0.2568 0.1387-0.3638 0.2243-0.1 0.079-0.1499 0.1499-0.1499 0.2139 0 0.071 0.014 0.1355 0.043 0.1928 0.036 0.057 0.086 0.1179 0.1499 0.1819 0.092 0.1 0.1674 0.2106 0.2247 0.3318 0.057 0.1212 0.086 0.2638 0.086 0.4278 0 0.2425-0.057 0.499-0.1715 0.77-0.1142 0.264-0.2637 0.5103-0.4491 0.7385-0.1783 0.2282-0.3746 0.4139-0.5886 0.5565-0.2068 0.1355-0.4031 0.2031-0.5886 0.2031-0.1924 0-0.3133-0.064-0.3633-0.1927-0.05-0.1284-0.04-0.3135 0.032-0.5561l0.8883-2.6964c0.021-0.064 0.011-0.135-0.032-0.2135-0.036-0.078-0.089-0.1427-0.1607-0.1927-0.064-0.057-0.1355-0.086-0.2139-0.086-0.107 0-0.2353 0.036-0.385 0.107-0.1498 0.064-0.3067 0.1535-0.4708 0.2676-0.164 0.1141-0.3247 0.2424-0.4816 0.385-0.1498 0.1427-0.2818 0.2853-0.3958 0.4279-0.065 0.086-0.1146 0.1608-0.1499 0.2248-0.029 0.057-0.043 0.1037-0.043 0.139 0 0.064 0.039 0.096 0.1178 0.096 0.021 0 0.046-0.01 0.075-0.021 0.036-0.021 0.075-0.053 0.1178-0.096 0.078-0.078 0.1779-0.1603 0.2992-0.2459 0.1284-0.086 0.2284-0.1287 0.2997-0.1287 0.043 0 0.071 0.028 0.085 0.086 0.021 0.05 0.011 0.1323-0.032 0.2465l-0.6743 1.8293c-0.093 0.2568-0.1176 0.492-0.075 0.7059 0.043 0.214 0.1392 0.3853 0.2889 0.5137 0.1569 0.1284 0.3533 0.1927 0.5886 0.1927v-5e-4c0.3281 0 0.6601-0.107 0.9953-0.3209 0.3423-0.2211 0.6738-0.51 0.9948-0.8666 0.2568-0.2711 0.4776-0.5562 0.663-0.8558 0.1854-0.3066 0.3285-0.6169 0.4284-0.9307 0.1069-0.3138 0.1602-0.6203 0.1602-0.9198zm-4.9 0.6206c0-0.4422-0.132-0.7918-0.3958-1.0485-0.2568-0.2639-0.6026-0.3958-1.0377-0.3958-0.4422 0-0.8455 0.1106-1.2092 0.3317-0.3566 0.214-0.6631 0.4918-0.9199 0.8341-0.2567 0.3353-0.4562 0.6922-0.5989 1.0702-0.1355 0.378-0.2036 0.7345-0.2036 1.0697 0 0.2711 0.061 0.5137 0.1819 0.7276 0.1284 0.2069 0.296 0.3745 0.5028 0.5028 0.214 0.1213 0.4385 0.1819 0.6739 0.1819 0.4707 0 0.8883-0.107 1.2521-0.3209 0.3708-0.214 0.688-0.489 0.9519-0.8242 0.2639-0.3424 0.4639-0.7025 0.5994-1.0806 0.1355-0.378 0.2031-0.727 0.2031-1.048zm-1.1555-0.5565c0 0.2496-0.036 0.5278-0.107 0.8345-0.064 0.3067-0.1535 0.6132-0.2676 0.9199-0.107 0.3066-0.2316 0.5886-0.3742 0.8454-0.1426 0.2496-0.2926 0.4529-0.4496 0.6098-0.1497 0.1569-0.2992 0.2351-0.449 0.2351h-6e-4c-0.1212 0-0.2208-0.043-0.2992-0.1281-0.071-0.086-0.1074-0.2213-0.1074-0.4067 0-0.271 0.036-0.56 0.1074-0.8666 0.071-0.3068 0.1639-0.61 0.2781-0.9096 0.1212-0.3066 0.2531-0.5811 0.3958-0.8237 0.1426-0.2496 0.2889-0.4491 0.4387-0.5989 0.157-0.1497 0.3028-0.2248 0.4383-0.2248 0.1495 0 0.2532 0.046 0.3105 0.139 0.057 0.093 0.086 0.2177 0.086 0.3747zm-3.7021 2.2035c0-0.035-0.014-0.067-0.043-0.096-0.021-0.029-0.05-0.044-0.085-0.044-0.015 0-0.029 0.011-0.043 0.032-0.1 0.093-0.2281 0.2033-0.385 0.3317s-0.3101 0.2391-0.4599 0.3318c-0.1427 0.093-0.2501 0.139-0.3215 0.139-0.05 0-0.075-0.028-0.075-0.086 0-0.057 0.014-0.1288 0.043-0.2144l1.1663-2.8882c0.035-0.086 0.032-0.1713-0.011-0.2569-0.043-0.093-0.1072-0.1716-0.1928-0.2356-0.086-0.071-0.1819-0.107-0.2889-0.107-0.093 0-0.1815 0.046-0.2671 0.139-0.079 0.093-0.1641 0.2141-0.2569 0.3638-0.071 0.1213-0.1751 0.2857-0.3105 0.4925-0.1356 0.1997-0.2887 0.4173-0.4599 0.6527-0.1712 0.2282-0.3457 0.4527-0.524 0.6739-0.1855 0.2353-0.3675 0.4635-0.5458 0.6847-0.1783 0.221-0.339 0.403-0.4816 0.5457-0.1355 0.1426-0.2387 0.2139-0.31 0.2139-0.071 0-0.1105-0.046-0.1179-0.139 0-0.093 0.029-0.2002 0.086-0.3214 0.2426-0.5207 0.4634-1.0054 0.6631-1.4547 0.2068-0.4493 0.3957-0.8526 0.5668-1.2092 0.035-0.086 0.032-0.1783-0.011-0.2781-0.043-0.107-0.1067-0.1958-0.1922-0.2671-0.078-0.071-0.1572-0.107-0.2357-0.107-0.1783 0-0.3816 0.049-0.6098 0.1493-0.2211 0.1-0.4456 0.243-0.6738 0.4284-0.2283 0.1855-0.439 0.4026-0.6315 0.6522-0.057 0.072-0.1 0.1396-0.1282 0.2036-0.029 0.064-0.043 0.1211-0.043 0.1711s0.025 0.079 0.075 0.086c0.057 0 0.1179-0.032 0.1819-0.096 0.071-0.071 0.1639-0.15 0.278-0.2356 0.1141-0.085 0.221-0.1566 0.3209-0.214 0.1-0.064 0.1713-0.096 0.2139-0.096 0.057 0 0.086 0.032 0.086 0.096s-0.025 0.1536-0.075 0.2677l-1.0485 2.4175c-0.043 0.107-0.039 0.2319 0.011 0.3746s0.1282 0.2677 0.2352 0.3747c0.1069 0.1 0.2213 0.1498 0.3426 0.1498 0.1569 0 0.3282-0.061 0.5136-0.1819 0.1926-0.1283 0.3959-0.2992 0.6098-0.5132 0.214-0.221 0.4386-0.4743 0.6739-0.7596 0.2425-0.2924 0.4958-0.5994 0.7596-0.9204 0.036-0.05 0.072-0.071 0.107-0.063 0.043 0.01 0.05 0.043 0.021 0.107-0.064 0.1711-0.1392 0.3531-0.2248 0.5457-0.078 0.1854-0.1641 0.3742-0.2568 0.5668-0.086 0.1854-0.1638 0.3563-0.2352 0.5132-0.029 0.071-0.033 0.1463-0.011 0.2248 0.029 0.071 0.064 0.1177 0.1069 0.139 0.1 0.043 0.2105 0.068 0.3318 0.075 0.1212 0.01 0.2425 0 0.3638-0.032 0.1284-0.036 0.2497-0.093 0.3638-0.1716 0.1-0.022 0.2105-0.064 0.3318-0.1281 0.1212-0.064 0.2458-0.1392 0.3741-0.2248 0.1284-0.093 0.246-0.189 0.353-0.2889 0.1142-0.1 0.2036-0.1924 0.2676-0.278 0.071-0.093 0.107-0.1716 0.107-0.2356zm-6.0017 0c0-0.029-0.011-0.054-0.032-0.075-0.021-0.029-0.043-0.043-0.064-0.043s-0.046 0.014-0.075 0.043c-0.021 0.021-0.046 0.043-0.075 0.064-0.036 0.036-0.096 0.089-0.1819 0.1601-0.078 0.071-0.1678 0.1464-0.2677 0.2248-0.1 0.078-0.1961 0.1458-0.2888 0.2031-0.092 0.057-0.1675 0.086-0.2248 0.086-0.1214 0-0.1356-0.118-0.043-0.3534l0.8025-1.9364c0.107-0.2638 0.1607-0.5059 0.1607-0.727 0.01-0.2211-0.043-0.3999-0.1498-0.5354-0.107-0.1355-0.2746-0.2031-0.5028-0.2031-0.2711 0-0.5387 0.089-0.8026 0.2677-0.2638 0.1783-0.524 0.4203-0.7808 0.7271-0.2496 0.3066-0.4959 0.6599-0.7385 1.0593-0.029 0.043-0.064 0.06-0.1069 0.053-0.043-0.01-0.05-0.036-0.021-0.086l0.2248-0.599c0.1138-0.2424 0.1638-0.4707 0.1498-0.6847-0.01-0.221-0.071-0.3993-0.1927-0.5348-0.1213-0.1356-0.2958-0.2036-0.524-0.2036-0.2781 0-0.549 0.1037-0.8129 0.3105-0.2567 0.1997-0.5174 0.4775-0.7813 0.8341-0.2639 0.3495-0.5348 0.749-0.8129 1.1984-0.022 0.043-0.051 0.061-0.086 0.053-0.035-0.01-0.043-0.036-0.021-0.086l0.6098-1.4655c0.064-0.1641 0.082-0.3104 0.053-0.4388s-0.097-0.2278-0.2036-0.2992c-0.1-0.071-0.2212-0.1069-0.3638-0.1069-0.3067 0.01-0.5562 0.068-0.7488 0.1819-0.1854 0.107-0.3599 0.2384-0.524 0.3953-0.042 0.043-0.092 0.1071-0.1498 0.1927-0.057 0.078-0.1037 0.1572-0.139 0.2357-0.035 0.078-0.053 0.1422-0.053 0.1922 0.01 0.064 0.036 0.1 0.086 0.107 0.05 0 0.089-0.017 0.1173-0.053 0.1712-0.1998 0.3282-0.3212 0.4708-0.3638 0.1427-0.05 0.2534-0.075 0.3318-0.075 0.078 0 0.1315 0.028 0.1602 0.086 0.029 0.05 0.025 0.1144-0.011 0.1928l-1.0805 2.6639c-0.043 0.1141-0.078 0.2136-0.107 0.2992-0.021 0.079-0.032 0.1362-0.032 0.1716 0 0.093 0.025 0.1779 0.075 0.2563 0.057 0.079 0.1214 0.1392 0.1927 0.1819 0.078 0.043 0.1428 0.064 0.1928 0.064h1e-3c0.1213 0 0.2356-0.068 0.3426-0.2036 0.1142-0.1355 0.2462-0.3424 0.3959-0.6206 0.1141-0.2068 0.2354-0.4276 0.3638-0.663 0.1355-0.2354 0.2674-0.4636 0.3958-0.6847 0.1356-0.2282 0.2638-0.4389 0.385-0.6315s0.2319-0.3527 0.3318-0.4811c0.2211-0.2924 0.4137-0.51 0.5777-0.6527 0.1641-0.1429 0.296-0.2104 0.3959-0.2031 0.057 0 0.1072 0.032 0.1498 0.096 0.05 0.057 0.046 0.1533-0.011 0.2889l-1.1018 2.7497c-0.05 0.1426-0.089 0.2676-0.1178 0.3746-0.029 0.1074-0.043 0.1786-0.043 0.214 0 0.057 0.021 0.1209 0.064 0.1922 0.05 0.064 0.1028 0.118 0.1602 0.1607 0.064 0.043 0.1245 0.064 0.1819 0.064 0.071 0 0.157-0.032 0.2568-0.096 0.107-0.057 0.2176-0.1465 0.3318-0.2677 0.1141-0.1213 0.2174-0.2601 0.31-0.417 0.1855-0.3138 0.3781-0.6315 0.5778-0.9524 0.1997-0.3282 0.3923-0.6346 0.5777-0.9199 0.1854-0.2852 0.3392-0.5172 0.4605-0.6955 0.1926-0.2568 0.3634-0.4494 0.5131-0.5778 0.1498-0.1357 0.2748-0.1996 0.3747-0.1922 0.064 0 0.1175 0.036 0.1602 0.107 0.05 0.071 0.046 0.1676-0.011 0.2888l-1.3803 3.2096c-0.036 0.086-0.029 0.1676 0.021 0.246 0.05 0.079 0.1175 0.1393 0.2031 0.1819 0.085 0.05 0.1566 0.075 0.2139 0.075 0.3852 0 0.7598-0.1177 1.1235-0.353 0.3637-0.2425 0.6882-0.5314 0.9736-0.8666 0.071-0.072 0.1176-0.1396 0.139-0.2036 0.028-0.064 0.046-0.1318 0.053-0.2031zm-10.495-4.7299c0-0.1427-0.043-0.2746-0.1281-0.3959-0.086-0.1284-0.2032-0.1927-0.353-0.1927-0.2282 0-0.4208 0.086-0.5777 0.2568-0.1498 0.1641-0.2248 0.3567-0.2248 0.5777 0 0.1356 0.046 0.2606 0.139 0.3747 0.093 0.1069 0.2104 0.1602 0.353 0.1602 0.2211 0 0.4068-0.078 0.5565-0.2351 0.1569-0.1641 0.2351-0.3461 0.2351-0.5457zm-0.727 4.6849c0-0.024-0.013-0.046-0.032-0.065-0.021-0.029-0.047-0.043-0.075-0.043-0.015 0-0.029 0.011-0.043 0.032-0.1141 0.1141-0.246 0.2317-0.3958 0.3529-0.1427 0.1213-0.2816 0.2282-0.4171 0.321-0.1284 0.086-0.2321 0.1286-0.3106 0.1286-0.021 0-0.046-0.01-0.075-0.021-0.021-0.014-0.032-0.039-0.032-0.075 0-0.029 0-0.061 0.011-0.096 0.01-0.043 0.022-0.082 0.043-0.1178l1.2305-3.006c0.029-0.064 0.014-0.1355-0.043-0.214-0.057-0.086-0.1316-0.1536-0.2242-0.2036-0.093-0.049-0.1853-0.056-0.278-0.021-0.1356 0.057-0.2856 0.1353-0.4496 0.2352-0.1641 0.093-0.328 0.1965-0.492 0.3105-0.1641 0.1142-0.314 0.228-0.4496 0.3421-0.1284 0.107-0.2354 0.2071-0.3209 0.2998-0.078 0.093-0.1178 0.1604-0.1178 0.2031 0 0.05 0.018 0.089 0.053 0.1178 0.043 0.021 0.1 0.011 0.1711-0.032 0.085-0.057 0.1749-0.1107 0.2676-0.1607 0.093-0.057 0.1816-0.1037 0.2672-0.139 0.086-0.035 0.1536-0.053 0.2036-0.053s0.064 0.028 0.043 0.086c-0.164 0.4065-0.339 0.8449-0.5245 1.3157-0.1854 0.4707-0.3956 0.9559-0.631 1.4552-0.021 0.043-0.036 0.082-0.043 0.1178v0.096c0 0.1141 0.057 0.228 0.1711 0.3421 0.1141 0.107 0.2461 0.1607 0.3958 0.1607h5e-4c0.1855 0 0.3957-0.061 0.631-0.1819 0.2425-0.1284 0.4745-0.2816 0.6956-0.4599 0.2211-0.1855 0.4031-0.3675 0.5457-0.5457 0.1498-0.1855 0.2243-0.3425 0.2243-0.4708 0 0 3e-4 -0.01 0-0.01zm-2.7709-2.4494c0-0.071-0.046-0.1533-0.139-0.246-0.093-0.093-0.2108-0.1746-0.3535-0.246-0.1427-0.071-0.2885-0.1069-0.4382-0.1069-0.1213 0-0.275 0.05-0.4605 0.1498-0.1782 0.093-0.3634 0.221-0.556 0.385-0.1854 0.1569-0.3387 0.3319-0.4599 0.5245-0.1213 0.1926-0.1819 0.3852-0.1819 0.5778 0 0.1711 0.039 0.3525 0.1173 0.5451 0.086 0.1854 0.1893 0.3674 0.3106 0.5457 0.1069 0.1712 0.2032 0.3463 0.2888 0.5246 0.093 0.1783 0.1355 0.3278 0.1282 0.449-0.01 0.1284-0.047 0.2391-0.1178 0.3318-0.071 0.093-0.1783 0.139-0.3209 0.139-0.1427 0-0.2746-0.046-0.3959-0.139-0.1141-0.093-0.2174-0.1821-0.31-0.2677-0.086-0.078-0.1608-0.1457-0.2248-0.2031-0.064-0.064-0.1211-0.096-0.1711-0.096-0.1141 0-0.2105 0.057-0.2889 0.1716-0.078 0.1069-0.1178 0.2495-0.1178 0.4279 0 0.1926 0.082 0.3495 0.246 0.4707 0.1569 0.1213 0.3638 0.1819 0.6206 0.1819 0.2496 0 0.4954-0.05 0.7379-0.1494 0.2425-0.1 0.4639-0.2285 0.6635-0.3855 0.2069-0.164 0.3707-0.3386 0.492-0.524 0.1212-0.1854 0.1819-0.3636 0.1819-0.5348s-0.043-0.3531-0.1282-0.5457c-0.078-0.1926-0.1997-0.4032-0.3638-0.6315-0.071-0.107-0.1463-0.2172-0.2248-0.3313-0.071-0.1212-0.1354-0.2319-0.1927-0.3317-0.05-0.1067-0.075-0.1887-0.075-0.246 0-0.107 0.032-0.2001 0.096-0.2785 0.064-0.079 0.1499-0.1173 0.2568-0.1173 0.1 0 0.1887 0.028 0.2672 0.086 0.085 0.057 0.1566 0.1252 0.2139 0.2036 0.05 0.064 0.1034 0.1241 0.1607 0.1814 0.064 0.057 0.1283 0.086 0.1923 0.086 0.071 0 0.1463-0.036 0.2248-0.1069 0.086-0.071 0.1607-0.1533 0.2247-0.246 0.064-0.1001 0.096-0.1825 0.096-0.2465zm-5.4044 0.011c0-0.1711-0.053-0.3174-0.1602-0.4387-0.107-0.1284-0.2639-0.1927-0.4707-0.1927-0.2282 0-0.4671 0.1-0.7168 0.2997-0.2496 0.1925-0.5029 0.4634-0.7596 0.8129-0.2497 0.3424-0.5061 0.7419-0.77 1.1983-0.029 0.05-0.064 0.071-0.107 0.064-0.035-0.014-0.043-0.046-0.021-0.096l0.4388-1.0485c0.093-0.2354 0.1462-0.4423 0.1602-0.6207 0.021-0.1782-0.01-0.3208-0.086-0.4278-0.078-0.107-0.2179-0.1602-0.4176-0.1602-0.1569 0-0.317 0.028-0.4811 0.086-0.1568 0.05-0.3032 0.1142-0.4387 0.1927-0.1569 0.1-0.2889 0.2137-0.3958 0.3421-0.1072 0.1213-0.1572 0.2388-0.1499 0.353 0.01 0.057 0.036 0.089 0.086 0.096 0.05 0.01 0.093 0 0.1282-0.032 0.086-0.064 0.1712-0.1175 0.2568-0.1602 0.093-0.05 0.2066-0.075 0.3421-0.075 0.072 0 0.1147 0.029 0.1287 0.086s0 0.1247-0.032 0.2031l-1.0485 2.728c-0.035 0.1141-0.067 0.2104-0.096 0.2888-0.021 0.079-0.032 0.1505-0.032 0.2145 0 0.079 0.029 0.1499 0.086 0.2139s0.1247 0.1104 0.2031 0.1391c0.085 0.035 0.1554 0.052 0.2124 0.053h5e-4c0.114-3e-4 0.2351-0.079 0.3633-0.2352 0.1284-0.1568 0.2673-0.3712 0.4171-0.6423 0.093-0.164 0.2033-0.3529 0.3317-0.5669 0.1284-0.2211 0.2567-0.4387 0.385-0.6527 0.1355-0.2139 0.2568-0.4097 0.3638-0.588 0.1145-0.1855 0.2002-0.3249 0.2568-0.4176 0.1712-0.2639 0.3175-0.4635 0.4388-0.5989 0.1283-0.1427 0.2459-0.214 0.3529-0.214 0.086 0 0.1466 0.043 0.1819 0.1282 0.036 0.079 0.061 0.1785 0.075 0.2997 0.022 0.1356 0.05 0.2387 0.086 0.3101 0.043 0.071 0.1 0.1069 0.1711 0.1069 0.107 0 0.2144-0.049 0.3214-0.1493 0.1142-0.1 0.2067-0.2323 0.278-0.3964 0.078-0.164 0.1173-0.3311 0.1173-0.5023zm-5.3268 2.4816c0-0.035-0.014-0.067-0.043-0.096-0.021-0.029-0.05-0.044-0.085-0.044-0.015 0-0.029 0.011-0.043 0.032-0.1 0.093-0.2281 0.2033-0.385 0.3317s-0.3106 0.2391-0.4604 0.3318c-0.1427 0.093-0.2496 0.139-0.3209 0.139-0.05 0-0.075-0.028-0.075-0.086 0-0.057 0.014-0.1288 0.043-0.2144l1.1663-2.8882c0.035-0.086 0.032-0.1713-0.011-0.2569-0.043-0.093-0.1072-0.1716-0.1928-0.2356-0.086-0.071-0.1818-0.107-0.2888-0.107-0.093 0-0.1816 0.046-0.2672 0.139-0.078 0.093-0.1641 0.2141-0.2568 0.3638-0.071 0.1213-0.1751 0.2857-0.3106 0.4925-0.1355 0.1997-0.2887 0.4173-0.4599 0.6527-0.1712 0.2282-0.3457 0.4527-0.524 0.6739-0.1855 0.2353-0.3675 0.4635-0.5457 0.6847-0.1784 0.221-0.339 0.403-0.4816 0.5457-0.1356 0.1426-0.2388 0.2139-0.3101 0.2139-0.071 0-0.1105-0.046-0.1178-0.139 0-0.093 0.028-0.2002 0.086-0.3214 0.2425-0.5207 0.4638-1.0054 0.6635-1.4547 0.2068-0.4493 0.3957-0.8526 0.5669-1.2092 0.035-0.086 0.032-0.1783-0.011-0.2781-0.043-0.107-0.1072-0.1958-0.1927-0.2671-0.078-0.071-0.1567-0.107-0.2352-0.107-0.1783 0-0.3815 0.049-0.6097 0.1493-0.2212 0.1-0.4457 0.243-0.6739 0.4284-0.2283 0.1855-0.439 0.4026-0.6315 0.6522-0.057 0.072-0.099 0.1396-0.1282 0.2036-0.029 0.064-0.043 0.1211-0.043 0.1711s0.025 0.079 0.075 0.086c0.057 0 0.1179-0.032 0.1819-0.096 0.071-0.071 0.1639-0.15 0.278-0.2356 0.1141-0.085 0.2211-0.1566 0.3209-0.214 0.1-0.064 0.1713-0.096 0.214-0.096 0.057 0 0.086 0.032 0.086 0.096s-0.025 0.1536-0.075 0.2677l-1.0485 2.4175c-0.043 0.107-0.039 0.2319 0.011 0.3746s0.1281 0.2677 0.2351 0.3747c0.1069 0.1 0.2213 0.1498 0.3426 0.1498 0.1569 0 0.3283-0.061 0.5137-0.1819 0.1926-0.1283 0.3958-0.2992 0.6098-0.5132 0.214-0.221 0.4385-0.4743 0.6738-0.7596 0.2425-0.2924 0.4958-0.5994 0.7597-0.9204 0.036-0.05 0.072-0.071 0.1069-0.063 0.043 0.01 0.05 0.043 0.021 0.107-0.064 0.1711-0.1392 0.3531-0.2248 0.5457-0.078 0.1854-0.1641 0.3742-0.2568 0.5668-0.086 0.1854-0.1643 0.3563-0.2357 0.5132-0.029 0.071-0.032 0.1463-0.011 0.2248 0.029 0.071 0.064 0.1177 0.107 0.139 0.1 0.043 0.2105 0.068 0.3317 0.075 0.1212 0.01 0.2426 0 0.3638-0.032 0.1284-0.036 0.2498-0.093 0.3638-0.1716 0.1-0.022 0.2105-0.064 0.3318-0.1281 0.1213-0.064 0.2458-0.1392 0.3741-0.2248 0.1284-0.093 0.246-0.189 0.353-0.2889 0.1142-0.1 0.2037-0.1924 0.2677-0.278 0.071-0.093 0.1069-0.1716 0.1069-0.2356zm-5.6833-1.679c0-0.271-0.061-0.5099-0.1819-0.7168-0.1142-0.2139-0.2924-0.3815-0.5349-0.5028-0.2354-0.1284-0.5386-0.1922-0.9095-0.1922-0.093 0-0.1816 0.01-0.2672 0.021-0.086 0.015-0.1749 0.029-0.2676 0.043-0.028 0.01-0.045-0.01-0.053-0.043-0.01-0.043 0-0.1 0.011-0.1711l0.139-0.4816c0.036-0.1428 0.029-0.2461-0.021-0.3101-0.043-0.071-0.1215-0.1069-0.2356-0.1069-0.1997 0-0.3742 0.082-0.524 0.2459-0.1498 0.157-0.2818 0.4033-0.3958 0.7385-0.036 0.1069-0.075 0.1851-0.1179 0.2351-0.036 0.043-0.079 0.072-0.1286 0.086-0.271 0.1-0.4919 0.1925-0.6631 0.278-0.1712 0.078-0.3138 0.1423-0.4278 0.1923-0.057 0.021-0.1107 0.053-0.1607 0.096s-0.075 0.1002-0.075 0.1716c0 0.064 0.029 0.1033 0.086 0.1173 0.057 0.015 0.1137 0.01 0.1711-0.021 0.1568-0.064 0.2888-0.1104 0.3958-0.139 0.1141-0.036 0.2461-0.072 0.3959-0.107 0.086-0.015 0.1358-0.01 0.1498 0.021 0.021 0.028 0.025 0.071 0.011 0.1287-0.014 0.057-0.035 0.1246-0.064 0.203l-1.8934 5.6271c-0.057 0.1639-0.1321 0.2709-0.2248 0.3209-0.1 0.057-0.2462 0.1107-0.4388 0.1607-0.064 0.01-0.121 0.029-0.171 0.064-0.057 0.035-0.089 0.082-0.096 0.139 0 0.036 0.014 0.061 0.043 0.075 0.029 0.021 0.058 0.032 0.086 0.032 0.1997 0 0.4104-0.01 0.6314-0.021 0.214-0.014 0.4104-0.025 0.5886-0.032h0.3421c0.1427 0 0.2928 0 0.4496 0.011 0.157 0.01 0.2921 0.011 0.4062 0.011 0.064 0 0.121-0.011 0.171-0.032 0.057-0.021 0.086-0.053 0.086-0.096 0-0.064-0.029-0.1109-0.086-0.1395-0.05-0.028-0.1028-0.045-0.1601-0.053-0.2283-0.05-0.3852-0.1175-0.4708-0.203-0.079-0.086-0.093-0.2-0.043-0.3427l0.6206-2.0432c0.043-0.1358 0.085-0.2108 0.1282-0.2248 0.05-0.021 0.1143 0 0.1927 0.064 0.064 0.043 0.1424 0.085 0.2352 0.1282 0.1 0.05 0.1998 0.075 0.2997 0.075 0.3851 0 0.7559-0.1 1.1126-0.2997 0.3566-0.2068 0.6737-0.4744 0.9519-0.8025s0.4995-0.6846 0.6635-1.0697c0.164-0.3923 0.246-0.7706 0.246-1.1343zm-1.1845 0.1493c0 0.3352-0.061 0.6673-0.1819 0.9953-0.1212 0.321-0.2745 0.6168-0.4599 0.8878-0.1854 0.2639-0.3748 0.4778-0.5674 0.6418-0.1925 0.157-0.3601 0.2357-0.5028 0.2357l1e-3 5e-4c-0.1216 0-0.211-0.025-0.2677-0.075-0.05-0.057-0.096-0.1358-0.139-0.2357-0.029-0.086-0.043-0.1782-0.043-0.278 0-0.107 0.017-0.2176 0.053-0.3318l0.9415-2.8778c0.057-0.01 0.1107-0.011 0.1607-0.011 0.057-0.01 0.1102-0.011 0.1602-0.011 0.2639 0.01 0.4708 0.089 0.6206 0.246 0.1498 0.1569 0.2248 0.4277 0.2248 0.8128zm-4.1537-0.1493c0-0.271-0.061-0.5099-0.1819-0.7168-0.1141-0.2139-0.2924-0.3815-0.5349-0.5028-0.2354-0.1284-0.5386-0.1922-0.9095-0.1922-0.093 0-0.1821 0.01-0.2677 0.021-0.086 0.015-0.1744 0.029-0.2671 0.043-0.028 0.01-0.046-0.01-0.053-0.043-0.01-0.043 0-0.1 0.011-0.1711l0.1395-0.4816c0.036-0.1428 0.029-0.2461-0.021-0.3101-0.043-0.071-0.1215-0.1069-0.2356-0.1069-0.1997 0-0.3742 0.082-0.524 0.2459-0.1498 0.157-0.2818 0.4033-0.3958 0.7385-0.036 0.1069-0.075 0.1851-0.1179 0.2351-0.036 0.043-0.078 0.072-0.1281 0.086-0.271 0.1-0.4923 0.1925-0.6635 0.278-0.1712 0.078-0.3139 0.1423-0.4279 0.1923-0.057 0.021-0.1102 0.053-0.1602 0.096s-0.075 0.1002-0.075 0.1716c0 0.064 0.028 0.1033 0.086 0.1173 0.057 0.015 0.1137 0.01 0.1711-0.021 0.1568-0.064 0.2888-0.1104 0.3958-0.139 0.1142-0.036 0.2461-0.072 0.3959-0.107 0.086-0.015 0.1358-0.01 0.1498 0.021 0.021 0.028 0.025 0.071 0.011 0.1287-0.014 0.057-0.035 0.1246-0.064 0.203l-1.8934 5.6271c-0.057 0.1639-0.1321 0.2709-0.2248 0.3209-0.1 0.057-0.2462 0.1107-0.4388 0.1607-0.064 0.01-0.121 0.029-0.171 0.064-0.057 0.035-0.089 0.082-0.096 0.139 0 0.036 0.015 0.061 0.043 0.075 0.029 0.021 0.057 0.032 0.086 0.032 0.1997 0 0.4099-0.01 0.631-0.021 0.214-0.014 0.4103-0.025 0.5885-0.032h0.3421c0.1427 0 0.2928 0 0.4496 0.011 0.157 0.01 0.2926 0.011 0.4067 0.011 0.064 0 0.1211-0.011 0.1711-0.032 0.057-0.021 0.086-0.053 0.086-0.096 0-0.064-0.029-0.1109-0.086-0.1395-0.05-0.028-0.1041-0.045-0.1607-0.053-0.2283-0.05-0.3852-0.1175-0.4708-0.203-0.079-0.086-0.093-0.2-0.043-0.3427l0.6206-2.0432c0.043-0.1358 0.085-0.2108 0.1282-0.2248 0.05-0.021 0.1143 0 0.1927 0.064 0.064 0.043 0.143 0.085 0.2357 0.1282 0.1 0.05 0.1993 0.075 0.2992 0.075 0.3851 0 0.756-0.1 1.1126-0.2997 0.3567-0.2068 0.6742-0.4744 0.9524-0.8025 0.2781-0.3281 0.4989-0.6846 0.663-1.0697 0.1641-0.3923 0.2465-0.7706 0.2465-1.1343zm-1.185 0.1493c0 0.3352-0.061 0.6673-0.1819 0.9953-0.1212 0.321-0.2744 0.6168-0.4599 0.8878-0.1854 0.2639-0.3743 0.4778-0.5669 0.6418-0.1925 0.157-0.3601 0.2357-0.5028 0.2357l5e-4 5e-4c-0.121 0-0.2103-0.025-0.2676-0.075-0.05-0.057-0.096-0.1358-0.1391-0.2357-0.029-0.086-0.043-0.1782-0.043-0.278 0-0.107 0.018-0.2176 0.053-0.3318l0.9415-2.8778c0.057-0.01 0.1102-0.011 0.1602-0.011 0.057-0.01 0.1107-0.011 0.1607-0.011 0.2639 0.01 0.4704 0.089 0.6202 0.246 0.1497 0.1569 0.2247 0.4277 0.2247 0.8128zm-4.0013-0.8345c0-0.2068-0.085-0.3777-0.2563-0.5132-0.1712-0.1427-0.4351-0.2139-0.7917-0.2139-0.3637 0-0.717 0.1032-1.0593 0.31-0.3424 0.2068-0.6489 0.4777-0.9199 0.8129-0.271 0.3353-0.4854 0.7098-0.6423 1.1234-0.1569 0.4137-0.2351 0.8276-0.2351 1.2413 0 0.2139 0.064 0.4172 0.1927 0.6098 0.1356 0.1855 0.2994 0.3387 0.492 0.4599 0.1997 0.1141 0.3886 0.1711 0.5669 0.1711v-6e-4c0.2996 0 0.571-0.057 0.8134-0.171 0.2426-0.1212 0.4596-0.2856 0.6522-0.4925 0.1926-0.2068 0.357-0.435 0.4925-0.6847 0.014-0.014 0.021-0.031 0.021-0.053 0.01-0.029 0.011-0.054 0.011-0.075 0-0.071-0.032-0.107-0.096-0.107-0.05 0-0.1143 0.039-0.1928 0.1173-0.1426 0.1569-0.2996 0.2926-0.4707 0.4067-0.1712 0.1069-0.3675 0.1607-0.5886 0.1607-0.2425 0-0.4277-0.082-0.5561-0.246-0.1214-0.1712-0.1784-0.3819-0.171-0.6315 0.01-0.093 0.022-0.189 0.043-0.2888 0.021-0.1 0.046-0.1962 0.075-0.2889 0.015-0.035 0.029-0.057 0.043-0.064 0.022-0.014 0.051-0.025 0.086-0.032 0.2711-0.057 0.5525-0.1246 0.8449-0.2031 0.2995-0.079 0.5708-0.1785 0.8134-0.2997 0.2496-0.1212 0.4491-0.267 0.5989-0.4382 0.1569-0.1712 0.2351-0.3749 0.2351-0.6103zm-0.9079-0.064c0 0.01-1e-4 0.021-1e-3 0.032-0.01 0.2069-0.065 0.3851-0.1716 0.5349-0.107 0.1426-0.2422 0.2639-0.4062 0.3638-0.1569 0.1002-0.3213 0.1789-0.4925 0.2356-0.1711 0.05-0.3169 0.089-0.4382 0.1178v-5e-4c-0.057 0.01-0.082-0.014-0.075-0.064 0.021-0.1568 0.075-0.3244 0.1607-0.5028 0.086-0.1783 0.1889-0.3422 0.3101-0.4919 0.1284-0.157 0.264-0.2852 0.4067-0.385 0.1426-0.1 0.2814-0.1499 0.417-0.1499 0.1 0 0.1748 0.036 0.2248 0.107 0.044 0.062 0.065 0.1303 0.065 0.2036zm-5.6286 0.7808c0-0.4422-0.132-0.7918-0.3959-1.0485-0.2568-0.2639-0.6025-0.3958-1.0376-0.3958-0.4422 0-0.8455 0.1106-1.2092 0.3317-0.3566 0.214-0.6632 0.4918-0.9199 0.8341-0.2568 0.3353-0.4562 0.6922-0.5989 1.0702-0.1355 0.378-0.2036 0.7345-0.2036 1.0697 0 0.2711 0.061 0.5137 0.1819 0.7276 0.1284 0.2069 0.2959 0.3745 0.5028 0.5028 0.2139 0.1213 0.439 0.1819 0.6744 0.1819 0.4707 0 0.8878-0.107 1.2516-0.3209 0.3708-0.214 0.688-0.489 0.9519-0.8242 0.2639-0.3424 0.4639-0.7025 0.5994-1.0806 0.1355-0.378 0.2031-0.727 0.2031-1.048zm-1.1555-0.5565c0 0.2496-0.036 0.5278-0.107 0.8345-0.064 0.3067-0.1531 0.6132-0.2671 0.9199-0.107 0.3066-0.232 0.5886-0.3747 0.8454-0.1427 0.2496-0.2922 0.4529-0.4491 0.6098-0.1498 0.1569-0.2997 0.2351-0.4495 0.2351h-6e-4c-0.1212 0-0.2207-0.043-0.2992-0.1281-0.071-0.086-0.1075-0.2213-0.1075-0.4067 0-0.271 0.036-0.56 0.1075-0.8666 0.071-0.3068 0.164-0.61 0.2781-0.9096 0.1212-0.3066 0.2531-0.5811 0.3958-0.8237 0.1427-0.2496 0.289-0.4491 0.4387-0.5989 0.157-0.1497 0.3027-0.2248 0.4382-0.2248 0.1495 0 0.2533 0.046 0.3106 0.139 0.057 0.093 0.086 0.2177 0.086 0.3747zm-3.7341 2.205c0-0.029-0.011-0.054-0.032-0.075-0.021-0.029-0.043-0.043-0.064-0.043s-0.046 0.014-0.075 0.043c-0.021 0.021-0.046 0.043-0.075 0.064-0.036 0.036-0.096 0.089-0.1819 0.1601-0.079 0.071-0.1679 0.1464-0.2677 0.2248-0.1 0.078-0.1961 0.1458-0.2889 0.2031-0.092 0.057-0.1669 0.086-0.2242 0.086-0.1214 0-0.1361-0.118-0.043-0.3534l0.8026-1.9364c0.107-0.2638 0.1607-0.5059 0.1607-0.727 0.01-0.2211-0.043-0.3999-0.1499-0.5354-0.107-0.1355-0.2746-0.2031-0.5028-0.2031-0.271 0-0.5386 0.089-0.8025 0.2677-0.2639 0.1783-0.524 0.4203-0.7808 0.7271-0.2496 0.3066-0.496 0.6599-0.7385 1.0593-0.029 0.043-0.064 0.06-0.107 0.053-0.043-0.01-0.049-0.036-0.021-0.086l0.2242-0.599c0.1139-0.2424 0.1639-0.4707 0.1499-0.6847-0.01-0.221-0.071-0.3993-0.1922-0.5348-0.1212-0.1356-0.2963-0.2036-0.5246-0.2036-0.2781 0-0.5489 0.1037-0.8128 0.3105-0.2568 0.1997-0.517 0.4775-0.7809 0.8341-0.2639 0.3495-0.5352 0.749-0.8133 1.1984-0.021 0.043-0.05 0.061-0.086 0.053-0.035-0.01-0.043-0.036-0.021-0.086l0.6098-1.4655c0.064-0.1641 0.082-0.3104 0.053-0.4388s-0.097-0.2278-0.2036-0.2992c-0.1-0.071-0.2212-0.1069-0.3638-0.1069-0.3067 0.01-0.5563 0.068-0.7488 0.1819-0.1855 0.107-0.36 0.2384-0.524 0.3953-0.043 0.043-0.092 0.1071-0.1499 0.1927-0.057 0.078-0.1036 0.1572-0.139 0.2357-0.035 0.078-0.053 0.1422-0.053 0.1922 0.01 0.064 0.036 0.1 0.086 0.107 0.05 0 0.089-0.017 0.1173-0.053 0.1712-0.1998 0.3282-0.3212 0.4708-0.3638 0.1426-0.05 0.2533-0.075 0.3317-0.075 0.078 0 0.1321 0.028 0.1608 0.086 0.028 0.05 0.024 0.1144-0.011 0.1928l-1.0806 2.6639c-0.043 0.1141-0.078 0.2136-0.1069 0.2992-0.021 0.079-0.032 0.1362-0.032 0.1716 0 0.093 0.025 0.1779 0.075 0.2563 0.057 0.079 0.1215 0.1392 0.1928 0.1819 0.078 0.043 0.1428 0.064 0.1928 0.064 0.1212 0 0.2356-0.068 0.3426-0.2036 0.1141-0.1355 0.246-0.3424 0.3958-0.6206 0.1141-0.2068 0.2354-0.4276 0.3638-0.663 0.1355-0.2354 0.2675-0.4636 0.3959-0.6847 0.1355-0.2282 0.2637-0.4389 0.3849-0.6315 0.1213-0.1926 0.232-0.3527 0.3318-0.4811 0.2211-0.2924 0.4137-0.51 0.5777-0.6527 0.1641-0.1429 0.296-0.2104 0.3959-0.2031 0.057 0 0.1072 0.032 0.1499 0.096 0.05 0.057 0.046 0.1533-0.011 0.2889l-1.1018 2.7497c-0.05 0.1426-0.089 0.2676-0.1178 0.3746-0.029 0.1074-0.043 0.1786-0.043 0.214 0 0.057 0.021 0.1209 0.064 0.1922 0.05 0.064 0.1029 0.118 0.1602 0.1607 0.064 0.043 0.1246 0.064 0.1819 0.064 0.071 0 0.157-0.032 0.2568-0.096 0.107-0.057 0.2177-0.1465 0.3318-0.2677 0.1141-0.1213 0.2173-0.2601 0.3101-0.417 0.1854-0.3138 0.378-0.6315 0.5777-0.9524 0.1997-0.3282 0.3923-0.6346 0.5777-0.9199 0.1854-0.2852 0.3387-0.5172 0.46-0.6955 0.1926-0.2568 0.3639-0.4494 0.5136-0.5778 0.1498-0.1357 0.2748-0.1996 0.3747-0.1922 0.064 0 0.1175 0.036 0.1602 0.107 0.05 0.071 0.046 0.1676-0.011 0.2888l-1.3803 3.2096c-0.036 0.086-0.029 0.1676 0.021 0.246 0.05 0.079 0.1176 0.1393 0.2031 0.1819 0.085 0.05 0.1566 0.075 0.214 0.075 0.3851 0 0.7597-0.1177 1.1234-0.353 0.3638-0.2425 0.6883-0.5314 0.9736-0.8666 0.071-0.072 0.1177-0.1396 0.139-0.2036 0.029-0.064 0.047-0.1318 0.054-0.2031zm-7.9282-2.4831c0-0.1711-0.054-0.3174-0.1607-0.4387-0.107-0.1284-0.264-0.1927-0.4708-0.1927-0.2282 0-0.4671 0.1-0.7168 0.2997-0.2496 0.1925-0.5029 0.4634-0.7596 0.8129-0.2497 0.3424-0.5061 0.7419-0.77 1.1983-0.029 0.05-0.064 0.071-0.107 0.064-0.035-0.014-0.043-0.046-0.021-0.096l0.4388-1.0485c0.093-0.2354 0.1462-0.4423 0.1602-0.6207 0.021-0.1782-0.01-0.3208-0.086-0.4278-0.078-0.107-0.2174-0.1602-0.417-0.1602-0.157 0-0.3177 0.028-0.4817 0.086-0.1569 0.05-0.3032 0.1142-0.4387 0.1927-0.1569 0.1-0.2888 0.2137-0.3958 0.3421-0.1072 0.1213-0.1572 0.2388-0.1499 0.353 0.01 0.057 0.036 0.089 0.086 0.096 0.05 0.01 0.093 0 0.1282-0.032 0.086-0.064 0.1713-0.1175 0.2568-0.1602 0.093-0.05 0.2071-0.075 0.3426-0.075 0.072 0 0.1142 0.029 0.1282 0.086s0 0.1247-0.032 0.2031l-1.0485 2.728c-0.035 0.1141-0.067 0.2104-0.096 0.2888-0.021 0.079-0.032 0.1505-0.032 0.2145 0 0.079 0.029 0.1499 0.086 0.2139s0.1246 0.1104 0.203 0.1391c0.085 0.035 0.1554 0.052 0.2124 0.053h6e-4c0.1139-3e-4 0.235-0.079 0.3632-0.2352 0.1284-0.1568 0.2673-0.3712 0.4171-0.6423 0.093-0.164 0.2033-0.3529 0.3317-0.5669 0.1284-0.2211 0.2567-0.4387 0.385-0.6527 0.1355-0.2139 0.2568-0.4097 0.3638-0.588 0.1139-0.1855 0.1995-0.3249 0.2569-0.4176 0.1711-0.2639 0.3174-0.4635 0.4387-0.5989 0.1284-0.1427 0.246-0.214 0.3529-0.214 0.086 0 0.1466 0.043 0.1819 0.1282 0.036 0.079 0.061 0.1785 0.075 0.2997 0.022 0.1356 0.05 0.2387 0.086 0.3101 0.043 0.071 0.1003 0.1069 0.1716 0.1069 0.1069 0 0.2139-0.049 0.3209-0.1493 0.1142-0.1 0.2067-0.2323 0.278-0.3964 0.078-0.164 0.1179-0.3311 0.1179-0.5023zm-4.9522 0.1174c0-0.2068-0.086-0.3777-0.2568-0.5132-0.1712-0.1427-0.435-0.2139-0.7917-0.2139-0.3637 0-0.7165 0.1032-1.0589 0.31-0.3423 0.2068-0.6492 0.4777-0.9203 0.8129-0.271 0.3353-0.4849 0.7098-0.6418 1.1234-0.1569 0.4137-0.2352 0.8276-0.2352 1.2413 0 0.2139 0.064 0.4172 0.1923 0.6098 0.1355 0.1855 0.2999 0.3387 0.4925 0.4599 0.1996 0.1141 0.3885 0.1711 0.5668 0.1711l-1e-3 -6e-4c0.2995 0 0.5703-0.057 0.8129-0.171 0.2424-0.1212 0.4601-0.2856 0.6527-0.4925 0.1925-0.2068 0.3564-0.435 0.4919-0.6847 0.014-0.014 0.021-0.031 0.021-0.053 0.01-0.029 0.011-0.054 0.011-0.075 0-0.071-0.032-0.107-0.096-0.107-0.05 0-0.1137 0.039-0.1922 0.1173-0.1426 0.1569-0.2996 0.2926-0.4708 0.4067-0.1712 0.1069-0.3675 0.1607-0.5886 0.1607-0.2425 0-0.4277-0.082-0.556-0.246-0.1215-0.1712-0.1789-0.3819-0.1716-0.6315 0.01-0.093 0.022-0.189 0.043-0.2888 0.021-0.1 0.046-0.1962 0.075-0.2889 0.015-0.035 0.029-0.057 0.043-0.064 0.022-0.014 0.05-0.025 0.086-0.032 0.271-0.057 0.5531-0.1246 0.8455-0.2031 0.2996-0.079 0.5704-0.1785 0.8128-0.2997 0.2497-0.1212 0.4492-0.267 0.599-0.4382 0.1569-0.1712 0.2356-0.3749 0.2356-0.6103zm-0.9079-0.064c-1e-4 0.01-7e-4 0.021 0 0.032-0.01 0.2069-0.064 0.3851-0.171 0.5349-0.107 0.1426-0.2427 0.2639-0.4067 0.3638-0.157 0.1002-0.3209 0.1789-0.492 0.2356-0.1712 0.05-0.3175 0.089-0.4387 0.1178l5e-4 -5e-4c-0.057 0.01-0.082-0.014-0.075-0.064 0.021-0.1568 0.075-0.3244 0.1602-0.5028 0.086-0.1783 0.1893-0.3422 0.3105-0.4919 0.1284-0.157 0.2636-0.2852 0.4062-0.385 0.1427-0.1 0.282-0.1499 0.4176-0.1499 0.1 0 0.1742 0.036 0.2242 0.107 0.044 0.062 0.066 0.1303 0.066 0.2036zm-1.7906-3.0618c0-0.04-0.011-0.068-0.038-0.084-0.028-0.029-0.068-0.043-0.1178-0.043-0.071 0-0.2319 0.025-0.4816 0.075-0.2496 0.043-0.6205 0.064-1.1126 0.064h-1.7012c-0.2211 0-0.46-0.01-0.7167-0.021-0.2568-0.014-0.4601-0.021-0.6098-0.021-0.093 0-0.1711 0.015-0.2351 0.043-0.057 0.021-0.089 0.057-0.096 0.107-0.01 0.043 0 0.085 0.032 0.1281 0.029 0.035 0.096 0.068 0.2031 0.096 0.2212 0.05 0.3638 0.125 0.4278 0.2248 0.071 0.1 0.068 0.2707-0.011 0.5132l-1.4873 4.8358c-0.078 0.2425-0.1816 0.4138-0.31 0.5137-0.1213 0.092-0.3208 0.167-0.5989 0.2243-0.092 0.015-0.1675 0.04-0.2248 0.075-0.057 0.029-0.089 0.075-0.096 0.139-0.01 0.05 0.01 0.086 0.043 0.107 0.036 0.021 0.086 0.032 0.1499 0.032 0.2496 0 0.4996-0.011 0.7493-0.032 0.2496-0.021 0.4884-0.032 0.7167-0.032 0.1426 0 0.3028 0 0.4811 0.011 0.1784 0.01 0.3603 0.013 0.5457 0.021 0.1855 0.014 0.3605 0.021 0.5245 0.021 0.064 0 0.1211-0.011 0.1711-0.032 0.057-0.021 0.089-0.057 0.096-0.107 0.01-0.064 0-0.1103-0.032-0.139-0.029-0.035-0.082-0.057-0.1607-0.064-0.214-0.036-0.3816-0.078-0.5029-0.1281-0.114-0.05-0.1852-0.1287-0.2139-0.2357-0.022-0.1069 0-0.2564 0.053-0.449l0.5669-1.9364c0.029-0.1069 0.082-0.1856 0.1602-0.2356 0.079-0.05 0.1785-0.075 0.2997-0.075h0.2998c0.1426 0 0.2852 0 0.4278 0.011h0.3318c0.1215 0 0.214 0.043 0.278 0.1287 0.071 0.086 0.107 0.2351 0.107 0.4491 0 0.057 0.014 0.1137 0.043 0.171 0.028 0.05 0.068 0.075 0.1178 0.075 0.035 0 0.068-0.018 0.096-0.053 0.036-0.043 0.065-0.1071 0.086-0.1927 0.057-0.271 0.1214-0.5169 0.1928-0.738 0.078-0.2282 0.178-0.4852 0.2992-0.7705 0.029-0.064 0.033-0.1145 0.011-0.1498-0.022-0.035-0.051-0.053-0.086-0.053s-0.082 0.017-0.139 0.053c-0.05 0.036-0.096 0.086-0.139 0.1498-0.2425 0.3493-0.5564 0.5276-0.9415 0.5349l-0.8129 0.011c-0.1573 0-0.2535-0.032-0.2889-0.096-0.029-0.064-0.033-0.1354-0.011-0.2139 0.029-0.093 0.076-0.2427 0.1395-0.4496 0.064-0.2139 0.1318-0.4384 0.2031-0.6738 0.078-0.2425 0.1457-0.4564 0.2031-0.6419 0.057-0.1924 0.096-0.3138 0.1178-0.3638 0.043-0.1212 0.1141-0.2212 0.2139-0.2997 0.1-0.086 0.2281-0.1246 0.385-0.1173h0.9845c0.1354 0.01 0.2493 0.036 0.3421 0.086 0.1 0.043 0.1783 0.1071 0.2356 0.1927 0.064 0.093 0.1068 0.2067 0.1282 0.3421 0.021 0.1356 0.032 0.2818 0.032 0.4388 0 0.064 0.011 0.1175 0.032 0.1602 0.021 0.035 0.053 0.053 0.096 0.053 0.05 0 0.089-0.018 0.1178-0.053 0.028-0.043 0.045-0.092 0.053-0.1494 0.036-0.2211 0.086-0.4318 0.1498-0.6315 0.072-0.2068 0.1254-0.3781 0.1608-0.5136 0.014-0.05 0.025-0.093 0.032-0.1282 0.014-0.043 0.021-0.082 0.021-0.1178 0-0.016 0.01-0.031 0.01-0.044zm-8.4574-0.1587c0-0.107-0.043-0.1602-0.1282-0.1602-0.1069 0-0.2107 0.025-0.3105 0.075-0.1 0.043-0.2137 0.1-0.3421 0.171-0.071 0.043-0.1501 0.1034-0.2357 0.1819-0.079 0.071-0.1285 0.1532-0.1498 0.246-0.057 0.1997-0.1067 0.3992-0.1494 0.5989-0.043 0.1926-0.1002 0.3959-0.1715 0.6098-0.035 0.1-0.067 0.1998-0.096 0.2997-0.021 0.1-0.053 0.2106-0.096 0.3318-0.014 0.05-0.025 0.1105-0.032 0.1819-0.01 0.064 0.01 0.096 0.053 0.096l5e-4 -5e-4c0.029 0 0.082-0.032 0.1602-0.096 0.078-0.071 0.1458-0.1426 0.2031-0.214 0.093-0.1069 0.1927-0.2357 0.2997-0.3855 0.1141-0.1569 0.2285-0.3277 0.3426-0.5131 0.1213-0.1855 0.2314-0.3712 0.3313-0.5566 0.1071-0.1926 0.1928-0.3782 0.2568-0.5565 0.043-0.107 0.064-0.2102 0.064-0.3101zm-1.6154 0c0-0.107-0.043-0.1602-0.1287-0.1602-0.107 0-0.2102 0.025-0.31 0.075-0.1 0.043-0.2143 0.1-0.3426 0.171-0.071 0.043-0.1496 0.1034-0.2352 0.1819-0.079 0.071-0.1285 0.1532-0.1498 0.246-0.057 0.1997-0.1072 0.3992-0.1499 0.5989-0.043 0.1926-0.1 0.3959-0.171 0.6098-0.035 0.1-0.068 0.1998-0.096 0.2997-0.021 0.1-0.053 0.2106-0.096 0.3318-0.014 0.05-0.025 0.1105-0.032 0.1819-0.01 0.064 0.01 0.096 0.053 0.096v-5e-4c0.028 0 0.082-0.032 0.1607-0.096 0.078-0.071 0.1458-0.1426 0.2031-0.214 0.093-0.1069 0.1927-0.2357 0.2997-0.3855 0.1142-0.1569 0.228-0.3277 0.3421-0.5131 0.1212-0.1855 0.2319-0.3712 0.3318-0.5566 0.1072-0.1926 0.1928-0.3782 0.2568-0.5565 0.043-0.107 0.064-0.2102 0.064-0.3101z" stroke-width=".48012"/></g><g id="text10604" transform="rotate(90)" fill="#00e676" stroke-linecap="square" stroke-miterlimit="30" stroke-width=".48012" style="paint-order:markers fill stroke" aria-label='" Fermo eppur si muove "'><path id="path8759" d="m1328.1-3094.2c0 0.042 0.02 0.063 0.055 0.063 0.028 0 0.082-0.032 0.1602-0.096 0.078-0.071 0.1457-0.1426 0.2031-0.214 0.093-0.107 0.1927-0.2352 0.2997-0.3849 0.1141-0.157 0.2286-0.3282 0.3426-0.5137 0.1213-0.1854 0.2314-0.3706 0.3313-0.556 0.1071-0.1926 0.1928-0.3783 0.2568-0.5566 0.043-0.107 0.064-0.2102 0.064-0.3101 0-0.1069-0.043-0.1607-0.1282-0.1607-0.1069 0-0.2107 0.025-0.3106 0.075-0.1 0.043-0.2137 0.1002-0.3421 0.1715-0.071 0.043-0.15 0.1035-0.2356 0.1819-0.079 0.071-0.128 0.1533-0.1493 0.246-0.057 0.1997-0.1072 0.3992-0.1499 0.5989-0.043 0.1926-0.1 0.3958-0.1711 0.6098-0.035 0.1-0.067 0.1999-0.096 0.2997-0.021 0.1-0.053 0.2105-0.096 0.3318-0.014 0.05-0.025 0.1106-0.032 0.1819v0.033zm1.6154 0c0 0.042 0.02 0.063 0.055 0.063 0.029 0 0.082-0.032 0.1602-0.096 0.078-0.071 0.1463-0.1426 0.2036-0.214 0.093-0.107 0.1923-0.2352 0.2992-0.3849 0.1141-0.157 0.2285-0.3282 0.3426-0.5137 0.1213-0.1854 0.2315-0.3706 0.3313-0.556 0.1072-0.1926 0.1928-0.3783 0.2568-0.5566 0.043-0.107 0.064-0.2102 0.064-0.3101 0-0.1069-0.043-0.1607-0.1282-0.1607-0.107 0-0.2108 0.025-0.3106 0.075-0.1 0.043-0.2136 0.1002-0.342 0.1715-0.071 0.043-0.1501 0.1035-0.2357 0.1819-0.078 0.071-0.128 0.1533-0.1493 0.246-0.057 0.1997-0.1072 0.3992-0.1499 0.5989-0.043 0.1926-0.1 0.3958-0.171 0.6098-0.035 0.1-0.067 0.1999-0.096 0.2997-0.021 0.1-0.053 0.2105-0.096 0.3318-0.014 0.05-0.025 0.1106-0.032 0.1819v0.033zm2.9952 4.4953c0 0.032 0.018 0.056 0.044 0.072 0.036 0.021 0.086 0.032 0.1499 0.032 0.2496 0 0.4992-0.011 0.7488-0.032s0.4886-0.032 0.7168-0.032c0.1427 0 0.3033 0 0.4816 0.011 0.1783 0.01 0.3603 0.013 0.5457 0.021 0.1855 0.014 0.36 0.021 0.524 0.021 0.064 0 0.1211-0.011 0.1711-0.032 0.057-0.021 0.089-0.057 0.096-0.107 0.01-0.064 0-0.1103-0.032-0.139-0.029-0.035-0.082-0.057-0.1602-0.064-0.2139-0.036-0.3815-0.078-0.5028-0.1281-0.114-0.05-0.1852-0.1287-0.2139-0.2357-0.022-0.107 0-0.2564 0.053-0.449l0.5669-1.9363c0.028-0.1069 0.082-0.1857 0.1607-0.2357 0.079-0.05 0.1785-0.075 0.2997-0.075h0.2992c0.1427 0 0.2853 0 0.4279 0.011h0.3318c0.1214 0 0.214 0.043 0.278 0.1287 0.071 0.086 0.107 0.2351 0.107 0.4491 0 0.057 0.015 0.1142 0.043 0.1715 0.028 0.05 0.067 0.075 0.1173 0.075 0.035 0 0.067-0.018 0.096-0.053 0.036-0.043 0.065-0.1071 0.086-0.1927 0.057-0.271 0.1209-0.5168 0.1922-0.7379 0.078-0.2282 0.1785-0.4852 0.2998-0.7705 0.029-0.065 0.032-0.1146 0.011-0.1499-0.022-0.035-0.05-0.053-0.086-0.053-0.035 0-0.082 0.017-0.139 0.053-0.05 0.036-0.096 0.086-0.139 0.1499-0.2425 0.3492-0.5564 0.5275-0.9415 0.5348l-0.8134 0.011c-0.1572 0-0.2536-0.032-0.2889-0.096-0.029-0.064-0.032-0.1355-0.011-0.214 0.029-0.093 0.075-0.2428 0.139-0.4496 0.064-0.214 0.1317-0.4385 0.2031-0.6738 0.078-0.2426 0.1462-0.4564 0.2036-0.6418 0.057-0.1925 0.096-0.3139 0.1178-0.3639 0.043-0.1212 0.1141-0.2212 0.2139-0.2997 0.1-0.086 0.2281-0.1246 0.385-0.1173h0.9844c0.1356 0.01 0.2494 0.036 0.3421 0.086 0.1002 0.043 0.1785 0.1072 0.2352 0.1928 0.064 0.093 0.1073 0.2065 0.1286 0.3421 0.021 0.1354 0.032 0.2818 0.032 0.4387 0 0.064 0.011 0.1175 0.032 0.1602 0.021 0.035 0.053 0.053 0.096 0.053 0.05 0 0.089-0.018 0.1174-0.053 0.028-0.043 0.046-0.092 0.053-0.1494 0.036-0.221 0.086-0.4317 0.1498-0.6314 0.072-0.2069 0.1249-0.3782 0.1602-0.5137 0.014-0.05 0.025-0.093 0.032-0.1282 0.014-0.043 0.021-0.082 0.021-0.1178 0.014-0.064 0-0.1068-0.032-0.1281-0.028-0.029-0.068-0.043-0.1178-0.043-0.071 0-0.232 0.026-0.4816 0.075-0.2496 0.043-0.6205 0.064-1.1126 0.064h-1.7007c-0.2211 0-0.4605-0.01-0.7173-0.021-0.2567-0.014-0.4599-0.021-0.6097-0.021-0.093 0-0.1712 0.014-0.2352 0.043-0.057 0.021-0.089 0.057-0.096 0.107-0.01 0.043 0 0.086 0.032 0.1286 0.028 0.035 0.096 0.068 0.203 0.096 0.2214 0.05 0.3644 0.1244 0.4284 0.2242 0.071 0.1 0.067 0.2712-0.011 0.5137l-1.4868 4.8359c-0.078 0.2425-0.1822 0.4138-0.3105 0.5136-0.1213 0.092-0.3208 0.167-0.599 0.2243-0.092 0.015-0.1674 0.04-0.2248 0.075-0.057 0.029-0.088 0.075-0.096 0.1391v0.035zm5.9686-1.0191c0 0.214 0.064 0.4173 0.1923 0.6098 0.1355 0.1855 0.2999 0.3387 0.4924 0.4599 0.1998 0.1142 0.3886 0.1711 0.5669 0.1711v-5e-4c0.2995 0 0.5704-0.057 0.8129-0.1711 0.2425-0.1213 0.4601-0.2857 0.6526-0.4925 0.1926-0.2068 0.3565-0.4351 0.492-0.6847 0.014-0.014 0.021-0.031 0.021-0.053 0.01-0.029 0.011-0.054 0.011-0.075 0-0.071-0.032-0.107-0.096-0.107-0.05 0-0.1143 0.039-0.1927 0.1173-0.1427 0.1569-0.2997 0.2926-0.4708 0.4067-0.1712 0.107-0.3675 0.1607-0.5886 0.1607-0.2425 0-0.4276-0.082-0.556-0.2465-0.1214-0.1711-0.1784-0.3813-0.1711-0.6309 0.01-0.093 0.022-0.1891 0.043-0.2889 0.021-0.1 0.046-0.1961 0.075-0.2889 0.015-0.035 0.029-0.057 0.043-0.064 0.022-0.014 0.051-0.025 0.086-0.032 0.2711-0.057 0.5525-0.1247 0.8449-0.2031 0.2996-0.078 0.5709-0.1784 0.8134-0.2997 0.2496-0.1213 0.4492-0.2676 0.599-0.4387 0.1569-0.1712 0.2351-0.3745 0.2351-0.6098 0-0.2069-0.086-0.3776-0.2568-0.5132-0.1712-0.1426-0.4351-0.2139-0.7917-0.2139-0.3638 0-0.7165 0.1032-1.0589 0.31-0.3424 0.2069-0.6493 0.4777-0.9203 0.8129s-0.4849 0.7098-0.6419 1.1235c-0.1569 0.4136-0.2351 0.8276-0.2351 1.2412zm1.4113-1.5875c-1e-4 -0.01 1e-4 -0.011 1e-3 -0.017 0.021-0.157 0.075-0.3246 0.1608-0.5029 0.086-0.1783 0.1887-0.3421 0.31-0.4919 0.1283-0.1569 0.264-0.2851 0.4067-0.385 0.1427-0.1 0.2816-0.1499 0.417-0.1499 0.1 0 0.1748 0.036 0.2248 0.107s0.071 0.1495 0.064 0.2351c-0.01 0.2068-0.065 0.3851-0.1716 0.5349-0.107 0.1426-0.2421 0.2639-0.4061 0.3638-0.157 0.1-0.3214 0.1783-0.4925 0.2356-0.1712 0.05-0.3175 0.089-0.4387 0.1179l5e-4 -6e-4c-0.05 0.01-0.075-0.01-0.076-0.046zm2.8034 2.4221c0 0.079 0.028 0.1499 0.086 0.2139 0.057 0.064 0.1252 0.1109 0.2036 0.1396 0.085 0.035 0.1566 0.053 0.214 0.053 0.1141 0 0.2354-0.079 0.3638-0.2356 0.1284-0.157 0.2673-0.3709 0.417-0.6419 0.093-0.164 0.2034-0.3529 0.3318-0.5668 0.1283-0.2212 0.2571-0.4388 0.3855-0.6527 0.1355-0.214 0.2568-0.4103 0.3638-0.5886 0.1138-0.1855 0.199-0.3243 0.2563-0.417 0.1712-0.2639 0.3175-0.4634 0.4388-0.599 0.1283-0.1426 0.2459-0.2144 0.3529-0.2144 0.086 0 0.1466 0.043 0.1819 0.1286 0.036 0.079 0.061 0.1785 0.075 0.2998 0.022 0.1354 0.051 0.2387 0.086 0.31 0.043 0.071 0.1 0.107 0.1711 0.107 0.107 0 0.2139-0.05 0.3209-0.1499 0.1141-0.1 0.2068-0.2317 0.278-0.3958 0.078-0.1641 0.1178-0.3317 0.1178-0.5028 0-0.1712-0.053-0.3175-0.1602-0.4387-0.1069-0.1284-0.2639-0.1923-0.4707-0.1923-0.2282 0-0.4671 0.1-0.7168 0.2992-0.2496 0.1926-0.5028 0.4639-0.7596 0.8134-0.2496 0.3423-0.5067 0.7414-0.7705 1.1979-0.029 0.05-0.064 0.071-0.107 0.064-0.035-0.014-0.042-0.046-0.021-0.096l0.4383-1.0485c0.093-0.2354 0.1467-0.4423 0.1607-0.6206 0.021-0.1783-0.01-0.3209-0.086-0.4279-0.079-0.1069-0.2174-0.1607-0.4171-0.1607-0.1569 0-0.3175 0.029-0.4816 0.085-0.1568 0.05-0.3027 0.1143-0.4382 0.1927-0.1569 0.1-0.2889 0.2137-0.3958 0.3421-0.1072 0.1212-0.1572 0.2388-0.1499 0.353 0.01 0.057 0.036 0.089 0.086 0.096 0.05 0.01 0.093 0 0.1287-0.032 0.086-0.064 0.1707-0.1176 0.2563-0.1602 0.093-0.05 0.2071-0.075 0.3426-0.075 0.072 0 0.1141 0.029 0.1281 0.086s0 0.1246-0.032 0.2031l-1.048 2.728c-0.035 0.1141-0.067 0.2105-0.096 0.2889-0.021 0.079-0.032 0.1499-0.032 0.2139zm4.7398-0.097c0 0.093 0.025 0.1783 0.075 0.2568 0.057 0.079 0.1215 0.1392 0.1928 0.1819 0.078 0.043 0.1422 0.064 0.1922 0.064l5e-4 5e-4c0.1213 0 0.2357-0.068 0.3427-0.2036 0.1141-0.1355 0.2461-0.3425 0.3958-0.6206 0.1141-0.2069 0.2354-0.4277 0.3638-0.663 0.1355-0.2354 0.2674-0.4637 0.3958-0.6848 0.1356-0.2282 0.2638-0.4389 0.385-0.6314 0.1212-0.1926 0.2319-0.3528 0.3318-0.4812 0.2211-0.2924 0.4137-0.51 0.5777-0.6526 0.1641-0.1428 0.296-0.2105 0.3959-0.2031 0.057 0 0.1067 0.032 0.1493 0.096 0.05 0.057 0.046 0.1533-0.011 0.2889l-1.1018 2.7497c-0.05 0.1426-0.089 0.2672-0.1178 0.3741-0.029 0.1073-0.043 0.1791-0.043 0.2145 0 0.057 0.021 0.1209 0.064 0.1922 0.05 0.064 0.1029 0.118 0.1602 0.1607 0.064 0.043 0.1246 0.064 0.1819 0.064 0.071 0 0.157-0.032 0.2568-0.096 0.107-0.057 0.2177-0.1465 0.3318-0.2677 0.1141-0.1213 0.2174-0.2602 0.3101-0.417 0.1854-0.3139 0.378-0.6315 0.5777-0.9524 0.1997-0.3281 0.3923-0.6346 0.5777-0.9199s0.3387-0.5173 0.46-0.6956c0.1925-0.2568 0.3638-0.4493 0.5136-0.5777 0.1498-0.1357 0.2748-0.1996 0.3747-0.1922 0.064 0 0.1175 0.036 0.1602 0.1069 0.05 0.071 0.046 0.1676-0.011 0.2889l-1.3803 3.2091c-0.036 0.086-0.029 0.168 0.021 0.2465 0.05 0.079 0.1175 0.1392 0.2031 0.1819 0.085 0.05 0.1566 0.075 0.214 0.075 0.3851 0 0.7597-0.118 1.1234-0.3534 0.3637-0.2425 0.6883-0.5314 0.9736-0.8666 0.071-0.072 0.1177-0.1391 0.139-0.2031 0.028-0.064 0.046-0.1318 0.053-0.2031 0-0.029-0.011-0.054-0.032-0.075-0.021-0.029-0.043-0.043-0.064-0.043s-0.046 0.015-0.075 0.043c-0.021 0.021-0.046 0.043-0.075 0.064-0.036 0.036-0.096 0.089-0.1819 0.1602-0.078 0.071-0.1678 0.1464-0.2676 0.2248-0.1 0.078-0.1962 0.1458-0.2889 0.2031-0.092 0.057-0.1675 0.086-0.2248 0.086-0.1214 0-0.1356-0.1181-0.043-0.3535l0.8025-1.9363c0.107-0.2638 0.1602-0.506 0.1602-0.7271 0.01-0.2211-0.043-0.3998-0.1498-0.5353-0.107-0.1355-0.2746-0.2031-0.5028-0.2031-0.2711 0-0.5382 0.089-0.8021 0.2672-0.2638 0.1783-0.5245 0.4209-0.7813 0.7276-0.2496 0.3066-0.4954 0.6599-0.7379 1.0593-0.029 0.043-0.064 0.061-0.107 0.053-0.043-0.01-0.05-0.035-0.021-0.085l0.2248-0.5989c0.1139-0.2425 0.1639-0.4708 0.1499-0.6848-0.01-0.2211-0.072-0.3998-0.1928-0.5353-0.1213-0.1355-0.2958-0.2031-0.524-0.2031-0.2781 0-0.5495 0.1032-0.8134 0.31-0.2567 0.1998-0.5169 0.478-0.7808 0.8346-0.2639 0.3495-0.5347 0.7491-0.8129 1.1984-0.021 0.043-0.05 0.061-0.085 0.053-0.035-0.01-0.042-0.036-0.021-0.086l0.6097-1.4655c0.064-0.164 0.082-0.3104 0.053-0.4388s-0.096-0.2283-0.2031-0.2997c-0.1-0.071-0.2212-0.1069-0.3638-0.1069-0.3068 0.01-0.5563 0.068-0.7488 0.1819-0.1855 0.107-0.3605 0.2389-0.5245 0.3958-0.042 0.043-0.093 0.1072-0.1499 0.1928-0.057 0.078-0.1037 0.1566-0.139 0.2351-0.035 0.078-0.053 0.1427-0.053 0.1927 0.01 0.064 0.036 0.1 0.086 0.107 0.05 0 0.089-0.017 0.1178-0.053 0.1711-0.1999 0.3281-0.3211 0.4708-0.3638 0.1426-0.05 0.2528-0.075 0.3312-0.075 0.078 0 0.1321 0.029 0.1607 0.086 0.028 0.05 0.024 0.1143-0.011 0.1928l-1.0806 2.6639c-0.043 0.1141-0.078 0.2136-0.1069 0.2992-0.021 0.079-0.032 0.1357-0.032 0.1711zm8.3556-0.9199c0 0.271 0.061 0.5136 0.1819 0.7276 0.1284 0.2068 0.296 0.3744 0.5028 0.5028 0.214 0.1213 0.4385 0.1819 0.6738 0.1819 0.4708 0 0.8879-0.1074 1.2517-0.3214 0.3708-0.2139 0.6885-0.4884 0.9523-0.8237 0.264-0.3423 0.4635-0.7026 0.599-1.0806s0.2031-0.7275 0.2031-1.0485c0-0.4422-0.1315-0.7912-0.3954-1.048-0.2568-0.2638-0.6031-0.3958-1.0381-0.3958-0.4422 0-0.845 0.1102-1.2088 0.3312-0.3565 0.214-0.6635 0.4923-0.9203 0.8346-0.2567 0.3352-0.4563 0.6917-0.5989 1.0697-0.1356 0.378-0.2031 0.735-0.2031 1.0702zm1.1549 0.492c0-0.271 0.036-0.5599 0.107-0.8666s0.1639-0.61 0.278-0.9095c0.1213-0.3068 0.2532-0.5813 0.3959-0.8238 0.1426-0.2496 0.2889-0.4491 0.4387-0.5989 0.1569-0.1498 0.3033-0.2248 0.4387-0.2248 0.1496 0 0.2528 0.046 0.3101 0.139 0.057 0.093 0.086 0.2178 0.086 0.3747 0 0.2497-0.036 0.5279-0.107 0.8346-0.064 0.3066-0.1535 0.6131-0.2677 0.9198-0.107 0.3067-0.232 0.5887-0.3746 0.8454-0.1427 0.2497-0.2921 0.4529-0.4491 0.6098-0.1497 0.1569-0.2998 0.2351-0.4496 0.2351-0.1212 0-0.2213-0.043-0.2997-0.1281-0.071-0.086-0.107-0.2212-0.107-0.4067zm5.8415-0.3101c0 0.214 0.064 0.4173 0.1928 0.6098 0.1355 0.1855 0.2994 0.3387 0.492 0.4599 0.1996 0.1142 0.3885 0.1711 0.5668 0.1711l-1e-3 -5e-4c0.2995 0 0.5709-0.057 0.8134-0.1711 0.2425-0.1213 0.4601-0.2857 0.6527-0.4925 0.1925-0.2068 0.3564-0.4351 0.4919-0.6847 0.014-0.014 0.021-0.031 0.021-0.053 0.01-0.029 0.011-0.054 0.011-0.075 0-0.071-0.032-0.107-0.096-0.107-0.05 0-0.1139 0.039-0.1923 0.1173-0.1426 0.1569-0.2996 0.2926-0.4708 0.4067-0.1711 0.107-0.3674 0.1607-0.5885 0.1607-0.2425 0-0.4282-0.082-0.5566-0.2465-0.1215-0.1711-0.1784-0.3813-0.171-0.6309 0.01-0.093 0.022-0.1891 0.043-0.2889 0.021-0.1 0.046-0.1961 0.075-0.2889 0.015-0.035 0.029-0.057 0.043-0.064 0.022-0.014 0.05-0.025 0.086-0.032 0.271-0.057 0.5529-0.1247 0.8454-0.2031 0.2995-0.078 0.5704-0.1784 0.8129-0.2997 0.2496-0.1213 0.4492-0.2676 0.5989-0.4387 0.1569-0.1712 0.2356-0.3745 0.2356-0.6098 0-0.2069-0.086-0.3776-0.2568-0.5132-0.1711-0.1426-0.4351-0.2139-0.7917-0.2139-0.3638 0-0.717 0.1032-1.0593 0.31-0.3424 0.2069-0.6489 0.4777-0.9199 0.8129-0.2711 0.3352-0.4849 0.7098-0.6418 1.1235-0.1569 0.4136-0.2357 0.8276-0.2357 1.2412zm1.4113-1.5875c-1e-4 -0.01 1e-4 -0.011 0-0.017 0.021-0.157 0.075-0.3246 0.1607-0.5029 0.085-0.1783 0.1888-0.3421 0.31-0.4919 0.1284-0.1569 0.2641-0.2851 0.4067-0.385 0.1426-0.1 0.2815-0.1499 0.4171-0.1499 0.1 0 0.1748 0.036 0.2248 0.107s0.071 0.1495 0.064 0.2351c-0.01 0.2068-0.064 0.3851-0.171 0.5349-0.107 0.1426-0.2426 0.2639-0.4067 0.3638-0.1569 0.1-0.3208 0.1783-0.492 0.2356-0.1712 0.05-0.3175 0.089-0.4387 0.1179v-6e-4c-0.05 0.01-0.075-0.01-0.076-0.046zm1.1881 5.61c0 0.036 0.014 0.061 0.043 0.075 0.029 0.021 0.057 0.032 0.086 0.032 0.1996 0 0.4103-0.01 0.6314-0.021 0.214-0.014 0.4099-0.025 0.5881-0.032h0.3426c0.1426 0 0.2922 0 0.4491 0.011 0.1569 0.01 0.2926 0.011 0.4067 0.011 0.064 0 0.1211-0.011 0.1711-0.032 0.057-0.021 0.086-0.053 0.086-0.096 0-0.064-0.029-0.1104-0.086-0.139-0.05-0.028-0.1029-0.045-0.1602-0.053-0.2282-0.05-0.3852-0.118-0.4708-0.2036-0.079-0.086-0.093-0.1995-0.043-0.3421l0.6206-2.0433c0.043-0.1358 0.086-0.2108 0.1287-0.2248 0.05-0.021 0.1138 1e-4 0.1922 0.064 0.064 0.043 0.143 0.085 0.2357 0.1281 0.1 0.05 0.1993 0.075 0.2992 0.075 0.3851 0 0.756-0.099 1.1126-0.2992 0.3566-0.2068 0.6742-0.4744 0.9524-0.8025 0.2781-0.3281 0.4994-0.6846 0.6635-1.0697 0.164-0.3923 0.246-0.7705 0.246-1.1343 0-0.271-0.061-0.5099-0.1819-0.7167-0.1142-0.214-0.2924-0.3816-0.5349-0.5029-0.2353-0.1283-0.5386-0.1927-0.9095-0.1927-0.093 0-0.1821 0.01-0.2677 0.021-0.086 0.015-0.1745 0.029-0.2671 0.043-0.028 0.01-0.046-0.01-0.053-0.043-0.01-0.043 0-0.1 0.011-0.1711l0.139-0.4816c0.036-0.1429 0.029-0.2461-0.021-0.3101-0.043-0.071-0.121-0.1069-0.2351-0.1069-0.1997 0-0.3748 0.082-0.5245 0.246-0.1498 0.1568-0.2817 0.4026-0.3959 0.7379-0.036 0.1069-0.075 0.1856-0.1178 0.2356-0.035 0.043-0.078 0.072-0.1281 0.086-0.2711 0.1-0.4919 0.193-0.6631 0.2786-0.1712 0.078-0.3142 0.1422-0.4284 0.1922-0.057 0.021-0.1101 0.053-0.1601 0.096s-0.075 0.1-0.075 0.1711c0 0.064 0.028 0.1038 0.086 0.1178 0.057 0.015 0.1137 0.01 0.1711-0.021 0.1569-0.064 0.2893-0.1103 0.3963-0.139 0.1141-0.036 0.2461-0.072 0.3959-0.107 0.086-0.015 0.1353-0.01 0.1493 0.021 0.021 0.028 0.025 0.071 0.011 0.1282-0.014 0.057-0.035 0.1251-0.064 0.2036l-1.894 5.627c-0.057 0.164-0.1315 0.2709-0.2242 0.3209-0.1 0.057-0.2462 0.1107-0.4388 0.1607-0.064 0.01-0.121 0.029-0.171 0.064-0.057 0.035-0.089 0.082-0.096 0.139zm3.1465-3.776c0-0.107 0.017-0.2177 0.053-0.3317l0.9415-2.8779c0.057-0.01 0.1107-0.011 0.1607-0.011 0.057-0.01 0.1102-0.011 0.1602-0.011 0.2639 0.01 0.4708 0.089 0.6206 0.246 0.1498 0.1569 0.2248 0.4277 0.2248 0.8129 0 0.3352-0.061 0.6672-0.1819 0.9952-0.1212 0.321-0.2749 0.6168-0.4604 0.8878-0.1854 0.264-0.3743 0.4779-0.5669 0.6419-0.1926 0.1569-0.3602 0.2351-0.5028 0.2351h1e-3c-0.121 0-0.2103-0.025-0.2676-0.075-0.05-0.057-0.096-0.1359-0.1391-0.2357-0.029-0.086-0.043-0.1781-0.043-0.278zm2.1916 3.776c0 0.036 0.015 0.061 0.043 0.075 0.029 0.021 0.057 0.032 0.086 0.032 0.1997 0 0.4099-0.01 0.6309-0.021 0.214-0.014 0.4104-0.025 0.5886-0.032h0.3426c0.1426 0 0.2922 0 0.4491 0.011 0.1569 0.01 0.2926 0.011 0.4067 0.011 0.064 0 0.121-0.011 0.171-0.032 0.057-0.021 0.086-0.053 0.086-0.096 0-0.064-0.028-0.1104-0.086-0.139-0.05-0.028-0.1033-0.045-0.1607-0.053-0.2282-0.05-0.3851-0.118-0.4707-0.2036-0.079-0.086-0.093-0.1995-0.043-0.3421l0.6206-2.0433c0.043-0.1358 0.085-0.2108 0.1282-0.2248 0.05-0.021 0.1142 1e-4 0.1927 0.064 0.064 0.043 0.143 0.085 0.2357 0.1281 0.1 0.05 0.1993 0.075 0.2992 0.075 0.3851 0 0.756-0.099 1.1126-0.2992 0.3566-0.2068 0.6742-0.4744 0.9524-0.8025 0.2781-0.3281 0.4989-0.6846 0.663-1.0697 0.164-0.3923 0.2465-0.7705 0.2465-1.1343 0-0.271-0.061-0.5099-0.1819-0.7167-0.1142-0.214-0.2924-0.3816-0.5349-0.5029-0.2354-0.1283-0.5386-0.1927-0.9095-0.1927-0.093 0-0.1821 0.01-0.2677 0.021-0.086 0.015-0.1744 0.029-0.2672 0.043-0.028 0.01-0.046-0.01-0.053-0.043-0.01-0.043 0-0.1 0.011-0.1711l0.1395-0.4816c0.036-0.1429 0.029-0.2461-0.021-0.3101-0.043-0.071-0.1215-0.1069-0.2356-0.1069-0.1998 0-0.3743 0.082-0.524 0.246-0.1498 0.1568-0.2817 0.4026-0.3959 0.7379-0.036 0.1069-0.075 0.1856-0.1178 0.2356-0.036 0.043-0.078 0.072-0.1282 0.086-0.271 0.1-0.4923 0.193-0.6635 0.2786-0.1712 0.078-0.3137 0.1422-0.4279 0.1922-0.057 0.021-0.1102 0.053-0.1602 0.096s-0.075 0.1-0.075 0.1711c0 0.064 0.028 0.1038 0.086 0.1178 0.057 0.015 0.1137 0.01 0.171-0.021 0.157-0.064 0.2889-0.1103 0.3959-0.139 0.1141-0.036 0.246-0.072 0.3958-0.107 0.086-0.015 0.1359-0.01 0.1499 0.021 0.021 0.028 0.025 0.071 0.011 0.1282-0.014 0.057-0.035 0.1251-0.064 0.2036l-1.8935 5.627c-0.057 0.164-0.132 0.2709-0.2248 0.3209-0.1 0.057-0.2456 0.1107-0.4382 0.1607-0.064 0.01-0.1215 0.029-0.1715 0.064-0.057 0.035-0.089 0.082-0.096 0.139zm3.1466-3.776c0-0.107 0.018-0.2177 0.053-0.3317l0.9415-2.8779c0.057-0.01 0.1102-0.011 0.1602-0.011 0.057-0.01 0.1107-0.011 0.1607-0.011 0.2639 0.01 0.4708 0.089 0.6206 0.246 0.1498 0.1569 0.2243 0.4277 0.2243 0.8129 0 0.3352-0.061 0.6672-0.1819 0.9952-0.1213 0.321-0.2744 0.6168-0.4599 0.8878-0.1854 0.264-0.3743 0.4779-0.5669 0.6419-0.1925 0.1569-0.3601 0.2351-0.5028 0.2351h5e-4c-0.121 0-0.2098-0.025-0.2672-0.075-0.05-0.057-0.097-0.1359-0.1395-0.2357-0.029-0.086-0.043-0.1781-0.043-0.278zm3.8504-2.1409c0 0.05 0.025 0.078 0.075 0.086 0.057 0 0.1179-0.032 0.1819-0.096 0.071-0.071 0.1639-0.1502 0.278-0.2357 0.1141-0.085 0.221-0.1566 0.3209-0.2139 0.1-0.064 0.1713-0.096 0.2139-0.096 0.057 0 0.086 0.032 0.086 0.096s-0.025 0.1535-0.075 0.2677l-1.0485 2.4174c-0.043 0.107-0.039 0.232 0.011 0.3746 0.05 0.1427 0.1282 0.2677 0.2352 0.3747 0.107 0.1 0.2213 0.1498 0.3426 0.1498 0.157 0 0.3283-0.061 0.5137-0.1819 0.1926-0.1284 0.3958-0.2997 0.6098-0.5137 0.214-0.2211 0.4385-0.4738 0.6738-0.7591 0.2426-0.2924 0.4958-0.5994 0.7597-0.9203 0.036-0.05 0.072-0.071 0.1069-0.064 0.043 0.01 0.05 0.043 0.021 0.107-0.064 0.1712-0.1392 0.3531-0.2248 0.5457-0.078 0.1854-0.1641 0.3743-0.2568 0.5668-0.086 0.1855-0.1638 0.3568-0.2351 0.5137-0.029 0.071-0.033 0.1463-0.011 0.2248 0.029 0.071 0.064 0.1177 0.107 0.139 0.1 0.043 0.2105 0.068 0.3317 0.075 0.1213 0.01 0.2426 0 0.3638-0.032 0.1284-0.036 0.2497-0.093 0.3638-0.171 0.1-0.022 0.2105-0.065 0.3318-0.1287 0.1212-0.064 0.2457-0.1387 0.3741-0.2243 0.1284-0.093 0.2465-0.189 0.3535-0.2889 0.1143-0.1 0.2032-0.1924 0.2672-0.278 0.071-0.093 0.1069-0.1716 0.1069-0.2356 0-0.035-0.014-0.068-0.043-0.096-0.022-0.029-0.051-0.043-0.086-0.043-0.015 0-0.029 0.011-0.043 0.032-0.1 0.093-0.2281 0.2034-0.385 0.3318-0.157 0.1283-0.3102 0.239-0.4599 0.3317-0.1427 0.093-0.2496 0.139-0.321 0.139-0.05 0-0.075-0.029-0.075-0.086s0.014-0.1283 0.043-0.2139l1.1658-2.8882c0.035-0.086 0.032-0.1712-0.011-0.2568-0.043-0.093-0.1067-0.1717-0.1923-0.2357-0.086-0.071-0.1824-0.1069-0.2894-0.1069-0.093 0-0.1815 0.046-0.2671 0.139-0.078 0.093-0.1641 0.214-0.2568 0.3638-0.071 0.1212-0.1746 0.2856-0.3101 0.4924-0.1355 0.1998-0.2892 0.4169-0.4604 0.6522-0.1712 0.2283-0.3458 0.4533-0.524 0.6744-0.1855 0.2354-0.3675 0.4636-0.5457 0.6847-0.1784 0.2211-0.3385 0.4026-0.4812 0.5452-0.1354 0.1426-0.2392 0.2144-0.3105 0.2144-0.071 0-0.1105-0.047-0.1179-0.1395 0-0.093 0.029-0.1997 0.086-0.3209 0.2425-0.5207 0.4633-1.0054 0.6631-1.4547 0.2068-0.4493 0.3962-0.8526 0.5674-1.2092 0.035-0.086 0.031-0.1782-0.011-0.278-0.043-0.107-0.1066-0.1964-0.1922-0.2677-0.078-0.071-0.1573-0.1065-0.2357-0.1065-0.1783 0-0.3816 0.05-0.6098 0.1494-0.2211 0.1-0.4456 0.2424-0.6738 0.4278-0.2283 0.1854-0.4385 0.4031-0.631 0.6527-0.057 0.072-0.1 0.1396-0.1287 0.2036-0.029 0.064-0.043 0.1211-0.043 0.1711zm5.8632 2.729c0 0.079 0.028 0.1499 0.086 0.2139 0.057 0.064 0.1246 0.1109 0.2031 0.1396 0.085 0.035 0.1566 0.053 0.214 0.053 0.1141 0 0.2354-0.079 0.3638-0.2356 0.1283-0.157 0.2677-0.3709 0.4175-0.6419 0.093-0.164 0.2028-0.3529 0.3312-0.5668 0.1284-0.2212 0.2572-0.4388 0.3856-0.6527 0.1355-0.214 0.2568-0.4103 0.3638-0.5886 0.1138-0.1855 0.1989-0.3243 0.2563-0.417 0.1712-0.2639 0.3175-0.4634 0.4387-0.599 0.1284-0.1426 0.246-0.2144 0.353-0.2144 0.086 0 0.1465 0.043 0.1819 0.1286 0.036 0.079 0.061 0.1785 0.075 0.2998 0.021 0.1354 0.049 0.2387 0.085 0.31 0.043 0.071 0.1 0.107 0.171 0.107 0.107 0 0.2144-0.05 0.3214-0.1499 0.1141-0.1 0.2067-0.2317 0.278-0.3958 0.078-0.1641 0.1174-0.3317 0.1174-0.5028 0-0.1712-0.053-0.3175-0.1602-0.4387-0.107-0.1284-0.2639-0.1923-0.4708-0.1923-0.2282 0-0.4671 0.1-0.7168 0.2992-0.2496 0.1926-0.5028 0.4639-0.7596 0.8134-0.2496 0.3423-0.5066 0.7414-0.7705 1.1979-0.029 0.05-0.064 0.071-0.1065 0.064-0.035-0.014-0.043-0.046-0.021-0.096l0.4387-1.0485c0.093-0.2354 0.1462-0.4423 0.1602-0.6206 0.021-0.1783-0.01-0.3209-0.086-0.4279-0.079-0.1069-0.2178-0.1607-0.4175-0.1607-0.1569 0-0.3171 0.029-0.4812 0.085-0.1568 0.05-0.3032 0.1143-0.4387 0.1927-0.1569 0.1-0.2888 0.2137-0.3958 0.3421-0.1072 0.1212-0.1572 0.2388-0.1499 0.353 0.01 0.057 0.035 0.089 0.085 0.096 0.05 0.01 0.093 0 0.1281-0.032 0.086-0.064 0.1713-0.1176 0.2569-0.1602 0.093-0.05 0.2066-0.075 0.3421-0.075 0.072 0 0.1146 0.029 0.1286 0.086s0 0.1246-0.032 0.2031l-1.0485 2.728c-0.035 0.1141-0.068 0.2105-0.096 0.2889-0.021 0.079-0.032 0.1499-0.032 0.2139zm6.3552-0.2568c0 0.1925 0.082 0.3495 0.246 0.4707 0.1569 0.1213 0.3639 0.1819 0.6206 0.1819h5e-4c0.2497 0 0.4955-0.05 0.738-0.1493 0.2425-0.1 0.4638-0.2286 0.6635-0.3856 0.2069-0.164 0.3708-0.3385 0.492-0.524 0.1212-0.1854 0.1819-0.3636 0.1819-0.5348s-0.043-0.3532-0.1282-0.5457c-0.079-0.1926-0.1998-0.4033-0.3638-0.6315-0.071-0.107-0.1463-0.2176-0.2248-0.3318-0.071-0.1212-0.1354-0.2314-0.1927-0.3312-0.05-0.1067-0.075-0.1886-0.075-0.246 0-0.107 0.032-0.2001 0.096-0.2785 0.064-0.078 0.1499-0.1173 0.2569-0.1173 0.1 0 0.1892 0.028 0.2677 0.086 0.085 0.057 0.1566 0.1246 0.2139 0.203 0.05 0.064 0.1029 0.1246 0.1602 0.1819 0.064 0.057 0.1288 0.086 0.1928 0.086 0.071 0 0.1463-0.036 0.2247-0.1069 0.086-0.071 0.1603-0.1538 0.2243-0.2465 0.064-0.1 0.096-0.182 0.096-0.246 0-0.071-0.046-0.1532-0.139-0.246-0.093-0.093-0.2103-0.1746-0.3529-0.246-0.1427-0.071-0.289-0.1069-0.4388-0.1069-0.1212 0-0.2744 0.05-0.4599 0.1498-0.1783 0.093-0.364 0.221-0.5565 0.385-0.1855 0.1569-0.3387 0.3319-0.4599 0.5245-0.1213 0.1926-0.1819 0.3847-0.1819 0.5773 0 0.1712 0.039 0.3531 0.1178 0.5457 0.086 0.1854 0.1888 0.3673 0.31 0.5457 0.107 0.1711 0.2033 0.3462 0.2889 0.5245 0.093 0.1783 0.136 0.3278 0.1287 0.4491-0.01 0.1284-0.047 0.239-0.1178 0.3317-0.071 0.093-0.1783 0.139-0.321 0.139-0.1426 0-0.2745-0.046-0.3958-0.139-0.1141-0.093-0.2178-0.1821-0.3106-0.2677-0.086-0.078-0.1602-0.1457-0.2242-0.2031-0.064-0.064-0.1216-0.096-0.1716-0.096-0.1141 0-0.2104 0.057-0.2889 0.1711-0.078 0.107-0.1173 0.25-0.1173 0.4284zm3.7977 0.1493c0 0.1142 0.057 0.2285 0.1711 0.3426 0.114 0.107 0.246 0.1607 0.3958 0.1607h5e-4c0.1855 0 0.3957-0.061 0.631-0.1819 0.2425-0.1284 0.4745-0.2817 0.6956-0.4599 0.2211-0.1855 0.4031-0.3674 0.5457-0.5457 0.1498-0.1854 0.2247-0.3424 0.2247-0.4708 0-0.029-0.011-0.054-0.032-0.075-0.021-0.029-0.046-0.043-0.075-0.043-0.015 0-0.029 0.011-0.043 0.032-0.1142 0.1141-0.2456 0.2317-0.3954 0.353-0.1426 0.1212-0.282 0.2281-0.4175 0.3209-0.1283 0.086-0.2316 0.1281-0.3101 0.1281-0.021 0-0.046-0.01-0.075-0.021-0.021-0.015-0.032-0.04-0.032-0.075 0-0.029 0-0.061 0.011-0.096 0.01-0.043 0.022-0.082 0.043-0.1178l1.2304-3.006c0.029-0.064 0.014-0.1355-0.043-0.214-0.057-0.085-0.132-0.1536-0.2248-0.2036-0.093-0.049-0.1852-0.056-0.278-0.021-0.1355 0.057-0.2855 0.1352-0.4496 0.2351-0.164 0.093-0.3279 0.1959-0.4919 0.31-0.164 0.1142-0.3141 0.2286-0.4496 0.3427-0.1284 0.107-0.2353 0.207-0.3209 0.2997-0.078 0.093-0.1173 0.1604-0.1173 0.2031 0 0.05 0.017 0.089 0.053 0.1178 0.043 0.021 0.1002 0.011 0.1716-0.032 0.086-0.057 0.1744-0.1108 0.2671-0.1608 0.093-0.057 0.1822-0.1036 0.2677-0.139 0.086-0.035 0.1531-0.053 0.2031-0.053s0.064 0.028 0.043 0.086c-0.1641 0.4065-0.3386 0.845-0.524 1.3157-0.1855 0.4707-0.3962 0.9559-0.6315 1.4552-0.021 0.043-0.036 0.082-0.043 0.1178zm2.1079-5.6058c0 0.1354 0.046 0.2605 0.139 0.3746 0.093 0.107 0.2103 0.1602 0.353 0.1602 0.221 0 0.4062-0.078 0.556-0.2351 0.1569-0.164 0.2356-0.346 0.2356-0.5457 0-0.1427-0.043-0.2747-0.1286-0.3959-0.086-0.1284-0.2032-0.1927-0.353-0.1927-0.2282 0-0.4208 0.086-0.5777 0.2568-0.1498 0.164-0.2243 0.3566-0.2243 0.5778zm3.9476 5.6167c0 0.093 0.025 0.1783 0.075 0.2568 0.057 0.079 0.121 0.1392 0.1922 0.1819 0.078 0.043 0.1428 0.064 0.1928 0.064l1e-3 5e-4c0.1213 0 0.2356-0.068 0.3426-0.2036 0.1141-0.1355 0.2461-0.3425 0.3959-0.6206 0.1141-0.2069 0.2354-0.4277 0.3638-0.663 0.1355-0.2354 0.2674-0.4637 0.3958-0.6848 0.1355-0.2282 0.2638-0.4389 0.385-0.6314 0.1213-0.1926 0.2319-0.3528 0.3318-0.4812 0.221-0.2924 0.4136-0.51 0.5777-0.6526 0.1641-0.1428 0.296-0.2105 0.3958-0.2031 0.057 0 0.1072 0.032 0.1499 0.096 0.05 0.057 0.046 0.1533-0.011 0.2889l-1.1017 2.7497c-0.05 0.1426-0.089 0.2672-0.1178 0.3741-0.029 0.1073-0.043 0.1791-0.043 0.2145 0 0.057 0.021 0.1209 0.064 0.1922 0.05 0.064 0.1028 0.118 0.1602 0.1607 0.064 0.043 0.1252 0.064 0.1819 0.064 0.071 0 0.1569-0.032 0.2568-0.096 0.107-0.057 0.2176-0.1465 0.3318-0.2677 0.114-0.1213 0.2173-0.2602 0.31-0.417 0.1855-0.3139 0.3781-0.6315 0.5778-0.9524 0.1997-0.3281 0.3923-0.6346 0.5777-0.9199 0.1855-0.2853 0.3392-0.5173 0.4604-0.6956 0.1926-0.2568 0.3634-0.4493 0.5132-0.5777 0.1498-0.1357 0.2748-0.1996 0.3746-0.1922 0.064 0 0.1176 0.036 0.1602 0.1069 0.05 0.071 0.047 0.1676-0.011 0.2889l-1.3803 3.2091c-0.036 0.086-0.029 0.168 0.021 0.2465 0.05 0.079 0.1175 0.1392 0.2031 0.1819 0.085 0.05 0.1571 0.075 0.2144 0.075 0.3852 0 0.7592-0.118 1.123-0.3534 0.3637-0.2425 0.6883-0.5314 0.9735-0.8666 0.071-0.072 0.1177-0.1391 0.1391-0.2031 0.028-0.064 0.046-0.1318 0.053-0.2031 0-0.029-0.011-0.054-0.032-0.075-0.021-0.029-0.043-0.043-0.064-0.043s-0.046 0.015-0.075 0.043c-0.021 0.021-0.046 0.043-0.075 0.064-0.036 0.036-0.096 0.089-0.1819 0.1602-0.078 0.071-0.1678 0.1464-0.2677 0.2248-0.1 0.078-0.1962 0.1458-0.2888 0.2031-0.092 0.057-0.167 0.086-0.2243 0.086-0.1214 0-0.1362-0.1181-0.043-0.3535l0.8025-1.9363c0.107-0.2638 0.1607-0.506 0.1607-0.7271 0.01-0.2211-0.043-0.3998-0.1498-0.5353-0.107-0.1355-0.2746-0.2031-0.5029-0.2031-0.271 0-0.5386 0.089-0.8025 0.2672-0.2639 0.1783-0.5241 0.4209-0.7808 0.7276-0.2497 0.3066-0.496 0.6599-0.7385 1.0593-0.029 0.043-0.064 0.061-0.107 0.053-0.043-0.01-0.049-0.035-0.021-0.085l0.2243-0.5989c0.1138-0.2425 0.1638-0.4708 0.1498-0.6848-0.01-0.2211-0.071-0.3998-0.1922-0.5353-0.1213-0.1355-0.2963-0.2031-0.5245-0.2031-0.2782 0-0.549 0.1032-0.8129 0.31-0.2568 0.1998-0.5175 0.478-0.7814 0.8346-0.2638 0.3495-0.5346 0.7491-0.8128 1.1984-0.022 0.043-0.05 0.061-0.086 0.053-0.035-0.01-0.043-0.036-0.021-0.086l0.6098-1.4655c0.064-0.164 0.082-0.3104 0.053-0.4388-0.028-0.1284-0.096-0.2283-0.2031-0.2997-0.1-0.071-0.2211-0.1069-0.3638-0.1069-0.3066 0.01-0.5567 0.068-0.7493 0.1819-0.1854 0.107-0.3599 0.2389-0.524 0.3958-0.043 0.043-0.092 0.1072-0.1498 0.1928-0.057 0.078-0.1037 0.1566-0.1391 0.2351-0.035 0.078-0.053 0.1427-0.053 0.1927 0.01 0.064 0.036 0.1 0.086 0.107 0.05 0 0.089-0.017 0.1178-0.053 0.1712-0.1999 0.3281-0.3211 0.4708-0.3638 0.1426-0.05 0.2528-0.075 0.3313-0.075 0.078 0 0.132 0.029 0.1607 0.086 0.028 0.05 0.024 0.1143-0.011 0.1928l-1.0805 2.6639c-0.043 0.1141-0.078 0.2136-0.107 0.2992-0.021 0.079-0.032 0.1357-0.032 0.1711zm8.6542-2.6324c0 0.05 0.025 0.078 0.075 0.086 0.057 0 0.1179-0.032 0.1819-0.096 0.071-0.071 0.1639-0.1502 0.2781-0.2357 0.1141-0.085 0.2211-0.1566 0.3209-0.2139 0.1-0.064 0.1712-0.096 0.2139-0.096 0.057 0 0.086 0.032 0.086 0.096s-0.025 0.1535-0.075 0.2677l-1.0485 2.4174c-0.043 0.107-0.039 0.232 0.011 0.3746 0.05 0.1427 0.1282 0.2677 0.2351 0.3747 0.107 0.1 0.2214 0.1498 0.3427 0.1498h1e-3c0.1569 0 0.3282-0.061 0.5137-0.1819 0.1926-0.1284 0.3958-0.2997 0.6097-0.5137 0.214-0.2211 0.4386-0.4738 0.6739-0.7591 0.2425-0.2924 0.4958-0.5994 0.7596-0.9203 0.036-0.05 0.072-0.071 0.107-0.064 0.043 0.01 0.05 0.043 0.021 0.107-0.064 0.1712-0.1392 0.3531-0.2248 0.5457-0.078 0.1854-0.1642 0.3743-0.2568 0.5668-0.086 0.1855-0.1638 0.3568-0.2352 0.5137-0.029 0.071-0.033 0.1463-0.011 0.2248 0.029 0.071 0.064 0.1177 0.1069 0.139 0.1 0.043 0.2106 0.068 0.3318 0.075 0.1213 0.01 0.2425 0 0.3638-0.032 0.1283-0.036 0.2497-0.093 0.3638-0.171 0.1-0.022 0.2105-0.065 0.3318-0.1287 0.1212-0.064 0.2457-0.1387 0.3741-0.2243 0.1284-0.093 0.2465-0.189 0.3535-0.2889 0.1142-0.1 0.2032-0.1924 0.2672-0.278 0.071-0.093 0.1069-0.1716 0.1069-0.2356 0-0.035-0.014-0.068-0.043-0.096-0.022-0.029-0.05-0.043-0.086-0.043-0.015 0-0.029 0.011-0.043 0.032-0.1 0.093-0.228 0.2034-0.385 0.3318-0.1569 0.1283-0.3101 0.239-0.4599 0.3317-0.1426 0.093-0.2495 0.139-0.3209 0.139-0.05 0-0.075-0.029-0.075-0.086s0.014-0.1283 0.043-0.2139l1.1658-2.8882c0.035-0.086 0.032-0.1712-0.011-0.2568-0.043-0.093-0.1067-0.1717-0.1922-0.2357-0.086-0.071-0.1819-0.1069-0.2889-0.1069-0.093 0-0.182 0.046-0.2676 0.139-0.078 0.093-0.1641 0.214-0.2569 0.3638-0.071 0.1212-0.1745 0.2856-0.31 0.4924-0.1355 0.1998-0.2888 0.4169-0.46 0.6522-0.1712 0.2283-0.3462 0.4533-0.5245 0.6744-0.1854 0.2354-0.3674 0.4636-0.5457 0.6847s-0.3384 0.4026-0.4811 0.5452c-0.1354 0.1426-0.2392 0.2144-0.3106 0.2144-0.071 0-0.1099-0.047-0.1173-0.1395 0-0.093 0.029-0.1997 0.086-0.3209 0.2425-0.5207 0.4638-1.0054 0.6635-1.4547 0.2068-0.4493 0.3957-0.8526 0.5669-1.2092 0.035-0.086 0.031-0.1782-0.011-0.278-0.043-0.107-0.1067-0.1964-0.1923-0.2677-0.078-0.071-0.1572-0.1065-0.2356-0.1065-0.1783 0-0.3816 0.05-0.6098 0.1494-0.2211 0.1-0.4457 0.2424-0.6739 0.4278s-0.4384 0.4031-0.6309 0.6527c-0.057 0.072-0.1 0.1396-0.1287 0.2036-0.029 0.064-0.043 0.1211-0.043 0.1711zm5.671 1.7125c0 0.271 0.061 0.5136 0.1819 0.7276 0.1284 0.2068 0.296 0.3744 0.5028 0.5028 0.214 0.1213 0.4385 0.1819 0.6739 0.1819 0.4707 0 0.8878-0.1074 1.2516-0.3214 0.3708-0.2139 0.6884-0.4884 0.9524-0.8237 0.2638-0.3423 0.4634-0.7026 0.5989-1.0806s0.2031-0.7275 0.2031-1.0485c0-0.4422-0.1319-0.7912-0.3959-1.048-0.2567-0.2638-0.6026-0.3958-1.0376-0.3958-0.4422 0-0.845 0.1102-1.2087 0.3312-0.3567 0.214-0.6637 0.4923-0.9204 0.8346-0.2567 0.3352-0.4563 0.6917-0.5989 1.0697-0.1356 0.378-0.2031 0.735-0.2031 1.0702zm1.1555 0.492c0-0.271 0.036-0.5599 0.1075-0.8666 0.071-0.3067 0.1638-0.61 0.278-0.9095 0.1212-0.3068 0.2532-0.5813 0.3958-0.8238 0.1427-0.2496 0.2889-0.4491 0.4387-0.5989 0.1569-0.1498 0.3027-0.2248 0.4383-0.2248 0.1495 0 0.2532 0.046 0.3105 0.139 0.057 0.093 0.085 0.2178 0.085 0.3747 0 0.2497-0.035 0.5279-0.1065 0.8346-0.064 0.3066-0.1535 0.6131-0.2677 0.9198-0.107 0.3067-0.232 0.5887-0.3746 0.8454-0.1427 0.2497-0.2921 0.4529-0.4491 0.6098-0.1495 0.1568-0.2994 0.235-0.449 0.2351h-6e-4c-0.121-1e-4 -0.2203-0.043-0.2986-0.1281-0.071-0.086-0.1075-0.2212-0.1075-0.4067zm3.7754-2.2583c0 0.064 0.039 0.096 0.1179 0.096 0.021 0 0.046-0.01 0.075-0.021 0.036-0.021 0.075-0.053 0.1178-0.096 0.078-0.078 0.1785-0.1603 0.2997-0.2459 0.1284-0.086 0.2279-0.1282 0.2993-0.1282 0.043 0 0.072 0.029 0.086 0.086 0.021 0.05 0.011 0.1319-0.032 0.246l-0.6738 1.8298c-0.093 0.2568-0.1176 0.4919-0.075 0.7059 0.043 0.214 0.1391 0.3853 0.2889 0.5137 0.1569 0.1284 0.3527 0.1927 0.5881 0.1927v-5e-4c0.3281 0 0.6601-0.1069 0.9953-0.3209 0.3424-0.221 0.6739-0.5099 0.9948-0.8666 0.2568-0.271 0.4781-0.5562 0.6635-0.8558 0.1855-0.3067 0.3281-0.6168 0.4279-0.9306 0.107-0.3138 0.1602-0.6208 0.1602-0.9204 0-0.2924-0.039-0.5026-0.1178-0.631-0.078-0.1354-0.1673-0.2031-0.2672-0.2031-0.107 0-0.2283 0.032-0.3638 0.096s-0.2568 0.1386-0.3638 0.2242c-0.1 0.079-0.1499 0.15-0.1499 0.214 0 0.071 0.015 0.1354 0.043 0.1927 0.036 0.057 0.085 0.1179 0.1493 0.1819 0.093 0.1 0.1681 0.2105 0.2248 0.3318 0.057 0.1212 0.086 0.2638 0.086 0.4279 0 0.2425-0.057 0.4989-0.1711 0.7699-0.1141 0.2639-0.2636 0.5102-0.449 0.7385-0.1783 0.2282-0.3746 0.4134-0.5886 0.556-0.2068 0.1356-0.4032 0.2036-0.5886 0.2036-0.1925 0-0.3133-0.064-0.3633-0.1927-0.05-0.1284-0.039-0.3136 0.032-0.556l0.8878-2.696c0.021-0.064 0.011-0.1355-0.032-0.2139-0.036-0.078-0.089-0.1428-0.1607-0.1928-0.064-0.057-0.1355-0.086-0.214-0.086-0.107 0-0.2352 0.036-0.385 0.107-0.1497 0.064-0.3067 0.1535-0.4707 0.2677-0.1641 0.1141-0.3243 0.2423-0.4811 0.3849-0.1498 0.1427-0.2823 0.2853-0.3964 0.4279-0.065 0.086-0.114 0.1608-0.1493 0.2248-0.029 0.057-0.043 0.1037-0.043 0.139zm4.5264 1.9482c0 0.214 0.064 0.4173 0.1927 0.6098 0.1355 0.1855 0.2994 0.3387 0.492 0.4599 0.1997 0.1142 0.3886 0.1711 0.5669 0.1711v-5e-4c0.2995 0 0.5703-0.057 0.8128-0.1711 0.2425-0.1213 0.4601-0.2857 0.6527-0.4925 0.1925-0.2068 0.3564-0.4351 0.492-0.6847 0.014-0.014 0.021-0.031 0.021-0.053 0.01-0.029 0.011-0.054 0.011-0.075 0-0.071-0.032-0.107-0.096-0.107-0.05 0-0.1144 0.039-0.1928 0.1173-0.1426 0.1569-0.2995 0.2926-0.4707 0.4067-0.1712 0.107-0.3675 0.1607-0.5886 0.1607-0.2425 0-0.4277-0.082-0.5561-0.2465-0.1214-0.1711-0.1783-0.3813-0.171-0.6309 0.01-0.093 0.022-0.1891 0.043-0.2889 0.021-0.1 0.046-0.1961 0.075-0.2889 0.015-0.035 0.029-0.057 0.043-0.064 0.022-0.014 0.051-0.025 0.086-0.032 0.271-0.057 0.5524-0.1247 0.8449-0.2031 0.2995-0.078 0.5704-0.1784 0.8129-0.2997 0.2496-0.1213 0.4497-0.2676 0.5994-0.4387 0.157-0.1712 0.2352-0.3745 0.2352-0.6098 0-0.2069-0.086-0.3776-0.2569-0.5132-0.1711-0.1426-0.4345-0.2139-0.7911-0.2139-0.3638 0-0.7171 0.1032-1.0594 0.31-0.3423 0.2069-0.6489 0.4777-0.9199 0.8129s-0.4854 0.7098-0.6423 1.1235c-0.1569 0.4136-0.2351 0.8276-0.2351 1.2412zm1.4108-1.5875c-1e-4 -0.01 6e-4 -0.011 0-0.017 0.021-0.157 0.075-0.3246 0.1602-0.5029 0.085-0.1783 0.1893-0.3421 0.3106-0.4919 0.1284-0.1569 0.2635-0.2851 0.4062-0.385 0.1425-0.1 0.282-0.1499 0.4175-0.1499 0.1 0 0.1748 0.036 0.2248 0.107s0.071 0.1495 0.064 0.2351c-0.01 0.2068-0.064 0.3851-0.1711 0.5349-0.107 0.1426-0.2421 0.2639-0.4062 0.3638-0.1568 0.1-0.3213 0.1783-0.4925 0.2356-0.1712 0.05-0.317 0.089-0.4382 0.1179v-6e-4c-0.05 0.01-0.076-0.01-0.076-0.046zm6.3231-1.8887c0 0.042 0.02 0.063 0.054 0.063 0.029 0 0.082-0.032 0.1608-0.096 0.078-0.071 0.1457-0.1426 0.203-0.214 0.093-0.107 0.1928-0.2352 0.2998-0.3849 0.1141-0.157 0.2279-0.3282 0.3421-0.5137 0.1212-0.1854 0.2319-0.3706 0.3317-0.556 0.1072-0.1926 0.1929-0.3783 0.2569-0.5566 0.043-0.107 0.064-0.2102 0.064-0.3101 0-0.1069-0.043-0.1607-0.1286-0.1607-0.107 0-0.2103 0.025-0.3101 0.075-0.1 0.043-0.2137 0.1002-0.3421 0.1715-0.071 0.043-0.15 0.1035-0.2356 0.1819-0.079 0.071-0.1286 0.1533-0.1499 0.246-0.057 0.1997-0.1067 0.3992-0.1493 0.5989-0.043 0.1926-0.1003 0.3958-0.1716 0.6098-0.035 0.1-0.068 0.1999-0.096 0.2997-0.021 0.1-0.053 0.2105-0.096 0.3318-0.014 0.05-0.025 0.1106-0.032 0.1819v0.033zm1.6154 0c0 0.042 0.02 0.063 0.054 0.063 0.029 0 0.082-0.032 0.1608-0.096 0.079-0.071 0.1464-0.1426 0.203-0.214 0.093-0.107 0.1928-0.2352 0.2998-0.3849 0.1141-0.157 0.2285-0.3282 0.3426-0.5137 0.1212-0.1854 0.2314-0.3706 0.3312-0.556 0.1072-0.1926 0.1929-0.3783 0.2569-0.5566 0.043-0.107 0.064-0.2102 0.064-0.3101 0-0.1069-0.043-0.1607-0.1281-0.1607-0.107 0-0.2107 0.025-0.3106 0.075-0.1 0.043-0.2138 0.1002-0.3421 0.1715-0.071 0.043-0.15 0.1035-0.2356 0.1819-0.079 0.071-0.1286 0.1533-0.1499 0.246-0.057 0.1997-0.1067 0.3992-0.1493 0.5989-0.043 0.1926-0.1003 0.3958-0.1716 0.6098-0.035 0.1-0.067 0.1999-0.096 0.2997-0.021 0.1-0.053 0.2105-0.096 0.3318-0.014 0.05-0.025 0.1106-0.032 0.1819v0.033z" stroke-width=".48012"/></g></g></svg>
