<?xml version="1.0" encoding="UTF-8"?>
<svg id="svg5" width="288.32mm" height="288.32mm" version="1.1" viewBox="0 0 288.32 288.32" xml:space="preserve" xmlns="http://www.w3.org/2000/svg"><g id="blocco-qr-code" transform="translate(-3702.9,-1280)" fill="#008744"><path id="path10578" d="m3940.8 1528h-0.01v-5.0647h5.0647v5.0647h-5.0569"/><path id="path18213" d="m3930.7 1528h-0.016v-5.0647h0.015"/><path id="path18211" d="m3930.7 1522.9h5.0493v5.0647h-5.0492"/><path id="path18209" d="m3925.6 1528h-0.019v-5.0647h0.019"/><path id="path18207" d="m3925.6 1522.9h5.0456v5.0647h-5.0455"/><path id="path18205" d="m3920.5 1528h-0.023v-5.0647h5.0647v5.0647h-5.0414"/><path id="path18203" d="m3910.4 1528h-0.03v-5.0647h5.0647v5.0647h-5.0342"/><path id="path18201" d="m3905.4 1528h-0.035v-5.0647h5.0647v5.0647h-5.0301"/><path id="path18199" d="m3890.2 1528h-0.046v-5.0647h5.0646v5.0647h-5.0186"/><path id="path18197" d="m3869.9 1528h-0.061v-5.0647h5.0647v5.0647h-5.0032"/><path id="path18195" d="m3864.9 1528h-0.066v-5.0647h0.066"/><path id="path18193" d="m3864.9 1522.9h4.999v5.0647h-4.999"/><path id="path18191" d="m3859.8 1528h-0.07v-5.0647h0.07"/><path id="path18189" d="m3859.8 1522.9h4.9949v5.0647h-4.9949"/><path id="path18187" d="m3849.7 1528h-0.077v-5.0647h5.0647v5.0647h-4.9877"/><path id="path18185" d="m3839.6 1528h-0.085v-5.0647h0.085"/><path id="path18183" d="m3839.6 1522.9h4.98v5.0647h-4.9799"/><path id="path18181" d="m3824.4 1528h-0.097v-5.0647h5.0647v5.0647h-4.9681"/><path id="path18179" d="m3809.2 1528h-0.1085v-5.0647h0.1085"/><path id="path18177" d="m3809.2 1522.9h4.9561v5.0647h-4.9561"/><path id="path18175" d="m3799.1 1528h-0.1158v-5.0647h5.0646v5.0647h-4.9488"/><path id="path18173" d="m3773.8 1528h-0.1354v-5.0647h5.0646v5.0647h-4.9292"/><path id="path18171" d="m3768.7 1528h-0.139v-5.0647h0.1391"/><path id="path18169" d="m3768.7 1522.9h4.9256v5.0647h-4.9257"/><path id="path18167" d="m3763.7 1528h-0.1426v-5.0647h0.1426"/><path id="path18165" d="m3763.7 1522.9h4.922v5.0647h-4.922"/><path id="path18163" d="m3758.6 1528h-0.1468v-5.0647h0.1468"/><path id="path18161" d="m3758.6 1522.9h4.9179v5.0647h-4.9179"/><path id="path18159" d="m3753.5 1528h-0.1504v-5.0647h0.1503"/><path id="path18157" d="m3753.5 1522.9h4.9144v5.0647h-4.9143"/><path id="path18155" d="m3748.5 1528h-0.1545v-5.0647h0.1545"/><path id="path18153" d="m3748.5 1522.9h4.9101v5.0647h-4.9101"/><path id="path18151" d="m3743.4 1528h-0.1581v-5.0647h5.0647v5.0647h-4.9066"/><path id="path18149" d="m3940.8 1522.9h-0.01v-5.0647h0.01"/><path id="path18147" d="m3940.8 1517.8h5.057v5.0647h-5.0569"/><path id="path18145" d="m3920.5 1522.9h-0.023v-5.0647h0.023"/><path id="path18143" d="m3920.5 1517.8h5.0414v5.0647h-5.0414"/><path id="path18141" d="m3915.5 1522.9h-0.027v-5.0647h0.027"/><path id="path18139" d="m3915.5 1517.8h5.0373v5.0647h-5.0372"/><path id="path18137" d="m3910.4 1522.9h-0.03v-5.0647h0.03"/><path id="path18135" d="m3910.4 1517.8h5.0343v5.0647h-5.0342"/><path id="path18133" d="m3905.4 1522.9h-0.035v-5.0647h0.034"/><path id="path18131" d="m3905.4 1517.8h5.0302v5.0647h-5.0301"/><path id="path18129" d="m3900.3 1522.9h-0.039v-5.0647h0.039"/><path id="path18127" d="m3900.3 1517.8h5.0259v5.0647h-5.0258"/><path id="path18125" d="m3890.2 1522.9h-0.046v-5.0647h0.046"/><path id="path18123" d="m3890.2 1517.8h5.0187v5.0647h-5.0186"/><path id="path18121" d="m3885.1 1522.9h-0.05v-5.0647h0.05"/><path id="path18119" d="m3885.1 1517.8h5.0145v5.0647h-5.0146"/><path id="path18117" d="m3869.9 1522.9h-0.061v-5.0647h0.061"/><path id="path18115" d="m3869.9 1517.8h5.0033v5.0647h-5.0032"/><path id="path18113" d="m3854.8 1522.9h-0.073v-5.0647h0.073"/><path id="path18111" d="m3854.8 1517.8h4.9911v5.0647h-4.9912"/><path id="path18109" d="m3849.7 1522.9h-0.077v-5.0647h0.077"/><path id="path18107" d="m3849.7 1517.8h4.9877v5.0647h-4.9877"/><path id="path18105" d="m3824.4 1522.9h-0.097v-5.0647h0.097"/><path id="path18103" d="m3824.4 1517.8h4.9681v5.0647h-4.9681"/><path id="path18101" d="m3819.3 1522.9h-0.1003v-5.0647h5.0646v5.0647h-4.9643"/><path id="path18099" d="m3804.1 1522.9h-0.1116v-5.0647h0.1115"/><path id="path18097" d="m3804.1 1517.8h4.9532v5.0647h-4.9531"/><path id="path18095" d="m3799.1 1522.9h-0.1158v-5.0647h0.1158"/><path id="path18093" d="m3799.1 1517.8h4.9488v5.0647h-4.9488"/><path id="path18091" d="m3794 1522.9h-0.1199v-5.0647h5.0647v5.0647h-4.9448"/><path id="path18089" d="m3773.8 1522.9h-0.1354v-5.0647h5.0646v5.0647h-4.9292"/><path id="path18087" d="m3743.4 1522.9h-0.1581v-5.0647h5.0647v5.0647h-4.9066"/><path id="path18085" d="m3945.8 1517.8v-5.0646"/><path id="path18083" d="m3950.9 1517.8h-5.0611"/><path id="path18081" d="m3950.9 1512.8v5.0646"/><path id="path18079" d="m3945.8 1512.8h5.0611"/><path id="path18077" d="m3930.7 1517.8h-0.016v-5.0646h5.0647v5.0646h-5.0492"/><path id="path18075" d="m3925.6 1517.8h-0.019v-5.0646h5.0646v5.0646h-5.0455"/><path id="path18073" d="m3895.2 1517.8h-0.043v-5.0646h5.0647v5.0646h-5.0218"/><path id="path18071" d="m3875 1517.8h-0.058v-5.0646h0.058"/><path id="path18069" d="m3875 1512.8h5.0069v5.0646h-5.0068"/><path id="path18067" d="m3859.8 1517.8h-0.07v-5.0646h5.0647v5.0646h-4.9949"/><path id="path18065" d="m3844.6 1517.8h-0.081v-5.0646h5.0646v5.0646h-4.9835"/><path id="path18063" d="m3839.6 1517.8h-0.085v-5.0646h0.085"/><path id="path18061" d="m3839.6 1512.8h4.98v5.0646h-4.9799"/><path id="path18059" d="m3819.3 1517.8h-0.1003v-5.0646h5.0646v5.0646h-4.9643"/><path id="path18057" d="m3809.2 1517.8h-0.1085v-5.0646h5.0646v5.0646h-4.9561"/><path id="path18055" d="m3794 1517.8h-0.1199v-5.0646h5.0647v5.0646h-4.9448"/><path id="path18053" d="m3789 1517.8h-0.124v-5.0646h5.0647v5.0646h-4.9407"/><path id="path18051" d="m3773.8 1517.8h-0.1354v-5.0646h5.0646v5.0646h-4.9292"/><path id="path18049" d="m3763.7 1517.8h-0.1426v-5.0646h5.0646v5.0646h-4.922"/><path id="path18047" d="m3758.6 1517.8h-0.1468v-5.0646h5.0647v5.0646h-4.9179"/><path id="path18045" d="m3753.5 1517.8h-0.1504v-5.0646h5.0647v5.0646h-4.9143"/><path id="path18043" d="m3743.4 1517.8h-0.1581v-5.0646h5.0647v5.0646h-4.9066"/><path id="path18041" d="m3935.7 1512.8h-0.012v-5.0647h0.012"/><path id="path18039" d="m3935.7 1507.7h5.0527v5.0647h-5.0527"/><path id="path18037" d="m3930.7 1512.8h-0.016v-5.0647h0.015"/><path id="path18035" d="m3930.7 1507.7h5.0493v5.0647h-5.0492"/><path id="path18033" d="m3925.6 1512.8h-0.019v-5.0647h5.0646v5.0647h-5.0455"/><path id="path18031" d="m3915.5 1512.8h-0.027v-5.0647h5.0646v5.0647h-5.0372"/><path id="path18029" d="m3910.4 1512.8h-0.03v-5.0647h5.0647v5.0647h-5.0342"/><path id="path18027" d="m3905.4 1512.8h-0.035v-5.0647h5.0647v5.0647h-5.0301"/><path id="path18025" d="m3900.3 1512.8h-0.039v-5.0647h0.039"/><path id="path18023" d="m3900.3 1507.7h5.0259v5.0647h-5.0258"/><path id="path18021" d="m3895.2 1512.8h-0.043v-5.0647h5.0647v5.0647h-5.0218"/><path id="path18019" d="m3890.2 1512.8h-0.046v-5.0647h0.046"/><path id="path18017" d="m3890.2 1507.7h5.0187v5.0647h-5.0186"/><path id="path18015" d="m3869.9 1512.8h-0.061v-5.0647h0.061"/><path id="path18013" d="m3869.9 1507.7h5.0033v5.0647h-5.0032"/><path id="path18011" d="m3859.8 1512.8h-0.07v-5.0647h0.07"/><path id="path18009" d="m3859.8 1507.7h4.9949v5.0647h-4.9949"/><path id="path18007" d="m3849.7 1512.8h-0.077v-5.0647h0.077"/><path id="path18005" d="m3849.7 1507.7h4.9877v5.0647h-4.9877"/><path id="path18003" d="m3844.6 1512.8h-0.081v-5.0647h0.081"/><path id="path18001" d="m3844.6 1507.7h4.9834v5.0647h-4.9835"/><path id="path17999" d="m3824.4 1512.8h-0.097v-5.0647h0.097"/><path id="path17997" d="m3824.4 1507.7h4.9681v5.0647h-4.9681"/><path id="path17995" d="m3819.3 1512.8h-0.1003v-5.0647h0.1004"/><path id="path17993" d="m3819.3 1507.7h4.9642v5.0647h-4.9643"/><path id="path17991" d="m3809.2 1512.8h-0.1085v-5.0647h0.1085"/><path id="path17989" d="m3809.2 1507.7h4.9561v5.0647h-4.9561"/><path id="path17987" d="m3799.1 1512.8h-0.1158v-5.0647h5.0646v5.0647h-4.9488"/><path id="path17985" d="m3794 1512.8h-0.1199v-5.0647h5.0647v5.0647h-4.9448"/><path id="path17983" d="m3789 1512.8h-0.124v-5.0647h5.0647v5.0647h-4.9407"/><path id="path17981" d="m3783.9 1512.8h-0.1271v-5.0647h0.1272"/><path id="path17979" d="m3783.9 1507.7h4.9374v5.0647h-4.9375"/><path id="path17977" d="m3773.8 1512.8h-0.1354v-5.0647h5.0646v5.0647h-4.9292"/><path id="path17975" d="m3763.7 1512.8h-0.1426v-5.0647h5.0646v5.0647h-4.922"/><path id="path17973" d="m3758.6 1512.8h-0.1468v-5.0647h5.0647v5.0647h-4.9179"/><path id="path17971" d="m3753.5 1512.8h-0.1504v-5.0647h5.0647v5.0647h-4.9143"/><path id="path17969" d="m3743.4 1512.8h-0.1581v-5.0647h5.0647v5.0647h-4.9066"/><path id="path17967" d="m3925.6 1507.7h-0.019v-5.0646h5.0646v5.0646h-5.0455"/><path id="path17965" d="m3920.5 1507.7h-0.023v-5.0646h0.023"/><path id="path17963" d="m3920.5 1502.6h5.0414v5.0646h-5.0414"/><path id="path17961" d="m3915.5 1507.7h-0.027v-5.0646h0.027"/><path id="path17959" d="m3915.5 1502.6h5.0373v5.0646h-5.0372"/><path id="path17957" d="m3910.4 1507.7h-0.03v-5.0646h0.03"/><path id="path17955" d="m3910.4 1502.6h5.0343v5.0646h-5.0342"/><path id="path17953" d="m3905.4 1507.7h-0.035v-5.0646h5.0647v5.0646h-5.0301"/><path id="path17951" d="m3895.2 1507.7h-0.043v-5.0646h5.0647v5.0646h-5.0218"/><path id="path17949" d="m3885.1 1507.7h-0.05v-5.0646h0.05"/><path id="path17947" d="m3885.1 1502.6h5.0145v5.0646h-5.0146"/><path id="path17945" d="m3880.1 1507.7h-0.054v-5.0646h5.0646v5.0646h-5.0103"/><path id="path17943" d="m3875 1507.7h-0.058v-5.0646h5.0647v5.0646h-5.0068"/><path id="path17941" d="m3864.9 1507.7h-0.066v-5.0646h5.0646v5.0646h-4.999"/><path id="path17939" d="m3854.8 1507.7h-0.073v-5.0646h0.073"/><path id="path17937" d="m3854.8 1502.6h4.9911v5.0646h-4.9912"/><path id="path17935" d="m3839.6 1507.7h-0.085v-5.0646h0.085"/><path id="path17933" d="m3839.6 1502.6h4.98v5.0646h-4.9799"/><path id="path17931" d="m3829.4 1507.7h-0.093v-5.0646h5.0646v5.0646h-4.9716"/><path id="path17929" d="m3799.1 1507.7h-0.1158v-5.0646h5.0646v5.0646h-4.9488"/><path id="path17927" d="m3794 1507.7h-0.1199v-5.0646h5.0647v5.0646h-4.9448"/><path id="path17925" d="m3789 1507.7h-0.124v-5.0646h5.0647v5.0646h-4.9407"/><path id="path17923" d="m3773.8 1507.7h-0.1354v-5.0646h5.0646v5.0646h-4.9292"/><path id="path17921" d="m3763.7 1507.7h-0.1426v-5.0646h0.1426"/><path id="path17919" d="m3763.7 1502.6h4.922v5.0646h-4.922"/><path id="path17917" d="m3758.6 1507.7h-0.1468v-5.0646h0.1468"/><path id="path17915" d="m3758.6 1502.6h4.9179v5.0646h-4.9179"/><path id="path17913" d="m3753.5 1507.7h-0.1504v-5.0646h0.1503"/><path id="path17911" d="m3753.5 1502.6h4.9144v5.0646h-4.9143"/><path id="path17909" d="m3743.4 1507.7h-0.1581v-5.0646h5.0647v5.0646h-4.9066"/><path id="path17907" d="m3945.8 1502.6v-5.0647"/><path id="path17905" d="m3950.9 1502.6h-5.0611"/><path id="path17903" d="m3950.9 1497.6v5.0647"/><path id="path17901" d="m3945.8 1497.6h5.0611"/><path id="path17899" d="m3940.8 1502.6h-0.01v-5.0647h5.0647v5.0647h-5.0569"/><path id="path17897" d="m3935.7 1502.6h-0.012v-5.0647h0.012"/><path id="path17895" d="m3935.7 1497.6h5.0527v5.0647h-5.0527"/><path id="path17893" d="m3925.6 1502.6h-0.019v-5.0647h5.0646v5.0647h-5.0455"/><path id="path17891" d="m3905.4 1502.6h-0.035v-5.0647h5.0647v5.0647h-5.0301"/><path id="path17889" d="m3895.2 1502.6h-0.043v-5.0647h5.0647v5.0647h-5.0218"/><path id="path17887" d="m3880.1 1502.6h-0.054v-5.0647h0.054"/><path id="path17885" d="m3880.1 1497.6h5.0104v5.0647h-5.0103"/><path id="path17883" d="m3875 1502.6h-0.058v-5.0647h0.058"/><path id="path17881" d="m3875 1497.6h5.0069v5.0647h-5.0068"/><path id="path17879" d="m3864.9 1502.6h-0.066v-5.0647h0.066"/><path id="path17877" d="m3864.9 1497.6h4.999v5.0647h-4.999"/><path id="path17875" d="m3849.7 1502.6h-0.077v-5.0647h0.077"/><path id="path17873" d="m3849.7 1497.6h4.9877v5.0647h-4.9877"/><path id="path17871" d="m3844.6 1502.6h-0.081v-5.0647h5.0646v5.0647h-4.9835"/><path id="path17869" d="m3829.4 1502.6h-0.093v-5.0647h5.0646v5.0647h-4.9716"/><path id="path17867" d="m3804.1 1502.6h-0.1116v-5.0647h0.1115"/><path id="path17865" d="m3804.1 1497.6h4.9532v5.0647h-4.9531"/><path id="path17863" d="m3799.1 1502.6h-0.1158v-5.0647h5.0646v5.0647h-4.9488"/><path id="path17861" d="m3794 1502.6h-0.1199v-5.0647h5.0647v5.0647h-4.9448"/><path id="path17859" d="m3789 1502.6h-0.124v-5.0647h0.124"/><path id="path17857" d="m3789 1497.6h4.9407v5.0647h-4.9407"/><path id="path17855" d="m3773.8 1502.6h-0.1354v-5.0647h5.0646v5.0647h-4.9292"/><path id="path17853" d="m3743.4 1502.6h-0.1581v-5.0647h5.0647v5.0647h-4.9066"/><path id="path17851" d="m3940.8 1497.6h-0.01v-5.0646h5.0647v5.0646h-5.0569"/><path id="path17849" d="m3930.7 1497.6h-0.016v-5.0646h0.015"/><path id="path17847" d="m3930.7 1492.5h5.0493v5.0646h-5.0492"/><path id="path17845" d="m3925.6 1497.6h-0.019v-5.0646h5.0646v5.0646h-5.0455"/><path id="path17843" d="m3915.5 1497.6h-0.027v-5.0646h0.027"/><path id="path17841" d="m3915.5 1492.5h5.0373v5.0646h-5.0372"/><path id="path17839" d="m3905.4 1497.6h-0.035v-5.0646h5.0647v5.0646h-5.0301"/><path id="path17837" d="m3895.2 1497.6h-0.043v-5.0646h0.043"/><path id="path17835" d="m3895.2 1492.5h5.0218v5.0646h-5.0218"/><path id="path17833" d="m3854.8 1497.6h-0.073v-5.0646h0.073"/><path id="path17831" d="m3854.8 1492.5h4.9911v5.0646h-4.9912"/><path id="path17829" d="m3844.6 1497.6h-0.081v-5.0646h5.0646v5.0646h-4.9835"/><path id="path17827" d="m3839.6 1497.6h-0.085v-5.0646h0.085"/><path id="path17825" d="m3839.6 1492.5h4.98v5.0646h-4.9799"/><path id="path17823" d="m3834.5 1497.6h-0.089v-5.0646h5.0647v5.0646h-4.9758"/><path id="path17821" d="m3829.4 1497.6h-0.093v-5.0646h5.0646v5.0646h-4.9716"/><path id="path17819" d="m3824.4 1497.6h-0.097v-5.0646h0.097"/><path id="path17817" d="m3824.4 1492.5h4.9681v5.0646h-4.9681"/><path id="path17815" d="m3814.3 1497.6h-0.1044v-5.0646h0.1043"/><path id="path17813" d="m3814.3 1492.5h4.9604v5.0646h-4.9603"/><path id="path17811" d="m3809.2 1497.6h-0.1085v-5.0646h0.1085"/><path id="path17809" d="m3809.2 1492.5h4.9561v5.0646h-4.9561"/><path id="path17807" d="m3799.1 1497.6h-0.1158v-5.0646h0.1158"/><path id="path17805" d="m3799.1 1492.5h4.9488v5.0646h-4.9488"/><path id="path17803" d="m3794 1497.6h-0.1199v-5.0646h0.12"/><path id="path17801" d="m3794 1492.5h4.9447v5.0646h-4.9448"/><path id="path17799" d="m3773.8 1497.6h-0.1354v-5.0646h0.1354"/><path id="path17797" d="m3773.8 1492.5h4.9292v5.0646h-4.9292"/><path id="path17795" d="m3768.7 1497.6h-0.139v-5.0646h0.1391"/><path id="path17793" d="m3768.7 1492.5h4.9256v5.0646h-4.9257"/><path id="path17791" d="m3763.7 1497.6h-0.1426v-5.0646h0.1426"/><path id="path17789" d="m3763.7 1492.5h4.922v5.0646h-4.922"/><path id="path17787" d="m3758.6 1497.6h-0.1468v-5.0646h0.1468"/><path id="path17785" d="m3758.6 1492.5h4.9179v5.0646h-4.9179"/><path id="path17783" d="m3753.5 1497.6h-0.1504v-5.0646h0.1503"/><path id="path17781" d="m3753.5 1492.5h4.9144v5.0646h-4.9143"/><path id="path17779" d="m3748.5 1497.6h-0.1545v-5.0646h0.1545"/><path id="path17777" d="m3748.5 1492.5h4.9101v5.0646h-4.9101"/><path id="path17775" d="m3743.4 1497.6h-0.1581v-5.0646h0.158"/><path id="path17773" d="m3743.4 1492.5h4.9067v5.0646h-4.9066"/><path id="path17771" d="m3945.8 1492.5v-5.0647"/><path id="path17769" d="m3950.9 1492.5h-5.0611"/><path id="path17767" d="m3950.9 1487.4v5.0647"/><path id="path17765" d="m3945.8 1487.4h5.0611"/><path id="path17763" d="m3940.8 1492.5h-0.01v-5.0647h0.01"/><path id="path17761" d="m3940.8 1487.4h5.057v5.0647h-5.0569"/><path id="path17759" d="m3935.7 1492.5h-0.012v-5.0647h5.0646v5.0647h-5.0527"/><path id="path17757" d="m3925.6 1492.5h-0.019v-5.0647h5.0646v5.0647h-5.0455"/><path id="path17755" d="m3905.4 1492.5h-0.035v-5.0647h5.0647v5.0647h-5.0301"/><path id="path17753" d="m3900.3 1492.5h-0.039v-5.0647h0.039"/><path id="path17751" d="m3900.3 1487.4h5.0259v5.0647h-5.0258"/><path id="path17749" d="m3890.2 1492.5h-0.046v-5.0647h0.046"/><path id="path17747" d="m3890.2 1487.4h5.0187v5.0647h-5.0186"/><path id="path17745" d="m3885.1 1492.5h-0.05v-5.0647h5.0647v5.0647h-5.0146"/><path id="path17743" d="m3875 1492.5h-0.058v-5.0647h5.0647v5.0647h-5.0068"/><path id="path17741" d="m3859.8 1492.5h-0.07v-5.0647h0.07"/><path id="path17739" d="m3859.8 1487.4h4.9949v5.0647h-4.9949"/><path id="path17737" d="m3849.7 1492.5h-0.077v-5.0647h0.077"/><path id="path17735" d="m3849.7 1487.4h4.9877v5.0647h-4.9877"/><path id="path17733" d="m3844.6 1492.5h-0.081v-5.0647h5.0646v5.0647h-4.9835"/><path id="path17731" d="m3834.5 1492.5h-0.089v-5.0647h5.0647v5.0647h-4.9758"/><path id="path17729" d="m3829.4 1492.5h-0.093v-5.0647h5.0646v5.0647h-4.9716"/><path id="path17727" d="m3819.3 1492.5h-0.1003v-5.0647h5.0646v5.0647h-4.9643"/><path id="path17725" d="m3783.9 1492.5h-0.1271v-5.0647h5.0646v5.0647h-4.9375"/><path id="path17723" d="m3935.7 1487.4h-0.012v-5.0647h0.012"/><path id="path17721" d="m3935.7 1482.4h5.0527v5.0647h-5.0527"/><path id="path17719" d="m3925.6 1487.4h-0.019v-5.0647h5.0646v5.0647h-5.0455"/><path id="path17717" d="m3920.5 1487.4h-0.023v-5.0647h0.023"/><path id="path17715" d="m3920.5 1482.4h5.0414v5.0647h-5.0414"/><path id="path17713" d="m3915.5 1487.4h-0.027v-5.0647h0.027"/><path id="path17711" d="m3915.5 1482.4h5.0373v5.0647h-5.0372"/><path id="path17709" d="m3910.4 1487.4h-0.03v-5.0647h5.0647v5.0647h-5.0342"/><path id="path17707" d="m3905.4 1487.4h-0.035v-5.0647h0.034"/><path id="path17705" d="m3905.4 1482.4h5.0302v5.0647h-5.0301"/><path id="path17703" d="m3885.1 1487.4h-0.05v-5.0647h0.05"/><path id="path17701" d="m3885.1 1482.4h5.0145v5.0647h-5.0146"/><path id="path17699" d="m3880.1 1487.4h-0.054v-5.0647h0.054"/><path id="path17697" d="m3880.1 1482.4h5.0104v5.0647h-5.0103"/><path id="path17695" d="m3875 1487.4h-0.058v-5.0647h0.058"/><path id="path17693" d="m3875 1482.4h5.0069v5.0647h-5.0068"/><path id="path17691" d="m3854.8 1487.4h-0.073v-5.0647h5.0646v5.0647h-4.9912"/><path id="path17689" d="m3844.6 1487.4h-0.081v-5.0647h0.081"/><path id="path17687" d="m3844.6 1482.4h4.9834v5.0647h-4.9835"/><path id="path17685" d="m3834.5 1487.4h-0.089v-5.0647h5.0647v5.0647h-4.9758"/><path id="path17683" d="m3829.4 1487.4h-0.093v-5.0647h5.0646v5.0647h-4.9716"/><path id="path17681" d="m3824.4 1487.4h-0.097v-5.0647h0.097"/><path id="path17679" d="m3824.4 1482.4h4.9681v5.0647h-4.9681"/><path id="path17677" d="m3819.3 1487.4h-0.1003v-5.0647h0.1004"/><path id="path17675" d="m3819.3 1482.4h4.9642v5.0647h-4.9643"/><path id="path17673" d="m3814.3 1487.4h-0.1044v-5.0647h0.1043"/><path id="path17671" d="m3814.3 1482.4h4.9604v5.0647h-4.9603"/><path id="path17669" d="m3794 1487.4h-0.1199v-5.0647h5.0647v5.0647h-4.9448"/><path id="path17667" d="m3783.9 1487.4h-0.1271v-5.0647h0.1272"/><path id="path17665" d="m3783.9 1482.4h4.9374v5.0647h-4.9375"/><path id="path17663" d="m3773.8 1487.4h-0.1354v-5.0647h0.1354"/><path id="path17661" d="m3773.8 1482.4h4.9292v5.0647h-4.9292"/><path id="path17659" d="m3753.5 1487.4h-0.1504v-5.0647h0.1503"/><path id="path17657" d="m3753.5 1482.4h4.9144v5.0647h-4.9143"/><path id="path17655" d="m3743.4 1487.4h-0.1581v-5.0647h0.158"/><path id="path17653" d="m3743.4 1482.4h4.9067v5.0647h-4.9066"/><path id="path17651" d="m3945.8 1482.4v-5.0646h5.0647v5.0646"/><path id="path17649" d="m3950.9 1482.4h-5.0611"/><path id="path17647" d="m3940.8 1482.4h-0.01v-5.0646h5.0647v5.0646h-5.0569"/><path id="path17645" d="m3930.7 1482.4h-0.016v-5.0646h5.0647v5.0646h-5.0492"/><path id="path17643" d="m3925.6 1482.4h-0.019v-5.0646h5.0646v5.0646h-5.0455"/><path id="path17641" d="m3910.4 1482.4h-0.03v-5.0646h0.03"/><path id="path17639" d="m3910.4 1477.3h5.0343v5.0646h-5.0342"/><path id="path17637" d="m3895.2 1482.4h-0.043v-5.0646h5.0647v5.0646h-5.0218"/><path id="path17635" d="m3890.2 1482.4h-0.046v-5.0646h5.0646v5.0646h-5.0186"/><path id="path17633" d="m3854.8 1482.4h-0.073v-5.0646h5.0646v5.0646h-4.9912"/><path id="path17631" d="m3849.7 1482.4h-0.077v-5.0646h5.0647v5.0646h-4.9877"/><path id="path17629" d="m3834.5 1482.4h-0.089v-5.0646h0.089"/><path id="path17627" d="m3834.5 1477.3h4.9758v5.0646h-4.9758"/><path id="path17625" d="m3829.4 1482.4h-0.093v-5.0646h0.093"/><path id="path17623" d="m3829.4 1477.3h4.9717v5.0646h-4.9716"/><path id="path17621" d="m3804.1 1482.4h-0.1116v-5.0646h0.1115"/><path id="path17619" d="m3804.1 1477.3h4.9532v5.0646h-4.9531"/><path id="path17617" d="m3799.1 1482.4h-0.1158v-5.0646h5.0646v5.0646h-4.9488"/><path id="path17615" d="m3794 1482.4h-0.1199v-5.0646h0.12"/><path id="path17613" d="m3794 1477.3h4.9447v5.0646h-4.9448"/><path id="path17611" d="m3789 1482.4h-0.124v-5.0646h5.0647v5.0646h-4.9407"/><path id="path17609" d="m3768.7 1482.4h-0.139v-5.0646h5.0647v5.0646h-4.9257"/><path id="path17607" d="m3945.8 1477.3v-5.0647h5.0647v5.0647h-5.0611"/><path id="path17605" d="m3940.8 1477.3h-0.01v-5.0647h0.01"/><path id="path17603" d="m3940.8 1472.3h5.057v5.0647h-5.0569"/><path id="path17601" d="m3930.7 1477.3h-0.016v-5.0647h5.0647v5.0647h-5.0492"/><path id="path17599" d="m3925.6 1477.3h-0.019v-5.0647h0.019"/><path id="path17597" d="m3925.6 1472.3h5.0456v5.0647h-5.0455"/><path id="path17595" d="m3920.5 1477.3h-0.023v-5.0647h5.0647v5.0647h-5.0414"/><path id="path17593" d="m3895.2 1477.3h-0.043v-5.0647h0.043"/><path id="path17591" d="m3895.2 1472.3h5.0218v5.0647h-5.0218"/><path id="path17589" d="m3890.2 1477.3h-0.046v-5.0647h0.046"/><path id="path17587" d="m3890.2 1472.3h5.0187v5.0647h-5.0186"/><path id="path17585" d="m3885.1 1477.3h-0.05v-5.0647h5.0647v5.0647h-5.0146"/><path id="path17583" d="m3880.1 1477.3h-0.054v-5.0647h5.0646v5.0647h-5.0103"/><path id="path17581" d="m3869.9 1477.3h-0.061v-5.0647h5.0647v5.0647h-5.0032"/><path id="path17579" d="m3854.8 1477.3h-0.073v-5.0647h5.0646v5.0647h-4.9912"/><path id="path17577" d="m3849.7 1477.3h-0.077v-5.0647h5.0647v5.0647h-4.9877"/><path id="path17575" d="m3844.6 1477.3h-0.081v-5.0647h0.081"/><path id="path17573" d="m3844.6 1472.3h4.9834v5.0647h-4.9835"/><path id="path17571" d="m3824.4 1477.3h-0.097v-5.0647h0.097"/><path id="path17569" d="m3824.4 1472.3h4.9681v5.0647h-4.9681"/><path id="path17567" d="m3819.3 1477.3h-0.1003v-5.0647h0.1004"/><path id="path17565" d="m3819.3 1472.3h4.9642v5.0647h-4.9643"/><path id="path17563" d="m3809.2 1477.3h-0.1085v-5.0647h5.0646v5.0647h-4.9561"/><path id="path17561" d="m3799.1 1477.3h-0.1158v-5.0647h5.0646v5.0647h-4.9488"/><path id="path17559" d="m3789 1477.3h-0.124v-5.0647h5.0647v5.0647h-4.9407"/><path id="path17557" d="m3783.9 1477.3h-0.1271v-5.0647h0.1272"/><path id="path17555" d="m3783.9 1472.3h4.9374v5.0647h-4.9375"/><path id="path17553" d="m3773.8 1477.3h-0.1354v-5.0647h0.1354"/><path id="path17551" d="m3773.8 1472.3h4.9292v5.0647h-4.9292"/><path id="path17549" d="m3768.7 1477.3h-0.139v-5.0647h5.0647v5.0647h-4.9257"/><path id="path17547" d="m3743.4 1477.3h-0.1581v-5.0647h0.158"/><path id="path17545" d="m3743.4 1472.3h4.9067v5.0647h-4.9066"/><path id="path17543" d="m3945.8 1472.3v-5.0646"/><path id="path17541" d="m3950.9 1467.2v5.0646h-5.0611"/><path id="path17539" d="m3945.8 1467.2h5.0611"/><path id="path17537" d="m3935.7 1472.3h-0.012v-5.0646h0.012"/><path id="path17535" d="m3935.7 1467.2h5.0527v5.0646h-5.0527"/><path id="path17533" d="m3930.7 1472.3h-0.016v-5.0646h0.015"/><path id="path17531" d="m3930.7 1467.2h5.0493v5.0646h-5.0492"/><path id="path17529" d="m3920.5 1472.3h-0.023v-5.0646h0.023"/><path id="path17527" d="m3920.5 1467.2h5.0414v5.0646h-5.0414"/><path id="path17525" d="m3910.4 1472.3h-0.03v-5.0646h5.0647v5.0646h-5.0342"/><path id="path17523" d="m3905.4 1472.3h-0.035v-5.0646h0.034"/><path id="path17521" d="m3905.4 1467.2h5.0302v5.0646h-5.0301"/><path id="path17519" d="m3900.3 1472.3h-0.039v-5.0646h0.039"/><path id="path17517" d="m3900.3 1467.2h5.0259v5.0646h-5.0258"/><path id="path17515" d="m3885.1 1472.3h-0.05v-5.0646h0.05"/><path id="path17513" d="m3885.1 1467.2h5.0145v5.0646h-5.0146"/><path id="path17511" d="m3880.1 1472.3h-0.054v-5.0646h0.054"/><path id="path17509" d="m3880.1 1467.2h5.0104v5.0646h-5.0103"/><path id="path17507" d="m3869.9 1472.3h-0.061v-5.0646h0.061"/><path id="path17505" d="m3869.9 1467.2h5.0033v5.0646h-5.0032"/><path id="path17503" d="m3864.9 1472.3h-0.066v-5.0646h5.0646v5.0646h-4.999"/><path id="path17501" d="m3859.8 1472.3h-0.07v-5.0646h5.0647v5.0646h-4.9949"/><path id="path17499" d="m3854.8 1472.3h-0.073v-5.0646h0.073"/><path id="path17497" d="m3854.8 1467.2h4.9911v5.0646h-4.9912"/><path id="path17495" d="m3849.7 1472.3h-0.077v-5.0646h5.0647v5.0646h-4.9877"/><path id="path17493" d="m3834.5 1472.3h-0.089v-5.0646h5.0647v5.0646h-4.9758"/><path id="path17491" d="m3809.2 1472.3h-0.1085v-5.0646h0.1085"/><path id="path17489" d="m3809.2 1467.2h4.9561v5.0646h-4.9561"/><path id="path17487" d="m3799.1 1472.3h-0.1158v-5.0646h5.0646v5.0646h-4.9488"/><path id="path17485" d="m3789 1472.3h-0.124v-5.0646h5.0647v5.0646h-4.9407"/><path id="path17483" d="m3768.7 1472.3h-0.139v-5.0646h5.0647v5.0646h-4.9257"/><path id="path17481" d="m3753.5 1472.3h-0.1504v-5.0646h5.0647v5.0646h-4.9143"/><path id="path17479" d="m3940.8 1467.2h-0.01v-5.0647h5.0647v5.0647h-5.0569"/><path id="path17477" d="m3915.5 1467.2h-0.027v-5.0647h5.0646v5.0647h-5.0372"/><path id="path17475" d="m3910.4 1467.2h-0.03v-5.0647h5.0647v5.0647h-5.0342"/><path id="path17473" d="m3890.2 1467.2h-0.046v-5.0647h5.0646v5.0647h-5.0186"/><path id="path17471" d="m3875 1467.2h-0.058v-5.0647h0.058"/><path id="path17469" d="m3875 1462.1h5.0069v5.0647h-5.0068"/><path id="path17467" d="m3864.9 1467.2h-0.066v-5.0647h5.0646v5.0647h-4.999"/><path id="path17465" d="m3859.8 1467.2h-0.07v-5.0647h0.07"/><path id="path17463" d="m3859.8 1462.1h4.9949v5.0647h-4.9949"/><path id="path17461" d="m3849.7 1467.2h-0.077v-5.0647h5.0647v5.0647h-4.9877"/><path id="path17459" d="m3839.6 1467.2h-0.085v-5.0647h0.085"/><path id="path17457" d="m3839.6 1462.1h4.98v5.0647h-4.9799"/><path id="path17455" d="m3834.5 1467.2h-0.089v-5.0647h0.089"/><path id="path17453" d="m3834.5 1462.1h4.9758v5.0647h-4.9758"/><path id="path17451" d="m3819.3 1467.2h-0.1003v-5.0647h0.1004"/><path id="path17449" d="m3819.3 1462.1h4.9642v5.0647h-4.9643"/><path id="path17447" d="m3814.3 1467.2h-0.1044v-5.0647h5.0647v5.0647h-4.9603"/><path id="path17445" d="m3799.1 1467.2h-0.1158v-5.0647h0.1158"/><path id="path17443" d="m3799.1 1462.1h4.9488v5.0647h-4.9488"/><path id="path17441" d="m3789 1467.2h-0.124v-5.0647h0.124"/><path id="path17439" d="m3789 1462.1h4.9407v5.0647h-4.9407"/><path id="path17437" d="m3778.8 1467.2h-0.1313v-5.0647h5.0647v5.0647h-4.9334"/><path id="path17435" d="m3773.8 1467.2h-0.1354v-5.0647h0.1354"/><path id="path17433" d="m3773.8 1462.1h4.9292v5.0647h-4.9292"/><path id="path17431" d="m3768.7 1467.2h-0.139v-5.0647h5.0647v5.0647h-4.9257"/><path id="path17429" d="m3763.7 1467.2h-0.1426v-5.0647h5.0646v5.0647h-4.922"/><path id="path17427" d="m3758.6 1467.2h-0.1468v-5.0647h0.1468"/><path id="path17425" d="m3758.6 1462.1h4.9179v5.0647h-4.9179"/><path id="path17423" d="m3753.5 1467.2h-0.1504v-5.0647h5.0647v5.0647h-4.9143"/><path id="path17421" d="m3748.5 1467.2h-0.1545v-5.0647h5.0646v5.0647h-4.9101"/><path id="path17419" d="m3945.8 1462.1v-5.0646h5.0647v5.0646"/><path id="path17417" d="m3950.9 1462.1h-5.0611"/><path id="path17415" d="m3940.8 1462.1h-0.01v-5.0646h5.0647v5.0646h-5.0569"/><path id="path17413" d="m3925.6 1462.1h-0.019v-5.0646h5.0646v5.0646h-5.0455"/><path id="path17411" d="m3920.5 1462.1h-0.023v-5.0646h0.023"/><path id="path17409" d="m3920.5 1457.1h5.0414v5.0646h-5.0414"/><path id="path17407" d="m3915.5 1462.1h-0.027v-5.0646h0.027"/><path id="path17405" d="m3915.5 1457.1h5.0373v5.0646h-5.0372"/><path id="path17403" d="m3910.4 1462.1h-0.03v-5.0646h5.0647v5.0646h-5.0342"/><path id="path17401" d="m3905.4 1462.1h-0.035v-5.0646h5.0647v5.0646h-5.0301"/><path id="path17399" d="m3890.2 1462.1h-0.046v-5.0646h0.046"/><path id="path17397" d="m3890.2 1457.1h5.0187v5.0646h-5.0186"/><path id="path17395" d="m3885.1 1462.1h-0.05v-5.0646h0.05"/><path id="path17393" d="m3885.1 1457.1h5.0145v5.0646h-5.0146"/><path id="path17391" d="m3880.1 1462.1h-0.054v-5.0646h0.054"/><path id="path17389" d="m3880.1 1457.1h5.0104v5.0646h-5.0103"/><path id="path17387" d="m3864.9 1462.1h-0.066v-5.0646h0.066"/><path id="path17385" d="m3864.9 1457.1h4.999v5.0646h-4.999"/><path id="path17383" d="m3849.7 1462.1h-0.077v-5.0646h5.0647v5.0646h-4.9877"/><path id="path17381" d="m3844.6 1462.1h-0.081v-5.0646h5.0646v5.0646h-4.9835"/><path id="path17379" d="m3824.4 1462.1h-0.097v-5.0646h0.097"/><path id="path17377" d="m3824.4 1457.1h4.9681v5.0646h-4.9681"/><path id="path17375" d="m3814.3 1462.1h-0.1044v-5.0646h5.0647v5.0646h-4.9603"/><path id="path17373" d="m3794 1462.1h-0.1199v-5.0646h5.0647v5.0646h-4.9448"/><path id="path17371" d="m3778.8 1462.1h-0.1313v-5.0646h0.1312"/><path id="path17369" d="m3778.8 1457.1h4.9335v5.0646h-4.9334"/><path id="path17367" d="m3768.7 1462.1h-0.139v-5.0646h0.1391"/><path id="path17365" d="m3768.7 1457.1h4.9256v5.0646h-4.9257"/><path id="path17363" d="m3763.7 1462.1h-0.1426v-5.0646h5.0646v5.0646h-4.922"/><path id="path17361" d="m3753.5 1462.1h-0.1504v-5.0646h5.0647v5.0646h-4.9143"/><path id="path17359" d="m3748.5 1462.1h-0.1545v-5.0646h5.0646v5.0646h-4.9101"/><path id="path17357" d="m3743.4 1462.1h-0.1581v-5.0646h0.158"/><path id="path17355" d="m3743.4 1457.1h4.9067v5.0646h-4.9066"/><path id="path17353" d="m3945.8 1457.1v-5.0647"/><path id="path17351" d="m3950.9 1452v5.0647h-5.0611"/><path id="path17349" d="m3945.8 1452h5.0611"/><path id="path17347" d="m3940.8 1457.1h-0.01v-5.0647h5.0647v5.0647h-5.0569"/><path id="path17345" d="m3925.6 1457.1h-0.019v-5.0647h0.019"/><path id="path17343" d="m3925.6 1452h5.0456v5.0647h-5.0455"/><path id="path17341" d="m3910.4 1457.1h-0.03v-5.0647h0.03"/><path id="path17339" d="m3910.4 1452h5.0343v5.0647h-5.0342"/><path id="path17337" d="m3905.4 1457.1h-0.035v-5.0647h0.034"/><path id="path17335" d="m3905.4 1452h5.0302v5.0647h-5.0301"/><path id="path17333" d="m3875 1457.1h-0.058v-5.0647h0.058"/><path id="path17331" d="m3875 1452h5.0069v5.0647h-5.0068"/><path id="path17329" d="m3869.9 1457.1h-0.061v-5.0647h0.061"/><path id="path17327" d="m3869.9 1452h5.0033v5.0647h-5.0032"/><path id="path17325" d="m3849.7 1457.1h-0.077v-5.0647h5.0647v5.0647h-4.9877"/><path id="path17323" d="m3844.6 1457.1h-0.081v-5.0647h5.0646v5.0647h-4.9835"/><path id="path17321" d="m3829.4 1457.1h-0.093v-5.0647h0.093"/><path id="path17319" d="m3829.4 1452h4.9717v5.0647h-4.9716"/><path id="path17317" d="m3814.3 1457.1h-0.1044v-5.0647h5.0647v5.0647h-4.9603"/><path id="path17315" d="m3809.2 1457.1h-0.1085v-5.0647h5.0646v5.0647h-4.9561"/><path id="path17313" d="m3794 1457.1h-0.1199v-5.0647h0.12"/><path id="path17310" d="m3794 1452h4.9447v5.0647h-4.9448"/><path id="path17308" d="m3789 1457.1h-0.124v-5.0647h5.0647v5.0647h-4.9407"/><path id="path17306" d="m3783.9 1457.1h-0.1271v-5.0647h5.0646v5.0647h-4.9375"/><path id="path17304" d="m3773.8 1457.1h-0.1354v-5.0647h0.1354"/><path id="path17302" d="m3773.8 1452h4.9292v5.0647h-4.9292"/><path id="path17300" d="m3763.7 1457.1h-0.1426v-5.0647h5.0646v5.0647h-4.922"/><path id="path17298" d="m3753.5 1457.1h-0.1504v-5.0647h0.1503"/><path id="path17296" d="m3753.5 1452h4.9144v5.0647h-4.9143"/><path id="path17294" d="m3748.5 1457.1h-0.1545v-5.0647h0.1545"/><path id="path17292" d="m3748.5 1452h4.9101v5.0647h-4.9101"/><path id="path17290" d="m3940.8 1452h-0.01v-5.0647h0.01"/><path id="path17288" d="m3940.8 1446.9h5.057v5.0647h-5.0569"/><path id="path17286" d="m3930.7 1452h-0.016v-5.0647h0.015"/><path id="path17284" d="m3930.7 1446.9h5.0493v5.0647h-5.0492"/><path id="path17282" d="m3900.3 1452h-0.039v-5.0647h5.0646v5.0647h-5.0258"/><path id="path17280" d="m3895.2 1452h-0.043v-5.0647h0.043"/><path id="path17278" d="m3895.2 1446.9h5.0218v5.0647h-5.0218"/><path id="path17276" d="m3859.8 1452h-0.07v-5.0647h0.07"/><path id="path17274" d="m3859.8 1446.9h4.9949v5.0647h-4.9949"/><path id="path17272" d="m3854.8 1452h-0.073v-5.0647h0.073"/><path id="path17270" d="m3854.8 1446.9h4.9911v5.0647h-4.9912"/><path id="path17268" d="m3849.7 1452h-0.077v-5.0647h5.0647v5.0647h-4.9877"/><path id="path17266" d="m3844.6 1452h-0.081v-5.0647h5.0646v5.0647h-4.9835"/><path id="path17264" d="m3834.5 1452h-0.089v-5.0647h5.0647v5.0647h-4.9758"/><path id="path17262" d="m3824.4 1452h-0.097v-5.0647h5.0647v5.0647h-4.9681"/><path id="path17260" d="m3814.3 1452h-0.1044v-5.0647h0.1043"/><path id="path17258" d="m3814.3 1446.9h4.9604v5.0647h-4.9603"/><path id="path17256" d="m3809.2 1452h-0.1085v-5.0647h0.1085"/><path id="path17254" d="m3809.2 1446.9h4.9561v5.0647h-4.9561"/><path id="path17252" d="m3804.1 1452h-0.1116v-5.0647h0.1115"/><path id="path17250" d="m3804.1 1446.9h4.9532v5.0647h-4.9531"/><path id="path17248" d="m3789 1452h-0.124v-5.0647h5.0647v5.0647h-4.9407"/><path id="path17246" d="m3783.9 1452h-0.1271v-5.0647h0.1272"/><path id="path17244" d="m3783.9 1446.9h4.9374v5.0647h-4.9375"/><path id="path17242" d="m3778.8 1452h-0.1313v-5.0647h0.1312"/><path id="path17240" d="m3778.8 1446.9h4.9335v5.0647h-4.9334"/><path id="path17238" d="m3768.7 1452h-0.139v-5.0647h5.0647v5.0647h-4.9257"/><path id="path17236" d="m3763.7 1452h-0.1426v-5.0647h0.1426"/><path id="path17234" d="m3763.7 1446.9h4.922v5.0647h-4.922"/><path id="path17232" d="m3758.6 1452h-0.1468v-5.0647h0.1468"/><path id="path17230" d="m3758.6 1446.9h4.9179v5.0647h-4.9179"/><path id="path17228" d="m3945.8 1446.9v-5.0646"/><path id="path17226" d="m3950.9 1446.9h-5.0611"/><path id="path17224" d="m3950.9 1441.9v5.0646"/><path id="path17222" d="m3945.8 1441.9h5.0611"/><path id="path17220" d="m3915.5 1446.9h-0.027v-5.0646h5.0646v5.0646h-5.0372"/><path id="path17218" d="m3910.4 1446.9h-0.03v-5.0646h0.03"/><path id="path17216" d="m3910.4 1441.9h5.0343v5.0646h-5.0342"/><path id="path17214" d="m3905.4 1446.9h-0.035v-5.0646h0.034"/><path id="path17212" d="m3905.4 1441.9h5.0302v5.0646h-5.0301"/><path id="path17210" d="m3900.3 1446.9h-0.039v-5.0646h5.0646v5.0646h-5.0258"/><path id="path17208" d="m3890.2 1446.9h-0.046v-5.0646h0.046"/><path id="path17206" d="m3890.2 1441.9h5.0187v5.0646h-5.0186"/><path id="path17204" d="m3885.1 1446.9h-0.05v-5.0646h0.05"/><path id="path17202" d="m3885.1 1441.9h5.0145v5.0646h-5.0146"/><path id="path17200" d="m3880.1 1446.9h-0.054v-5.0646h5.0646v5.0646h-5.0103"/><path id="path17198" d="m3869.9 1446.9h-0.061v-5.0646h5.0647v5.0646h-5.0032"/><path id="path17196" d="m3864.9 1446.9h-0.066v-5.0646h5.0646v5.0646h-4.999"/><path id="path17194" d="m3849.7 1446.9h-0.077v-5.0646h5.0647v5.0646h-4.9877"/><path id="path17192" d="m3844.6 1446.9h-0.081v-5.0646h5.0646v5.0646h-4.9835"/><path id="path17190" d="m3839.6 1446.9h-0.085v-5.0646h5.0647v5.0646h-4.9799"/><path id="path17188" d="m3834.5 1446.9h-0.089v-5.0646h5.0647v5.0646h-4.9758"/><path id="path17186" d="m3829.4 1446.9h-0.093v-5.0646h0.093"/><path id="path17184" d="m3829.4 1441.9h4.9717v5.0646h-4.9716"/><path id="path17182" d="m3824.4 1446.9h-0.097v-5.0646h0.097"/><path id="path17180" d="m3824.4 1441.9h4.9681v5.0646h-4.9681"/><path id="path17178" d="m3799.1 1446.9h-0.1158v-5.0646h5.0646v5.0646h-4.9488"/><path id="path17176" d="m3789 1446.9h-0.124v-5.0646h0.124"/><path id="path17174" d="m3789 1441.9h4.9407v5.0646h-4.9407"/><path id="path17172" d="m3773.8 1446.9h-0.1354v-5.0646h0.1354"/><path id="path17170" d="m3773.8 1441.9h4.9292v5.0646h-4.9292"/><path id="path17168" d="m3768.7 1446.9h-0.139v-5.0646h0.1391"/><path id="path17166" d="m3768.7 1441.9h4.9256v5.0646h-4.9257"/><path id="path17164" d="m3753.5 1446.9h-0.1504v-5.0646h5.0647v5.0646h-4.9143"/><path id="path17162" d="m3748.5 1446.9h-0.1545v-5.0646h0.1545"/><path id="path17160" d="m3748.5 1441.9h4.9101v5.0646h-4.9101"/><path id="path17158" d="m3935.7 1441.9h-0.012v-5.0647h0.012"/><path id="path17156" d="m3935.7 1436.8h5.0527v5.0647h-5.0527"/><path id="path17154" d="m3925.6 1441.9h-0.019v-5.0647h0.019"/><path id="path17152" d="m3925.6 1436.8h5.0456v5.0647h-5.0455"/><path id="path17150" d="m3920.5 1441.9h-0.023v-5.0647h5.0647v5.0647h-5.0414"/><path id="path17148" d="m3915.5 1441.9h-0.027v-5.0647h5.0646v5.0647h-5.0372"/><path id="path17146" d="m3900.3 1441.9h-0.039v-5.0647h5.0646v5.0647h-5.0258"/><path id="path17144" d="m3895.2 1441.9h-0.043v-5.0647h0.043"/><path id="path17142" d="m3895.2 1436.8h5.0218v5.0647h-5.0218"/><path id="path17140" d="m3880.1 1441.9h-0.054v-5.0647h0.054"/><path id="path17138" d="m3880.1 1436.8h5.0104v5.0647h-5.0103"/><path id="path17136" d="m3869.9 1441.9h-0.061v-5.0647h5.0647v5.0647h-5.0032"/><path id="path17134" d="m3864.9 1441.9h-0.066v-5.0647h0.066"/><path id="path17132" d="m3864.9 1436.8h4.999v5.0647h-4.999"/><path id="path17130" d="m3859.8 1441.9h-0.07v-5.0647h5.0647v5.0647h-4.9949"/><path id="path17128" d="m3849.7 1441.9h-0.077v-5.0647h5.0647v5.0647h-4.9877"/><path id="path17126" d="m3844.6 1441.9h-0.081v-5.0647h0.081"/><path id="path17124" d="m3844.6 1436.8h4.9834v5.0647h-4.9835"/><path id="path17122" d="m3839.6 1441.9h-0.085v-5.0647h5.0647v5.0647h-4.9799"/><path id="path17120" d="m3834.5 1441.9h-0.089v-5.0647h0.089"/><path id="path17118" d="m3834.5 1436.8h4.9758v5.0647h-4.9758"/><path id="path17116" d="m3819.3 1441.9h-0.1003v-5.0647h5.0646v5.0647h-4.9643"/><path id="path17114" d="m3804.1 1441.9h-0.1116v-5.0647h0.1115"/><path id="path17112" d="m3804.1 1436.8h4.9532v5.0647h-4.9531"/><path id="path17110" d="m3799.1 1441.9h-0.1158v-5.0647h0.1158"/><path id="path17108" d="m3799.1 1436.8h4.9488v5.0647h-4.9488"/><path id="path17106" d="m3783.9 1441.9h-0.1271v-5.0647h5.0646v5.0647h-4.9375"/><path id="path17104" d="m3778.8 1441.9h-0.1313v-5.0647h5.0647v5.0647h-4.9334"/><path id="path17102" d="m3763.7 1441.9h-0.1426v-5.0647h0.1426"/><path id="path17100" d="m3763.7 1436.8h4.922v5.0647h-4.922"/><path id="path17098" d="m3758.6 1441.9h-0.1468v-5.0647h0.1468"/><path id="path17096" d="m3758.6 1436.8h4.9179v5.0647h-4.9179"/><path id="path17094" d="m3753.5 1441.9h-0.1504v-5.0647h5.0647v5.0647h-4.9143"/><path id="path17092" d="m3940.8 1436.8h-0.01v-5.0646h5.0647v5.0646h-5.0569"/><path id="path17090" d="m3930.7 1436.8h-0.016v-5.0646h5.0647v5.0646h-5.0492"/><path id="path17088" d="m3920.5 1436.8h-0.023v-5.0646h5.0647v5.0646h-5.0414"/><path id="path17086" d="m3915.5 1436.8h-0.027v-5.0646h5.0646v5.0646h-5.0372"/><path id="path17084" d="m3910.4 1436.8h-0.03v-5.0646h5.0647v5.0646h-5.0342"/><path id="path17082" d="m3905.4 1436.8h-0.035v-5.0646h5.0647v5.0646h-5.0301"/><path id="path17080" d="m3900.3 1436.8h-0.039v-5.0646h0.039"/><path id="path17078" d="m3900.3 1431.7h5.0259v5.0646h-5.0258"/><path id="path17076" d="m3890.2 1436.8h-0.046v-5.0646h0.046"/><path id="path17074" d="m3890.2 1431.7h5.0187v5.0646h-5.0186"/><path id="path17072" d="m3885.1 1436.8h-0.05v-5.0646h5.0647v5.0646h-5.0146"/><path id="path17070" d="m3869.9 1436.8h-0.061v-5.0646h5.0647v5.0646h-5.0032"/><path id="path17068" d="m3859.8 1436.8h-0.07v-5.0646h5.0647v5.0646h-4.9949"/><path id="path17066" d="m3849.7 1436.8h-0.077v-5.0646h5.0647v5.0646h-4.9877"/><path id="path17064" d="m3839.6 1436.8h-0.085v-5.0646h5.0647v5.0646h-4.9799"/><path id="path17062" d="m3819.3 1436.8h-0.1003v-5.0646h0.1004"/><path id="path17060" d="m3819.3 1431.7h4.9642v5.0646h-4.9643"/><path id="path17058" d="m3814.3 1436.8h-0.1044v-5.0646h5.0647v5.0646h-4.9603"/><path id="path17056" d="m3783.9 1436.8h-0.1271v-5.0646h0.1272"/><path id="path17054" d="m3783.9 1431.7h4.9374v5.0646h-4.9375"/><path id="path17052" d="m3778.8 1436.8h-0.1313v-5.0646h0.1312"/><path id="path17050" d="m3778.8 1431.7h4.9335v5.0646h-4.9334"/><path id="path17048" d="m3773.8 1436.8h-0.1354v-5.0646h0.1354"/><path id="path17046" d="m3773.8 1431.7h4.9292v5.0646h-4.9292"/><path id="path17044" d="m3753.5 1436.8h-0.1504v-5.0646h5.0647v5.0646h-4.9143"/><path id="path17042" d="m3748.5 1436.8h-0.1545v-5.0646h0.1545"/><path id="path17040" d="m3748.5 1431.7h4.9101v5.0646h-4.9101"/><path id="path17038" d="m3945.8 1431.7v-5.0647"/><path id="path17036" d="m3950.9 1431.7h-5.0611"/><path id="path17034" d="m3950.9 1426.7v5.0647"/><path id="path17032" d="m3945.8 1426.7h5.0611"/><path id="path17030" d="m3940.8 1431.7h-0.01v-5.0647h5.0647v5.0647h-5.0569"/><path id="path17028" d="m3930.7 1431.7h-0.016v-5.0647h0.015"/><path id="path17026" d="m3930.7 1426.7h5.0493v5.0647h-5.0492"/><path id="path17024" d="m3920.5 1431.7h-0.023v-5.0647h5.0647v5.0647h-5.0414"/><path id="path17022" d="m3915.5 1431.7h-0.027v-5.0647h5.0646v5.0647h-5.0372"/><path id="path17020" d="m3910.4 1431.7h-0.03v-5.0647h5.0647v5.0647h-5.0342"/><path id="path17018" d="m3905.4 1431.7h-0.035v-5.0647h0.034"/><path id="path17016" d="m3905.4 1426.7h5.0302v5.0647h-5.0301"/><path id="path17014" d="m3885.1 1431.7h-0.05v-5.0647h0.05"/><path id="path17012" d="m3885.1 1426.7h5.0145v5.0647h-5.0146"/><path id="path17010" d="m3875 1431.7h-0.058v-5.0647h0.058"/><path id="path17008" d="m3875 1426.7h5.0069v5.0647h-5.0068"/><path id="path17006" d="m3869.9 1431.7h-0.061v-5.0647h5.0647v5.0647h-5.0032"/><path id="path17004" d="m3859.8 1431.7h-0.07v-5.0647h5.0647v5.0647h-4.9949"/><path id="path17002" d="m3849.7 1431.7h-0.077v-5.0647h0.077"/><path id="path17000" d="m3849.7 1426.7h4.9877v5.0647h-4.9877"/><path id="path16998" d="m3839.6 1431.7h-0.085v-5.0647h5.0647v5.0647h-4.9799"/><path id="path16996" d="m3824.4 1431.7h-0.097v-5.0647h5.0647v5.0647h-4.9681"/><path id="path16994" d="m3814.3 1431.7h-0.1044v-5.0647h0.1043"/><path id="path16992" d="m3814.3 1426.7h4.9604v5.0647h-4.9603"/><path id="path16990" d="m3809.2 1431.7h-0.1085v-5.0647h0.1085"/><path id="path16988" d="m3809.2 1426.7h4.9561v5.0647h-4.9561"/><path id="path16986" d="m3804.1 1431.7h-0.1116v-5.0647h5.0647v5.0647h-4.9531"/><path id="path16984" d="m3768.7 1431.7h-0.139v-5.0647h0.1391"/><path id="path16982" d="m3768.7 1426.7h4.9256v5.0647h-4.9257"/><path id="path16980" d="m3758.6 1431.7h-0.1468v-5.0647h0.1468"/><path id="path16978" d="m3758.6 1426.7h4.9179v5.0647h-4.9179"/><path id="path16976" d="m3753.5 1431.7h-0.1504v-5.0647h5.0647v5.0647h-4.9143"/><path id="path16974" d="m3743.4 1431.7h-0.1581v-5.0647h5.0647v5.0647h-4.9066"/><path id="path16972" d="m3940.8 1426.7h-0.01v-5.0646h0.01"/><path id="path16970" d="m3940.8 1421.6h5.057v5.0646h-5.0569"/><path id="path16968" d="m3935.7 1426.7h-0.012v-5.0646h0.012"/><path id="path16966" d="m3935.7 1421.6h5.0527v5.0646h-5.0527"/><path id="path16964" d="m3920.5 1426.7h-0.023v-5.0646h5.0647v5.0646h-5.0414"/><path id="path16962" d="m3915.5 1426.7h-0.027v-5.0646h0.027"/><path id="path16960" d="m3915.5 1421.6h5.0373v5.0646h-5.0372"/><path id="path16958" d="m3910.4 1426.7h-0.03v-5.0646h5.0647v5.0646h-5.0342"/><path id="path16956" d="m3890.2 1426.7h-0.046v-5.0646h0.046"/><path id="path16954" d="m3890.2 1421.6h5.0187v5.0646h-5.0186"/><path id="path16952" d="m3880.1 1426.7h-0.054v-5.0646h5.0646v5.0646h-5.0103"/><path id="path16950" d="m3869.9 1426.7h-0.061v-5.0646h5.0647v5.0646h-5.0032"/><path id="path16948" d="m3859.8 1426.7h-0.07v-5.0646h5.0647v5.0646h-4.9949"/><path id="path16946" d="m3854.8 1426.7h-0.073v-5.0646h5.0646v5.0646h-4.9912"/><path id="path16944" d="m3844.6 1426.7h-0.081v-5.0646h0.081"/><path id="path16942" d="m3844.6 1421.6h4.9834v5.0646h-4.9835"/><path id="path16940" d="m3839.6 1426.7h-0.085v-5.0646h0.085"/><path id="path16938" d="m3839.6 1421.6h4.98v5.0646h-4.9799"/><path id="path16936" d="m3834.5 1426.7h-0.089v-5.0646h5.0647v5.0646h-4.9758"/><path id="path16934" d="m3829.4 1426.7h-0.093v-5.0646h5.0646v5.0646h-4.9716"/><path id="path16932" d="m3824.4 1426.7h-0.097v-5.0646h0.097"/><path id="path16930" d="m3824.4 1421.6h4.9681v5.0646h-4.9681"/><path id="path16928" d="m3819.3 1426.7h-0.1003v-5.0646h5.0646v5.0646h-4.9643"/><path id="path16926" d="m3804.1 1426.7h-0.1116v-5.0646h0.1115"/><path id="path16924" d="m3804.1 1421.6h4.9532v5.0646h-4.9531"/><path id="path16922" d="m3799.1 1426.7h-0.1158v-5.0646h5.0646v5.0646h-4.9488"/><path id="path16920" d="m3789 1426.7h-0.124v-5.0646h5.0647v5.0646h-4.9407"/><path id="path16918" d="m3773.8 1426.7h-0.1354v-5.0646h0.1354"/><path id="path16916" d="m3773.8 1421.6h4.9292v5.0646h-4.9292"/><path id="path16914" d="m3763.7 1426.7h-0.1426v-5.0646h5.0646v5.0646h-4.922"/><path id="path16912" d="m3753.5 1426.7h-0.1504v-5.0646h5.0647v5.0646h-4.9143"/><path id="path16910" d="m3748.5 1426.7h-0.1545v-5.0646h0.1545"/><path id="path16908" d="m3748.5 1421.6h4.9101v5.0646h-4.9101"/><path id="path16906" d="m3743.4 1426.7h-0.1581v-5.0646h0.158"/><path id="path16904" d="m3743.4 1421.6h4.9067v5.0646h-4.9066"/><path id="path16902" d="m3920.5 1421.6h-0.023v-5.0647h0.023"/><path id="path16900" d="m3920.5 1416.5h5.0414v5.0647h-5.0414"/><path id="path16898" d="m3910.4 1421.6h-0.03v-5.0647h0.03"/><path id="path16896" d="m3910.4 1416.5h5.0343v5.0647h-5.0342"/><path id="path16894" d="m3900.3 1421.6h-0.039v-5.0647h0.039"/><path id="path16892" d="m3900.3 1416.5h5.0259v5.0647h-5.0258"/><path id="path16890" d="m3885.1 1421.6h-0.05v-5.0647h0.05"/><path id="path16888" d="m3885.1 1416.5h5.0145v5.0647h-5.0146"/><path id="path16886" d="m3880.1 1421.6h-0.054v-5.0647h0.054"/><path id="path16884" d="m3880.1 1416.5h5.0104v5.0647h-5.0103"/><path id="path16882" d="m3869.9 1421.6h-0.061v-5.0647h0.061"/><path id="path16880" d="m3869.9 1416.5h5.0033v5.0647h-5.0032"/><path id="path16878" d="m3859.8 1421.6h-0.07v-5.0647h5.0647v5.0647h-4.9949"/><path id="path16876" d="m3854.8 1421.6h-0.073v-5.0647h0.073"/><path id="path16874" d="m3854.8 1416.5h4.9911v5.0647h-4.9912"/><path id="path16872" d="m3834.5 1421.6h-0.089v-5.0647h0.089"/><path id="path16870" d="m3834.5 1416.5h4.9758v5.0647h-4.9758"/><path id="path16868" d="m3829.4 1421.6h-0.093v-5.0647h5.0646v5.0647h-4.9716"/><path id="path16866" d="m3819.3 1421.6h-0.1003v-5.0647h0.1004"/><path id="path16864" d="m3819.3 1416.5h4.9642v5.0647h-4.9643"/><path id="path16862" d="m3799.1 1421.6h-0.1158v-5.0647h5.0646v5.0647h-4.9488"/><path id="path16860" d="m3794 1421.6h-0.1199v-5.0647h0.12"/><path id="path16858" d="m3794 1416.5h4.9447v5.0647h-4.9448"/><path id="path16856" d="m3789 1421.6h-0.124v-5.0647h5.0647v5.0647h-4.9407"/><path id="path16854" d="m3783.9 1421.6h-0.1271v-5.0647h5.0646v5.0647h-4.9375"/><path id="path16852" d="m3768.7 1421.6h-0.139v-5.0647h5.0647v5.0647h-4.9257"/><path id="path16850" d="m3763.7 1421.6h-0.1426v-5.0647h5.0646v5.0647h-4.922"/><path id="path16848" d="m3753.5 1421.6h-0.1504v-5.0647h5.0647v5.0647h-4.9143"/><path id="path16846" d="m3945.8 1416.5v-5.0647h5.0647v5.0647"/><path id="path16844" d="m3950.9 1416.5h-5.0611"/><path id="path16842" d="m3925.6 1416.5h-0.019v-5.0647h0.019"/><path id="path16840" d="m3925.6 1411.5h5.0456v5.0647h-5.0455"/><path id="path16838" d="m3915.5 1416.5h-0.027v-5.0647h5.0646v5.0647h-5.0372"/><path id="path16836" d="m3890.2 1416.5h-0.046v-5.0647h5.0646v5.0647h-5.0186"/><path id="path16834" d="m3875 1416.5h-0.058v-5.0647h0.058"/><path id="path16832" d="m3875 1411.5h5.0069v5.0647h-5.0068"/><path id="path16830" d="m3864.9 1416.5h-0.066v-5.0647h5.0646v5.0647h-4.999"/><path id="path16828" d="m3859.8 1416.5h-0.07v-5.0647h0.07"/><path id="path16826" d="m3859.8 1411.5h4.9949v5.0647h-4.9949"/><path id="path16824" d="m3844.6 1416.5h-0.081v-5.0647h5.0646v5.0647h-4.9835"/><path id="path16822" d="m3839.6 1416.5h-0.085v-5.0647h0.085"/><path id="path16820" d="m3839.6 1411.5h4.98v5.0647h-4.9799"/><path id="path16818" d="m3829.4 1416.5h-0.093v-5.0647h5.0646v5.0647h-4.9716"/><path id="path16816" d="m3814.3 1416.5h-0.1044v-5.0647h5.0647v5.0647h-4.9603"/><path id="path16814" d="m3809.2 1416.5h-0.1085v-5.0647h5.0646v5.0647h-4.9561"/><path id="path16812" d="m3804.1 1416.5h-0.1116v-5.0647h5.0647v5.0647h-4.9531"/><path id="path16810" d="m3799.1 1416.5h-0.1158v-5.0647h5.0646v5.0647h-4.9488"/><path id="path16808" d="m3789 1416.5h-0.124v-5.0647h5.0647v5.0647h-4.9407"/><path id="path16806" d="m3783.9 1416.5h-0.1271v-5.0647h5.0646v5.0647h-4.9375"/><path id="path16804" d="m3778.8 1416.5h-0.1313v-5.0647h0.1312"/><path id="path16802" d="m3778.8 1411.5h4.9335v5.0647h-4.9334"/><path id="path16800" d="m3773.8 1416.5h-0.1354v-5.0647h0.1354"/><path id="path16798" d="m3773.8 1411.5h4.9292v5.0647h-4.9292"/><path id="path16796" d="m3768.7 1416.5h-0.139v-5.0647h5.0647v5.0647h-4.9257"/><path id="path16794" d="m3763.7 1416.5h-0.1426v-5.0647h5.0646v5.0647h-4.922"/><path id="path16792" d="m3753.5 1416.5h-0.1504v-5.0647h5.0647v5.0647h-4.9143"/><path id="path16790" d="m3945.8 1411.5v-5.0646"/><path id="path16788" d="m3950.9 1406.4v5.0646h-5.0611"/><path id="path16786" d="m3945.8 1406.4h5.0611"/><path id="path16784" d="m3940.8 1411.5h-0.01v-5.0646h5.0647v5.0646h-5.0569"/><path id="path16782" d="m3935.7 1411.5h-0.012v-5.0646h0.012"/><path id="path16780" d="m3935.7 1406.4h5.0527v5.0646h-5.0527"/><path id="path16778" d="m3930.7 1411.5h-0.016v-5.0646h0.015"/><path id="path16776" d="m3930.7 1406.4h5.0493v5.0646h-5.0492"/><path id="path16774" d="m3920.5 1411.5h-0.023v-5.0646h5.0647v5.0646h-5.0414"/><path id="path16772" d="m3915.5 1411.5h-0.027v-5.0646h0.027"/><path id="path16770" d="m3915.5 1406.4h5.0373v5.0646h-5.0372"/><path id="path16768" d="m3890.2 1411.5h-0.046v-5.0646h5.0646v5.0646h-5.0186"/><path id="path16766" d="m3864.9 1411.5h-0.066v-5.0646h0.066"/><path id="path16764" d="m3864.9 1406.4h4.999v5.0646h-4.999"/><path id="path16762" d="m3844.6 1411.5h-0.081v-5.0646h0.081"/><path id="path16760" d="m3844.6 1406.4h4.9834v5.0646h-4.9835"/><path id="path16758" d="m3829.4 1411.5h-0.093v-5.0646h5.0646v5.0646h-4.9716"/><path id="path16756" d="m3824.4 1411.5h-0.097v-5.0646h5.0647v5.0646h-4.9681"/><path id="path16754" d="m3819.3 1411.5h-0.1003v-5.0646h0.1004"/><path id="path16752" d="m3819.3 1406.4h4.9642v5.0646h-4.9643"/><path id="path16750" d="m3814.3 1411.5h-0.1044v-5.0646h0.1043"/><path id="path16748" d="m3814.3 1406.4h4.9604v5.0646h-4.9603"/><path id="path16746" d="m3809.2 1411.5h-0.1085v-5.0646h0.1085"/><path id="path16744" d="m3809.2 1406.4h4.9561v5.0646h-4.9561"/><path id="path16742" d="m3804.1 1411.5h-0.1116v-5.0646h0.1115"/><path id="path16740" d="m3804.1 1406.4h4.9532v5.0646h-4.9531"/><path id="path16738" d="m3799.1 1411.5h-0.1158v-5.0646h0.1158"/><path id="path16736" d="m3799.1 1406.4h4.9488v5.0646h-4.9488"/><path id="path16734" d="m3789 1411.5h-0.124v-5.0646h5.0647v5.0646h-4.9407"/><path id="path16732" d="m3783.9 1411.5h-0.1271v-5.0646h5.0646v5.0646h-4.9375"/><path id="path16730" d="m3768.7 1411.5h-0.139v-5.0646h5.0647v5.0646h-4.9257"/><path id="path16728" d="m3763.7 1411.5h-0.1426v-5.0646h0.1426"/><path id="path16726" d="m3763.7 1406.4h4.922v5.0646h-4.922"/><path id="path16724" d="m3753.5 1411.5h-0.1504v-5.0646h0.1503"/><path id="path16722" d="m3753.5 1406.4h4.9144v5.0646h-4.9143"/><path id="path16720" d="m3748.5 1411.5h-0.1545v-5.0646h5.0646v5.0646h-4.9101"/><path id="path16718" d="m3940.8 1406.4h-0.01v-5.0647h0.01"/><path id="path16716" d="m3940.8 1401.3h5.057v5.0647h-5.0569"/><path id="path16714" d="m3920.5 1406.4h-0.023v-5.0647h0.023"/><path id="path16712" d="m3920.5 1401.3h5.0414v5.0647h-5.0414"/><path id="path16710" d="m3905.4 1406.4h-0.035v-5.0647h5.0647v5.0647h-5.0301"/><path id="path16708" d="m3890.2 1406.4h-0.046v-5.0647h5.0646v5.0647h-5.0186"/><path id="path16706" d="m3854.8 1406.4h-0.073v-5.0647h0.073"/><path id="path16704" d="m3854.8 1401.3h4.9911v5.0647h-4.9912"/><path id="path16702" d="m3849.7 1406.4h-0.077v-5.0647h5.0647v5.0647h-4.9877"/><path id="path16700" d="m3829.4 1406.4h-0.093v-5.0647h5.0646v5.0647h-4.9716"/><path id="path16698" d="m3824.4 1406.4h-0.097v-5.0647h0.097"/><path id="path16696" d="m3824.4 1401.3h4.9681v5.0647h-4.9681"/><path id="path16694" d="m3789 1406.4h-0.124v-5.0647h0.124"/><path id="path16692" d="m3789 1401.3h4.9407v5.0647h-4.9407"/><path id="path16690" d="m3783.9 1406.4h-0.1271v-5.0647h0.1272"/><path id="path16688" d="m3783.9 1401.3h4.9374v5.0647h-4.9375"/><path id="path16686" d="m3778.8 1406.4h-0.1313v-5.0647h0.1312"/><path id="path16684" d="m3778.8 1401.3h4.9335v5.0647h-4.9334"/><path id="path16682" d="m3773.8 1406.4h-0.1354v-5.0647h0.1354"/><path id="path16680" d="m3773.8 1401.3h4.9292v5.0647h-4.9292"/><path id="path16678" d="m3768.7 1406.4h-0.139v-5.0647h0.1391"/><path id="path16676" d="m3768.7 1401.3h4.9256v5.0647h-4.9257"/><path id="path16674" d="m3758.6 1406.4h-0.1468v-5.0647h0.1468"/><path id="path16672" d="m3758.6 1401.3h4.9179v5.0647h-4.9179"/><path id="path16670" d="m3748.5 1406.4h-0.1545v-5.0647h0.1545"/><path id="path16668" d="m3748.5 1401.3h4.9101v5.0647h-4.9101"/><path id="path16666" d="m3743.4 1406.4h-0.1581v-5.0647h5.0647v5.0647h-4.9066"/><path id="path16664" d="m3915.5 1401.3h-0.027v-5.0646h5.0646v5.0646h-5.0372"/><path id="path16662" d="m3905.4 1401.3h-0.035v-5.0646h0.034"/><path id="path16660" d="m3905.4 1396.3h5.0302v5.0646h-5.0301"/><path id="path16658" d="m3895.2 1401.3h-0.043v-5.0646h5.0647v5.0646h-5.0218"/><path id="path16656" d="m3890.2 1401.3h-0.046v-5.0646h0.046"/><path id="path16654" d="m3890.2 1396.3h5.0187v5.0646h-5.0186"/><path id="path16652" d="m3880.1 1401.3h-0.054v-5.0646h0.054"/><path id="path16650" d="m3880.1 1396.3h5.0104v5.0646h-5.0103"/><path id="path16648" d="m3864.9 1401.3h-0.066v-5.0646h0.066"/><path id="path16646" d="m3864.9 1396.3h4.999v5.0646h-4.999"/><path id="path16644" d="m3849.7 1401.3h-0.077v-5.0646h5.0647v5.0646h-4.9877"/><path id="path16642" d="m3834.5 1401.3h-0.089v-5.0646h0.089"/><path id="path16640" d="m3834.5 1396.3h4.9758v5.0646h-4.9758"/><path id="path16638" d="m3829.4 1401.3h-0.093v-5.0646h0.093"/><path id="path16636" d="m3829.4 1396.3h4.9717v5.0646h-4.9716"/><path id="path16634" d="m3819.3 1401.3h-0.1003v-5.0646h0.1004"/><path id="path16632" d="m3819.3 1396.3h4.9642v5.0646h-4.9643"/><path id="path16630" d="m3809.2 1401.3h-0.1085v-5.0646h0.1085"/><path id="path16628" d="m3809.2 1396.3h4.9561v5.0646h-4.9561"/><path id="path16626" d="m3804.1 1401.3h-0.1116v-5.0646h0.1115"/><path id="path16624" d="m3804.1 1396.3h4.9532v5.0646h-4.9531"/><path id="path16622" d="m3799.1 1401.3h-0.1158v-5.0646h5.0646v5.0646h-4.9488"/><path id="path16620" d="m3753.5 1401.3h-0.1504v-5.0646h0.1503"/><path id="path16618" d="m3753.5 1396.3h4.9144v5.0646h-4.9143"/><path id="path16616" d="m3743.4 1401.3h-0.1581v-5.0646h0.158"/><path id="path16614" d="m3743.4 1396.3h4.9067v5.0646h-4.9066"/><path id="path16612" d="m3945.8 1396.3v-5.0647"/><path id="path16610" d="m3950.9 1396.3h-5.0611"/><path id="path16608" d="m3950.9 1391.2v5.0647"/><path id="path16606" d="m3945.8 1391.2h5.0611"/><path id="path16604" d="m3940.8 1396.3h-0.01v-5.0647h5.0647v5.0647h-5.0569"/><path id="path16602" d="m3930.7 1396.3h-0.016v-5.0647h5.0647v5.0647h-5.0492"/><path id="path16600" d="m3925.6 1396.3h-0.019v-5.0647h0.019"/><path id="path16598" d="m3925.6 1391.2h5.0456v5.0647h-5.0455"/><path id="path16596" d="m3915.5 1396.3h-0.027v-5.0647h5.0646v5.0647h-5.0372"/><path id="path16594" d="m3900.3 1396.3h-0.039v-5.0647h0.039"/><path id="path16592" d="m3900.3 1391.2h5.0259v5.0647h-5.0258"/><path id="path16590" d="m3895.2 1396.3h-0.043v-5.0647h0.043"/><path id="path16588" d="m3895.2 1391.2h5.0218v5.0647h-5.0218"/><path id="path16586" d="m3875 1396.3h-0.058v-5.0647h5.0647v5.0647h-5.0068"/><path id="path16584" d="m3849.7 1396.3h-0.077v-5.0647h0.077"/><path id="path16582" d="m3849.7 1391.2h4.9877v5.0647h-4.9877"/><path id="path16580" d="m3799.1 1396.3h-0.1158v-5.0647h0.1158"/><path id="path16578" d="m3799.1 1391.2h4.9488v5.0647h-4.9488"/><path id="path16576" d="m3789 1396.3h-0.124v-5.0647h0.124"/><path id="path16574" d="m3789 1391.2h4.9407v5.0647h-4.9407"/><path id="path16572" d="m3778.8 1396.3h-0.1313v-5.0647h0.1312"/><path id="path16570" d="m3778.8 1391.2h4.9335v5.0647h-4.9334"/><path id="path16568" d="m3773.8 1396.3h-0.1354v-5.0647h0.1354"/><path id="path16566" d="m3773.8 1391.2h4.9292v5.0647h-4.9292"/><path id="path16564" d="m3763.7 1396.3h-0.1426v-5.0647h0.1426"/><path id="path16562" d="m3763.7 1391.2h4.922v5.0647h-4.922"/><path id="path16560" d="m3758.6 1396.3h-0.1468v-5.0647h0.1468"/><path id="path16558" d="m3758.6 1391.2h4.9179v5.0647h-4.9179"/><path id="path16556" d="m3748.5 1396.3h-0.1545v-5.0647h5.0646v5.0647h-4.9101"/><path id="path16554" d="m3940.8 1391.2h-0.01v-5.0646h5.0647v5.0646h-5.0569"/><path id="path16552" d="m3935.7 1391.2h-0.012v-5.0646h0.012"/><path id="path16550" d="m3935.7 1386.2h5.0527v5.0646h-5.0527"/><path id="path16548" d="m3930.7 1391.2h-0.016v-5.0646h5.0647v5.0646h-5.0492"/><path id="path16546" d="m3915.5 1391.2h-0.027v-5.0646h5.0646v5.0646h-5.0372"/><path id="path16544" d="m3910.4 1391.2h-0.03v-5.0646h0.03"/><path id="path16542" d="m3910.4 1386.2h5.0343v5.0646h-5.0342"/><path id="path16540" d="m3905.4 1391.2h-0.035v-5.0646h5.0647v5.0646h-5.0301"/><path id="path16538" d="m3890.2 1391.2h-0.046v-5.0646h5.0646v5.0646h-5.0186"/><path id="path16536" d="m3885.1 1391.2h-0.05v-5.0646h0.05"/><path id="path16534" d="m3885.1 1386.2h5.0145v5.0646h-5.0146"/><path id="path16532" d="m3880.1 1391.2h-0.054v-5.0646h5.0646v5.0646h-5.0103"/><path id="path16530" d="m3875 1391.2h-0.058v-5.0646h5.0647v5.0646h-5.0068"/><path id="path16528" d="m3864.9 1391.2h-0.066v-5.0646h5.0646v5.0646h-4.999"/><path id="path16526" d="m3854.8 1391.2h-0.073v-5.0646h5.0646v5.0646h-4.9912"/><path id="path16524" d="m3844.6 1391.2h-0.081v-5.0646h0.081"/><path id="path16522" d="m3844.6 1386.2h4.9834v5.0646h-4.9835"/><path id="path16520" d="m3839.6 1391.2h-0.085v-5.0646h0.085"/><path id="path16518" d="m3839.6 1386.2h4.98v5.0646h-4.9799"/><path id="path16516" d="m3834.5 1391.2h-0.089v-5.0646h0.089"/><path id="path16514" d="m3834.5 1386.2h4.9758v5.0646h-4.9758"/><path id="path16512" d="m3829.4 1391.2h-0.093v-5.0646h5.0646v5.0646h-4.9716"/><path id="path16510" d="m3819.3 1391.2h-0.1003v-5.0646h0.1004"/><path id="path16508" d="m3819.3 1386.2h4.9642v5.0646h-4.9643"/><path id="path16506" d="m3809.2 1391.2h-0.1085v-5.0646h5.0646v5.0646h-4.9561"/><path id="path16504" d="m3804.1 1391.2h-0.1116v-5.0646h5.0647v5.0646h-4.9531"/><path id="path16502" d="m3794 1391.2h-0.1199v-5.0646h0.12"/><path id="path16500" d="m3794 1386.2h4.9447v5.0646h-4.9448"/><path id="path16498" d="m3768.7 1391.2h-0.139v-5.0646h0.1391"/><path id="path16496" d="m3768.7 1386.2h4.9256v5.0646h-4.9257"/><path id="path16494" d="m3753.5 1391.2h-0.1504v-5.0646h0.1503"/><path id="path16492" d="m3753.5 1386.2h4.9144v5.0646h-4.9143"/><path id="path16490" d="m3748.5 1391.2h-0.1545v-5.0646h0.1545"/><path id="path16488" d="m3748.5 1386.2h4.9101v5.0646h-4.9101"/><path id="path16486" d="m3743.4 1391.2h-0.1581v-5.0646h5.0647v5.0646h-4.9066"/><path id="path16484" d="m3945.8 1386.2v-5.0647"/><path id="path16482" d="m3950.9 1386.2h-5.0611"/><path id="path16480" d="m3950.9 1381.1v5.0647"/><path id="path16478" d="m3945.8 1381.1h5.0611"/><path id="path16476" d="m3940.8 1386.2h-0.01v-5.0647h0.01"/><path id="path16474" d="m3940.8 1381.1h5.057v5.0647h-5.0569"/><path id="path16472" d="m3930.7 1386.2h-0.016v-5.0647h0.015"/><path id="path16470" d="m3930.7 1381.1h5.0493v5.0647h-5.0492"/><path id="path16468" d="m3920.5 1386.2h-0.023v-5.0647h5.0647v5.0647h-5.0414"/><path id="path16466" d="m3915.5 1386.2h-0.027v-5.0647h5.0646v5.0647h-5.0372"/><path id="path16464" d="m3905.4 1386.2h-0.035v-5.0647h0.034"/><path id="path16462" d="m3905.4 1381.1h5.0302v5.0647h-5.0301"/><path id="path16460" d="m3900.3 1386.2h-0.039v-5.0647h0.039"/><path id="path16458" d="m3900.3 1381.1h5.0259v5.0647h-5.0258"/><path id="path16456" d="m3895.2 1386.2h-0.043v-5.0647h5.0647v5.0647h-5.0218"/><path id="path16454" d="m3890.2 1386.2h-0.046v-5.0647h0.046"/><path id="path16452" d="m3890.2 1381.1h5.0187v5.0647h-5.0186"/><path id="path16450" d="m3880.1 1386.2h-0.054v-5.0647h0.054"/><path id="path16448" d="m3880.1 1381.1h5.0104v5.0647h-5.0103"/><path id="path16446" d="m3875 1386.2h-0.058v-5.0647h0.058"/><path id="path16444" d="m3875 1381.1h5.0069v5.0647h-5.0068"/><path id="path16442" d="m3869.9 1386.2h-0.061v-5.0647h5.0647v5.0647h-5.0032"/><path id="path16440" d="m3864.9 1386.2h-0.066v-5.0647h0.066"/><path id="path16438" d="m3864.9 1381.1h4.999v5.0647h-4.999"/><path id="path16436" d="m3854.8 1386.2h-0.073v-5.0647h5.0646v5.0647h-4.9912"/><path id="path16434" d="m3849.7 1386.2h-0.077v-5.0647h5.0647v5.0647h-4.9877"/><path id="path16432" d="m3829.4 1386.2h-0.093v-5.0647h0.093"/><path id="path16430" d="m3829.4 1381.1h4.9717v5.0647h-4.9716"/><path id="path16428" d="m3809.2 1386.2h-0.1085v-5.0647h5.0646v5.0647h-4.9561"/><path id="path16426" d="m3804.1 1386.2h-0.1116v-5.0647h0.1115"/><path id="path16424" d="m3804.1 1381.1h4.9532v5.0647h-4.9531"/><path id="path16422" d="m3799.1 1386.2h-0.1158v-5.0647h5.0646v5.0647h-4.9488"/><path id="path16420" d="m3773.8 1386.2h-0.1354v-5.0647h0.1354"/><path id="path16418" d="m3773.8 1381.1h4.9292v5.0647h-4.9292"/><path id="path16416" d="m3743.4 1386.2h-0.1581v-5.0647h5.0647v5.0647h-4.9066"/><path id="path16414" d="m3935.7 1381.1h-0.012v-5.0646h5.0646v5.0646h-5.0527"/><path id="path16412" d="m3925.6 1381.1h-0.019v-5.0646h0.019"/><path id="path16410" d="m3925.6 1376h5.0456v5.0646h-5.0455"/><path id="path16408" d="m3920.5 1381.1h-0.023v-5.0646h5.0647v5.0646h-5.0414"/><path id="path16406" d="m3915.5 1381.1h-0.027v-5.0646h5.0646v5.0646h-5.0372"/><path id="path16404" d="m3895.2 1381.1h-0.043v-5.0646h5.0647v5.0646h-5.0218"/><path id="path16402" d="m3885.1 1381.1h-0.05v-5.0646h0.05"/><path id="path16400" d="m3885.1 1376h5.0145v5.0646h-5.0146"/><path id="path16398" d="m3869.9 1381.1h-0.061v-5.0646h5.0647v5.0646h-5.0032"/><path id="path16396" d="m3854.8 1381.1h-0.073v-5.0646h0.073"/><path id="path16394" d="m3854.8 1376h4.9911v5.0646h-4.9912"/><path id="path16392" d="m3849.7 1381.1h-0.077v-5.0646h5.0647v5.0646h-4.9877"/><path id="path16390" d="m3844.6 1381.1h-0.081v-5.0646h0.081"/><path id="path16388" d="m3844.6 1376h4.9834v5.0646h-4.9835"/><path id="path16386" d="m3824.4 1381.1h-0.097v-5.0646h5.0647v5.0646h-4.9681"/><path id="path16384" d="m3819.3 1381.1h-0.1003v-5.0646h5.0646v5.0646h-4.9643"/><path id="path16382" d="m3814.3 1381.1h-0.1044v-5.0646h5.0647v5.0646h-4.9603"/><path id="path16380" d="m3809.2 1381.1h-0.1085v-5.0646h0.1085"/><path id="path16378" d="m3809.2 1376h4.9561v5.0646h-4.9561"/><path id="path16376" d="m3799.1 1381.1h-0.1158v-5.0646h5.0646v5.0646h-4.9488"/><path id="path16374" d="m3794 1381.1h-0.1199v-5.0646h0.12"/><path id="path16372" d="m3794 1376h4.9447v5.0646h-4.9448"/><path id="path16370" d="m3789 1381.1h-0.124v-5.0646h0.124"/><path id="path16368" d="m3789 1376h4.9407v5.0646h-4.9407"/><path id="path16366" d="m3783.9 1381.1h-0.1271v-5.0646h5.0646v5.0646h-4.9375"/><path id="path16364" d="m3763.7 1381.1h-0.1426v-5.0646h0.1426"/><path id="path16362" d="m3763.7 1376h4.922v5.0646h-4.922"/><path id="path16360" d="m3753.5 1381.1h-0.1504v-5.0646h5.0647v5.0646h-4.9143"/><path id="path16358" d="m3743.4 1381.1h-0.1581v-5.0646h0.158"/><path id="path16356" d="m3743.4 1376h4.9067v5.0646h-4.9066"/><path id="path16354" d="m3940.8 1376h-0.01v-5.0647h0.01"/><path id="path16352" d="m3940.8 1371h5.057v5.0647h-5.0569"/><path id="path16350" d="m3935.7 1376h-0.012v-5.0647h5.0646v5.0647h-5.0527"/><path id="path16348" d="m3930.7 1376h-0.016v-5.0647h5.0647v5.0647h-5.0492"/><path id="path16346" d="m3920.5 1376h-0.023v-5.0647h5.0647v5.0647h-5.0414"/><path id="path16344" d="m3915.5 1376h-0.027v-5.0647h5.0646v5.0647h-5.0372"/><path id="path16342" d="m3910.4 1376h-0.03v-5.0647h5.0647v5.0647h-5.0342"/><path id="path16340" d="m3900.3 1376h-0.039v-5.0647h0.039"/><path id="path16338" d="m3900.3 1371h5.0259v5.0647h-5.0258"/><path id="path16336" d="m3895.2 1376h-0.043v-5.0647h0.043"/><path id="path16334" d="m3895.2 1371h5.0218v5.0647h-5.0218"/><path id="path16332" d="m3875 1376h-0.058v-5.0647h0.058"/><path id="path16330" d="m3875 1371h5.0069v5.0647h-5.0068"/><path id="path16328" d="m3869.9 1376h-0.061v-5.0647h0.061"/><path id="path16326" d="m3869.9 1371h5.0033v5.0647h-5.0032"/><path id="path16324" d="m3849.7 1376h-0.077v-5.0647h0.077"/><path id="path16322" d="m3849.7 1371h4.9877v5.0647h-4.9877"/><path id="path16320" d="m3839.6 1376h-0.085v-5.0647h0.085"/><path id="path16318" d="m3839.6 1371h4.98v5.0647h-4.9799"/><path id="path16316" d="m3824.4 1376h-0.097v-5.0647h0.097"/><path id="path16314" d="m3824.4 1371h4.9681v5.0647h-4.9681"/><path id="path16312" d="m3819.3 1376h-0.1003v-5.0647h5.0646v5.0647h-4.9643"/><path id="path16310" d="m3814.3 1376h-0.1044v-5.0647h5.0647v5.0647h-4.9603"/><path id="path16308" d="m3804.1 1376h-0.1116v-5.0647h5.0647v5.0647h-4.9531"/><path id="path16306" d="m3799.1 1376h-0.1158v-5.0647h5.0646v5.0647h-4.9488"/><path id="path16304" d="m3783.9 1376h-0.1271v-5.0647h5.0646v5.0647h-4.9375"/><path id="path16302" d="m3778.8 1376h-0.1313v-5.0647h5.0647v5.0647h-4.9334"/><path id="path16300" d="m3773.8 1376h-0.1354v-5.0647h0.1354"/><path id="path16298" d="m3773.8 1371h4.9292v5.0647h-4.9292"/><path id="path16296" d="m3768.7 1376h-0.139v-5.0647h5.0647v5.0647h-4.9257"/><path id="path16294" d="m3753.5 1376h-0.1504v-5.0647h5.0647v5.0647h-4.9143"/><path id="path16292" d="m3748.5 1376h-0.1545v-5.0647h0.1545"/><path id="path16290" d="m3748.5 1371h4.9101v5.0647h-4.9101"/><path id="path16288" d="m3945.8 1371v-5.0647h5.0647v5.0647"/><path id="path16286" d="m3950.9 1371h-5.0611"/><path id="path16284" d="m3935.7 1371h-0.012v-5.0647h0.012"/><path id="path16282" d="m3935.7 1365.9h5.0527v5.0647h-5.0527"/><path id="path16280" d="m3930.7 1371h-0.016v-5.0647h5.0647v5.0647h-5.0492"/><path id="path16278" d="m3920.5 1371h-0.023v-5.0647h5.0647v5.0647h-5.0414"/><path id="path16276" d="m3915.5 1371h-0.027v-5.0647h0.027"/><path id="path16274" d="m3915.5 1365.9h5.0373v5.0647h-5.0372"/><path id="path16272" d="m3910.4 1371h-0.03v-5.0647h0.03"/><path id="path16270" d="m3910.4 1365.9h5.0343v5.0647h-5.0342"/><path id="path16268" d="m3905.4 1371h-0.035v-5.0647h0.034"/><path id="path16266" d="m3905.4 1365.9h5.0302v5.0647h-5.0301"/><path id="path16264" d="m3885.1 1371h-0.05v-5.0647h0.05"/><path id="path16262" d="m3885.1 1365.9h5.0145v5.0647h-5.0146"/><path id="path16260" d="m3864.9 1371h-0.066v-5.0647h0.066"/><path id="path16258" d="m3864.9 1365.9h4.999v5.0647h-4.999"/><path id="path16256" d="m3844.6 1371h-0.081v-5.0647h5.0646v5.0647h-4.9835"/><path id="path16254" d="m3834.5 1371h-0.089v-5.0647h5.0647v5.0647h-4.9758"/><path id="path16252" d="m3829.4 1371h-0.093v-5.0647h0.093"/><path id="path16250" d="m3829.4 1365.9h4.9717v5.0647h-4.9716"/><path id="path16248" d="m3819.3 1371h-0.1003v-5.0647h5.0646v5.0647h-4.9643"/><path id="path16246" d="m3814.3 1371h-0.1044v-5.0647h0.1043"/><path id="path16244" d="m3814.3 1365.9h4.9604v5.0647h-4.9603"/><path id="path16242" d="m3809.2 1371h-0.1085v-5.0647h0.1085"/><path id="path16240" d="m3809.2 1365.9h4.9561v5.0647h-4.9561"/><path id="path16238" d="m3804.1 1371h-0.1116v-5.0647h0.1115"/><path id="path16236" d="m3804.1 1365.9h4.9532v5.0647h-4.9531"/><path id="path16234" d="m3799.1 1371h-0.1158v-5.0647h5.0646v5.0647h-4.9488"/><path id="path16232" d="m3783.9 1371h-0.1271v-5.0647h0.1272"/><path id="path16230" d="m3783.9 1365.9h4.9374v5.0647h-4.9375"/><path id="path16228" d="m3778.8 1371h-0.1313v-5.0647h0.1312"/><path id="path16226" d="m3778.8 1365.9h4.9335v5.0647h-4.9334"/><path id="path16224" d="m3768.7 1371h-0.139v-5.0647h0.1391"/><path id="path16222" d="m3768.7 1365.9h4.9256v5.0647h-4.9257"/><path id="path16220" d="m3763.7 1371h-0.1426v-5.0647h0.1426"/><path id="path16218" d="m3763.7 1365.9h4.922v5.0647h-4.922"/><path id="path16216" d="m3753.5 1371h-0.1504v-5.0647h0.1503"/><path id="path16214" d="m3753.5 1365.9h4.9144v5.0647h-4.9143"/><path id="path16212" d="m3945.8 1365.9v-5.0646"/><path id="path16210" d="m3950.9 1360.8v5.0646h-5.0611"/><path id="path16208" d="m3945.8 1360.8h5.0611"/><path id="path16206" d="m3940.8 1365.9h-0.01v-5.0646h0.01"/><path id="path16204" d="m3940.8 1360.8h5.057v5.0646h-5.0569"/><path id="path16202" d="m3930.7 1365.9h-0.016v-5.0646h0.015"/><path id="path16200" d="m3930.7 1360.8h5.0493v5.0646h-5.0492"/><path id="path16198" d="m3925.6 1365.9h-0.019v-5.0646h0.019"/><path id="path16196" d="m3925.6 1360.8h5.0456v5.0646h-5.0455"/><path id="path16194" d="m3920.5 1365.9h-0.023v-5.0646h0.023"/><path id="path16192" d="m3920.5 1360.8h5.0414v5.0646h-5.0414"/><path id="path16190" d="m3900.3 1365.9h-0.039v-5.0646h0.039"/><path id="path16188" d="m3900.3 1360.8h5.0259v5.0646h-5.0258"/><path id="path16186" d="m3875 1365.9h-0.058v-5.0646h5.0647v5.0646h-5.0068"/><path id="path16184" d="m3854.8 1365.9h-0.073v-5.0646h5.0646v5.0646h-4.9912"/><path id="path16182" d="m3844.6 1365.9h-0.081v-5.0646h0.081"/><path id="path16180" d="m3844.6 1360.8h4.9834v5.0646h-4.9835"/><path id="path16178" d="m3834.5 1365.9h-0.089v-5.0646h5.0647v5.0646h-4.9758"/><path id="path16176" d="m3819.3 1365.9h-0.1003v-5.0646h0.1004"/><path id="path16174" d="m3819.3 1360.8h4.9642v5.0646h-4.9643"/><path id="path16172" d="m3799.1 1365.9h-0.1158v-5.0646h5.0646v5.0646h-4.9488"/><path id="path16170" d="m3789 1365.9h-0.124v-5.0646h5.0647v5.0646h-4.9407"/><path id="path16168" d="m3773.8 1365.9h-0.1354v-5.0646h0.1354"/><path id="path16166" d="m3773.8 1360.8h4.9292v5.0646h-4.9292"/><path id="path16164" d="m3758.6 1365.9h-0.1468v-5.0646h0.1468"/><path id="path16162" d="m3758.6 1360.8h4.9179v5.0646h-4.9179"/><path id="path16160" d="m3905.4 1360.8h-0.035v-5.0647h5.0647v5.0647h-5.0301"/><path id="path16158" d="m3890.2 1360.8h-0.046v-5.0647h0.046"/><path id="path16156" d="m3890.2 1355.8h5.0187v5.0647h-5.0186"/><path id="path16154" d="m3880.1 1360.8h-0.054v-5.0647h0.054"/><path id="path16152" d="m3880.1 1355.8h5.0104v5.0647h-5.0103"/><path id="path16150" d="m3875 1360.8h-0.058v-5.0647h5.0647v5.0647h-5.0068"/><path id="path16148" d="m3864.9 1360.8h-0.066v-5.0647h5.0646v5.0647h-4.999"/><path id="path16146" d="m3854.8 1360.8h-0.073v-5.0647h5.0646v5.0647h-4.9912"/><path id="path16144" d="m3849.7 1360.8h-0.077v-5.0647h0.077"/><path id="path16142" d="m3849.7 1355.8h4.9877v5.0647h-4.9877"/><path id="path16140" d="m3839.6 1360.8h-0.085v-5.0647h0.085"/><path id="path16138" d="m3839.6 1355.8h4.98v5.0647h-4.9799"/><path id="path16136" d="m3834.5 1360.8h-0.089v-5.0647h5.0647v5.0647h-4.9758"/><path id="path16134" d="m3829.4 1360.8h-0.093v-5.0647h0.093"/><path id="path16132" d="m3829.4 1355.8h4.9717v5.0647h-4.9716"/><path id="path16130" d="m3804.1 1360.8h-0.1116v-5.0647h5.0647v5.0647h-4.9531"/><path id="path16128" d="m3799.1 1360.8h-0.1158v-5.0647h0.1158"/><path id="path16126" d="m3799.1 1355.8h4.9488v5.0647h-4.9488"/><path id="path16124" d="m3794 1360.8h-0.1199v-5.0647h5.0647v5.0647h-4.9448"/><path id="path16122" d="m3789 1360.8h-0.124v-5.0647h0.124"/><path id="path16120" d="m3789 1355.8h4.9407v5.0647h-4.9407"/><path id="path16118" d="m3945.8 1355.8v-5.0646h5.0647v5.0646"/><path id="path16116" d="m3950.9 1355.8h-5.0611"/><path id="path16114" d="m3940.8 1355.8h-0.01v-5.0646h0.01"/><path id="path16112" d="m3940.8 1350.7h5.057v5.0646h-5.0569"/><path id="path16110" d="m3935.7 1355.8h-0.012v-5.0646h0.012"/><path id="path16108" d="m3935.7 1350.7h5.0527v5.0646h-5.0527"/><path id="path16106" d="m3930.7 1355.8h-0.016v-5.0646h0.015"/><path id="path16104" d="m3930.7 1350.7h5.0493v5.0646h-5.0492"/><path id="path16102" d="m3925.6 1355.8h-0.019v-5.0646h0.019"/><path id="path16100" d="m3925.6 1350.7h5.0456v5.0646h-5.0455"/><path id="path16098" d="m3920.5 1355.8h-0.023v-5.0646h0.023"/><path id="path16096" d="m3920.5 1350.7h5.0414v5.0646h-5.0414"/><path id="path16094" d="m3915.5 1355.8h-0.027v-5.0646h5.0646v5.0646h-5.0372"/><path id="path16092" d="m3905.4 1355.8h-0.035v-5.0646h5.0647v5.0646h-5.0301"/><path id="path16090" d="m3895.2 1355.8h-0.043v-5.0646h5.0647v5.0646h-5.0218"/><path id="path16088" d="m3885.1 1355.8h-0.05v-5.0646h0.05"/><path id="path16086" d="m3885.1 1350.7h5.0145v5.0646h-5.0146"/><path id="path16084" d="m3875 1355.8h-0.058v-5.0646h0.058"/><path id="path16082" d="m3875 1350.7h5.0069v5.0646h-5.0068"/><path id="path16080" d="m3864.9 1355.8h-0.066v-5.0646h5.0646v5.0646h-4.999"/><path id="path16078" d="m3854.8 1355.8h-0.073v-5.0646h0.073"/><path id="path16076" d="m3854.8 1350.7h4.9911v5.0646h-4.9912"/><path id="path16074" d="m3844.6 1355.8h-0.081v-5.0646h5.0646v5.0646h-4.9835"/><path id="path16072" d="m3834.5 1355.8h-0.089v-5.0646h0.089"/><path id="path16070" d="m3834.5 1350.7h4.9758v5.0646h-4.9758"/><path id="path16068" d="m3824.4 1355.8h-0.097v-5.0646h5.0647v5.0646h-4.9681"/><path id="path16066" d="m3814.3 1355.8h-0.1044v-5.0646h0.1043"/><path id="path16064" d="m3814.3 1350.7h4.9604v5.0646h-4.9603"/><path id="path16062" d="m3804.1 1355.8h-0.1116v-5.0646h0.1115"/><path id="path16060" d="m3804.1 1350.7h4.9532v5.0646h-4.9531"/><path id="path16058" d="m3794 1355.8h-0.1199v-5.0646h5.0647v5.0646h-4.9448"/><path id="path16056" d="m3783.9 1355.8h-0.1271v-5.0646h5.0646v5.0646h-4.9375"/><path id="path16054" d="m3773.8 1355.8h-0.1354v-5.0646h5.0646v5.0646h-4.9292"/><path id="path16052" d="m3768.7 1355.8h-0.139v-5.0646h0.1391"/><path id="path16050" d="m3768.7 1350.7h4.9256v5.0646h-4.9257"/><path id="path16048" d="m3763.7 1355.8h-0.1426v-5.0646h0.1426"/><path id="path16046" d="m3763.7 1350.7h4.922v5.0646h-4.922"/><path id="path16044" d="m3758.6 1355.8h-0.1468v-5.0646h0.1468"/><path id="path16042" d="m3758.6 1350.7h4.9179v5.0646h-4.9179"/><path id="path16040" d="m3753.5 1355.8h-0.1504v-5.0646h0.1503"/><path id="path16038" d="m3753.5 1350.7h4.9144v5.0646h-4.9143"/><path id="path16036" d="m3748.5 1355.8h-0.1545v-5.0646h0.1545"/><path id="path16034" d="m3748.5 1350.7h4.9101v5.0646h-4.9101"/><path id="path16032" d="m3743.4 1355.8h-0.1581v-5.0646h5.0647v5.0646h-4.9066"/><path id="path16030" d="m3945.8 1350.7v-5.0647h5.0647v5.0647h-5.0611"/><path id="path16028" d="m3915.5 1350.7h-0.027v-5.0647h5.0646v5.0647h-5.0372"/><path id="path16026" d="m3905.4 1350.7h-0.035v-5.0647h0.034"/><path id="path16024" d="m3905.4 1345.6h5.0302v5.0647h-5.0301"/><path id="path16022" d="m3900.3 1350.7h-0.039v-5.0647h0.039"/><path id="path16020" d="m3900.3 1345.6h5.0259v5.0647h-5.0258"/><path id="path16018" d="m3895.2 1350.7h-0.043v-5.0647h0.043"/><path id="path16016" d="m3895.2 1345.6h5.0218v5.0647h-5.0218"/><path id="path16014" d="m3880.1 1350.7h-0.054v-5.0647h5.0646v5.0647h-5.0103"/><path id="path16012" d="m3864.9 1350.7h-0.066v-5.0647h5.0646v5.0647h-4.999"/><path id="path16010" d="m3844.6 1350.7h-0.081v-5.0647h0.081"/><path id="path16008" d="m3844.6 1345.6h4.9834v5.0647h-4.9835"/><path id="path16006" d="m3824.4 1350.7h-0.097v-5.0647h0.097"/><path id="path16004" d="m3824.4 1345.6h4.9681v5.0647h-4.9681"/><path id="path16002" d="m3809.2 1350.7h-0.1085v-5.0647h5.0646v5.0647h-4.9561"/><path id="path16000" d="m3799.1 1350.7h-0.1158v-5.0647h0.1158"/><path id="path15998" d="m3799.1 1345.6h4.9488v5.0647h-4.9488"/><path id="path15996" d="m3794 1350.7h-0.1199v-5.0647h5.0647v5.0647h-4.9448"/><path id="path15994" d="m3783.9 1350.7h-0.1271v-5.0647h5.0646v5.0647h-4.9375"/><path id="path15992" d="m3773.8 1350.7h-0.1354v-5.0647h5.0646v5.0647h-4.9292"/><path id="path15990" d="m3743.4 1350.7h-0.1581v-5.0647h5.0647v5.0647h-4.9066"/><path id="path15988" d="m3945.8 1345.6v-5.0646h5.0647v5.0646h-5.0611"/><path id="path15986" d="m3935.7 1345.6h-0.012v-5.0646h5.0646v5.0646h-5.0527"/><path id="path15984" d="m3930.7 1345.6h-0.016v-5.0646h5.0647v5.0646h-5.0492"/><path id="path15982" d="m3925.6 1345.6h-0.019v-5.0646h5.0646v5.0646h-5.0455"/><path id="path15980" d="m3915.5 1345.6h-0.027v-5.0646h5.0646v5.0646h-5.0372"/><path id="path15978" d="m3890.2 1345.6h-0.046v-5.0646h5.0646v5.0646h-5.0186"/><path id="path15976" d="m3885.1 1345.6h-0.05v-5.0646h0.05"/><path id="path15974" d="m3885.1 1340.6h5.0145v5.0646h-5.0146"/><path id="path15972" d="m3880.1 1345.6h-0.054v-5.0646h0.054"/><path id="path15970" d="m3880.1 1340.6h5.0104v5.0646h-5.0103"/><path id="path15968" d="m3875 1345.6h-0.058v-5.0646h5.0647v5.0646h-5.0068"/><path id="path15966" d="m3864.9 1345.6h-0.066v-5.0646h5.0646v5.0646h-4.999"/><path id="path15964" d="m3859.8 1345.6h-0.07v-5.0646h5.0647v5.0646h-4.9949"/><path id="path15962" d="m3849.7 1345.6h-0.077v-5.0646h0.077"/><path id="path15960" d="m3849.7 1340.6h4.9877v5.0646h-4.9877"/><path id="path15958" d="m3839.6 1345.6h-0.085v-5.0646h0.085"/><path id="path15956" d="m3839.6 1340.6h4.98v5.0646h-4.9799"/><path id="path15954" d="m3834.5 1345.6h-0.089v-5.0646h5.0647v5.0646h-4.9758"/><path id="path15952" d="m3814.3 1345.6h-0.1044v-5.0646h0.1043"/><path id="path15950" d="m3814.3 1340.6h4.9604v5.0646h-4.9603"/><path id="path15948" d="m3809.2 1345.6h-0.1085v-5.0646h0.1085"/><path id="path15946" d="m3809.2 1340.6h4.9561v5.0646h-4.9561"/><path id="path15944" d="m3794 1345.6h-0.1199v-5.0646h5.0647v5.0646h-4.9448"/><path id="path15942" d="m3789 1345.6h-0.124v-5.0646h5.0647v5.0646h-4.9407"/><path id="path15940" d="m3783.9 1345.6h-0.1271v-5.0646h5.0646v5.0646h-4.9375"/><path id="path15938" d="m3773.8 1345.6h-0.1354v-5.0646h5.0646v5.0646h-4.9292"/><path id="path15936" d="m3763.7 1345.6h-0.1426v-5.0646h5.0646v5.0646h-4.922"/><path id="path15934" d="m3758.6 1345.6h-0.1468v-5.0646h5.0647v5.0646h-4.9179"/><path id="path15932" d="m3753.5 1345.6h-0.1504v-5.0646h5.0647v5.0646h-4.9143"/><path id="path15930" d="m3743.4 1345.6h-0.1581v-5.0646h5.0647v5.0646h-4.9066"/><path id="path15928" d="m3945.8 1340.6v-5.0647h5.0647v5.0647h-5.0611"/><path id="path15926" d="m3935.7 1340.6h-0.012v-5.0647h5.0646v5.0647h-5.0527"/><path id="path15924" d="m3930.7 1340.6h-0.016v-5.0647h5.0647v5.0647h-5.0492"/><path id="path15922" d="m3925.6 1340.6h-0.019v-5.0647h5.0646v5.0647h-5.0455"/><path id="path15920" d="m3915.5 1340.6h-0.027v-5.0647h5.0646v5.0647h-5.0372"/><path id="path15918" d="m3900.3 1340.6h-0.039v-5.0647h0.039"/><path id="path15916" d="m3900.3 1335.5h5.0259v5.0647h-5.0258"/><path id="path15914" d="m3890.2 1340.6h-0.046v-5.0647h5.0646v5.0647h-5.0186"/><path id="path15912" d="m3875 1340.6h-0.058v-5.0647h0.058"/><path id="path15910" d="m3875 1335.5h5.0069v5.0647h-5.0068"/><path id="path15908" d="m3869.9 1340.6h-0.061v-5.0647h5.0647v5.0647h-5.0032"/><path id="path15906" d="m3864.9 1340.6h-0.066v-5.0647h5.0646v5.0647h-4.999"/><path id="path15904" d="m3859.8 1340.6h-0.07v-5.0647h5.0647v5.0647h-4.9949"/><path id="path15902" d="m3854.8 1340.6h-0.073v-5.0647h0.073"/><path id="path15900" d="m3854.8 1335.5h4.9911v5.0647h-4.9912"/><path id="path15898" d="m3834.5 1340.6h-0.089v-5.0647h5.0647v5.0647h-4.9758"/><path id="path15896" d="m3824.4 1340.6h-0.097v-5.0647h0.097"/><path id="path15894" d="m3824.4 1335.5h4.9681v5.0647h-4.9681"/><path id="path15892" d="m3794 1340.6h-0.1199v-5.0647h0.12"/><path id="path15890" d="m3794 1335.5h4.9447v5.0647h-4.9448"/><path id="path15888" d="m3789 1340.6h-0.124v-5.0647h5.0647v5.0647h-4.9407"/><path id="path15886" d="m3783.9 1340.6h-0.1271v-5.0647h0.1272"/><path id="path15884" d="m3783.9 1335.5h4.9374v5.0647h-4.9375"/><path id="path15882" d="m3773.8 1340.6h-0.1354v-5.0647h5.0646v5.0647h-4.9292"/><path id="path15880" d="m3763.7 1340.6h-0.1426v-5.0647h5.0646v5.0647h-4.922"/><path id="path15878" d="m3758.6 1340.6h-0.1468v-5.0647h5.0647v5.0647h-4.9179"/><path id="path15876" d="m3753.5 1340.6h-0.1504v-5.0647h5.0647v5.0647h-4.9143"/><path id="path15874" d="m3743.4 1340.6h-0.1581v-5.0647h5.0647v5.0647h-4.9066"/><path id="path15872" d="m3945.8 1335.5v-5.0647h5.0647v5.0647h-5.0611"/><path id="path15870" d="m3935.7 1335.5h-0.012v-5.0647h0.012"/><path id="path15868" d="m3935.7 1330.4h5.0527v5.0647h-5.0527"/><path id="path15866" d="m3930.7 1335.5h-0.016v-5.0647h0.015"/><path id="path15864" d="m3930.7 1330.4h5.0493v5.0647h-5.0492"/><path id="path15862" d="m3925.6 1335.5h-0.019v-5.0647h0.019"/><path id="path15860" d="m3925.6 1330.4h5.0456v5.0647h-5.0455"/><path id="path15858" d="m3915.5 1335.5h-0.027v-5.0647h5.0646v5.0647h-5.0372"/><path id="path15856" d="m3890.2 1335.5h-0.046v-5.0647h5.0646v5.0647h-5.0186"/><path id="path15854" d="m3869.9 1335.5h-0.061v-5.0647h5.0647v5.0647h-5.0032"/><path id="path15852" d="m3864.9 1335.5h-0.066v-5.0647h0.066"/><path id="path15850" d="m3864.9 1330.4h4.999v5.0647h-4.999"/><path id="path15848" d="m3859.8 1335.5h-0.07v-5.0647h5.0647v5.0647h-4.9949"/><path id="path15846" d="m3849.7 1335.5h-0.077v-5.0647h5.0647v5.0647h-4.9877"/><path id="path15844" d="m3834.5 1335.5h-0.089v-5.0647h5.0647v5.0647h-4.9758"/><path id="path15842" d="m3829.4 1335.5h-0.093v-5.0647h5.0646v5.0647h-4.9716"/><path id="path15840" d="m3814.3 1335.5h-0.1044v-5.0647h5.0647v5.0647h-4.9603"/><path id="path15838" d="m3809.2 1335.5h-0.1085v-5.0647h0.1085"/><path id="path15836" d="m3809.2 1330.4h4.9561v5.0647h-4.9561"/><path id="path15834" d="m3789 1335.5h-0.124v-5.0647h5.0647v5.0647h-4.9407"/><path id="path15832" d="m3773.8 1335.5h-0.1354v-5.0647h5.0646v5.0647h-4.9292"/><path id="path15830" d="m3763.7 1335.5h-0.1426v-5.0647h0.1426"/><path id="path15828" d="m3763.7 1330.4h4.922v5.0647h-4.922"/><path id="path15826" d="m3758.6 1335.5h-0.1468v-5.0647h0.1468"/><path id="path15824" d="m3758.6 1330.4h4.9179v5.0647h-4.9179"/><path id="path15822" d="m3753.5 1335.5h-0.1504v-5.0647h0.1503"/><path id="path15820" d="m3753.5 1330.4h4.9144v5.0647h-4.9143"/><path id="path15818" d="m3743.4 1335.5h-0.1581v-5.0647h5.0647v5.0647h-4.9066"/><path id="path15816" d="m3945.8 1330.4v-5.0646h5.0647v5.0646h-5.0611"/><path id="path15814" d="m3915.5 1330.4h-0.027v-5.0646h5.0646v5.0646h-5.0372"/><path id="path15812" d="m3905.4 1330.4h-0.035v-5.0646h0.034"/><path id="path15810" d="m3905.4 1325.4h5.0302v5.0646h-5.0301"/><path id="path15808" d="m3890.2 1330.4h-0.046v-5.0646h0.046"/><path id="path15806" d="m3890.2 1325.4h5.0187v5.0646h-5.0186"/><path id="path15804" d="m3880.1 1330.4h-0.054v-5.0646h5.0646v5.0646h-5.0103"/><path id="path15802" d="m3875 1330.4h-0.058v-5.0646h5.0647v5.0646h-5.0068"/><path id="path15800" d="m3869.9 1330.4h-0.061v-5.0646h5.0647v5.0646h-5.0032"/><path id="path15798" d="m3859.8 1330.4h-0.07v-5.0646h0.07"/><path id="path15796" d="m3859.8 1325.4h4.9949v5.0646h-4.9949"/><path id="path15794" d="m3854.8 1330.4h-0.073v-5.0646h0.073"/><path id="path15792" d="m3854.8 1325.4h4.9911v5.0646h-4.9912"/><path id="path15790" d="m3849.7 1330.4h-0.077v-5.0646h5.0647v5.0646h-4.9877"/><path id="path15788" d="m3839.6 1330.4h-0.085v-5.0646h0.085"/><path id="path15786" d="m3839.6 1325.4h4.98v5.0646h-4.9799"/><path id="path15784" d="m3834.5 1330.4h-0.089v-5.0646h5.0647v5.0646h-4.9758"/><path id="path15782" d="m3829.4 1330.4h-0.093v-5.0646h0.093"/><path id="path15780" d="m3829.4 1325.4h4.9717v5.0646h-4.9716"/><path id="path15778" d="m3824.4 1330.4h-0.097v-5.0646h5.0647v5.0646h-4.9681"/><path id="path15776" d="m3819.3 1330.4h-0.1003v-5.0646h0.1004"/><path id="path15774" d="m3819.3 1325.4h4.9642v5.0646h-4.9643"/><path id="path15772" d="m3814.3 1330.4h-0.1044v-5.0646h5.0647v5.0646h-4.9603"/><path id="path15770" d="m3804.1 1330.4h-0.1116v-5.0646h0.1115"/><path id="path15768" d="m3804.1 1325.4h4.9532v5.0646h-4.9531"/><path id="path15766" d="m3789 1330.4h-0.124v-5.0646h5.0647v5.0646h-4.9407"/><path id="path15764" d="m3783.9 1330.4h-0.1271v-5.0646h5.0646v5.0646h-4.9375"/><path id="path15762" d="m3773.8 1330.4h-0.1354v-5.0646h5.0646v5.0646h-4.9292"/><path id="path15760" d="m3743.4 1330.4h-0.1581v-5.0646h5.0647v5.0646h-4.9066"/><path id="path15758" d="m3945.8 1325.4v-5.0647"/><path id="path15756" d="m3950.9 1320.3v5.0647h-5.0611"/><path id="path15754" d="m3945.8 1320.3h5.0611"/><path id="path15752" d="m3940.8 1325.4h-0.01v-5.0647h0.01"/><path id="path15750" d="m3940.8 1320.3h5.057v5.0647h-5.0569"/><path id="path15748" d="m3935.7 1325.4h-0.012v-5.0647h0.012"/><path id="path15746" d="m3935.7 1320.3h5.0527v5.0647h-5.0527"/><path id="path15744" d="m3930.7 1325.4h-0.016v-5.0647h0.015"/><path id="path15742" d="m3930.7 1320.3h5.0493v5.0647h-5.0492"/><path id="path15740" d="m3925.6 1325.4h-0.019v-5.0647h0.019"/><path id="path15738" d="m3925.6 1320.3h5.0456v5.0647h-5.0455"/><path id="path15736" d="m3920.5 1325.4h-0.023v-5.0647h0.023"/><path id="path15734" d="m3920.5 1320.3h5.0414v5.0647h-5.0414"/><path id="path15732" d="m3915.5 1325.4h-0.027v-5.0647h0.027"/><path id="path15730" d="m3915.5 1320.3h5.0373v5.0647h-5.0372"/><path id="path15728" d="m3900.3 1325.4h-0.039v-5.0647h0.039"/><path id="path15726" d="m3900.3 1320.3h5.0259v5.0647h-5.0258"/><path id="path15724" d="m3895.2 1325.4h-0.043v-5.0647h0.043"/><path id="path15722" d="m3895.2 1320.3h5.0218v5.0647h-5.0218"/><path id="path15720" d="m3880.1 1325.4h-0.054v-5.0647h0.054"/><path id="path15718" d="m3880.1 1320.3h5.0104v5.0647h-5.0103"/><path id="path15716" d="m3875 1325.4h-0.058v-5.0647h0.058"/><path id="path15714" d="m3875 1320.3h5.0069v5.0647h-5.0068"/><path id="path15712" d="m3869.9 1325.4h-0.061v-5.0647h0.061"/><path id="path15710" d="m3869.9 1320.3h5.0033v5.0647h-5.0032"/><path id="path15708" d="m3864.9 1325.4h-0.066v-5.0647h0.066"/><path id="path15706" d="m3864.9 1320.3h4.999v5.0647h-4.999"/><path id="path15704" d="m3849.7 1325.4h-0.077v-5.0647h0.077"/><path id="path15702" d="m3849.7 1320.3h4.9877v5.0647h-4.9877"/><path id="path15700" d="m3844.6 1325.4h-0.081v-5.0647h0.081"/><path id="path15698" d="m3844.6 1320.3h4.9834v5.0647h-4.9835"/><path id="path15696" d="m3834.5 1325.4h-0.089v-5.0647h0.089"/><path id="path15694" d="m3834.5 1320.3h4.9758v5.0647h-4.9758"/><path id="path15692" d="m3824.4 1325.4h-0.097v-5.0647h0.097"/><path id="path15690" d="m3824.4 1320.3h4.9681v5.0647h-4.9681"/><path id="path15688" d="m3814.3 1325.4h-0.1044v-5.0647h0.1043"/><path id="path15686" d="m3814.3 1320.3h4.9604v5.0647h-4.9603"/><path id="path15684" d="m3809.2 1325.4h-0.1085v-5.0647h0.1085"/><path id="path15682" d="m3809.2 1320.3h4.9561v5.0647h-4.9561"/><path id="path15680" d="m3789 1325.4h-0.124v-5.0647h0.124"/><path id="path15678" d="m3789 1320.3h4.9407v5.0647h-4.9407"/><path id="path15676" d="m3783.9 1325.4h-0.1271v-5.0647h0.1272"/><path id="path15674" d="m3783.9 1320.3h4.9374v5.0647h-4.9375"/><path id="path15672" d="m3773.8 1325.4h-0.1354v-5.0647h0.1354"/><path id="path15670" d="m3773.8 1320.3h4.9292v5.0647h-4.9292"/><path id="path15668" d="m3768.7 1325.4h-0.139v-5.0647h0.1391"/><path id="path15666" d="m3768.7 1320.3h4.9256v5.0647h-4.9257"/><path id="path15664" d="m3763.7 1325.4h-0.1426v-5.0647h0.1426"/><path id="path15662" d="m3763.7 1320.3h4.922v5.0647h-4.922"/><path id="path15660" d="m3758.6 1325.4h-0.1468v-5.0647h0.1468"/><path id="path15658" d="m3758.6 1320.3h4.9179v5.0647h-4.9179"/><path id="path15656" d="m3753.5 1325.4h-0.1504v-5.0647h0.1503"/><path id="path15654" d="m3753.5 1320.3h4.9144v5.0647h-4.9143"/><path id="path15652" d="m3748.5 1325.4h-0.1545v-5.0647h0.1545"/><path id="path15650" d="m3748.5 1320.3h4.9101v5.0647h-4.9101"/><path id="path15648" d="m3743.4 1325.4h-0.1581v-5.0647h0.158"/><path id="path15646" d="m3743.4 1320.3h4.9067v5.0647h-4.9066"/></g></svg>
