<?xml version="1.0" encoding="UTF-8"?>
<svg id="svg5" width="288.32mm" height="288.32mm" version="1.1" viewBox="0 0 288.32 288.32" xml:space="preserve" xmlns="http://www.w3.org/2000/svg"><g id="g10625" transform="translate(-3071.8 -1236.2)"><rect id="rect10582" x="3172.9" y="1337.3" width="86.202" height="86.202" fill="#fff6ec" style="paint-order:markers stroke fill"/><g id="g10588" transform="translate(-500.33,244.45)"><path id="path10584" class="UnoptimicedTransforms" transform="matrix(1.2139,0,0,1.2139,1399.6,690.6)" d="m1902.9 345.47c-1.7446 13.582-7.4524 40.661 1.8839 41.235l3.7764 0.0245c6.0427 0.0392-7.604-0.87591-3.8867-22.62 7.825 6.3088 20.496-5.2062 10.217-9.3379-3.397-1.178-5.364 0.42994-4.1031 3.3543 0.4916 1.1402 1.3276 1.4528 2.6386 0.98651 2.3729-0.84447 4.3646 0.91021 2.837 2.497-2.6893 2.7936-10.832 2.3333-10.564-5.9323l0.6947-5.6796c6.7062 1.8965 17.014-3.9955 18.698-8.029-1.0181 0.5294-4.9424 2.5648-7.5955 3.1553-2.6531 0.59046-12.444 1.2562-14.597 0.34617z" fill="#008744" style="paint-order:markers fill stroke"/><path id="path10586" d="m3730.8 1103.3c-6.8853 0-12.52 1.0757-17.137 2.8347-5.6979 2.1708-9.8438 5.3834-12.855 8.9143-4.074 4.777-6.078 10.145-7.0625 14.339s-0.95 7.2084-0.9484 7.3079v31.65c-6e-4 0.069 0.052 0.1249 0.1177 0.1254h46.326c0.068-4e-4 0.1214-0.061 0.1178-0.1311l-0.044-0.8149c-0.428-7.8528-4.3356-13.085-8.8121-16.509s-9.5235-5.0519-12.268-5.7345c-1.7816-0.4438-3.2767-1.792-3.8031-3.622-0.4291-1.4947-0.1498-2.8488 0.3337-3.9368 0.4741-1.0672 1.1393-1.8526 1.5248-2.2614 1.0548 0.331 2.1678 0.5225 3.3241 0.5225 1.2285 0 2.6284-0.3089 3.8471-0.7289l0.4636 0.8117c1.3703 2.3926 2.9624 3.4324 4.3464 3.839 1.4803 0.4342 2.6848 0.049 3.3629-0.1832 1.5172 1.125 2.206 0.9727 3.1708 1.0068 1.1601 0.041 1.8333-0.5102 2.5538-1.0664 0.7204-0.5562 0.9448-0.502 1.8442-2.1001 0.8994-1.598 0.9713-3.3912 0.012-5.1406l-9.9079-19.382-1.5876 0.8419 9.9248 19.395c1.1164 2.6119-0.4461 0.4187-1.5682 0.3971-1.1811 0-2.1641 0.9907-2.1641 2.2307 0 1.2398 0.983 2.2268 2.1641 2.2268 0.3706 0 0.6722-0.1879 0.9704-0.3764 0.03-0.017 0.061-0.035 0.09-0.053-0.3946 0.6946-1.4831 1.3979-2.4263 1.4741-0.6628 0.053-0.9301-0.048-1.8486-0.7489l-0.5759-0.6411-0.039-0.074c-0.03-0.058-0.1-0.081-0.1562-0.052l0.062-0.033-2.3717-2.9678c-0.041-0.05-0.1141-0.057-0.1631-0.014l-1.1775 1.0012c-0.052 0.045-0.058 0.1255-0.013 0.1782l1.9163 2.4326c-0.4458 0.061-0.9599 0.1056-1.5707-0.074-1.0515-0.3083-2.2277-1.1403-3.2988-3.011l-1.1719-2.05c-0.029-0.053-0.091-0.076-0.1462-0.053l-0.6285 0.2616c-1.1603 0.48-2.66 0.8594-3.9111 0.8594-1.1095 0-2.1742-0.1959-3.169-0.5539l-0.5181-0.2045c-0.1559-0.068-0.3115-0.1388-0.4636-0.2133l-0.07-0.035c-3.4263-1.7262-5.7886-5.4731-5.7886-9.8113v-0.7729c-7e-4 -0.068-0.053-0.1231-0.1189-0.1228h-1.5463c-0.064 4e-4 -0.1165 0.055-0.1177 0.1228v0.7729c0 4.7599 2.4734 8.8912 6.1028 11.037 0.012 0.034 0.032 0.063 0.062 0.079l0.5797 0.2872c-1.102 1.3721-2.7827 4.0967-1.8393 7.3801 0.7076 2.4618 2.706 4.2745 5.0873 4.8683 2.5142 0.6251 7.1239 2.084 11.255 5.1305 4.103 3.0255 7.7178 7.6195 8.3818 14.521h-42.867v-29.999c0-0.012-0.1724-11.372 7.5801-20.462 3.1497-3.6934 7.6262-6.988 13.947-9.0091 3.5609-1.1386 7.7044-1.8746 12.532-2.0462l-3.445 3.6107c-0.038 0.039-0.046 0.1-0.021 0.1474l0.067 0.1305 2.6289-0.4861 4.8194-5.0497c0.074-0.079 0.021-0.2106-0.084-0.2114zm-8.8052 13.245-0.7729 0.012c-0.066 5e-4 -0.1177 0.056-0.1177 0.1248l0.012 1.5462c8e-4 0.068 0.053 0.1232 0.119 0.1229h0.7727s0.3702 0.012 0.8419 0.053c0.017 0.4786 0.062 1.0895 0.2321 1.7519 0.2475 0.97 0.7314 1.9874 1.6089 2.6968 0.9313 0.7533 2.3178 1.1869 4.3584 0.7671l0.6907-0.1417c0.061-0.012 0.102-0.072 0.095-0.1361l-0.078-0.7014c-0.234-2.1201-0.901-3.0532-1.1404-3.3258-0.7365-1.1211-1.9532-1.8087-3.1709-2.2062-0.2869-0.093-0.5729-0.1692-0.8499-0.2339-0.161-0.035-0.2403-0.051-0.281-0.061-0.021 0-0.03-0.012-0.039-0.012 0-9e-4 -0.021 0-0.021 0 0-6e-4 -0.012 0-0.021 0-0.038-0.012-0.1201-0.022-0.274-0.053l-0.012-0.012c-1.1024-0.195-1.9484-0.1857-1.9484-0.1857zm2.1999 0.2698 0.049 0.108-0.072-0.096c-1e-4 0 0.012-0.012 0.023-0.012zm0.4591 1.9301c0.079 0.023 0.158 0.045 0.2372 0.07 0.881 0.2881 1.7692 0.746 2.2613 1.5312l0.012 0.012 0.097 0.1256s0.3191 0.5695 0.5495 1.4759c-0.8915 0.049-1.549-0.138-2.0042-0.5062-0.5505-0.4454-0.8371-1.1097-0.9999-1.7432-0.087-0.3448-0.1225-0.6653-0.1493-0.9623zm11.417 16.726c0.2162 0 0.3775 0.197 0.3775 0.4341 0 0.237-0.161 0.4328-0.3775 0.4328-0.2166 0-0.3796-0.1961-0.3796-0.4328 0-0.2368 0.1633-0.4341 0.3796-0.4341z" color="#000000" fill="#004221" style="-inkscape-stroke:none"/></g></g></svg>
