<?xml version="1.0" encoding="UTF-8" standalone="no"?>
<!-- Created with Inkscape (http://www.inkscape.org/) -->

<svg
   width="39.556641mm"
   height="53.688705mm"
   viewBox="0 0 39.556641 53.688705"
   version="1.1"
   id="svg5"
   xml:space="preserve"
   inkscape:version="1.2.2 (b0a8486541, 2022-12-01)"
   sodipodi:docname="logo-scacchi-bicolor.svg"
   xmlns:inkscape="http://www.inkscape.org/namespaces/inkscape"
   xmlns:sodipodi="http://sodipodi.sourceforge.net/DTD/sodipodi-0.dtd"
   xmlns="http://www.w3.org/2000/svg"
   xmlns:svg="http://www.w3.org/2000/svg"><sodipodi:namedview
     id="namedview7"
     pagecolor="#505050"
     bordercolor="#eeeeee"
     borderopacity="1"
     inkscape:showpageshadow="0"
     inkscape:pageopacity="0"
     inkscape:pagecheckerboard="0"
     inkscape:deskcolor="#505050"
     inkscape:document-units="mm"
     showgrid="false"
     inkscape:zoom="0.90509668"
     inkscape:cx="77.339804"
     inkscape:cy="113.8"
     inkscape:window-width="1920"
     inkscape:window-height="1006"
     inkscape:window-x="0"
     inkscape:window-y="0"
     inkscape:window-maximized="1"
     inkscape:current-layer="layer1" /><defs
     id="defs2" /><g
     inkscape:label="Livello 1"
     inkscape:groupmode="layer"
     id="layer1"
     transform="translate(-3337.1534,-250.27723)"><rect
       style="opacity:1;fill:none;fill-opacity:1;stroke:#ffffff;stroke-width:0.731767;stroke-linecap:round;stroke-linejoin:round;stroke-dasharray:none;stroke-opacity:1;paint-order:markers stroke fill"
       id="rect26537"
       width="94.198914"
       height="93.921387"
       x="3309.8323"
       y="230.16089" /><path
       id="path26543"
       style="fill:#00e676;fill-opacity:1;stroke-width:0.257433"
       d="m 1902.9176,345.47477 c -1.7446,13.5822 -7.4524,40.66112 1.8839,41.23507 l 3.7764,0.0245 c 6.0427,0.0392 -7.604,-0.87591 -3.8867,-22.62012 7.825,6.30881 20.4957,-5.20617 10.2172,-9.33792 -3.397,-1.17795 -5.364,0.42994 -4.1031,3.35431 0.4916,1.14022 1.3276,1.45281 2.6386,0.98651 2.3729,-0.84447 4.3646,0.91021 2.837,2.49701 -2.6893,2.79361 -10.8322,2.33333 -10.5636,-5.93227 l 0.6947,-5.67957 c 6.7062,1.89647 17.0142,-3.99551 18.698,-8.02896 -1.0181,0.5294 -4.9424,2.5648 -7.5955,3.15527 -2.6531,0.59046 -12.4441,1.25623 -14.5969,0.34617 z"
       transform="translate(1448.0316,-89.735415)"
       sodipodi:nodetypes="ccsccscsccczc"
       class="UnoptimicedTransforms" /><path
       id="path26539"
       style="color:#000000;clip-rule:nonzero;fill:#000000;fill-rule:nonzero;stroke:none;stroke-width:0.2;stroke-linejoin:miter;stroke-miterlimit:2;-inkscape-stroke:none"
       d="m 3368.4611,250.27723 c -5.6722,0 -10.3142,0.88621 -14.1175,2.33526 -4.694,1.78836 -8.1094,4.4349 -10.5901,7.34374 -3.3563,3.9353 -5.0071,8.35745 -5.8182,11.81271 -0.811,3.45519 -0.7827,5.93842 -0.7814,6.02031 v 25.43669 0.63665 a 0.09771088,0.10236329 0 0 0 0.097,0.10335 h 38.1641 a 0.09771088,0.10236329 0 0 0 0.097,-0.108 l -0.036,-0.67128 c -0.3526,-6.46921 -3.5717,-10.77946 -7.2595,-13.6002 -3.6878,-2.82082 -7.8455,-4.16185 -10.1063,-4.72426 -1.4677,-0.36554 -2.6995,-1.47613 -3.1332,-2.9838 -0.3535,-1.23141 -0.1234,-2.34685 0.2749,-3.24321 0.3906,-0.8792 0.9387,-1.52619 1.2563,-1.86294 0.8689,0.2727 1.7857,0.43047 2.7383,0.43047 1.0121,0 2.1654,-0.2545 3.1694,-0.60048 l 0.3818,0.66869 c 1.1289,1.97104 2.4406,2.82756 3.5807,3.1626 1.2195,0.35771 2.2562,0.12124 2.8148,-0.0698 0.9876,1.10478 2.3497,1.80548 3.8018,1.81642 1.0051,0.008 1.7614,-0.3 2.3172,-0.78548 0.5558,-0.4854 0.909,-1.1434 1.1302,-1.83296 0.5076,-1.58274 0.2712,-3.32282 -0.5235,-4.76405 l -10.3306,-19.70371 4.4297,-4.64106 a 0.09771088,0.10236329 0 0 0 -0.069,-0.17415 z m -1.7746,1.53066 v 0.002 l -2.8381,2.9745 a 0.09771088,0.10236329 0 0 0 -0.017,0.12144 l 10.7978,20.59564 c 0.2489,0.44977 0.3688,0.94906 0.4671,1.44797 -0.3248,-0.34009 -0.7362,-0.59169 -1.2299,-0.59169 -0.973,0 -1.7828,0.81612 -1.7828,1.83761 0,1.02142 0.8098,1.83452 1.7828,1.83452 0.3053,0 0.5539,-0.1548 0.7995,-0.31006 0.025,-0.014 0.05,-0.0287 0.074,-0.0439 -0.3251,0.57214 -0.811,1.03282 -1.7333,1.02578 -1.0757,-0.008 -2.0841,-0.55838 -2.8029,-1.4056 l -0.5183,-0.60926 -0.032,-0.0605 a 0.09771088,0.10236329 0 0 0 -0.1287,-0.0429 l 0.051,-0.0274 -2.2246,-2.61947 a 0.09771088,0.10236329 0 0 0 -0.1344,-0.0124 l -0.97,0.82476 a 0.09771088,0.10236329 0 0 0 -0.011,0.14676 l 1.8495,2.17868 c -0.3673,0.0497 -0.7908,0.087 -1.294,-0.0605 -0.8662,-0.254 -1.8353,-0.93941 -2.7177,-2.48047 l -0.9653,-1.68879 a 0.09771088,0.10236329 0 0 0 -0.1204,-0.0444 l -0.5178,0.21549 c -0.9559,0.39543 -2.1913,0.70797 -3.222,0.70797 -0.914,0 -1.7911,-0.16132 -2.6107,-0.4563 l -0.4268,-0.16847 c -0.1284,-0.0559 -0.2566,-0.11429 -0.3819,-0.1757 l -0.058,-0.0289 c -2.8226,-1.42213 -4.7687,-4.50883 -4.7687,-8.08271 v -0.63665 a 0.09771088,0.10236329 0 0 0 -0.098,-0.10129 h -1.2738 a 0.09771088,0.10236329 0 0 0 -0.097,0.10129 v 0.63665 c 0,3.92126 2.0376,7.32474 5.0276,9.09247 a 0.09771088,0.10236329 0 0 0 0.051,0.0651 l 0.4775,0.23668 c -0.9078,1.1304 -2.2924,3.37481 -1.5152,6.07973 0.5829,2.02809 2.2292,3.5214 4.191,4.01061 2.0712,0.51498 5.8687,1.71677 9.2723,4.22662 3.3801,2.49244 6.358,6.27701 6.905,11.96257 h -35.3141 v -24.71322 c 0,-0.008 -0.142,-9.36847 6.2446,-16.85685 2.5948,-3.04271 6.2826,-5.75678 11.4897,-7.42177 2.934,-0.93815 6.3482,-1.54449 10.326,-1.68568 z m -5.4793,9.38082 -0.6366,0.008 a 0.09771088,0.10236329 0 0 0 -0.097,0.10283 l 0.01,1.27383 a 0.09771088,0.10236329 0 0 0 0.098,0.10128 h 0.6367 c 0,0 0.3049,0.008 0.6935,0.0444 0.014,0.39427 0.051,0.89761 0.1912,1.44333 0.2039,0.79909 0.6026,1.63712 1.3255,2.22157 0.7672,0.62055 1.9094,0.97775 3.5905,0.632 l 0.5689,-0.11679 a 0.09771088,0.10236329 0 0 0 0.078,-0.11214 l -0.064,-0.57774 c -0.1928,-1.74661 -0.7423,-2.5153 -0.9395,-2.73988 -0.6067,-0.9236 -1.6091,-1.49003 -2.6122,-1.81746 -0.2364,-0.0768 -0.4721,-0.13943 -0.7003,-0.19276 -0.1326,-0.0287 -0.1979,-0.0424 -0.2315,-0.0501 -0.017,0 -0.025,-0.008 -0.032,-0.008 0,-6.2e-4 -0.017,0 -0.017,0 0,-4.6e-4 -0.01,0 -0.017,0 -0.031,-0.008 -0.099,-0.0181 -0.2258,-0.0444 a 0.09771088,0.10236329 0 0 0 -0.01,-0.009 c -0.9082,-0.16061 -1.605,-0.15296 -1.605,-0.15296 z m 1.8123,0.22169 v 5.2e-4 l 0.04,0.0894 c 0,0 0,-10e-6 0,0 l -0.059,-0.0791 c -1e-4,0 0.01,-0.008 0.02,-0.0109 z m 0.3783,1.5906 c 0.065,0.0194 0.1301,0.0369 0.1953,0.0579 0.7258,0.23731 1.4576,0.61455 1.863,1.26142 a 0.09771088,0.10236329 0 0 0 0.01,0.009 l 0.08,0.10335 c 0,0 0.2629,0.46925 0.4527,1.21594 -0.7344,0.0396 -1.2761,-0.11365 -1.6511,-0.41702 -0.4535,-0.36686 -0.6896,-0.9142 -0.8237,-1.43609 -0.072,-0.28396 -0.1009,-0.54812 -0.123,-0.79272 z m 10.464,14.83734 c 0.1781,0 0.3111,0.16229 0.3111,0.3576 0,0.19523 -0.1327,0.35657 -0.3111,0.35657 -0.1784,0 -0.3127,-0.16157 -0.3127,-0.35657 0,-0.19508 0.1345,-0.3576 0.3127,-0.3576 z" /></g></svg>
