<?xml version="1.0" encoding="UTF-8" standalone="no"?>
<!-- Created with Inkscape (http://www.inkscape.org/) -->

<svg
   width="94.198975mm"
   height="93.921326mm"
   viewBox="0 0 94.198975 93.921326"
   version="1.1"
   id="svg5"
   xml:space="preserve"
   inkscape:version="1.2.2 (b0a8486541, 2022-12-01)"
   sodipodi:docname="SCACCHI-FERMO-FF.svg"
   xmlns:inkscape="http://www.inkscape.org/namespaces/inkscape"
   xmlns:sodipodi="http://sodipodi.sourceforge.net/DTD/sodipodi-0.dtd"
   xmlns="http://www.w3.org/2000/svg"
   xmlns:svg="http://www.w3.org/2000/svg"><sodipodi:namedview
     id="namedview7"
     pagecolor="#505050"
     bordercolor="#eeeeee"
     borderopacity="1"
     inkscape:showpageshadow="0"
     inkscape:pageopacity="0"
     inkscape:pagecheckerboard="0"
     inkscape:deskcolor="#505050"
     inkscape:document-units="mm"
     showgrid="false"
     inkscape:zoom="1"
     inkscape:cx="13814"
     inkscape:cy="3096.9999"
     inkscape:window-width="1920"
     inkscape:window-height="1006"
     inkscape:window-x="0"
     inkscape:window-y="0"
     inkscape:window-maximized="1"
     inkscape:current-layer="layer1" /><defs
     id="defs2" /><g
     inkscape:label="Livello 1"
     inkscape:groupmode="layer"
     id="layer1"
     transform="translate(-3554.1788,-551.48289)"><rect
       style="opacity:1;fill:none;fill-opacity:1;stroke:none;stroke-width:0.731767;stroke-linecap:round;stroke-linejoin:round;stroke-dasharray:none;stroke-opacity:1;paint-order:markers stroke fill"
       id="rect2454"
       width="94.198914"
       height="93.921387"
       x="3554.1787"
       y="551.48285" /><path
       id="path2456"
       style="opacity:1;fill:none;fill-opacity:1;stroke:#000000;stroke-width:1;stroke-linecap:square;stroke-miterlimit:4.2;stroke-dasharray:none;stroke-opacity:1;paint-order:markers fill stroke"
       d="m 1902.9176,345.47477 c -1.7446,13.5822 -7.4524,40.66112 1.8839,41.23507 l 3.7764,0.0245 c 6.0427,0.0392 -7.604,-0.87591 -3.8867,-22.62012 7.825,6.30881 20.4957,-5.20617 10.2172,-9.33792 -3.397,-1.17795 -5.364,0.42994 -4.1031,3.35431 0.4916,1.14022 1.3276,1.45281 2.6386,0.98651 2.3729,-0.84447 4.3646,0.91021 2.837,2.49701 -2.6893,2.79361 -10.8322,2.33333 -10.5636,-5.93227 l 0.6947,-5.67957 c 6.7062,1.89647 17.0142,-3.99551 18.698,-8.02896 -1.0181,0.5294 -4.9424,2.5648 -7.5955,3.15527 -2.6531,0.59046 -12.4441,1.25623 -14.5969,0.34617 z"
       transform="translate(1692.3779,231.58654)"
       sodipodi:nodetypes="ccsccscsccczc"
       class="UnoptimicedTransforms"
       inkscape:export-filename="../../sito-scacchi/logo-scacchi-bicolor.svg"
       inkscape:export-xdpi="96"
       inkscape:export-ydpi="96" /><path
       id="path2458"
       style="color:#000000;clip-rule:nonzero;fill:#000000;fill-rule:nonzero;stroke:none;stroke-width:0.2;stroke-linejoin:miter;stroke-miterlimit:2;-inkscape-stroke:none"
       d="m 3612.8074,571.59922 c -5.6722,0 -10.3142,0.88621 -14.1175,2.33526 -4.694,1.78835 -8.1094,4.4349 -10.5901,7.34373 -3.3562,3.9353 -5.0071,8.35746 -5.8182,11.81272 -0.811,3.45519 -0.7826,5.93841 -0.7813,6.0203 v 25.43669 0.63666 c -5e-4,0.0566 0.043,0.10294 0.097,0.10335 h 38.1641 c 0.056,-3.4e-4 0.1,-0.0496 0.097,-0.108 l -0.036,-0.67128 c -0.3526,-6.4692 -3.5717,-10.77947 -7.2595,-13.6002 -3.6878,-2.82082 -7.8456,-4.16185 -10.1064,-4.72426 -1.4677,-0.36554 -2.6994,-1.47613 -3.1331,-2.9838 -0.3535,-1.23141 -0.1234,-2.34685 0.2749,-3.24321 0.3906,-0.8792 0.9386,-1.52619 1.2562,-1.86294 0.8689,0.2727 1.7858,0.43047 2.7384,0.43047 1.0121,0 2.1653,-0.2545 3.1693,-0.60048 l 0.3819,0.66869 c 1.1289,1.97104 2.4405,2.82756 3.5806,3.1626 1.2195,0.35771 2.2118,0.0402 2.7704,-0.1509 1.2499,0.92683 1.8174,0.80125 2.6122,0.82941 0.9557,0.0339 1.5103,-0.42027 2.1038,-0.8785 0.5935,-0.45823 0.7784,-0.41362 1.5193,-1.73013 0.7409,-1.31651 0.8002,-2.79365 0.01,-4.23488 l -8.1623,-15.9675 -1.3079,0.6935 8.1762,15.97783 c 0.9197,2.15171 -0.3675,0.34482 -1.2919,0.32711 -0.973,0 -1.7828,0.81613 -1.7828,1.83762 0,1.02142 0.8098,1.83451 1.7828,1.83451 0.3053,0 0.5538,-0.1548 0.7994,-0.31006 0.025,-0.014 0.05,-0.0287 0.074,-0.0439 -0.3251,0.57214 -1.2218,1.15163 -1.9988,1.21439 -0.546,0.0441 -0.7662,-0.0403 -1.5229,-0.61701 l -0.4744,-0.52814 -0.032,-0.0605 c -0.025,-0.0481 -0.082,-0.067 -0.1287,-0.0429 l 0.051,-0.0274 -1.9538,-2.44481 c -0.034,-0.0411 -0.094,-0.0465 -0.1344,-0.0124 l -0.97,0.82475 c -0.043,0.0369 -0.048,0.1034 -0.011,0.14677 l 1.5787,2.00401 c -0.3673,0.0497 -0.7908,0.087 -1.294,-0.0605 -0.8662,-0.254 -1.8352,-0.93941 -2.7176,-2.48047 l -0.9654,-1.68879 c -0.024,-0.044 -0.075,-0.0629 -0.1204,-0.0444 l -0.5178,0.21549 c -0.9559,0.39543 -2.1913,0.70797 -3.222,0.70797 -0.914,0 -1.7911,-0.16133 -2.6107,-0.45631 l -0.4268,-0.16846 c -0.1284,-0.0559 -0.2566,-0.11429 -0.3819,-0.1757 l -0.058,-0.0289 c -2.8226,-1.42213 -4.7687,-4.50883 -4.7687,-8.08271 v -0.63665 c -6e-4,-0.0562 -0.044,-0.10146 -0.098,-0.10129 h -1.2738 c -0.053,4e-4 -0.096,0.0455 -0.097,0.10129 v 0.63665 c 0,3.92126 2.0376,7.32474 5.0276,9.09247 0.01,0.0284 0.026,0.0521 0.051,0.0651 l 0.4775,0.23668 c -0.9078,1.1304 -2.2924,3.37481 -1.5152,6.07973 0.5829,2.02809 2.2292,3.5214 4.191,4.01061 2.0712,0.51498 5.8687,1.71677 9.2723,4.22661 3.3801,2.49244 6.358,6.27703 6.905,11.96258 h -35.3141 v -24.71322 c 0,-0.008 -0.142,-9.36848 6.2446,-16.85685 2.5948,-3.04271 6.2826,-5.75678 11.4897,-7.42177 2.9335,-0.93799 6.347,-1.54436 10.3239,-1.68569 v 0.002 l -2.8381,2.9745 c -0.031,0.032 -0.038,0.0815 -0.017,0.12144 l 0.055,0.10748 2.1657,-0.40049 3.9703,-4.15995 c 0.061,-0.0645 0.017,-0.17355 -0.069,-0.17415 z m -7.2538,10.91148 -0.6367,0.008 c -0.054,4.1e-4 -0.097,0.0464 -0.097,0.10283 l 0.01,1.27383 c 6e-4,0.0562 0.044,0.10145 0.098,0.10128 h 0.6366 c 0,0 0.3049,0.008 0.6935,0.0444 0.014,0.39427 0.051,0.8976 0.1912,1.44332 0.2039,0.79909 0.6026,1.63712 1.3255,2.22157 0.7672,0.62055 1.9094,0.97775 3.5905,0.632 l 0.569,-0.11679 c 0.05,-0.0104 0.084,-0.0592 0.078,-0.11213 l -0.064,-0.57775 c -0.1928,-1.74661 -0.7423,-2.5153 -0.9395,-2.73988 -0.6067,-0.9236 -1.6091,-1.49003 -2.6122,-1.81746 -0.2364,-0.0768 -0.472,-0.13942 -0.7002,-0.19275 -0.1326,-0.0287 -0.1979,-0.0424 -0.2315,-0.0501 -0.017,0 -0.025,-0.008 -0.032,-0.008 0,-6.2e-4 -0.017,0 -0.017,0 0,-4.6e-4 -0.01,0 -0.017,0 -0.031,-0.008 -0.099,-0.0181 -0.2258,-0.0444 0,-0.003 -0.01,-0.006 -0.01,-0.009 -0.9082,-0.16061 -1.6051,-0.15296 -1.6051,-0.15296 z m 1.8123,0.22221 0.04,0.0894 -0.059,-0.0791 c -1e-4,0 0.01,-0.007 0.019,-0.0103 z m 0.3782,1.59008 c 0.065,0.0194 0.1302,0.0369 0.1954,0.0579 0.7258,0.23731 1.4575,0.61455 1.8629,1.26142 0,0.003 0.01,0.006 0.01,0.009 l 0.08,0.10336 c 0,0 0.2629,0.46925 0.4527,1.21594 -0.7344,0.0396 -1.2761,-0.11366 -1.6511,-0.41703 -0.4535,-0.36685 -0.6896,-0.91419 -0.8237,-1.43608 -0.072,-0.28396 -0.1009,-0.54812 -0.123,-0.79272 z m 9.4057,13.779 c 0.1781,0 0.311,0.16229 0.311,0.3576 0,0.19523 -0.1326,0.35657 -0.311,0.35657 -0.1784,0 -0.3127,-0.16157 -0.3127,-0.35657 0,-0.19508 0.1345,-0.3576 0.3127,-0.3576 z" /></g></svg>
