<?xml version="1.0" encoding="UTF-8" standalone="no"?>
<!DOCTYPE svg PUBLIC "-//W3C//DTD SVG 1.1//EN" "http://www.w3.org/Graphics/SVG/1.1/DTD/svg11.dtd">
<svg width="100%" height="100%" viewBox="0 0 113 153" version="1.1" xmlns="http://www.w3.org/2000/svg" xmlns:xlink="http://www.w3.org/1999/xlink" xml:space="preserve" xmlns:serif="http://www.serif.com/" style="fill-rule:evenodd;clip-rule:evenodd;stroke-linecap:round;stroke-linejoin:round;">
    <g id="Livello-1" serif:id="Livello 1" transform="matrix(2.834646,0,0,2.834646,-9459.647433,-709.447266)">
        <rect id="rect26537" x="3309.832" y="230.161" width="94.199" height="93.921" style="fill:none;stroke:white;stroke-width:0.73px;"/>
        <g id="path26543" transform="matrix(1,0,0,1,1448.0316,-89.735415)">
            <path d="M1902.918,345.475C1901.173,359.057 1895.465,386.136 1904.802,386.71L1908.578,386.734C1914.621,386.774 1900.974,385.858 1904.691,364.114C1912.516,370.423 1925.187,358.908 1914.908,354.776C1911.511,353.598 1909.544,355.206 1910.805,358.131C1911.297,359.271 1912.133,359.583 1913.444,359.117C1915.817,358.273 1917.809,360.027 1916.281,361.614C1913.592,364.408 1905.449,363.947 1905.717,355.682L1906.412,350.002C1913.118,351.899 1923.426,346.007 1925.11,341.973C1924.092,342.503 1920.168,344.538 1917.515,345.129C1914.861,345.719 1905.07,346.385 1902.918,345.475Z" style="fill-rule:nonzero;"/>
        </g>
        <path id="path26539" d="M3368.461,250.277C3362.789,250.277 3358.147,251.163 3354.344,252.612C3349.65,254.401 3346.234,257.047 3343.754,259.956C3340.397,263.892 3338.746,268.314 3337.935,271.769C3337.124,275.224 3337.153,277.707 3337.154,277.789L3337.154,303.863C3337.154,303.863 3337.154,303.863 3337.154,303.864C3337.154,303.919 3337.198,303.966 3337.251,303.966L3375.415,303.966C3375.468,303.966 3375.512,303.92 3375.512,303.864C3375.512,303.862 3375.512,303.86 3375.512,303.858L3375.476,303.187C3375.123,296.717 3371.904,292.407 3368.217,289.586C3364.529,286.766 3360.371,285.425 3358.11,284.862C3356.643,284.497 3355.411,283.386 3354.977,281.878C3354.624,280.647 3354.854,279.532 3355.252,278.635C3355.643,277.756 3356.191,277.109 3356.508,276.772C3357.377,277.045 3358.294,277.203 3359.247,277.203C3360.259,277.203 3361.412,276.948 3362.416,276.602L3362.798,277.271C3363.927,279.242 3365.238,280.098 3366.378,280.434C3367.598,280.791 3368.635,280.555 3369.193,280.364C3370.181,281.469 3371.543,282.169 3372.995,282.18C3374,282.188 3374.756,281.88 3375.312,281.395C3375.868,280.909 3376.221,280.251 3376.442,279.562C3376.95,277.979 3376.714,276.239 3375.919,274.798L3365.588,255.094L3370.018,250.453C3370.036,250.434 3370.046,250.408 3370.046,250.381C3370.046,250.325 3370.002,250.279 3369.949,250.279L3368.461,250.277ZM3366.686,251.808L3366.686,251.81L3363.848,254.784C3363.818,254.816 3363.811,254.866 3363.831,254.906L3374.629,275.501C3374.878,275.951 3374.998,276.451 3375.096,276.949C3374.771,276.609 3374.36,276.358 3373.866,276.358C3372.893,276.358 3372.084,277.174 3372.084,278.195C3372.084,279.217 3372.893,280.03 3373.866,280.03C3374.172,280.03 3374.42,279.875 3374.666,279.72C3374.691,279.706 3374.716,279.691 3374.74,279.676C3374.415,280.248 3373.929,280.709 3373.007,280.702C3371.931,280.694 3370.923,280.143 3370.204,279.296L3369.685,278.687L3369.653,278.626C3369.629,278.579 3369.571,278.56 3369.525,278.583L3369.576,278.556L3367.351,275.937C3367.317,275.896 3367.257,275.89 3367.217,275.924L3366.247,276.749C3366.224,276.768 3366.211,276.797 3366.211,276.828C3366.211,276.853 3366.22,276.877 3366.236,276.896L3368.085,279.074C3367.718,279.124 3367.294,279.161 3366.791,279.014C3365.925,278.76 3364.956,278.074 3364.073,276.533L3363.108,274.845C3363.084,274.801 3363.033,274.782 3362.988,274.8L3362.47,275.016C3361.514,275.411 3360.279,275.724 3359.248,275.724C3358.334,275.724 3357.457,275.562 3356.637,275.267L3356.21,275.099C3356.082,275.043 3355.954,274.985 3355.829,274.923L3355.771,274.894C3352.948,273.472 3351.002,270.385 3351.002,266.812L3351.002,266.175C3351.001,266.119 3350.957,266.073 3350.904,266.074L3349.63,266.074C3349.577,266.074 3349.534,266.119 3349.533,266.175L3349.533,266.812C3349.533,270.733 3351.571,274.136 3354.561,275.904C3354.568,275.932 3354.587,275.956 3354.612,275.969L3355.089,276.206C3354.181,277.336 3352.797,279.581 3353.574,282.286C3354.157,284.314 3355.803,285.807 3357.765,286.296C3359.836,286.811 3363.634,288.013 3367.037,290.523C3370.417,293.015 3373.395,296.8 3373.942,302.485L3338.628,302.485L3338.628,277.772C3338.628,277.764 3338.486,268.404 3344.873,260.915C3347.468,257.873 3351.155,255.159 3356.362,253.494C3359.296,252.555 3362.711,251.949 3366.688,251.808L3366.686,251.808ZM3361.207,261.189L3360.571,261.197C3360.517,261.197 3360.473,261.243 3360.474,261.3L3360.484,262.573C3360.484,262.629 3360.528,262.675 3360.582,262.675L3361.218,262.675C3361.218,262.675 3361.523,262.683 3361.912,262.719C3361.926,263.113 3361.963,263.617 3362.103,264.162C3362.307,264.961 3362.706,265.799 3363.428,266.384C3364.196,267.004 3365.338,267.362 3367.019,267.016L3367.588,266.899C3367.638,266.889 3367.672,266.84 3367.666,266.787L3367.602,266.209C3367.409,264.463 3366.86,263.694 3366.662,263.469C3366.056,262.546 3365.053,261.979 3364.05,261.652C3363.814,261.575 3363.578,261.513 3363.35,261.459C3363.217,261.43 3363.152,261.417 3363.118,261.409C3363.101,261.409 3363.093,261.401 3363.086,261.401C3363.086,261.4 3363.069,261.401 3363.069,261.401C3363.069,261.401 3363.059,261.401 3363.052,261.401C3363.021,261.393 3362.953,261.383 3362.827,261.357C3362.823,261.353 3362.82,261.35 3362.817,261.348C3361.908,261.187 3361.212,261.195 3361.212,261.195L3361.207,261.189ZM3363.019,261.41L3363.019,261.411L3363.059,261.5C3363.059,261.5 3363.059,261.5 3363.059,261.5L3363,261.421C3363,261.421 3363.01,261.413 3363.02,261.41L3363.019,261.41ZM3363.398,263.001C3363.463,263.02 3363.528,263.038 3363.593,263.059C3364.319,263.296 3365.051,263.673 3365.456,264.32C3365.459,264.324 3365.463,264.327 3365.466,264.329L3365.546,264.433C3365.546,264.433 3365.809,264.902 3365.999,265.649C3365.264,265.688 3364.723,265.535 3364.348,265.232C3363.894,264.865 3363.658,264.317 3363.524,263.796C3363.452,263.512 3363.423,263.247 3363.401,263.003L3363.398,263.001ZM3373.862,277.838C3374.04,277.838 3374.173,278.001 3374.173,278.196C3374.173,278.391 3374.04,278.553 3373.862,278.553C3373.683,278.553 3373.549,278.391 3373.549,278.196C3373.549,278.001 3373.684,277.838 3373.862,277.838Z" style="fill-rule:nonzero;"/>
    </g>
</svg>
