<?xml version="1.0" encoding="UTF-8" standalone="no"?>
<!-- Created with Inkscape (http://www.inkscape.org/) -->

<svg
   width="94.198975mm"
   height="93.921387mm"
   viewBox="0 0 94.198975 93.921387"
   version="1.1"
   id="svg5"
   xml:space="preserve"
   inkscape:version="1.2.2 (b0a8486541, 2022-12-01)"
   sodipodi:docname="SCACCHI-FERMO-FF.svg"
   xmlns:inkscape="http://www.inkscape.org/namespaces/inkscape"
   xmlns:sodipodi="http://sodipodi.sourceforge.net/DTD/sodipodi-0.dtd"
   xmlns="http://www.w3.org/2000/svg"
   xmlns:svg="http://www.w3.org/2000/svg"><sodipodi:namedview
     id="namedview7"
     pagecolor="#505050"
     bordercolor="#eeeeee"
     borderopacity="1"
     inkscape:showpageshadow="0"
     inkscape:pageopacity="0"
     inkscape:pagecheckerboard="0"
     inkscape:deskcolor="#505050"
     inkscape:document-units="mm"
     showgrid="false"
     inkscape:zoom="1"
     inkscape:cx="13814"
     inkscape:cy="3096.9999"
     inkscape:window-width="1920"
     inkscape:window-height="1006"
     inkscape:window-x="0"
     inkscape:window-y="0"
     inkscape:window-maximized="1"
     inkscape:current-layer="layer1" /><defs
     id="defs2" /><g
     inkscape:label="Livello 1"
     inkscape:groupmode="layer"
     id="layer1"
     transform="translate(-3644.1527,-769.5994)"><rect
       style="opacity:1;fill:none;fill-opacity:1;stroke:none;stroke-width:0.731767;stroke-linecap:round;stroke-linejoin:round;stroke-dasharray:none;stroke-opacity:1;paint-order:markers stroke fill"
       id="rect2111"
       width="94.198914"
       height="93.921387"
       x="3644.1528"
       y="769.59943" /><g
       id="g2117"
       transform="translate(-25.056056,-319.35663)"><path
         id="path2113"
         style="opacity:1;fill:#008744;fill-opacity:1;stroke:none;stroke-width:1;stroke-linecap:square;stroke-miterlimit:4.2;stroke-dasharray:none;stroke-opacity:1;paint-order:markers fill stroke"
         d="m 1902.9176,345.47477 c -1.7446,13.5822 -7.4524,40.66112 1.8839,41.23507 l 3.7764,0.0245 c 6.0427,0.0392 -7.604,-0.87591 -3.8867,-22.62012 7.825,6.30881 20.4957,-5.20617 10.2172,-9.33792 -3.397,-1.17795 -5.364,0.42994 -4.1031,3.35431 0.4916,1.14022 1.3276,1.45281 2.6386,0.98651 2.3729,-0.84447 4.3646,0.91021 2.837,2.49701 -2.6893,2.79361 -10.8322,2.33333 -10.5636,-5.93227 l 0.6947,-5.67957 c 6.7062,1.89647 17.0142,-3.99551 18.698,-8.02896 -1.0181,0.5294 -4.9424,2.5648 -7.5955,3.15527 -2.6531,0.59046 -12.4441,1.25623 -14.5969,0.34617 z"
         transform="matrix(1.2138691,0,0,1.2138691,1399.6066,690.60033)"
         sodipodi:nodetypes="ccsccscsccczc"
         class="UnoptimicedTransforms"
         inkscape:export-filename="../../sito-scacchi/logo-scacchi-bicolor.svg"
         inkscape:export-xdpi="96"
         inkscape:export-ydpi="96" /><path
         id="path2115"
         style="color:#000000;clip-rule:nonzero;fill:#000000;fill-opacity:1;fill-rule:nonzero;stroke:none;stroke-width:0.242774;stroke-linejoin:miter;stroke-miterlimit:2;-inkscape-stroke:none"
         d="m 3730.7566,1103.3312 c -6.8853,0 -12.5201,1.0757 -17.1368,2.8347 -5.6979,2.1708 -9.8438,5.3834 -12.855,8.9143 -4.074,4.777 -6.078,10.1449 -7.0625,14.3391 -0.9845,4.1942 -0.95,7.2084 -0.9484,7.3079 v 30.8768 0.7729 c -6e-4,0.069 0.052,0.1249 0.1177,0.1254 h 46.3262 c 0.068,-4e-4 0.1214,-0.061 0.1178,-0.1311 l -0.044,-0.8149 c -0.428,-7.8528 -4.3356,-13.0848 -8.8121,-16.5089 -4.4765,-3.4241 -9.5235,-5.0519 -12.2679,-5.7345 -1.7816,-0.4438 -3.2767,-1.792 -3.8031,-3.622 -0.4291,-1.4947 -0.1498,-2.8488 0.3337,-3.9368 0.4741,-1.0672 1.1393,-1.8526 1.5248,-2.2614 1.0548,0.331 2.1678,0.5225 3.3241,0.5225 1.2285,0 2.6284,-0.3089 3.8471,-0.7289 l 0.4636,0.8117 c 1.3703,2.3926 2.9624,3.4324 4.3464,3.839 1.4803,0.4342 2.6848,0.049 3.3629,-0.1832 1.5172,1.125 2.206,0.9727 3.1708,1.0068 1.1601,0.041 1.8333,-0.5102 2.5538,-1.0664 0.7204,-0.5562 0.9448,-0.502 1.8442,-2.1001 0.8994,-1.598 0.9713,-3.3912 0.012,-5.1406 l -9.9079,-19.3825 -1.5876,0.8419 9.9248,19.3949 c 1.1164,2.6119 -0.4461,0.4187 -1.5682,0.3971 -1.1811,0 -2.1641,0.9907 -2.1641,2.2307 0,1.2398 0.983,2.2268 2.1641,2.2268 0.3706,0 0.6722,-0.1879 0.9704,-0.3764 0.03,-0.017 0.061,-0.035 0.09,-0.053 -0.3946,0.6946 -1.4831,1.3979 -2.4263,1.4741 -0.6628,0.053 -0.9301,-0.048 -1.8486,-0.7489 l -0.5759,-0.6411 -0.039,-0.074 c -0.03,-0.058 -0.1,-0.081 -0.1562,-0.052 l 0.062,-0.033 -2.3717,-2.9678 c -0.041,-0.05 -0.1141,-0.057 -0.1631,-0.014 l -1.1775,1.0012 c -0.052,0.045 -0.058,0.1255 -0.013,0.1782 l 1.9163,2.4326 c -0.4458,0.061 -0.9599,0.1056 -1.5707,-0.074 -1.0515,-0.3083 -2.2277,-1.1403 -3.2988,-3.011 l -1.1719,-2.05 c -0.029,-0.053 -0.091,-0.076 -0.1462,-0.053 l -0.6285,0.2616 c -1.1603,0.48 -2.66,0.8594 -3.9111,0.8594 -1.1095,0 -2.1742,-0.1959 -3.169,-0.5539 l -0.5181,-0.2045 c -0.1559,-0.068 -0.3115,-0.1388 -0.4636,-0.2133 l -0.07,-0.035 c -3.4263,-1.7262 -5.7886,-5.4731 -5.7886,-9.8113 v -0.7729 c -7e-4,-0.068 -0.053,-0.1231 -0.1189,-0.1228 h -1.5463 c -0.064,4e-4 -0.1165,0.055 -0.1177,0.1228 v 0.7729 c 0,4.7599 2.4734,8.8912 6.1028,11.0371 0.012,0.034 0.032,0.063 0.062,0.079 l 0.5797,0.2872 c -1.102,1.3721 -2.7827,4.0967 -1.8393,7.3801 0.7076,2.4618 2.706,4.2745 5.0873,4.8683 2.5142,0.6251 7.1239,2.084 11.2554,5.1305 4.103,3.0255 7.7178,7.6195 8.3818,14.5211 h -42.8667 v -29.9986 c 0,-0.012 -0.1724,-11.3721 7.5801,-20.4621 3.1497,-3.6934 7.6262,-6.988 13.947,-9.0091 3.5609,-1.1386 7.7044,-1.8746 12.5318,-2.0462 v 0 l -3.445,3.6107 c -0.038,0.039 -0.046,0.1 -0.021,0.1474 l 0.067,0.1305 2.6289,-0.4861 4.8194,-5.0497 c 0.074,-0.079 0.021,-0.2106 -0.084,-0.2114 z m -8.8052,13.2451 -0.7729,0.012 c -0.066,5e-4 -0.1177,0.056 -0.1177,0.1248 l 0.012,1.5462 c 8e-4,0.068 0.053,0.1232 0.119,0.1229 h 0.7727 c 0,0 0.3702,0.012 0.8419,0.053 0.017,0.4786 0.062,1.0895 0.2321,1.7519 0.2475,0.97 0.7314,1.9874 1.6089,2.6968 0.9313,0.7533 2.3178,1.1869 4.3584,0.7671 l 0.6907,-0.1417 c 0.061,-0.012 0.102,-0.072 0.095,-0.1361 l -0.078,-0.7014 c -0.234,-2.1201 -0.901,-3.0532 -1.1404,-3.3258 -0.7365,-1.1211 -1.9532,-1.8087 -3.1709,-2.2062 -0.2869,-0.093 -0.5729,-0.1692 -0.8499,-0.2339 -0.161,-0.035 -0.2403,-0.051 -0.281,-0.061 -0.021,0 -0.03,-0.012 -0.039,-0.012 0,-9e-4 -0.021,0 -0.021,0 0,-6e-4 -0.012,0 -0.021,0 -0.038,-0.012 -0.1201,-0.022 -0.274,-0.053 0,0 -0.012,-0.012 -0.012,-0.012 -1.1024,-0.195 -1.9484,-0.1857 -1.9484,-0.1857 z m 2.1999,0.2698 0.049,0.108 -0.072,-0.096 c -10e-5,0 0.012,-0.012 0.023,-0.012 z m 0.4591,1.9301 c 0.079,0.023 0.158,0.045 0.2372,0.07 0.881,0.2881 1.7692,0.746 2.2613,1.5312 0,0 0.012,0.012 0.012,0.012 l 0.097,0.1256 c 0,0 0.3191,0.5695 0.5495,1.4759 -0.8915,0.049 -1.549,-0.138 -2.0042,-0.5062 -0.5505,-0.4454 -0.8371,-1.1097 -0.9999,-1.7432 -0.087,-0.3448 -0.1225,-0.6653 -0.1493,-0.9623 z m 11.4173,16.7259 c 0.2162,0 0.3775,0.197 0.3775,0.4341 0,0.237 -0.161,0.4328 -0.3775,0.4328 -0.2166,0 -0.3796,-0.1961 -0.3796,-0.4328 0,-0.2368 0.1633,-0.4341 0.3796,-0.4341 z" /></g></g></svg>
