<?xml version="1.0" encoding="UTF-8" standalone="no"?>
<!DOCTYPE svg PUBLIC "-//W3C//DTD SVG 1.1//EN" "http://www.w3.org/Graphics/SVG/1.1/DTD/svg11.dtd">
<svg width="100%" height="100%" viewBox="0 0 3717 2690" version="1.1" xmlns="http://www.w3.org/2000/svg" xmlns:xlink="http://www.w3.org/1999/xlink" xml:space="preserve" xmlns:serif="http://www.serif.com/" style="fill-rule:evenodd;clip-rule:evenodd;stroke-linejoin:round;stroke-miterlimit:2;">
    <g transform="matrix(1,0,0,1,-8662.210248,-32458.423093)">
        <g transform="matrix(1,0,0,0.714286,10073.566554,24490.205122)">
            <g transform="matrix(38.134044,0,0,55.929653,-30452.653942,-49920.119171)">
                <path d="M793.816,1141.826C793.847,1141.999 794.408,1141.961 794.008,1142.307C792.027,1142.456 790.053,1142.637 788.084,1142.911C786.782,1143.092 785.455,1143.098 783.957,1143.193C784.917,1142.035 786.116,1141.477 787.075,1140.631C787.487,1140.268 787.636,1139.965 787.516,1139.421C787.266,1138.292 787.094,1137.145 786.89,1136.005C786.594,1133.652 786.223,1131.311 785.771,1128.982C785.774,1128.788 785.827,1128.583 785.638,1128.436L785.635,1128.427C785.364,1127.807 785.688,1127.1 785.359,1126.498C785.29,1126.371 785.306,1126.094 785.066,1126.137C784.946,1126.159 784.791,1126.298 784.752,1126.417C784.406,1127.475 783.852,1128.463 783.678,1129.578C783.281,1130.218 783.099,1130.946 782.864,1131.648C782.176,1133.707 781.314,1135.708 780.78,1137.819C780.529,1138.093 780.402,1138.839 779.876,1138.055C779.881,1137.969 779.92,1137.864 779.886,1137.797C778.794,1135.709 777.821,1133.559 776.578,1131.552C775.556,1129.201 774.306,1126.964 773.151,1124.679C772.711,1123.808 772.257,1122.944 771.81,1122.077C771.544,1125.125 771.088,1128.086 771.135,1131.078C770.837,1132.723 770.827,1134.392 770.739,1136.054C770.726,1136.285 770.837,1136.445 770.993,1136.598C771.82,1137.411 772.57,1138.304 773.49,1139.021C773.676,1139.282 773.861,1139.543 774.05,1139.809C773.341,1139.999 764.475,1139.134 763.273,1138.756C763.409,1138.599 763.536,1138.454 763.662,1138.308C764.823,1137.824 765.808,1137.033 766.911,1136.448C767.179,1136.306 767.254,1136.064 767.269,1135.778C767.343,1134.408 767.425,1133.039 767.504,1131.67C767.727,1129.054 767.964,1126.439 768.17,1123.822C768.386,1121.081 768.542,1118.335 768.791,1115.598C768.856,1114.892 768.61,1114.599 768.02,1114.314C766.03,1113.356 764.067,1112.342 762.098,1111.338C761.88,1111.227 761.485,1111.162 761.618,1110.814C761.735,1110.508 762.078,1110.674 762.327,1110.7C764.939,1110.978 767.55,1111.259 770.161,1111.539C770.751,1111.602 771.346,1111.631 771.927,1111.738C772.397,1111.825 772.671,1112.212 772.835,1112.625C773.889,1115.279 775.014,1117.907 776.092,1120.549C776.935,1122.616 777.873,1124.671 778.812,1126.713C779.295,1127.764 779.472,1128.954 780.337,1129.97C780.968,1127.899 781.58,1125.895 782.19,1123.889C783.048,1121.064 783.927,1118.245 784.744,1115.408C784.977,1114.6 785.659,1114.615 786.204,1114.458C788.48,1113.8 790.839,1113.437 793.044,1112.521C793.261,1112.431 793.491,1112.421 793.605,1112.614C793.763,1112.883 793.461,1112.909 793.315,1113.028C791.655,1114.378 790.001,1115.737 788.345,1117.093C788.135,1117.265 787.946,1117.429 787.966,1117.754C788.122,1120.352 788.502,1122.923 788.882,1125.494C788.873,1126.867 789.075,1128.222 789.234,1129.58C789.508,1131.91 789.689,1134.252 790.116,1136.563C790.063,1137.734 790.377,1138.868 790.465,1140.025C790.487,1140.31 790.638,1140.442 790.872,1140.543C791.854,1140.968 792.835,1141.398 793.816,1141.826ZM829.037,1136.245C829.726,1139.611 828.553,1142.423 826.332,1144.859C822.002,1149.608 816.719,1151.29 810.447,1149.659C810.276,1149.615 810.095,1149.609 809.919,1149.584C808.823,1149.224 807.791,1148.724 806.92,1147.969C804.794,1146.125 804.372,1143.855 805.62,1141.299C807.01,1138.455 809.242,1136.442 811.956,1134.926C812.434,1134.66 812.741,1134.416 812.798,1133.826C812.875,1133.029 813.06,1132.241 813.227,1131.455C813.349,1130.883 813.26,1130.642 812.567,1130.576C809.566,1130.291 807.52,1127.487 808.282,1124.721C808.669,1123.315 809.491,1122.125 810.523,1121.109C812.273,1119.385 814.238,1118.016 816.754,1117.667C817.314,1117.59 817.608,1117.413 817.558,1116.724C817.467,1115.484 818.341,1114.88 819.34,1114.426C820.276,1114.001 821.305,1113.98 822.286,1113.752C823.864,1113.771 825.288,1114.164 826.402,1115.376C826.825,1115.836 827.271,1116.313 826.77,1116.915C826.289,1117.492 825.55,1117.402 824.931,1117.224C824.501,1117.1 824.672,1116.549 824.8,1116.299C825.032,1115.847 824.815,1115.673 824.495,1115.549C823.235,1115.057 821.963,1114.887 820.688,1115.517C820.305,1115.55 820.044,1115.795 819.793,1116.044C819.486,1116.349 819.23,1116.755 819.412,1117.15C819.561,1117.474 819.994,1117.217 820.299,1117.248C820.504,1117.268 820.712,1117.249 820.918,1117.248C821.47,1117.604 822.114,1117.67 822.732,1117.807C824.548,1118.209 825.492,1119.45 825.391,1121.333C825.111,1126.533 822.999,1128.88 817.553,1130.042C815.873,1130.401 815.873,1130.401 816.027,1132.163C816.129,1133.321 816.129,1133.322 817.253,1133.053C817.885,1132.901 818.516,1132.746 819.147,1132.593C820.703,1132.503 822.257,1132.526 823.809,1132.698C824.918,1132.898 826.019,1133.111 827.032,1133.65C828.097,1134.217 828.795,1135.064 829.037,1136.245ZM811.626,1125.061C811.287,1127.145 812.754,1128.797 815.076,1128.437C817.291,1128.402 819.18,1127.555 820.768,1126.054C821.971,1124.916 822.61,1123.519 822.416,1121.813C822.272,1120.55 821.537,1119.692 820.365,1119.458C816.677,1118.609 812.35,1120.607 811.626,1125.061ZM825.567,1138.35C825.759,1135.88 824.57,1134.442 822.12,1134.132C820.306,1133.902 818.55,1134.227 816.811,1134.673C814.905,1135.162 812.996,1135.666 811.643,1137.265C809.017,1139.699 808.189,1141.691 809.645,1144.519L809.638,1144.573L809.688,1144.599C809.706,1144.655 809.725,1144.712 809.743,1144.769C809.918,1145.146 810.078,1145.531 810.268,1145.9C811.369,1148.046 814.015,1149.619 816.745,1148.963C819.291,1148.351 821.364,1147.251 822.791,1144.939C824.067,1142.871 825.372,1140.854 825.567,1138.35ZM806.023,1134.084C806.617,1134.947 806.611,1134.95 805.58,1135.209C804.596,1135.457 803.614,1135.711 802.629,1135.953C802.196,1136.06 801.836,1136.121 802.064,1135.433C802.219,1134.969 802.238,1134.461 802.35,1133.776C800.383,1136.359 797.965,1137.367 794.946,1136.848C793.775,1136.3 793.131,1135.291 792.607,1134.176C791.913,1131.893 792.275,1129.721 793.177,1127.557C793.885,1125.857 795.116,1124.902 796.85,1124.473C798.873,1123.972 800.887,1124.19 802.894,1124.54C803.32,1124.614 803.479,1124.562 803.557,1124.125C804.028,1121.452 802.076,1117.586 799.638,1116.404C798.832,1116.013 797.643,1116.199 797.055,1116.807C796.028,1117.869 795.708,1120.314 796.446,1121.544C795.678,1121.92 794.799,1121.677 794.023,1121.986L792.671,1121.986C793.632,1119.391 794.377,1116.706 797.006,1115.217C797.577,1114.893 798.155,1114.598 798.773,1114.38C799.692,1114.412 800.713,1114.197 801.508,1114.526C803.228,1115.238 804.346,1116.709 805.199,1118.329C806.977,1121.708 806.507,1125.32 806.184,1128.898C806.061,1130.255 805.955,1131.62 805.611,1132.951C805.494,1133.4 805.785,1133.738 806.023,1134.084ZM802.494,1130.002C803.28,1127.048 802.669,1126.384 799.618,1126.877C798.312,1127.088 797.238,1127.669 796.638,1128.896C796.191,1129.811 795.943,1130.799 795.886,1131.819C795.808,1133.191 796.415,1133.806 797.783,1133.793C800.309,1133.77 801.814,1132.558 802.494,1130.002ZM800.867,1099.962C800.687,1099.892 800.547,1099.715 800.413,1099.388L803.183,1099.388C803.555,1099.568 803.318,1099.984 803.519,1100.275C803.776,1100.105 804.013,1099.928 804.267,1099.782C805.535,1099.053 807.033,1099.142 807.855,1099.952C808.548,1100.636 808.991,1102.683 808.221,1103.872C807.857,1104.435 807.409,1104.918 806.863,1105.284C806.405,1105.593 806.456,1105.867 806.652,1106.323C807.065,1107.281 807.775,1108.047 808.246,1108.96C808.399,1109.257 808.615,1109.392 808.965,1109.356C809.284,1109.322 809.61,1109.349 810.005,1109.513C809.097,1109.96 808.196,1110.425 807.276,1110.846C806.85,1111.041 806.798,1110.617 806.679,1110.371C806.163,1109.301 805.607,1108.247 805.17,1107.145C804.851,1106.34 804.215,1106.494 803.684,1106.578C803.121,1106.666 803.226,1107.211 803.268,1107.654C803.538,1110.539 803.535,1110.538 800.719,1111.26C800.52,1111.311 800.33,1111.396 800.135,1111.466C799.674,1111.349 799.871,1111.029 800.042,1110.9C801.477,1109.821 801.38,1108.257 801.441,1106.723C801.505,1105.089 801.581,1103.453 801.732,1101.825C801.81,1100.988 801.767,1100.312 800.867,1099.962ZM804.121,1101.191C803.524,1101.766 803.186,1102.486 803.19,1103.194C803.149,1104.467 803.926,1105.235 804.935,1105.068C806.241,1104.85 807.249,1103.331 806.938,1102.047C806.605,1100.666 805.14,1100.209 804.121,1101.191ZM784.477,1109.25C784.471,1109.334 784.466,1109.419 784.46,1109.504C781.856,1109.683 779.253,1109.862 776.649,1110.041C777.668,1108.935 779.455,1108.611 779.458,1106.719C780.504,1103.472 781.55,1100.226 782.597,1096.979C782.618,1096.959 782.649,1096.942 782.66,1096.918C783.302,1095.397 783.295,1095.41 781.689,1094.592C781.292,1094.389 780.545,1094.333 780.656,1093.796C780.756,1093.303 781.468,1093.507 781.913,1093.454C783.129,1093.31 784.352,1093.227 785.567,1093.077C786.133,1093.007 786.398,1093.16 786.61,1093.733C787.746,1096.813 788.942,1099.871 790.203,1103.162C790.831,1101.619 791.385,1100.269 791.932,1098.916C792.778,1096.822 793.617,1094.725 794.469,1092.633C794.586,1092.344 794.659,1091.996 795.127,1092.043C797.106,1092.239 799.086,1092.416 801.148,1092.607C800.922,1092.952 800.676,1093.096 800.381,1093.103C799.408,1093.123 798.537,1093.581 797.594,1093.721C796.993,1093.81 796.851,1094.163 796.872,1094.727C796.998,1098.043 797.096,1101.359 797.205,1104.676C797.24,1105.721 797.083,1106.826 797.374,1107.796C797.668,1108.779 798.919,1109.097 799.675,1110.043C797.18,1110.215 794.819,1110.378 792.457,1110.541C792.43,1110.476 792.402,1110.411 792.375,1110.347C793.048,1109.841 793.72,1109.334 794.395,1108.831C794.689,1108.611 794.913,1108.395 794.889,1107.957C794.732,1105.092 794.613,1102.224 794.458,1099.359C794.439,1099.013 794.66,1098.448 794.218,1098.367C793.87,1098.303 793.823,1098.883 793.688,1099.2C792.394,1102.25 791.108,1105.303 789.818,1108.354C789.727,1108.569 789.619,1108.777 789.427,1109.18C787.758,1105.531 786.157,1102.031 784.509,1098.429C784.037,1099.061 783.985,1099.72 783.801,1100.316C783.072,1102.681 782.402,1105.065 781.663,1107.428C781.504,1107.937 781.656,1108.122 782.085,1108.285C782.888,1108.592 783.681,1108.927 784.477,1109.25ZM858.971,1127.663C859.115,1131.722 858.158,1135.466 855.883,1138.853C855.568,1139.321 855.278,1139.806 854.977,1140.284C853.756,1141.551 852.811,1143.115 851.112,1143.867C849.021,1144.485 846.908,1144.948 844.708,1144.939C840.873,1144.924 840.685,1144.118 839.315,1140.988C838.313,1138.697 837.932,1136.247 838.275,1133.757C838.025,1133.634 837.839,1133.739 837.715,1133.826C836.494,1134.686 835.053,1134.51 833.695,1134.655C831.925,1134.845 830.448,1134.142 829.212,1132.887C826.285,1129.914 825.938,1124.986 827.83,1121.485C828.585,1120.087 829.961,1119.296 831.476,1118.91C834.063,1118.251 836.545,1118.439 838.733,1120.179C839.033,1120.417 839.322,1120.668 839.617,1120.912C840.586,1122.095 841.94,1123.01 842.187,1124.711C844.599,1122.241 844.629,1122.222 847.815,1121.268C850.385,1121.383 852.907,1121.695 855.346,1122.62C857.714,1123.518 858.882,1125.158 858.971,1127.663ZM838.227,1121.777C838.254,1121.685 838.197,1121.648 838.113,1121.628C838.089,1121.572 838.05,1121.53 837.997,1121.5C837.969,1121.448 837.942,1121.396 837.915,1121.344C835.514,1118.659 830.764,1119.692 829.764,1123.242C829.189,1125.285 829.11,1127.325 829.526,1129.432C829.981,1131.732 831.634,1132.63 833.585,1133.056C835.485,1133.471 837.093,1132.75 838.22,1131.103C840.42,1128.245 840.423,1124.343 838.227,1121.778C838.225,1121.785 838.226,1121.79 838.223,1121.796L838.222,1121.772C838.224,1121.774 838.225,1121.776 838.227,1121.777ZM834.703,1125.287C835.46,1125.312 836.069,1125.98 836.064,1126.781C836.059,1127.547 835.457,1128.175 834.729,1128.172C833.943,1128.169 833.196,1127.439 833.223,1126.7C833.248,1125.98 833.998,1125.264 834.703,1125.287ZM853.288,1132.6C853.562,1130.424 853.64,1128.249 853.281,1126.073C853.223,1125.238 852.776,1124.572 852.302,1123.934C851.294,1122.577 850.942,1122.488 849.372,1123.087C848.894,1123.186 848.525,1123.485 848.158,1123.775C845.208,1126.097 843.605,1129.316 842.24,1132.692C841.445,1134.577 840.952,1136.54 840.912,1138.585C840.862,1141.051 841.793,1142.46 844.059,1143.212C845.709,1143.76 847.252,1143.178 848.629,1142.223C851.985,1139.896 852.938,1136.391 853.288,1132.6ZM848.64,1130.606C848.997,1130.925 849.339,1131.244 849.387,1131.772C849.446,1132.4 849.235,1132.89 848.69,1133.204C848.23,1133.468 847.782,1133.388 847.351,1133.09C846.828,1132.728 846.777,1132.252 846.968,1131.701C847.104,1130.731 847.379,1130.551 848.64,1130.606ZM782.826,1149.878L782.826,1150.902L781.802,1150.902L781.802,1149.878L782.826,1149.878ZM782.826,1151.967L782.826,1157.178L781.802,1157.178L781.802,1151.967L782.826,1151.967ZM786.572,1150.45L786.572,1151.966L787.361,1151.966L787.361,1152.89L786.572,1152.89L786.572,1155.832C786.572,1155.959 786.597,1156.057 786.647,1156.126C786.698,1156.195 786.771,1156.229 786.869,1156.229L787.361,1156.229L787.361,1157.203L786.767,1157.203C786.345,1157.203 786.037,1157.086 785.842,1156.854C785.646,1156.621 785.548,1156.277 785.548,1155.822L785.548,1152.89L785.01,1152.89L785.01,1151.966L785.548,1151.966L785.548,1150.45L786.572,1150.45ZM792.765,1152.12C793.073,1152.272 793.307,1152.493 793.468,1152.783C793.628,1153.072 793.709,1153.421 793.709,1153.829L793.709,1157.178L792.735,1157.178L792.735,1156.746C792.664,1156.831 792.597,1156.92 792.507,1156.982C792.375,1157.072 792.221,1157.14 792.047,1157.186C791.874,1157.23 791.677,1157.253 791.459,1157.253C790.817,1157.253 790.337,1157.12 790.019,1156.854C789.701,1156.588 789.541,1156.184 789.541,1155.641C789.541,1155.126 789.688,1154.739 789.979,1154.482C790.27,1154.224 790.709,1154.095 791.299,1154.095L792.735,1154.095L792.735,1153.874C792.735,1153.533 792.644,1153.268 792.462,1153.079C792.279,1152.89 792.02,1152.795 791.686,1152.795C791.479,1152.795 791.275,1152.827 791.076,1152.89C790.876,1152.954 790.7,1153.043 790.546,1153.156L789.798,1152.644C789.996,1152.406 790.256,1152.222 790.579,1152.09C790.901,1151.958 791.261,1151.891 791.656,1151.891C792.087,1151.891 792.458,1151.967 792.765,1152.12ZM792.446,1156.294C792.639,1156.21 792.735,1156.08 792.735,1155.903L792.735,1154.919L791.304,1154.919C791.036,1154.919 790.836,1154.978 790.704,1155.097C790.572,1155.216 790.506,1155.397 790.506,1155.641C790.506,1155.906 790.594,1156.102 790.769,1156.229C790.945,1156.356 791.212,1156.42 791.571,1156.42C791.962,1156.42 792.254,1156.378 792.446,1156.294ZM797.4,1156.126C797.456,1156.195 797.533,1156.229 797.633,1156.229L798.116,1156.229L798.116,1157.203L797.513,1157.203C797.125,1157.203 796.825,1157.082 796.611,1156.841C796.399,1156.6 796.293,1156.261 796.293,1155.822L796.293,1149.878L797.317,1149.878L797.317,1155.832C797.317,1155.96 797.344,1156.057 797.4,1156.126ZM801.322,1151.967L801.322,1157.178L800.298,1157.178L800.298,1151.967L801.322,1151.967ZM801.322,1149.878L801.322,1150.902L800.298,1150.902L800.298,1149.878L801.322,1149.878ZM806.88,1152.12C807.188,1152.272 807.422,1152.493 807.583,1152.783C807.743,1153.072 807.824,1153.421 807.824,1153.829L807.824,1157.178L806.85,1157.178L806.85,1156.746C806.779,1156.831 806.712,1156.92 806.622,1156.982C806.49,1157.072 806.336,1157.14 806.162,1157.186C805.989,1157.23 805.792,1157.253 805.574,1157.253C804.932,1157.253 804.452,1157.12 804.134,1156.854C803.816,1156.588 803.656,1156.184 803.656,1155.641C803.656,1155.126 803.803,1154.739 804.094,1154.482C804.385,1154.224 804.824,1154.095 805.414,1154.095L806.85,1154.095L806.85,1153.874C806.85,1153.533 806.759,1153.268 806.577,1153.079C806.394,1152.89 806.135,1152.795 805.801,1152.795C805.594,1152.795 805.39,1152.827 805.191,1152.89C804.991,1152.954 804.815,1153.043 804.661,1153.156L803.913,1152.644C804.111,1152.406 804.371,1152.222 804.694,1152.09C805.016,1151.958 805.376,1151.891 805.771,1151.891C806.202,1151.891 806.573,1151.967 806.88,1152.12ZM806.561,1156.294C806.754,1156.21 806.85,1156.08 806.85,1155.903L806.85,1154.919L805.419,1154.919C805.151,1154.919 804.951,1154.978 804.819,1155.097C804.687,1155.216 804.621,1155.397 804.621,1155.641C804.621,1155.906 804.709,1156.102 804.884,1156.229C805.06,1156.356 805.327,1156.42 805.686,1156.42C806.077,1156.42 806.369,1156.378 806.561,1156.294ZM812.817,1151.891C813.383,1151.891 813.821,1152.076 814.13,1152.446C814.44,1152.816 814.595,1153.339 814.595,1154.015L814.595,1157.178L813.571,1157.178L813.571,1154.02C813.571,1153.652 813.475,1153.367 813.284,1153.167C813.093,1152.966 812.826,1152.865 812.48,1152.865C812.146,1152.865 811.887,1152.954 811.705,1153.132C811.523,1153.309 811.431,1153.558 811.431,1153.879L811.431,1157.178L810.407,1157.178L810.407,1151.967L811.431,1151.967L811.431,1152.717C811.577,1152.484 811.746,1152.286 811.956,1152.147C812.216,1151.976 812.502,1151.891 812.817,1151.891ZM823.296,1152.14C823.557,1152.306 823.758,1152.548 823.895,1152.866C824.033,1153.184 824.101,1153.567 824.101,1154.015L824.101,1155.15C824.101,1155.592 824.031,1155.97 823.89,1156.284C823.749,1156.599 823.543,1156.839 823.273,1157.004C823.002,1157.17 822.677,1157.253 822.299,1157.253C821.974,1157.253 821.691,1157.175 821.45,1157.02C821.248,1156.889 821.101,1156.702 820.988,1156.481L820.988,1159.297L819.964,1159.297L819.964,1151.967L820.988,1151.967L820.988,1152.689C821.13,1152.465 821.295,1152.274 821.501,1152.14C821.755,1151.974 822.037,1151.891 822.349,1151.891C822.717,1151.891 823.033,1151.974 823.296,1152.14ZM823.077,1155.15L823.077,1154.02C823.077,1153.639 822.984,1153.342 822.799,1153.132C822.612,1152.921 822.35,1152.815 822.013,1152.815C821.795,1152.815 821.61,1152.855 821.458,1152.936C821.305,1153.016 821.189,1153.134 821.109,1153.29C821.028,1153.445 820.988,1153.632 820.988,1153.849L820.988,1155.27C820.988,1155.494 821.028,1155.685 821.109,1155.843C821.189,1156 821.305,1156.121 821.458,1156.204C821.61,1156.288 821.795,1156.33 822.013,1156.33C822.35,1156.33 822.612,1156.227 822.799,1156.021C822.984,1155.815 823.077,1155.524 823.077,1155.15ZM829.602,1155.255L829.602,1151.967L830.621,1151.967L830.621,1157.178L829.602,1157.178L829.602,1156.463C829.495,1156.666 829.351,1156.847 829.15,1156.992C828.909,1157.166 828.613,1157.253 828.262,1157.253C827.687,1157.253 827.241,1157.069 826.929,1156.699C826.616,1156.329 826.459,1155.807 826.459,1155.135L826.459,1151.967L827.483,1151.967L827.483,1155.135C827.483,1155.5 827.577,1155.781 827.762,1155.981C827.948,1156.18 828.21,1156.279 828.548,1156.279C828.882,1156.279 829.142,1156.191 829.326,1156.013C829.51,1155.836 829.602,1155.583 829.602,1155.255ZM836.538,1152.14C836.799,1152.306 837,1152.548 837.137,1152.866C837.275,1153.184 837.343,1153.567 837.343,1154.015L837.343,1155.15C837.343,1155.592 837.273,1155.97 837.132,1156.284C836.991,1156.599 836.785,1156.839 836.515,1157.004C836.244,1157.17 835.919,1157.253 835.541,1157.253C835.216,1157.253 834.933,1157.175 834.693,1157.02C834.49,1156.889 834.343,1156.702 834.23,1156.481L834.23,1157.178L833.206,1157.178L833.206,1149.878L834.23,1149.878L834.23,1152.689C834.372,1152.465 834.537,1152.274 834.743,1152.14C834.997,1151.974 835.279,1151.891 835.591,1151.891C835.959,1151.891 836.275,1151.974 836.538,1152.14ZM836.319,1155.15L836.319,1154.02C836.319,1153.639 836.226,1153.342 836.041,1153.132C835.854,1152.921 835.593,1152.815 835.255,1152.815C835.037,1152.815 834.852,1152.855 834.7,1152.936C834.548,1153.016 834.431,1153.134 834.351,1153.29C834.27,1153.445 834.23,1153.632 834.23,1153.849L834.23,1155.27C834.23,1155.494 834.27,1155.685 834.351,1155.843C834.431,1156 834.548,1156.121 834.7,1156.204C834.852,1156.288 835.037,1156.33 835.255,1156.33C835.593,1156.33 835.854,1156.227 836.041,1156.021C836.226,1155.815 836.319,1155.524 836.319,1155.15Z" style="fill:rgb(35,31,32);"/>
                <path d="M785.638,1128.467L785.621,1128.455C785.617,1128.454 785.614,1128.451 785.611,1128.448L785.607,1128.445L785.604,1128.438C785.467,1128.124 785.48,1127.789 785.486,1127.455C785.492,1127.131 785.492,1126.809 785.33,1126.513L785.33,1126.513C785.295,1126.448 785.281,1126.346 785.246,1126.266C785.229,1126.226 785.206,1126.191 785.168,1126.174C785.143,1126.163 785.112,1126.161 785.072,1126.168C785.017,1126.178 784.955,1126.216 784.901,1126.264C784.847,1126.312 784.801,1126.371 784.783,1126.426C784.438,1127.483 783.884,1128.469 783.71,1129.583C783.71,1129.587 783.708,1129.591 783.706,1129.594C783.31,1130.232 783.129,1130.958 782.895,1131.658C782.207,1133.716 781.346,1135.716 780.812,1137.826C780.81,1137.831 780.808,1137.836 780.805,1137.84C780.7,1137.954 780.617,1138.152 780.517,1138.284C780.442,1138.384 780.356,1138.447 780.251,1138.433C780.206,1138.426 780.157,1138.406 780.104,1138.366C780.03,1138.311 779.946,1138.217 779.848,1138.072C779.845,1138.066 779.843,1138.06 779.843,1138.053C779.846,1138.01 779.857,1137.961 779.863,1137.915C779.868,1137.876 779.871,1137.839 779.856,1137.811C778.765,1135.724 777.792,1133.574 776.55,1131.568C776.549,1131.567 776.548,1131.565 776.548,1131.564C775.526,1129.214 774.276,1126.977 773.121,1124.693C772.698,1123.856 772.263,1123.025 771.833,1122.192C771.565,1125.199 771.121,1128.123 771.168,1131.078C771.168,1131.08 771.167,1131.082 771.167,1131.083C770.869,1132.727 770.86,1134.395 770.772,1136.056L770.772,1136.056C770.759,1136.277 770.867,1136.43 771.016,1136.576C771.842,1137.388 772.592,1138.281 773.511,1138.997C773.513,1138.999 773.515,1139.001 773.517,1139.004C773.703,1139.265 773.888,1139.526 774.077,1139.792C774.083,1139.8 774.084,1139.81 774.081,1139.82C774.077,1139.829 774.069,1139.837 774.059,1139.839C773.845,1139.896 772.894,1139.86 771.634,1139.768C768.706,1139.555 764.105,1139.051 763.263,1138.786C763.252,1138.783 763.244,1138.775 763.241,1138.765C763.238,1138.755 763.241,1138.744 763.248,1138.736C763.384,1138.579 763.511,1138.434 763.637,1138.288C763.64,1138.284 763.644,1138.281 763.649,1138.279C764.809,1137.796 765.793,1137.005 766.895,1136.421C767.152,1136.284 767.222,1136.051 767.236,1135.777L767.236,1135.776C767.31,1134.406 767.392,1133.037 767.471,1131.668L767.471,1131.668C767.694,1129.052 767.931,1126.437 768.137,1123.82C768.353,1121.079 768.509,1118.332 768.758,1115.595C768.79,1115.251 768.747,1115.007 768.623,1114.815C768.499,1114.622 768.294,1114.481 768.005,1114.342C766.015,1113.384 764.052,1112.37 762.082,1111.366C761.972,1111.31 761.818,1111.265 761.707,1111.191C761.647,1111.15 761.599,1111.101 761.575,1111.038C761.551,1110.975 761.55,1110.899 761.587,1110.803C761.613,1110.735 761.65,1110.689 761.693,1110.657C761.757,1110.61 761.837,1110.597 761.925,1110.601C762.057,1110.608 762.205,1110.656 762.33,1110.669L762.33,1110.669C764.942,1110.947 767.553,1111.228 770.164,1111.508C770.755,1111.571 771.351,1111.6 771.933,1111.707C772.415,1111.797 772.697,1112.191 772.865,1112.614C773.919,1115.268 775.044,1117.896 776.122,1120.538C776.965,1122.604 777.903,1124.659 778.842,1126.701C779.316,1127.733 779.494,1128.9 780.323,1129.904C780.948,1127.853 781.554,1125.868 782.158,1123.88C783.016,1121.056 783.895,1118.237 784.712,1115.4C784.856,1114.902 785.165,1114.708 785.511,1114.598C785.736,1114.526 785.976,1114.491 786.194,1114.428C788.469,1113.771 790.827,1113.408 793.031,1112.492C793.264,1112.396 793.511,1112.391 793.633,1112.599L793.633,1112.599C793.688,1112.691 793.691,1112.758 793.67,1112.811C793.649,1112.863 793.601,1112.902 793.542,1112.935C793.475,1112.974 793.393,1113.005 793.336,1113.052C791.676,1114.402 790.022,1115.761 788.366,1117.117C788.164,1117.283 787.979,1117.439 787.999,1117.752L787.999,1117.752C788.155,1120.349 788.534,1122.92 788.914,1125.49C788.915,1125.491 788.915,1125.493 788.915,1125.494C788.906,1126.866 789.108,1128.22 789.266,1129.577C789.54,1131.906 789.721,1134.247 790.148,1136.558C790.149,1136.56 790.149,1136.562 790.149,1136.564C790.096,1137.734 790.41,1138.867 790.498,1140.023C790.518,1140.294 790.663,1140.419 790.885,1140.515C791.867,1140.94 792.848,1141.37 793.829,1141.798C793.839,1141.802 793.846,1141.811 793.848,1141.821C793.853,1141.847 793.876,1141.866 793.904,1141.883C793.939,1141.905 793.984,1141.923 794.026,1141.942C794.068,1141.962 794.108,1141.982 794.136,1142.007C794.158,1142.027 794.174,1142.05 794.18,1142.076C794.188,1142.108 794.184,1142.145 794.157,1142.191C794.133,1142.229 794.093,1142.275 794.03,1142.33C794.024,1142.335 794.018,1142.338 794.01,1142.338C792.03,1142.487 790.057,1142.668 788.089,1142.942C786.786,1143.123 785.458,1143.129 783.959,1143.224C783.946,1143.225 783.934,1143.219 783.928,1143.208C783.922,1143.197 783.923,1143.183 783.931,1143.174C784.892,1142.014 786.092,1141.455 787.053,1140.608C787.455,1140.254 787.601,1139.958 787.484,1139.428C787.234,1138.298 787.062,1137.151 786.858,1136.01L786.857,1136.009C786.561,1133.656 786.19,1131.316 785.739,1128.988C785.738,1128.986 785.738,1128.984 785.738,1128.982C785.739,1128.904 785.748,1128.825 785.747,1128.749C785.745,1128.643 785.722,1128.542 785.617,1128.46C785.623,1128.465 785.63,1128.467 785.638,1128.467C785.647,1128.467 785.656,1128.463 785.662,1128.457C785.822,1128.602 785.774,1128.797 785.771,1128.982C786.223,1131.311 786.594,1133.652 786.89,1136.005C787.094,1137.145 787.266,1138.292 787.516,1139.421C787.636,1139.965 787.487,1140.268 787.075,1140.631C786.116,1141.477 784.917,1142.035 783.957,1143.193C785.455,1143.098 786.782,1143.092 788.084,1142.911C790.053,1142.637 792.027,1142.456 794.008,1142.307C794.408,1141.961 793.847,1141.999 793.816,1141.826C792.835,1141.398 791.854,1140.968 790.872,1140.543C790.638,1140.442 790.487,1140.31 790.465,1140.025C790.377,1138.868 790.063,1137.734 790.116,1136.563C789.689,1134.252 789.508,1131.91 789.234,1129.58C789.075,1128.222 788.873,1126.867 788.882,1125.494C788.502,1122.923 788.122,1120.352 787.966,1117.754C787.946,1117.429 788.135,1117.265 788.345,1117.093C790.001,1115.737 791.655,1114.378 793.315,1113.028C793.461,1112.909 793.763,1112.883 793.605,1112.614C793.491,1112.421 793.261,1112.431 793.044,1112.521C790.839,1113.437 788.48,1113.8 786.204,1114.458C785.659,1114.615 784.977,1114.6 784.744,1115.408C783.927,1118.245 783.048,1121.064 782.19,1123.889C781.58,1125.895 780.968,1127.899 780.337,1129.97C779.472,1128.954 779.295,1127.764 778.812,1126.713C777.873,1124.671 776.935,1122.616 776.092,1120.549C775.014,1117.907 773.889,1115.279 772.835,1112.625C772.671,1112.212 772.397,1111.825 771.927,1111.738C771.346,1111.631 770.751,1111.602 770.161,1111.539C767.55,1111.259 764.939,1110.978 762.327,1110.7C762.078,1110.674 761.735,1110.508 761.618,1110.814C761.485,1111.162 761.88,1111.227 762.098,1111.338C764.067,1112.342 766.03,1113.356 768.02,1114.314C768.61,1114.599 768.856,1114.892 768.791,1115.598C768.542,1118.335 768.386,1121.081 768.17,1123.822C767.964,1126.439 767.727,1129.054 767.504,1131.67C767.425,1133.039 767.343,1134.408 767.269,1135.778C767.254,1136.064 767.179,1136.306 766.911,1136.448C765.808,1137.033 764.823,1137.824 763.662,1138.308C763.536,1138.454 763.409,1138.599 763.273,1138.756C764.475,1139.134 773.341,1139.999 774.05,1139.809C773.861,1139.543 773.676,1139.282 773.49,1139.021C772.57,1138.304 771.82,1137.411 770.993,1136.598C770.837,1136.445 770.726,1136.285 770.739,1136.054C770.827,1134.392 770.837,1132.723 771.135,1131.078C771.088,1128.086 771.544,1125.125 771.81,1122.077C772.257,1122.944 772.711,1123.808 773.151,1124.679C774.306,1126.964 775.556,1129.201 776.578,1131.552C777.821,1133.559 778.794,1135.709 779.886,1137.797C779.92,1137.864 779.881,1137.969 779.876,1138.055C780.402,1138.839 780.529,1138.093 780.78,1137.819C781.314,1135.708 782.176,1133.707 782.864,1131.648C783.099,1130.946 783.281,1130.218 783.678,1129.578C783.852,1128.463 784.406,1127.475 784.752,1126.417C784.791,1126.298 784.946,1126.159 785.066,1126.137C785.306,1126.094 785.29,1126.371 785.359,1126.498C785.688,1127.1 785.364,1127.807 785.635,1128.427L785.638,1128.436C785.644,1128.441 785.65,1128.446 785.656,1128.451C785.653,1128.453 785.65,1128.455 785.646,1128.456L785.638,1128.467ZM829.069,1136.239C829.76,1139.615 828.585,1142.436 826.357,1144.879C822.018,1149.638 816.724,1151.323 810.438,1149.689C810.269,1149.645 810.089,1149.639 809.914,1149.615C809.912,1149.614 809.91,1149.614 809.908,1149.613C808.808,1149.252 807.772,1148.75 806.898,1147.992C804.76,1146.138 804.335,1143.855 805.59,1141.285C806.983,1138.435 809.22,1136.418 811.939,1134.899L811.94,1134.899C812.407,1134.638 812.71,1134.4 812.765,1133.823C812.842,1133.025 813.028,1132.236 813.195,1131.448C813.254,1131.173 813.265,1130.977 813.175,1130.842C813.085,1130.708 812.896,1130.638 812.564,1130.607C809.543,1130.32 807.483,1127.497 808.25,1124.713C808.639,1123.301 809.464,1122.107 810.499,1121.087C812.255,1119.358 814.226,1117.986 816.749,1117.636L816.749,1117.636C817.02,1117.598 817.228,1117.539 817.361,1117.403C817.493,1117.268 817.549,1117.058 817.525,1116.726C817.433,1115.471 818.315,1114.857 819.326,1114.397C820.264,1113.972 821.295,1113.95 822.278,1113.721C822.281,1113.721 822.284,1113.72 822.286,1113.72C823.874,1113.74 825.306,1114.136 826.427,1115.355C826.86,1115.827 827.309,1116.317 826.796,1116.934C826.305,1117.522 825.553,1117.435 824.922,1117.254C824.735,1117.2 824.652,1117.072 824.63,1116.921C824.598,1116.705 824.692,1116.439 824.771,1116.285C824.88,1116.072 824.887,1115.925 824.826,1115.816C824.764,1115.706 824.635,1115.637 824.483,1115.578L824.483,1115.578C823.232,1115.089 821.969,1114.919 820.703,1115.544C820.699,1115.546 820.695,1115.547 820.691,1115.548C820.316,1115.58 820.062,1115.822 819.817,1116.065C819.519,1116.361 819.265,1116.754 819.442,1117.137C819.51,1117.284 819.643,1117.296 819.793,1117.278C819.96,1117.257 820.148,1117.201 820.302,1117.217C820.506,1117.236 820.713,1117.217 820.918,1117.216C820.924,1117.216 820.931,1117.218 820.936,1117.222C821.485,1117.576 822.125,1117.64 822.739,1117.776C823.656,1117.979 824.352,1118.394 824.807,1118.996C825.261,1119.597 825.475,1120.385 825.424,1121.334C825.283,1123.943 824.682,1125.835 823.434,1127.222C822.186,1128.608 820.292,1129.489 817.56,1130.072C817.142,1130.162 816.828,1130.229 816.595,1130.306C816.369,1130.382 816.221,1130.466 816.129,1130.594C816.056,1130.696 816.018,1130.825 816.004,1130.998C815.981,1131.265 816.014,1131.634 816.06,1132.16C816.09,1132.505 816.111,1132.747 816.156,1132.908C816.184,1133.009 816.22,1133.077 816.277,1133.118C816.333,1133.159 816.408,1133.172 816.51,1133.167C816.677,1133.159 816.911,1133.102 817.245,1133.022C817.877,1132.87 818.508,1132.715 819.139,1132.562C819.141,1132.562 819.143,1132.562 819.145,1132.561C820.703,1132.471 822.259,1132.494 823.813,1132.667C823.814,1132.667 823.814,1132.667 823.815,1132.667C824.928,1132.868 826.032,1133.082 827.048,1133.622C828.122,1134.194 828.825,1135.048 829.069,1136.239ZM829.037,1136.245C828.795,1135.064 828.097,1134.217 827.032,1133.65C826.019,1133.111 824.918,1132.898 823.809,1132.698C822.257,1132.526 820.703,1132.503 819.147,1132.593C818.516,1132.746 817.885,1132.901 817.253,1133.053C816.129,1133.322 816.129,1133.321 816.027,1132.163C815.873,1130.401 815.873,1130.401 817.553,1130.042C822.999,1128.88 825.111,1126.533 825.391,1121.333C825.492,1119.45 824.548,1118.209 822.732,1117.807C822.114,1117.67 821.47,1117.604 820.918,1117.248C820.712,1117.249 820.504,1117.268 820.299,1117.248C819.994,1117.217 819.561,1117.474 819.412,1117.15C819.23,1116.755 819.486,1116.349 819.793,1116.044C820.044,1115.795 820.305,1115.55 820.688,1115.517C821.963,1114.887 823.235,1115.057 824.495,1115.549C824.815,1115.673 825.032,1115.847 824.8,1116.299C824.672,1116.549 824.501,1117.1 824.931,1117.224C825.55,1117.402 826.289,1117.492 826.77,1116.915C827.271,1116.313 826.825,1115.836 826.402,1115.376C825.288,1114.164 823.864,1113.771 822.286,1113.752C821.305,1113.98 820.276,1114.001 819.34,1114.426C818.341,1114.88 817.467,1115.484 817.558,1116.724C817.608,1117.413 817.314,1117.59 816.754,1117.667C814.238,1118.016 812.273,1119.385 810.523,1121.109C809.491,1122.125 808.669,1123.315 808.282,1124.721C807.52,1127.487 809.566,1130.291 812.567,1130.576C813.26,1130.642 813.349,1130.883 813.227,1131.455C813.06,1132.241 812.875,1133.029 812.798,1133.826C812.741,1134.416 812.434,1134.66 811.956,1134.926C809.242,1136.442 807.01,1138.455 805.62,1141.299C804.372,1143.855 804.794,1146.125 806.92,1147.969C807.791,1148.724 808.823,1149.224 809.919,1149.584C810.095,1149.609 810.276,1149.615 810.447,1149.659C816.719,1151.29 822.002,1149.608 826.332,1144.859C828.553,1142.423 829.726,1139.611 829.037,1136.245ZM825.567,1138.35C825.372,1140.854 824.067,1142.871 822.791,1144.939C821.364,1147.251 819.291,1148.351 816.745,1148.963C814.015,1149.619 811.369,1148.046 810.268,1145.9C810.078,1145.531 809.918,1145.146 809.743,1144.769C809.725,1144.712 809.706,1144.655 809.688,1144.599L809.638,1144.573L809.645,1144.519C808.189,1141.691 809.017,1139.699 811.643,1137.265C812.996,1135.666 814.905,1135.162 816.811,1134.673C818.55,1134.227 820.306,1133.902 822.12,1134.132C824.57,1134.442 825.759,1135.88 825.567,1138.35ZM825.534,1138.347C825.63,1137.122 825.384,1136.152 824.808,1135.45C824.234,1134.749 823.331,1134.316 822.116,1134.163C820.306,1133.933 818.554,1134.258 816.82,1134.703C814.92,1135.19 813.017,1135.691 811.669,1137.284C811.668,1137.285 811.667,1137.286 811.666,1137.287C810.097,1138.741 809.171,1140.036 808.996,1141.448C808.879,1142.388 809.095,1143.38 809.674,1144.505C809.677,1144.51 809.678,1144.516 809.678,1144.523L809.673,1144.555L809.704,1144.571C809.711,1144.575 809.717,1144.582 809.719,1144.59C809.737,1144.645 809.756,1144.701 809.774,1144.758C809.948,1145.134 810.108,1145.518 810.297,1145.886L810.297,1145.886C811.392,1148.02 814.023,1149.585 816.737,1148.932C819.274,1148.322 821.341,1147.227 822.763,1144.923C824.036,1142.859 825.34,1140.846 825.534,1138.347ZM811.626,1125.061C812.35,1120.607 816.677,1118.609 820.365,1119.458C821.537,1119.692 822.272,1120.55 822.416,1121.813C822.61,1123.519 821.971,1124.916 820.768,1126.054C819.18,1127.555 817.291,1128.402 815.076,1128.437C812.754,1128.797 811.287,1127.145 811.626,1125.061ZM811.658,1125.065C811.491,1126.097 811.769,1127.022 812.377,1127.644C812.985,1128.266 813.922,1128.584 815.071,1128.406C815.072,1128.406 815.074,1128.405 815.075,1128.405C817.282,1128.371 819.163,1127.527 820.745,1126.031C821.941,1124.9 822.576,1123.512 822.383,1121.816C822.241,1120.568 821.516,1119.72 820.358,1119.488L820.357,1119.488C816.686,1118.643 812.379,1120.632 811.658,1125.065ZM806.05,1134.067C806.23,1134.328 806.355,1134.511 806.414,1134.646C806.458,1134.745 806.466,1134.821 806.442,1134.884C806.417,1134.946 806.357,1134.997 806.257,1135.043C806.119,1135.105 805.9,1135.161 805.588,1135.239C804.604,1135.487 803.622,1135.741 802.637,1135.983C802.478,1136.023 802.328,1136.055 802.212,1136.049C802.126,1136.044 802.058,1136.018 802.014,1135.963C801.985,1135.926 801.966,1135.877 801.962,1135.81C801.956,1135.719 801.976,1135.593 802.033,1135.423L802.033,1135.423C802.178,1134.989 802.203,1134.517 802.298,1133.896C800.337,1136.415 797.932,1137.393 794.94,1136.879C794.937,1136.878 794.934,1136.877 794.932,1136.876C793.753,1136.325 793.104,1135.31 792.577,1134.189C792.577,1134.187 792.576,1134.186 792.576,1134.185C791.879,1131.895 792.242,1129.716 793.147,1127.545C793.859,1125.835 795.097,1124.874 796.842,1124.443C798.87,1123.94 800.888,1124.158 802.9,1124.509C803.102,1124.544 803.242,1124.553 803.339,1124.497C803.436,1124.442 803.488,1124.325 803.525,1124.12C803.759,1122.789 803.39,1121.161 802.659,1119.719C801.928,1118.277 800.837,1117.02 799.623,1116.432C798.829,1116.047 797.658,1116.229 797.079,1116.828C796.57,1117.355 796.236,1118.225 796.121,1119.116C796.006,1120.007 796.108,1120.918 796.474,1121.528C796.479,1121.536 796.48,1121.545 796.477,1121.553C796.475,1121.561 796.469,1121.568 796.461,1121.572C796.073,1121.762 795.657,1121.796 795.24,1121.821C794.83,1121.846 794.42,1121.862 794.036,1122.015C794.032,1122.016 794.027,1122.017 794.023,1122.017L792.671,1122.017C792.66,1122.017 792.65,1122.012 792.644,1122.004C792.638,1121.996 792.637,1121.985 792.64,1121.975C793.604,1119.373 794.353,1116.683 796.989,1115.19C797.562,1114.865 798.142,1114.569 798.762,1114.35C798.766,1114.349 798.77,1114.348 798.774,1114.349C799.233,1114.365 799.718,1114.319 800.186,1114.31C800.661,1114.301 801.119,1114.331 801.521,1114.497C803.248,1115.212 804.372,1116.688 805.228,1118.315C807.009,1121.699 806.54,1125.317 806.217,1128.9C806.094,1130.259 805.987,1131.626 805.643,1132.958L805.643,1132.958C805.586,1133.175 805.629,1133.365 805.714,1133.543C805.801,1133.725 805.932,1133.895 806.05,1134.067ZM806.023,1134.084C805.785,1133.738 805.494,1133.4 805.611,1132.951C805.955,1131.62 806.061,1130.255 806.184,1128.898C806.507,1125.32 806.977,1121.708 805.199,1118.329C804.346,1116.709 803.228,1115.238 801.508,1114.526C800.713,1114.197 799.692,1114.412 798.773,1114.38C798.155,1114.598 797.577,1114.893 797.006,1115.217C794.377,1116.706 793.632,1119.391 792.671,1121.986L794.023,1121.986C794.799,1121.677 795.678,1121.92 796.446,1121.544C795.708,1120.314 796.028,1117.869 797.055,1116.807C797.643,1116.199 798.832,1116.013 799.638,1116.404C802.076,1117.586 804.028,1121.452 803.557,1124.125C803.479,1124.562 803.32,1124.614 802.894,1124.54C800.887,1124.19 798.873,1123.972 796.85,1124.473C795.116,1124.902 793.885,1125.857 793.177,1127.557C792.275,1129.721 791.913,1131.893 792.607,1134.176C793.131,1135.291 793.775,1136.3 794.946,1136.848C797.965,1137.367 800.383,1136.359 802.35,1133.776C802.238,1134.461 802.219,1134.969 802.064,1135.433C801.836,1136.121 802.196,1136.06 802.629,1135.953C803.614,1135.711 804.596,1135.457 805.58,1135.209C806.611,1134.95 806.617,1134.947 806.023,1134.084ZM802.494,1130.002C801.814,1132.558 800.309,1133.77 797.783,1133.793C796.415,1133.806 795.808,1133.191 795.886,1131.819C795.943,1130.799 796.191,1129.811 796.638,1128.896C797.238,1127.669 798.312,1127.088 799.618,1126.877C802.669,1126.384 803.28,1127.048 802.494,1130.002ZM802.462,1129.994C802.697,1129.112 802.807,1128.436 802.763,1127.933C802.735,1127.605 802.641,1127.352 802.47,1127.167C802.257,1126.936 801.926,1126.811 801.462,1126.773C800.99,1126.734 800.383,1126.785 799.624,1126.908C798.328,1127.117 797.263,1127.692 796.668,1128.909C796.223,1129.82 795.976,1130.805 795.919,1131.82C795.88,1132.496 796.008,1132.985 796.316,1133.304C796.624,1133.622 797.11,1133.768 797.783,1133.762C799.037,1133.75 800.038,1133.444 800.81,1132.823C801.582,1132.202 802.124,1131.265 802.462,1129.994ZM800.854,1099.991C800.668,1099.918 800.521,1099.737 800.382,1099.399C800.378,1099.389 800.379,1099.378 800.385,1099.37C800.392,1099.361 800.402,1099.356 800.413,1099.356L803.183,1099.356C803.188,1099.356 803.193,1099.357 803.197,1099.36C803.396,1099.456 803.434,1099.613 803.447,1099.787C803.459,1099.935 803.45,1100.095 803.528,1100.23C803.775,1100.065 804.004,1099.896 804.25,1099.755C805.532,1099.018 807.047,1099.111 807.878,1099.93C808.228,1100.275 808.516,1100.965 808.619,1101.718C808.721,1102.471 808.637,1103.288 808.248,1103.888C807.882,1104.455 807.431,1104.941 806.881,1105.309C806.706,1105.428 806.607,1105.54 806.565,1105.661C806.502,1105.845 806.568,1106.046 806.682,1106.311C807.095,1107.268 807.804,1108.033 808.275,1108.946C808.348,1109.088 808.436,1109.192 808.548,1109.256C808.659,1109.319 808.794,1109.342 808.961,1109.324C809.285,1109.29 809.616,1109.317 810.018,1109.484C810.029,1109.489 810.037,1109.499 810.037,1109.512C810.038,1109.524 810.031,1109.535 810.02,1109.54C809.111,1109.988 808.21,1110.453 807.29,1110.874C807.15,1110.938 807.047,1110.938 806.968,1110.904C806.889,1110.87 806.832,1110.799 806.788,1110.714C806.734,1110.61 806.696,1110.482 806.649,1110.384C806.132,1109.313 805.576,1108.258 805.139,1107.156C805.046,1106.921 804.926,1106.77 804.789,1106.677C804.63,1106.568 804.449,1106.537 804.262,1106.539C804.07,1106.541 803.873,1106.579 803.689,1106.608L803.689,1106.608C803.425,1106.65 803.317,1106.798 803.281,1106.988C803.243,1107.188 803.279,1107.432 803.3,1107.651C803.381,1108.519 803.438,1109.126 803.401,1109.571C803.376,1109.873 803.308,1110.101 803.177,1110.285C803.015,1110.515 802.755,1110.677 802.355,1110.826C801.962,1110.973 801.433,1111.109 800.727,1111.29C800.529,1111.341 800.34,1111.425 800.146,1111.495C800.14,1111.497 800.133,1111.498 800.126,1111.496C799.924,1111.445 799.841,1111.354 799.821,1111.259C799.809,1111.201 799.822,1111.14 799.849,1111.082C799.887,1111 799.956,1110.924 800.021,1110.875L800.021,1110.875C801.448,1109.802 801.347,1108.246 801.408,1106.721C801.472,1105.087 801.548,1103.45 801.699,1101.822C801.775,1101 801.738,1100.334 800.854,1099.991ZM800.867,1099.962C801.767,1100.312 801.81,1100.988 801.732,1101.825C801.581,1103.453 801.505,1105.089 801.441,1106.723C801.38,1108.257 801.477,1109.821 800.042,1110.9C799.871,1111.029 799.674,1111.349 800.135,1111.466C800.33,1111.396 800.52,1111.311 800.719,1111.26C803.535,1110.538 803.538,1110.539 803.268,1107.654C803.226,1107.211 803.121,1106.666 803.684,1106.578C804.215,1106.494 804.851,1106.34 805.17,1107.145C805.607,1108.247 806.163,1109.301 806.679,1110.371C806.798,1110.617 806.85,1111.041 807.276,1110.846C808.196,1110.425 809.097,1109.96 810.005,1109.513C809.61,1109.349 809.284,1109.322 808.965,1109.356C808.615,1109.392 808.399,1109.257 808.246,1108.96C807.775,1108.047 807.065,1107.281 806.652,1106.323C806.456,1105.867 806.405,1105.593 806.863,1105.284C807.409,1104.918 807.857,1104.435 808.221,1103.872C808.991,1102.683 808.548,1100.636 807.855,1099.952C807.033,1099.142 805.535,1099.053 804.267,1099.782C804.013,1099.928 803.776,1100.105 803.519,1100.275C803.318,1099.984 803.555,1099.568 803.183,1099.388L800.413,1099.388C800.547,1099.715 800.687,1099.892 800.867,1099.962ZM804.121,1101.191C805.14,1100.209 806.605,1100.666 806.938,1102.047C807.249,1103.331 806.241,1104.85 804.935,1105.068C803.926,1105.235 803.149,1104.467 803.19,1103.194C803.186,1102.486 803.524,1101.766 804.121,1101.191ZM804.144,1101.213C803.553,1101.781 803.218,1102.493 803.222,1103.193L803.222,1103.195C803.182,1104.443 803.939,1105.201 804.929,1105.037C805.573,1104.929 806.143,1104.5 806.515,1103.94C806.886,1103.38 807.059,1102.688 806.906,1102.054C806.742,1101.376 806.302,1100.923 805.776,1100.762C805.252,1100.601 804.643,1100.731 804.144,1101.213ZM784.51,1109.253C784.504,1109.337 784.499,1109.422 784.493,1109.507C784.492,1109.522 784.479,1109.535 784.463,1109.536L776.652,1110.073C776.639,1110.074 776.626,1110.067 776.62,1110.055C776.614,1110.044 776.616,1110.03 776.625,1110.021C777.135,1109.467 777.838,1109.108 778.414,1108.651C778.982,1108.201 779.424,1107.654 779.426,1106.719C779.426,1106.716 779.426,1106.713 779.427,1106.71C780.473,1103.463 781.519,1100.217 782.566,1096.97C782.568,1096.965 782.57,1096.961 782.574,1096.957C782.585,1096.947 782.599,1096.937 782.611,1096.927C782.619,1096.92 782.626,1096.914 782.63,1096.906C782.79,1096.527 782.91,1096.244 782.974,1096.02C783.036,1095.803 783.046,1095.643 782.988,1095.503C782.941,1095.392 782.85,1095.295 782.709,1095.193C782.49,1095.034 782.154,1094.864 781.674,1094.62L781.674,1094.62C781.476,1094.519 781.19,1094.454 780.968,1094.348C780.731,1094.235 780.565,1094.076 780.624,1093.791C780.667,1093.579 780.814,1093.486 781.007,1093.448C781.277,1093.395 781.642,1093.455 781.909,1093.423C783.125,1093.279 784.348,1093.196 785.563,1093.046C785.856,1093.01 786.07,1093.034 786.24,1093.138C786.408,1093.242 786.532,1093.428 786.641,1093.723C787.768,1096.779 788.954,1099.813 790.204,1103.074C790.819,1101.563 791.364,1100.236 791.902,1098.905C792.748,1096.811 793.587,1094.714 794.439,1092.622C794.486,1092.505 794.527,1092.379 794.588,1092.272C794.685,1092.104 794.832,1091.982 795.131,1092.012C797.11,1092.208 799.09,1092.385 801.152,1092.576C801.163,1092.577 801.173,1092.584 801.178,1092.594C801.183,1092.603 801.182,1092.615 801.176,1092.624C800.943,1092.981 800.687,1093.128 800.382,1093.135L800.382,1093.135C799.411,1093.155 798.541,1093.613 797.599,1093.752C797.368,1093.787 797.207,1093.861 797.099,1093.973C796.935,1094.143 796.893,1094.398 796.905,1094.726C797.031,1098.042 797.129,1101.358 797.238,1104.676C797.273,1105.718 797.116,1106.82 797.406,1107.788C797.551,1108.273 797.933,1108.593 798.371,1108.909C798.818,1109.231 799.322,1109.549 799.701,1110.025C799.709,1110.034 799.71,1110.046 799.705,1110.056C799.7,1110.067 799.69,1110.074 799.678,1110.075C797.183,1110.247 794.822,1110.41 792.46,1110.573C792.446,1110.574 792.432,1110.566 792.427,1110.553C792.4,1110.488 792.372,1110.423 792.345,1110.359C792.34,1110.346 792.344,1110.332 792.355,1110.323C793.028,1109.817 793.7,1109.31 794.375,1108.807C794.661,1108.593 794.88,1108.384 794.857,1107.959C794.7,1105.094 794.581,1102.226 794.426,1099.361C794.416,1099.188 794.467,1098.96 794.464,1098.764C794.462,1098.586 794.415,1098.435 794.212,1098.398C794.088,1098.375 794.01,1098.448 793.949,1098.556C793.848,1098.739 793.799,1099.023 793.719,1099.212C792.425,1102.262 791.139,1105.315 789.849,1108.366C789.758,1108.582 789.65,1108.79 789.457,1109.193C789.452,1109.205 789.44,1109.212 789.427,1109.212C789.414,1109.212 789.403,1109.204 789.397,1109.193C787.736,1105.561 786.143,1102.077 784.503,1098.493C784.064,1099.108 784.012,1099.747 783.833,1100.325C783.104,1102.69 782.434,1105.074 781.695,1107.437C781.619,1107.681 781.614,1107.847 781.683,1107.972C781.752,1108.097 781.892,1108.178 782.098,1108.256L782.098,1108.256C782.901,1108.564 783.694,1108.899 784.49,1109.222C784.503,1109.227 784.511,1109.239 784.51,1109.253ZM784.477,1109.25C783.681,1108.927 782.888,1108.592 782.085,1108.285C781.656,1108.122 781.504,1107.937 781.663,1107.428C782.402,1105.065 783.072,1102.681 783.801,1100.316C783.985,1099.72 784.037,1099.061 784.509,1098.429C786.157,1102.031 787.758,1105.532 789.427,1109.18C789.619,1108.777 789.727,1108.569 789.818,1108.354C791.108,1105.303 792.394,1102.25 793.688,1099.2C793.823,1098.883 793.87,1098.303 794.218,1098.367C794.66,1098.448 794.439,1099.013 794.458,1099.359C794.613,1102.224 794.732,1105.092 794.889,1107.957C794.913,1108.395 794.689,1108.611 794.395,1108.831C793.72,1109.334 793.048,1109.841 792.375,1110.347C792.402,1110.411 792.43,1110.476 792.457,1110.541C794.819,1110.378 797.18,1110.215 799.675,1110.043C798.919,1109.097 797.668,1108.779 797.374,1107.796C797.083,1106.826 797.24,1105.721 797.205,1104.676C797.096,1101.359 796.998,1098.043 796.872,1094.727C796.851,1094.163 796.993,1093.81 797.594,1093.721C798.537,1093.581 799.408,1093.123 800.381,1093.103C800.676,1093.096 800.922,1092.952 801.148,1092.608C799.086,1092.416 797.106,1092.239 795.127,1092.043C794.659,1091.996 794.586,1092.344 794.469,1092.633C793.617,1094.726 792.778,1096.822 791.932,1098.916C791.385,1100.269 790.831,1101.619 790.203,1103.162C788.942,1099.871 787.746,1096.813 786.61,1093.733C786.398,1093.16 786.133,1093.007 785.567,1093.077C784.352,1093.227 783.129,1093.311 781.913,1093.454C781.468,1093.508 780.756,1093.303 780.656,1093.796C780.545,1094.333 781.292,1094.389 781.689,1094.592C783.295,1095.41 783.302,1095.397 782.66,1096.918C782.649,1096.942 782.618,1096.959 782.597,1096.979C781.55,1100.226 780.504,1103.472 779.458,1106.719C779.455,1108.611 777.668,1108.935 776.649,1110.041L784.46,1109.504C784.466,1109.419 784.471,1109.334 784.477,1109.25ZM859.004,1127.662C859.148,1131.728 858.189,1135.478 855.91,1138.87C855.596,1139.338 855.306,1139.822 855.005,1140.3C855.004,1140.302 855.002,1140.304 855.001,1140.305C853.777,1141.575 852.829,1143.142 851.126,1143.895C851.124,1143.896 851.123,1143.897 851.122,1143.897C849.027,1144.516 846.911,1144.979 844.708,1144.97C843.166,1144.964 842.211,1144.83 841.531,1144.471C841.019,1144.2 840.662,1143.802 840.33,1143.234C840.001,1142.671 839.696,1141.941 839.285,1141C838.283,1138.711 837.901,1136.263 838.239,1133.775C838.015,1133.675 837.847,1133.772 837.734,1133.851C837.119,1134.285 836.448,1134.458 835.76,1134.54C835.078,1134.621 834.378,1134.614 833.698,1134.686C831.918,1134.877 830.431,1134.171 829.188,1132.909C826.252,1129.926 825.903,1124.983 827.801,1121.471C828.56,1120.065 829.944,1119.268 831.467,1118.88C834.065,1118.218 836.557,1118.408 838.754,1120.155C839.054,1120.393 839.343,1120.644 839.638,1120.888C839.64,1120.89 839.641,1120.891 839.643,1120.893C840.127,1121.484 840.708,1122.009 841.198,1122.598C841.68,1123.176 842.074,1123.817 842.209,1124.642C844.581,1122.213 844.632,1122.188 847.805,1121.238C847.809,1121.237 847.813,1121.237 847.816,1121.237C850.39,1121.352 852.915,1121.665 855.358,1122.591C857.739,1123.494 858.914,1125.143 859.004,1127.662ZM858.971,1127.663C858.882,1125.158 857.714,1123.518 855.346,1122.62C852.907,1121.695 850.385,1121.383 847.815,1121.268C844.629,1122.222 844.599,1122.241 842.187,1124.711C841.94,1123.01 840.586,1122.095 839.617,1120.912C839.322,1120.668 839.033,1120.417 838.733,1120.179C836.545,1118.439 834.063,1118.251 831.476,1118.91C829.961,1119.296 828.585,1120.087 827.83,1121.485C825.938,1124.986 826.285,1129.914 829.212,1132.887C830.448,1134.142 831.925,1134.845 833.695,1134.655C835.053,1134.51 836.494,1134.686 837.715,1133.826C837.839,1133.739 838.025,1133.634 838.275,1133.757C837.932,1136.247 838.313,1138.697 839.315,1140.988C840.685,1144.118 840.873,1144.924 844.708,1144.939C846.908,1144.948 849.021,1144.485 851.112,1143.867C852.811,1143.115 853.756,1141.551 854.977,1140.284C855.278,1139.806 855.568,1139.321 855.883,1138.853C858.158,1135.466 859.115,1131.722 858.971,1127.663ZM838.227,1121.777C838.225,1121.776 838.224,1121.774 838.222,1121.772L838.223,1121.796C838.226,1121.79 838.225,1121.785 838.227,1121.778C840.423,1124.343 840.42,1128.245 838.22,1131.103C837.093,1132.75 835.485,1133.471 833.585,1133.056C831.634,1132.63 829.981,1131.732 829.526,1129.432C829.11,1127.325 829.189,1125.285 829.764,1123.242C830.764,1119.692 835.514,1118.659 837.915,1121.344C837.942,1121.396 837.969,1121.448 837.997,1121.5C838.05,1121.53 838.089,1121.572 838.113,1121.628C838.197,1121.648 838.254,1121.685 838.227,1121.777ZM838.227,1121.828C838.224,1121.828 838.221,1121.828 838.218,1121.827C838.202,1121.825 838.191,1121.812 838.191,1121.798L838.19,1121.774C838.189,1121.764 838.193,1121.756 838.2,1121.749C838.203,1121.732 838.201,1121.717 838.194,1121.706C838.179,1121.68 838.145,1121.668 838.105,1121.658C838.095,1121.656 838.086,1121.649 838.082,1121.64C838.061,1121.591 838.027,1121.553 837.98,1121.527C837.975,1121.524 837.97,1121.52 837.968,1121.514C837.94,1121.463 837.914,1121.412 837.887,1121.361C835.502,1118.699 830.788,1119.726 829.795,1123.25C829.222,1125.289 829.143,1127.324 829.558,1129.426C830.01,1131.711 831.654,1132.602 833.592,1133.026C835.478,1133.438 837.074,1132.721 838.192,1131.086L838.193,1131.085C840.376,1128.249 840.388,1124.382 838.227,1121.828ZM834.704,1125.255C835.478,1125.281 836.102,1125.962 836.097,1126.781C836.092,1127.565 835.474,1128.206 834.729,1128.203C833.926,1128.2 833.163,1127.454 833.191,1126.699C833.203,1126.331 833.401,1125.964 833.685,1125.692C833.971,1125.42 834.344,1125.244 834.704,1125.255ZM834.703,1125.287C833.998,1125.264 833.248,1125.98 833.223,1126.7C833.196,1127.439 833.943,1128.169 834.729,1128.172C835.457,1128.175 836.059,1127.547 836.064,1126.781C836.069,1125.98 835.46,1125.312 834.703,1125.287ZM853.288,1132.6C852.938,1136.391 851.985,1139.896 848.629,1142.223C847.252,1143.178 845.709,1143.76 844.059,1143.212C841.793,1142.46 840.862,1141.051 840.912,1138.585C840.952,1136.54 841.445,1134.577 842.24,1132.692C843.605,1129.316 845.208,1126.097 848.158,1123.775C848.525,1123.485 848.894,1123.186 849.372,1123.087C850.942,1122.488 851.294,1122.577 852.302,1123.934C852.776,1124.572 853.223,1125.238 853.281,1126.073C853.64,1128.249 853.562,1130.424 853.288,1132.6ZM853.255,1132.596C853.529,1130.423 853.607,1128.251 853.248,1126.078C853.248,1126.077 853.248,1126.076 853.248,1126.075C853.191,1125.246 852.746,1124.586 852.275,1123.952C851.777,1123.282 851.443,1122.923 851.038,1122.807C850.633,1122.692 850.159,1122.82 849.384,1123.116C849.382,1123.117 849.381,1123.117 849.379,1123.118C848.906,1123.216 848.542,1123.512 848.179,1123.799L848.179,1123.799C845.233,1126.118 843.633,1129.332 842.27,1132.703L842.27,1132.704C841.477,1134.585 840.985,1136.545 840.945,1138.586C840.92,1139.811 841.138,1140.774 841.644,1141.524C842.151,1142.274 842.945,1142.809 844.07,1143.183C845.709,1143.727 847.241,1143.147 848.61,1142.198C851.957,1139.876 852.906,1136.379 853.255,1132.597L853.255,1132.596ZM848.662,1130.583C849.025,1130.907 849.371,1131.233 849.419,1131.769C849.48,1132.41 849.263,1132.91 848.707,1133.231L848.707,1133.231C848.234,1133.502 847.774,1133.421 847.332,1133.115C846.796,1132.745 846.741,1132.258 846.936,1131.694C847.005,1131.199 847.114,1130.906 847.363,1130.743C847.611,1130.581 848.001,1130.547 848.641,1130.575C848.649,1130.575 848.657,1130.578 848.662,1130.583ZM848.64,1130.606C847.379,1130.551 847.104,1130.731 846.968,1131.701C846.777,1132.252 846.828,1132.728 847.351,1133.09C847.782,1133.388 848.23,1133.468 848.69,1133.204C849.235,1132.89 849.446,1132.4 849.387,1131.772C849.339,1131.244 848.997,1130.925 848.64,1130.606ZM782.859,1149.878L782.859,1150.902C782.859,1150.919 782.844,1150.933 782.826,1150.933L781.802,1150.933C781.784,1150.933 781.769,1150.919 781.769,1150.902L781.769,1149.878C781.769,1149.861 781.784,1149.847 781.802,1149.847L782.826,1149.847C782.844,1149.847 782.859,1149.861 782.859,1149.878ZM782.826,1149.878L781.802,1149.878L781.802,1150.902L782.826,1150.902L782.826,1149.878ZM782.859,1151.967L782.859,1157.178C782.859,1157.195 782.844,1157.209 782.826,1157.209L781.802,1157.209C781.784,1157.209 781.769,1157.195 781.769,1157.178L781.769,1151.967C781.769,1151.95 781.784,1151.936 781.802,1151.936L782.826,1151.936C782.844,1151.936 782.859,1151.95 782.859,1151.967ZM782.826,1151.967L781.802,1151.967L781.802,1157.178L782.826,1157.178L782.826,1151.967ZM786.605,1150.45L786.605,1151.935L787.361,1151.935C787.379,1151.935 787.394,1151.949 787.394,1151.966L787.394,1152.89C787.394,1152.907 787.379,1152.921 787.361,1152.921L786.605,1152.921L786.605,1155.832C786.605,1155.951 786.627,1156.044 786.674,1156.108C786.718,1156.169 786.783,1156.198 786.869,1156.198L787.361,1156.198C787.379,1156.198 787.394,1156.212 787.394,1156.229L787.394,1157.203C787.394,1157.22 787.379,1157.234 787.361,1157.234L786.767,1157.234C786.333,1157.234 786.017,1157.112 785.816,1156.874C785.616,1156.636 785.515,1156.286 785.515,1155.822L785.515,1152.921L785.01,1152.921C784.992,1152.921 784.977,1152.907 784.977,1152.89L784.977,1151.966C784.977,1151.949 784.992,1151.935 785.01,1151.935L785.515,1151.935L785.515,1150.45C785.515,1150.433 785.53,1150.419 785.548,1150.419L786.572,1150.419C786.59,1150.419 786.605,1150.433 786.605,1150.45ZM786.572,1150.45L785.548,1150.45L785.548,1151.966L785.01,1151.966L785.01,1152.89L785.548,1152.89L785.548,1155.822C785.548,1156.277 785.646,1156.621 785.842,1156.854C786.037,1157.086 786.345,1157.203 786.767,1157.203L787.361,1157.203L787.361,1156.229L786.869,1156.229C786.771,1156.229 786.698,1156.195 786.647,1156.126C786.597,1156.057 786.572,1155.959 786.572,1155.832L786.572,1152.89L787.361,1152.89L787.361,1151.966L786.572,1151.966L786.572,1150.45ZM792.78,1152.092C793.094,1152.247 793.333,1152.472 793.497,1152.768C793.659,1153.061 793.742,1153.415 793.742,1153.829L793.742,1157.178C793.742,1157.195 793.727,1157.209 793.709,1157.209L792.735,1157.209C792.717,1157.209 792.702,1157.195 792.702,1157.178L792.702,1156.836C792.649,1156.899 792.593,1156.961 792.526,1157.007L792.526,1157.007C792.391,1157.099 792.233,1157.169 792.055,1157.216L792.055,1157.216C791.88,1157.261 791.68,1157.284 791.459,1157.284C790.807,1157.284 790.32,1157.147 789.997,1156.877C789.673,1156.606 789.508,1156.195 789.508,1155.641C789.508,1155.115 789.66,1154.721 789.956,1154.459C790.252,1154.196 790.699,1154.063 791.299,1154.063L792.702,1154.063L792.702,1153.874C792.702,1153.542 792.615,1153.284 792.438,1153.1C792.26,1152.917 792.009,1152.826 791.686,1152.826C791.482,1152.826 791.282,1152.857 791.086,1152.919C790.89,1152.982 790.717,1153.07 790.566,1153.181C790.554,1153.189 790.538,1153.189 790.527,1153.181L789.779,1152.669C789.771,1152.664 789.767,1152.657 789.765,1152.648C789.764,1152.64 789.766,1152.631 789.772,1152.624C789.973,1152.382 790.237,1152.195 790.566,1152.061C790.892,1151.927 791.256,1151.859 791.656,1151.859C792.093,1151.859 792.469,1151.937 792.78,1152.092ZM792.765,1152.12C792.458,1151.967 792.087,1151.891 791.656,1151.891C791.261,1151.891 790.901,1151.958 790.579,1152.09C790.256,1152.222 789.996,1152.406 789.798,1152.644L790.546,1153.156C790.7,1153.043 790.876,1152.954 791.076,1152.89C791.275,1152.827 791.479,1152.795 791.686,1152.795C792.02,1152.795 792.279,1152.89 792.462,1153.079C792.644,1153.268 792.735,1153.533 792.735,1153.874L792.735,1154.095L791.299,1154.095C790.709,1154.095 790.27,1154.224 789.979,1154.482C789.688,1154.739 789.541,1155.126 789.541,1155.641C789.541,1156.184 789.701,1156.588 790.019,1156.854C790.337,1157.12 790.817,1157.253 791.459,1157.253C791.677,1157.253 791.874,1157.23 792.047,1157.186C792.221,1157.14 792.375,1157.072 792.507,1156.982C792.597,1156.92 792.664,1156.831 792.735,1156.746L792.735,1157.178L793.709,1157.178L793.709,1153.829C793.709,1153.421 793.628,1153.072 793.468,1152.783C793.307,1152.493 793.073,1152.272 792.765,1152.12ZM792.446,1156.294C792.254,1156.378 791.962,1156.42 791.571,1156.42C791.212,1156.42 790.945,1156.356 790.769,1156.229C790.594,1156.102 790.506,1155.906 790.506,1155.641C790.506,1155.397 790.572,1155.216 790.704,1155.097C790.836,1154.978 791.036,1154.919 791.304,1154.919L792.735,1154.919L792.735,1155.903C792.735,1156.08 792.639,1156.21 792.446,1156.294ZM792.432,1156.265C792.611,1156.187 792.702,1156.067 792.702,1155.903L792.702,1154.95L791.304,1154.95C791.046,1154.95 790.853,1155.005 790.726,1155.119C790.6,1155.233 790.539,1155.407 790.539,1155.641C790.539,1155.894 790.621,1156.082 790.789,1156.204C790.96,1156.328 791.221,1156.388 791.571,1156.388C791.956,1156.388 792.243,1156.348 792.432,1156.265L792.432,1156.265ZM797.426,1156.107C797.476,1156.168 797.545,1156.198 797.633,1156.198L798.116,1156.198C798.134,1156.198 798.149,1156.212 798.149,1156.229L798.149,1157.203C798.149,1157.22 798.134,1157.234 798.116,1157.234L797.513,1157.234C797.114,1157.234 796.806,1157.109 796.586,1156.861L796.586,1156.861C796.37,1156.615 796.261,1156.27 796.261,1155.822L796.261,1149.878C796.261,1149.861 796.275,1149.847 796.293,1149.847L797.317,1149.847C797.335,1149.847 797.35,1149.861 797.35,1149.878L797.35,1155.832C797.35,1155.952 797.374,1156.042 797.426,1156.107ZM797.4,1156.126C797.344,1156.057 797.317,1155.96 797.317,1155.832L797.317,1149.878L796.293,1149.878L796.293,1155.822C796.293,1156.261 796.399,1156.6 796.611,1156.841C796.825,1157.082 797.125,1157.203 797.513,1157.203L798.116,1157.203L798.116,1156.229L797.633,1156.229C797.533,1156.229 797.456,1156.195 797.4,1156.126ZM801.355,1151.967L801.355,1157.178C801.355,1157.195 801.34,1157.209 801.322,1157.209L800.298,1157.209C800.28,1157.209 800.265,1157.195 800.265,1157.178L800.265,1151.967C800.265,1151.95 800.28,1151.936 800.298,1151.936L801.322,1151.936C801.34,1151.936 801.355,1151.95 801.355,1151.967ZM801.322,1151.967L800.298,1151.967L800.298,1157.178L801.322,1157.178L801.322,1151.967ZM801.355,1149.878L801.355,1150.902C801.355,1150.919 801.34,1150.933 801.322,1150.933L800.298,1150.933C800.28,1150.933 800.265,1150.919 800.265,1150.902L800.265,1149.878C800.265,1149.861 800.28,1149.847 800.298,1149.847L801.322,1149.847C801.34,1149.847 801.355,1149.861 801.355,1149.878ZM801.322,1149.878L800.298,1149.878L800.298,1150.902L801.322,1150.902L801.322,1149.878ZM806.895,1152.092C807.209,1152.247 807.448,1152.472 807.612,1152.768C807.774,1153.061 807.857,1153.415 807.857,1153.829L807.857,1157.178C807.857,1157.195 807.842,1157.209 807.824,1157.209L806.85,1157.209C806.832,1157.209 806.817,1157.195 806.817,1157.178L806.817,1156.836C806.764,1156.899 806.709,1156.961 806.641,1157.007L806.641,1157.007C806.506,1157.099 806.349,1157.169 806.171,1157.216L806.17,1157.216C805.995,1157.261 805.795,1157.284 805.574,1157.284C804.922,1157.284 804.435,1157.147 804.112,1156.877C803.788,1156.606 803.623,1156.195 803.623,1155.641C803.623,1155.115 803.775,1154.721 804.072,1154.459C804.368,1154.196 804.814,1154.063 805.414,1154.063L806.817,1154.063L806.817,1153.874C806.817,1153.542 806.73,1153.284 806.553,1153.1C806.376,1152.917 806.124,1152.826 805.801,1152.826C805.597,1152.826 805.397,1152.857 805.201,1152.919C805.005,1152.982 804.832,1153.07 804.681,1153.181C804.669,1153.189 804.654,1153.189 804.642,1153.181L803.894,1152.669C803.887,1152.664 803.882,1152.657 803.88,1152.648C803.879,1152.64 803.882,1152.631 803.887,1152.624C804.089,1152.382 804.353,1152.195 804.681,1152.061C805.007,1151.927 805.371,1151.859 805.771,1151.859C806.208,1151.859 806.584,1151.937 806.895,1152.092ZM806.88,1152.12C806.573,1151.967 806.202,1151.891 805.771,1151.891C805.376,1151.891 805.016,1151.958 804.694,1152.09C804.371,1152.222 804.111,1152.406 803.913,1152.644L804.661,1153.156C804.815,1153.043 804.991,1152.954 805.191,1152.89C805.39,1152.827 805.594,1152.795 805.801,1152.795C806.135,1152.795 806.394,1152.89 806.577,1153.079C806.759,1153.268 806.85,1153.533 806.85,1153.874L806.85,1154.095L805.414,1154.095C804.824,1154.095 804.385,1154.224 804.094,1154.482C803.803,1154.739 803.656,1155.126 803.656,1155.641C803.656,1156.184 803.816,1156.588 804.134,1156.854C804.452,1157.12 804.932,1157.253 805.574,1157.253C805.792,1157.253 805.989,1157.23 806.162,1157.186C806.336,1157.14 806.49,1157.072 806.622,1156.982C806.712,1156.92 806.779,1156.831 806.85,1156.746L806.85,1157.178L807.824,1157.178L807.824,1153.829C807.824,1153.421 807.743,1153.072 807.583,1152.783C807.422,1152.493 807.188,1152.272 806.88,1152.12ZM806.561,1156.294C806.369,1156.378 806.077,1156.42 805.686,1156.42C805.327,1156.42 805.06,1156.356 804.884,1156.229C804.709,1156.102 804.621,1155.906 804.621,1155.641C804.621,1155.397 804.687,1155.216 804.819,1155.097C804.951,1154.978 805.151,1154.919 805.419,1154.919L806.85,1154.919L806.85,1155.903C806.85,1156.08 806.754,1156.21 806.561,1156.294ZM806.547,1156.265C806.727,1156.187 806.817,1156.067 806.817,1155.903L806.817,1154.95L805.419,1154.95C805.161,1154.95 804.968,1155.005 804.841,1155.119C804.715,1155.233 804.654,1155.407 804.654,1155.641C804.654,1155.894 804.736,1156.082 804.904,1156.204C805.075,1156.328 805.336,1156.388 805.686,1156.388C806.071,1156.388 806.358,1156.348 806.547,1156.265L806.547,1156.265ZM812.817,1151.86C813.394,1151.86 813.841,1152.049 814.156,1152.426C814.47,1152.801 814.628,1153.33 814.628,1154.015L814.628,1157.178C814.628,1157.195 814.613,1157.209 814.595,1157.209L813.571,1157.209C813.553,1157.209 813.538,1157.195 813.538,1157.178L813.538,1154.02C813.538,1153.661 813.446,1153.383 813.26,1153.188L813.26,1153.188C813.075,1152.993 812.815,1152.896 812.48,1152.896C812.156,1152.896 811.905,1152.981 811.728,1153.154L811.728,1153.154C811.552,1153.325 811.464,1153.567 811.464,1153.879L811.464,1157.178C811.464,1157.195 811.449,1157.209 811.431,1157.209L810.407,1157.209C810.389,1157.209 810.374,1157.195 810.374,1157.178L810.374,1151.967C810.374,1151.95 810.389,1151.936 810.407,1151.936L811.431,1151.936C811.449,1151.936 811.464,1151.95 811.464,1151.967L811.464,1152.608C811.598,1152.411 811.752,1152.244 811.937,1152.121L811.937,1152.121C812.203,1151.946 812.495,1151.86 812.817,1151.86ZM812.817,1151.891C812.502,1151.891 812.216,1151.976 811.956,1152.147C811.746,1152.286 811.577,1152.484 811.431,1152.717L811.431,1151.967L810.407,1151.967L810.407,1157.178L811.431,1157.178L811.431,1153.879C811.431,1153.558 811.523,1153.309 811.705,1153.132C811.887,1152.954 812.146,1152.865 812.48,1152.865C812.826,1152.865 813.093,1152.966 813.284,1153.167C813.475,1153.367 813.571,1153.652 813.571,1154.02L813.571,1157.178L814.595,1157.178L814.595,1154.015C814.595,1153.339 814.44,1152.816 814.13,1152.446C813.821,1152.076 813.383,1151.891 812.817,1151.891ZM823.314,1152.114C823.58,1152.283 823.786,1152.529 823.925,1152.854C824.065,1153.175 824.134,1153.562 824.134,1154.015L824.134,1155.15C824.134,1155.596 824.063,1155.978 823.92,1156.296C823.776,1156.617 823.566,1156.862 823.291,1157.03C823.015,1157.199 822.684,1157.284 822.299,1157.284C821.967,1157.284 821.678,1157.204 821.432,1157.046L821.432,1157.045C821.26,1156.934 821.127,1156.784 821.021,1156.607L821.021,1159.297C821.021,1159.314 821.006,1159.328 820.988,1159.328L819.964,1159.328C819.946,1159.328 819.931,1159.314 819.931,1159.297L819.931,1151.967C819.931,1151.949 819.946,1151.935 819.964,1151.935L820.988,1151.935C821.006,1151.935 821.021,1151.949 821.021,1151.967L821.021,1152.581C821.151,1152.392 821.302,1152.231 821.483,1152.114C821.742,1151.944 822.03,1151.859 822.349,1151.859C822.724,1151.859 823.046,1151.944 823.314,1152.114L823.314,1152.114ZM823.296,1152.14C823.033,1151.974 822.717,1151.891 822.349,1151.891C822.037,1151.891 821.755,1151.974 821.501,1152.14C821.295,1152.274 821.13,1152.465 820.988,1152.689L820.988,1151.967L819.964,1151.967L819.964,1159.297L820.988,1159.297L820.988,1156.481C821.101,1156.702 821.248,1156.889 821.45,1157.02C821.691,1157.175 821.974,1157.253 822.299,1157.253C822.677,1157.253 823.002,1157.17 823.273,1157.004C823.543,1156.839 823.749,1156.599 823.89,1156.284C824.031,1155.97 824.101,1155.592 824.101,1155.15L824.101,1154.015C824.101,1153.567 824.033,1153.184 823.895,1152.866C823.758,1152.548 823.557,1152.306 823.296,1152.14ZM823.077,1155.15C823.077,1155.524 822.984,1155.815 822.799,1156.021C822.612,1156.227 822.35,1156.33 822.013,1156.33C821.795,1156.33 821.61,1156.288 821.458,1156.204C821.305,1156.121 821.189,1156 821.109,1155.843C821.028,1155.685 820.988,1155.494 820.988,1155.27L820.988,1153.849C820.988,1153.632 821.028,1153.445 821.109,1153.29C821.189,1153.134 821.305,1153.016 821.458,1152.936C821.61,1152.855 821.795,1152.815 822.013,1152.815C822.35,1152.815 822.612,1152.921 822.799,1153.132C822.984,1153.342 823.077,1153.639 823.077,1154.02L823.077,1155.15ZM823.044,1155.15L823.044,1154.02C823.044,1153.647 822.955,1153.357 822.774,1153.152C822.593,1152.948 822.339,1152.846 822.013,1152.846C821.801,1152.846 821.622,1152.884 821.474,1152.963L821.474,1152.963C821.327,1153.04 821.215,1153.153 821.138,1153.303L821.138,1153.304C821.059,1153.455 821.021,1153.637 821.021,1153.849L821.021,1155.27C821.021,1155.488 821.059,1155.675 821.138,1155.829L821.139,1155.829C821.215,1155.98 821.327,1156.097 821.474,1156.176L821.474,1156.177C821.622,1156.258 821.802,1156.298 822.013,1156.298C822.339,1156.298 822.593,1156.2 822.774,1156C822.955,1155.799 823.044,1155.515 823.044,1155.15ZM829.57,1155.255L829.57,1151.967C829.57,1151.949 829.584,1151.935 829.602,1151.935L830.621,1151.935C830.64,1151.935 830.654,1151.949 830.654,1151.966L830.654,1157.178C830.654,1157.195 830.64,1157.209 830.621,1157.209L829.602,1157.209C829.584,1157.209 829.57,1157.195 829.57,1157.178L829.57,1156.585C829.468,1156.748 829.339,1156.895 829.17,1157.016C828.924,1157.194 828.621,1157.284 828.262,1157.284C827.676,1157.284 827.222,1157.095 826.904,1156.718C826.587,1156.343 826.427,1155.815 826.427,1155.135L826.427,1151.967C826.427,1151.949 826.441,1151.935 826.459,1151.935L827.483,1151.935C827.502,1151.935 827.516,1151.949 827.516,1151.967L827.516,1155.135C827.516,1155.49 827.607,1155.765 827.787,1155.96C827.967,1156.152 828.221,1156.247 828.548,1156.247C828.872,1156.247 829.125,1156.163 829.303,1155.991L829.303,1155.99C829.482,1155.819 829.57,1155.573 829.57,1155.255ZM829.602,1155.255C829.602,1155.583 829.51,1155.836 829.326,1156.013C829.142,1156.191 828.882,1156.279 828.548,1156.279C828.21,1156.279 827.948,1156.18 827.762,1155.981C827.577,1155.781 827.483,1155.5 827.483,1155.135L827.483,1151.967L826.459,1151.967L826.459,1155.135C826.459,1155.807 826.616,1156.329 826.929,1156.699C827.241,1157.069 827.687,1157.253 828.262,1157.253C828.613,1157.253 828.909,1157.166 829.15,1156.992C829.351,1156.847 829.495,1156.666 829.602,1156.463L829.602,1157.178L830.621,1157.178L830.621,1151.967L829.602,1151.967L829.602,1155.255ZM836.557,1152.114C836.823,1152.283 837.028,1152.529 837.168,1152.854C837.307,1153.175 837.376,1153.562 837.376,1154.015L837.376,1155.15C837.376,1155.596 837.305,1155.978 837.163,1156.296C837.019,1156.617 836.808,1156.862 836.533,1157.03C836.257,1157.199 835.926,1157.284 835.541,1157.284C835.209,1157.284 834.92,1157.204 834.675,1157.046C834.503,1156.934 834.37,1156.784 834.263,1156.607L834.263,1157.178C834.263,1157.195 834.249,1157.209 834.23,1157.209L833.206,1157.209C833.188,1157.209 833.174,1157.195 833.174,1157.178L833.174,1149.878C833.174,1149.86 833.188,1149.846 833.206,1149.846L834.23,1149.846C834.249,1149.846 834.263,1149.86 834.263,1149.878L834.263,1152.581C834.394,1152.392 834.544,1152.231 834.725,1152.114C834.984,1151.944 835.273,1151.859 835.591,1151.859C835.967,1151.859 836.288,1151.944 836.557,1152.114L836.557,1152.114ZM836.538,1152.14C836.275,1151.974 835.959,1151.891 835.591,1151.891C835.279,1151.891 834.997,1151.974 834.743,1152.14C834.537,1152.274 834.372,1152.465 834.23,1152.689L834.23,1149.878L833.206,1149.878L833.206,1157.178L834.23,1157.178L834.23,1156.481C834.343,1156.702 834.49,1156.889 834.693,1157.02C834.933,1157.175 835.216,1157.253 835.541,1157.253C835.919,1157.253 836.244,1157.17 836.515,1157.004C836.785,1156.839 836.991,1156.599 837.132,1156.284C837.273,1155.97 837.343,1155.592 837.343,1155.15L837.343,1154.015C837.343,1153.567 837.275,1153.184 837.137,1152.866C837,1152.548 836.799,1152.306 836.538,1152.14ZM836.319,1155.15C836.319,1155.524 836.226,1155.815 836.041,1156.021C835.854,1156.227 835.593,1156.33 835.255,1156.33C835.037,1156.33 834.852,1156.288 834.7,1156.204C834.548,1156.121 834.431,1156 834.351,1155.843C834.27,1155.685 834.23,1155.494 834.23,1155.27L834.23,1153.849C834.23,1153.632 834.27,1153.445 834.351,1153.29C834.431,1153.134 834.548,1153.016 834.7,1152.936C834.852,1152.855 835.037,1152.815 835.255,1152.815C835.593,1152.815 835.854,1152.921 836.041,1153.132C836.226,1153.342 836.319,1153.639 836.319,1154.02L836.319,1155.15ZM836.287,1155.15L836.287,1154.02C836.287,1153.647 836.197,1153.357 836.016,1153.152C835.835,1152.948 835.582,1152.846 835.255,1152.846C835.044,1152.846 834.864,1152.884 834.716,1152.963L834.716,1152.963C834.57,1153.04 834.458,1153.153 834.381,1153.303L834.381,1153.304C834.302,1153.455 834.263,1153.637 834.263,1153.849L834.263,1155.27C834.263,1155.488 834.302,1155.675 834.381,1155.829L834.381,1155.829C834.458,1155.98 834.57,1156.097 834.717,1156.176L834.717,1156.177C834.864,1156.258 835.044,1156.298 835.255,1156.298C835.583,1156.298 835.836,1156.2 836.017,1156C836.197,1155.799 836.287,1155.515 836.287,1155.15Z" style="fill:white;"/>
            </g>
        </g>
    </g>
</svg>
