<?xml version="1.0" encoding="UTF-8"?>
<svg width="288mm" height="288mm" version="1.1" viewBox="0 0 288 288" xml:space="preserve" xmlns="http://www.w3.org/2000/svg"><g transform="translate(-3703 -1280)"><g transform="translate(631 44)"><rect x="3072" y="1236" width="288" height="288" fill="#fff"/><rect x="3092" y="1259" width="248" height="248" fill="#fff6ec"/><g fill="#004221" stroke-linecap="square" stroke-miterlimit="4.2" stroke-width="1.2" style="paint-order:markers fill stroke" aria-label="WWW.SCACCHI.FERMO.IT"><path d="m3118 1507-0.87-4.9h0.46l0.79 4.7h0.085l1-4.7h0.83l1 4.7h0.085l0.79-4.7h0.46l-0.87 4.9h-0.84l-1-4.7h-0.085l-1 4.7z"/><path d="m3130 1507-0.87-4.9h0.46l0.79 4.7h0.085l1-4.7h0.83l1 4.7h0.085l0.79-4.7h0.46l-0.87 4.9h-0.84l-1-4.7h-0.085l-1 4.7z"/><path d="m3143 1507-0.87-4.9h0.46l0.79 4.7h0.085l1-4.7h0.83l1 4.7h0.085l0.79-4.7h0.46l-0.87 4.9h-0.84l-1-4.7h-0.085l-1 4.7z"/><path d="m3154 1508q-0.18 0-0.29-0.11t-0.11-0.29 0.11-0.29q0.11-0.11 0.29-0.11t0.29 0.11q0.11 0.11 0.11 0.29t-0.11 0.29q-0.11 0.11-0.29 0.11z"/><path d="m3164 1508q-0.53 0-0.95-0.18-0.42-0.19-0.66-0.57-0.24-0.39-0.24-0.98v-0.13h0.45v0.13q0 0.68 0.39 1 0.4 0.32 1 0.32 0.61 0 0.95-0.28 0.33-0.29 0.33-0.73 0-0.3-0.15-0.47-0.14-0.18-0.4-0.29-0.25-0.11-0.59-0.2l-0.45-0.11q-0.4-0.11-0.72-0.26-0.32-0.16-0.5-0.42-0.18-0.26-0.18-0.66t0.2-0.7q0.21-0.3 0.58-0.45 0.37-0.16 0.85-0.16 0.49 0 0.87 0.17 0.4 0.17 0.62 0.5 0.23 0.32 0.23 0.82v0.33h-0.45v-0.33q0-0.39-0.17-0.63t-0.46-0.35q-0.29-0.11-0.65-0.11-0.52 0-0.85 0.24-0.33 0.23-0.33 0.68 0 0.3 0.13 0.47 0.14 0.18 0.39 0.28 0.25 0.11 0.59 0.19l0.45 0.11q0.39 0.092 0.71 0.25 0.32 0.15 0.52 0.42 0.2 0.26 0.2 0.69t-0.22 0.75q-0.21 0.32-0.6 0.49-0.39 0.17-0.91 0.17z"/><path d="m3174 1508q-0.87 0-1.4-0.51-0.52-0.52-0.52-1.5v-1.1q0-0.99 0.52-1.5 0.52-0.52 1.4-0.52 0.86 0 1.3 0.49 0.46 0.48 0.46 1.3v0.035h-0.45v-0.049q0-0.61-0.32-0.99-0.32-0.39-0.99-0.39-0.68 0-1.1 0.42-0.38 0.42-0.38 1.2v1.1q0 0.75 0.38 1.2 0.39 0.42 1.1 0.42 0.68 0 0.99-0.38 0.32-0.39 0.32-0.99v-0.11h0.45v0.092q0 0.83-0.46 1.3-0.45 0.48-1.3 0.48z"/><path d="m3183 1507 1.6-4.9h0.8l1.6 4.9h-0.47l-0.42-1.3h-2.2l-0.42 1.3zm1-1.7h2l-0.95-2.9h-0.085z"/><path d="m3196 1508q-0.87 0-1.4-0.51-0.52-0.52-0.52-1.5v-1.1q0-0.99 0.52-1.5 0.52-0.52 1.4-0.52 0.86 0 1.3 0.49 0.46 0.48 0.46 1.3v0.035h-0.45v-0.049q0-0.61-0.32-0.99-0.32-0.39-0.99-0.39-0.68 0-1.1 0.42-0.38 0.42-0.38 1.2v1.1q0 0.75 0.38 1.2 0.39 0.42 1.1 0.42 0.68 0 0.99-0.38 0.32-0.39 0.32-0.99v-0.11h0.45v0.092q0 0.83-0.46 1.3-0.45 0.48-1.3 0.48z"/><path d="m3206 1508q-0.87 0-1.4-0.51-0.52-0.52-0.52-1.5v-1.1q0-0.99 0.52-1.5 0.52-0.52 1.4-0.52 0.86 0 1.3 0.49 0.46 0.48 0.46 1.3v0.035h-0.45v-0.049q0-0.61-0.32-0.99-0.32-0.39-0.99-0.39-0.68 0-1.1 0.42-0.38 0.42-0.38 1.2v1.1q0 0.75 0.38 1.2 0.39 0.42 1.1 0.42 0.68 0 0.99-0.38 0.32-0.39 0.32-0.99v-0.11h0.45v0.092q0 0.83-0.46 1.3-0.45 0.48-1.3 0.48z"/><path d="m3215 1507v-4.9h0.45v2.3h2.5v-2.3h0.45v4.9h-0.45v-2.3h-2.5v2.3z"/><path d="m3226 1507v-4.9h0.45v4.9z"/><path d="m3234 1508q-0.18 0-0.29-0.11t-0.11-0.29 0.11-0.29q0.11-0.11 0.29-0.11t0.29 0.11q0.11 0.11 0.11 0.29t-0.11 0.29-0.29 0.11z"/><path d="m3242 1507v-4.9h2.9v0.41h-2.5v1.8h2.3v0.41h-2.3v2.3z"/><path d="m3252 1507v-4.9h3v0.41h-2.5v1.8h2.3v0.41h-2.3v1.9h2.6v0.41z"/><path d="m3262 1507v-4.9h1.9q0.46 0 0.8 0.16 0.35 0.16 0.55 0.45 0.2 0.29 0.2 0.71v0.071q0 0.5-0.24 0.79-0.24 0.28-0.56 0.37v0.085q0.25 0.01 0.42 0.16 0.17 0.15 0.17 0.47v1.7h-0.45v-1.6q0-0.23-0.13-0.35-0.12-0.12-0.37-0.12h-1.9v2.1zm0.45-2.5h1.4q0.55 0 0.85-0.25 0.3-0.26 0.3-0.74v-0.035q0-0.48-0.3-0.73-0.29-0.26-0.85-0.26h-1.4z"/><path d="m3273 1507v-4.9h0.88l1.5 4.7h0.085l1.5-4.7h0.88v4.9h-0.44v-4.7h-0.085l-1.5 4.7h-0.8l-1.5-4.7h-0.085v4.7z"/><path d="m3287 1508q-0.87 0-1.4-0.51-0.52-0.52-0.52-1.5v-1.1q0-0.99 0.52-1.5 0.52-0.52 1.4-0.52t1.4 0.52q0.52 0.51 0.52 1.5v1.1q0 0.99-0.52 1.5-0.52 0.51-1.4 0.51zm0-0.41q0.69 0 1.1-0.42 0.38-0.42 0.38-1.2v-1.1q0-0.76-0.38-1.2-0.37-0.42-1.1-0.42-0.68 0-1.1 0.42-0.38 0.42-0.38 1.2v1.1q0 0.75 0.38 1.2t1.1 0.42z"/><path d="m3296 1508q-0.18 0-0.29-0.11t-0.11-0.29 0.11-0.29q0.11-0.11 0.29-0.11t0.29 0.11q0.11 0.11 0.11 0.29t-0.11 0.29-0.29 0.11z"/><path d="m3303 1507v-4.9h0.45v4.9z"/><path d="m3313 1507v-4.5h-1.7v-0.41h3.8v0.41h-1.7v4.5z"/></g><g fill="#004221" stroke-linecap="square" stroke-miterlimit="4.2" stroke-width="1.2" style="paint-order:markers fill stroke" aria-label="ASD.SCACCHI.FERMO"><path d="m3123 1261 2.2-8.5h2.8l2.2 8.5h-1.6l-0.46-1.9h-3l-0.46 1.9zm2.5-3.3h2.3l-1-4.1h-0.22z"/><path d="m3138 1261q-0.98 0-1.7-0.35-0.75-0.35-1.2-1-0.42-0.65-0.42-1.6v-0.34h1.6v0.34q0 0.76 0.47 1.1 0.47 0.38 1.3 0.38 0.82 0 1.2-0.33 0.41-0.33 0.41-0.83 0-0.35-0.21-0.57-0.19-0.22-0.58-0.35-0.38-0.15-0.92-0.27l-0.28-0.061q-0.87-0.19-1.5-0.48-0.62-0.3-0.96-0.79-0.33-0.48-0.33-1.3 0-0.77 0.36-1.3 0.38-0.56 1-0.85 0.68-0.3 1.6-0.3 0.91 0 1.6 0.31 0.71 0.3 1.1 0.92 0.41 0.6 0.41 1.5v0.36h-1.6v-0.36q0-0.48-0.19-0.77-0.18-0.3-0.53-0.44-0.35-0.15-0.83-0.15-0.73 0-1.1 0.28-0.34 0.27-0.34 0.74 0 0.31 0.16 0.53 0.17 0.22 0.5 0.36 0.33 0.15 0.83 0.25l0.28 0.06q0.91 0.19 1.6 0.5 0.68 0.3 1.1 0.8 0.38 0.5 0.38 1.3t-0.4 1.4q-0.39 0.58-1.1 0.92-0.71 0.33-1.7 0.33z"/><path d="m3147 1261v-1.4h1.1v-5.7h-1.1v-1.4h3.5q1.7 0 2.6 0.87 0.9 0.86 0.9 2.6v1.6q0 1.7-0.9 2.6-0.88 0.86-2.6 0.86zm2.7-1.5h0.8q0.97 0 1.4-0.51 0.45-0.51 0.45-1.4v-1.7q0-0.93-0.45-1.4-0.45-0.51-1.4-0.51h-0.8z"/><path d="m3160 1261q-0.48 0-0.82-0.31-0.33-0.33-0.33-0.83 0-0.51 0.33-0.82 0.34-0.33 0.82-0.33 0.5 0 0.82 0.33 0.33 0.31 0.33 0.82 0 0.51-0.33 0.83-0.33 0.31-0.82 0.31z"/><path d="m3170 1261q-0.98 0-1.7-0.35-0.75-0.35-1.2-1-0.42-0.65-0.42-1.6v-0.34h1.6v0.34q0 0.76 0.47 1.1 0.47 0.38 1.3 0.38 0.82 0 1.2-0.33 0.41-0.33 0.41-0.83 0-0.35-0.21-0.57-0.19-0.22-0.58-0.35-0.38-0.15-0.92-0.27l-0.28-0.061q-0.87-0.19-1.5-0.48-0.62-0.3-0.96-0.79-0.33-0.48-0.33-1.3 0-0.77 0.36-1.3 0.38-0.56 1-0.85 0.68-0.3 1.6-0.3t1.6 0.31q0.71 0.3 1.1 0.92 0.41 0.6 0.41 1.5v0.36h-1.6v-0.36q0-0.48-0.19-0.77-0.18-0.3-0.53-0.44-0.35-0.15-0.83-0.15-0.73 0-1.1 0.28-0.34 0.27-0.34 0.74 0 0.31 0.16 0.53 0.17 0.22 0.5 0.36 0.33 0.15 0.83 0.25l0.28 0.06q0.91 0.19 1.6 0.5 0.68 0.3 1.1 0.8 0.38 0.5 0.38 1.3t-0.4 1.4q-0.39 0.58-1.1 0.92-0.71 0.33-1.7 0.33z"/><path d="m3182 1261q-1.6 0-2.5-0.87-0.92-0.88-0.92-2.5v-2q0-1.6 0.92-2.5 0.92-0.88 2.5-0.88 1.6 0 2.4 0.86 0.86 0.85 0.86 2.3v0.073h-1.6v-0.12q0-0.75-0.42-1.2-0.41-0.48-1.3-0.48-0.85 0-1.3 0.52-0.48 0.52-0.48 1.4v2.1q0 0.88 0.48 1.4 0.48 0.52 1.3 0.52 0.86 0 1.3-0.48 0.42-0.5 0.42-1.2v-0.22h1.6v0.17q0 1.5-0.86 2.3-0.85 0.85-2.4 0.85z"/><path d="m3190 1261 2.2-8.5h2.8l2.2 8.5h-1.6l-0.46-1.9h-3l-0.46 1.9zm2.5-3.3h2.3l-1-4.1h-0.22z"/><path d="m3205 1261q-1.6 0-2.5-0.87-0.92-0.88-0.92-2.5v-2q0-1.6 0.92-2.5 0.92-0.88 2.5-0.88 1.6 0 2.4 0.86 0.86 0.85 0.86 2.3v0.073h-1.6v-0.12q0-0.75-0.42-1.2-0.41-0.48-1.3-0.48-0.85 0-1.3 0.52-0.48 0.52-0.48 1.4v2.1q0 0.88 0.48 1.4 0.48 0.52 1.3 0.52 0.86 0 1.3-0.48 0.42-0.5 0.42-1.2v-0.22h1.6v0.17q0 1.5-0.86 2.3-0.85 0.85-2.4 0.85z"/><path d="m3218 1261q-1.6 0-2.5-0.87-0.92-0.88-0.92-2.5v-2q0-1.6 0.92-2.5 0.92-0.88 2.5-0.88 1.6 0 2.4 0.86 0.86 0.85 0.86 2.3v0.073h-1.6v-0.12q0-0.75-0.42-1.2-0.41-0.48-1.3-0.48-0.85 0-1.3 0.52-0.48 0.52-0.48 1.4v2.1q0 0.88 0.48 1.4 0.48 0.52 1.3 0.52 0.86 0 1.3-0.48 0.42-0.5 0.42-1.2v-0.22h1.6v0.17q0 1.5-0.86 2.3-0.85 0.85-2.4 0.85z"/><path d="m3226 1261v-8.5h1.6v3.5h3.1v-3.5h1.6v8.5h-1.6v-3.5h-3.1v3.5z"/><path d="m3238 1261v-8.5h1.6v8.5z"/><path d="m3247 1261q-0.48 0-0.82-0.31-0.33-0.33-0.33-0.83 0-0.51 0.33-0.82 0.34-0.33 0.82-0.33 0.5 0 0.82 0.33 0.33 0.31 0.33 0.82 0 0.51-0.33 0.83-0.33 0.31-0.82 0.31z"/><path d="m3254 1261v-8.5h5.3v1.5h-3.7v2h3.4v1.5h-3.4v3.5z"/><path d="m3264 1261v-8.5h5.4v1.5h-3.8v2h3.5v1.5h-3.5v2.1h3.9v1.5z"/><path d="m3275 1261v-8.5h3.7q0.8 0 1.4 0.28 0.59 0.28 0.92 0.79 0.33 0.51 0.33 1.2v0.15q0 0.76-0.36 1.2-0.36 0.47-0.9 0.69v0.22q0.48 0.024 0.75 0.34 0.27 0.3 0.27 0.81v2.8h-1.6v-2.5q0-0.29-0.16-0.47-0.15-0.18-0.5-0.18h-2.2v3.2zm1.6-4.6h1.9q0.57 0 0.88-0.3 0.33-0.31 0.33-0.82v-0.12q0-0.51-0.31-0.81-0.31-0.31-0.9-0.31h-1.9z"/><path d="m3287 1261v-8.5h3l1.5 7.4h0.22l1.5-7.4h3v8.5h-1.5v-7.3h-0.22l-1.5 7.3h-2.6l-1.5-7.3h-0.22v7.3z"/><path d="m3305 1261q-1.6 0-2.5-0.87-0.94-0.88-0.94-2.5v-2q0-1.6 0.94-2.5 0.94-0.88 2.5-0.88 1.6 0 2.5 0.88 0.94 0.87 0.94 2.5v2q0 1.6-0.94 2.5-0.94 0.87-2.5 0.87zm0-1.4q0.9 0 1.4-0.52 0.5-0.52 0.5-1.4v-2.1q0-0.87-0.5-1.4-0.5-0.52-1.4-0.52-0.88 0-1.4 0.52-0.5 0.52-0.5 1.4v2.1q0 0.87 0.5 1.4 0.51 0.52 1.4 0.52z"/></g><g transform="rotate(-90)" fill="#00e676" stroke-linecap="square" stroke-miterlimit="30" stroke-width=".48" style="paint-order:markers fill stroke" aria-label='" Fermo eppur si muove "'><path d="m-1433 3338q-0.064 0-0.053-0.096 0.011-0.11 0.032-0.18 0.064-0.18 0.096-0.33 0.043-0.15 0.096-0.3 0.11-0.32 0.17-0.61 0.064-0.3 0.15-0.6 0.032-0.14 0.15-0.25 0.13-0.12 0.24-0.18 0.19-0.11 0.34-0.17 0.15-0.075 0.31-0.075 0.13 0 0.13 0.16 0 0.15-0.064 0.31-0.096 0.27-0.26 0.56-0.15 0.28-0.33 0.56-0.17 0.28-0.34 0.51-0.16 0.22-0.3 0.39-0.086 0.11-0.2 0.21-0.12 0.096-0.16 0.096zm1.6 0q-0.064 0-0.053-0.096 0.011-0.11 0.032-0.18 0.064-0.18 0.096-0.33 0.043-0.15 0.096-0.3 0.11-0.32 0.17-0.61 0.064-0.3 0.15-0.6 0.032-0.14 0.15-0.25 0.13-0.12 0.24-0.18 0.19-0.11 0.34-0.17 0.15-0.075 0.31-0.075 0.13 0 0.13 0.16 0 0.15-0.064 0.31-0.096 0.27-0.26 0.56-0.15 0.28-0.33 0.56-0.17 0.28-0.34 0.51-0.16 0.22-0.3 0.39-0.086 0.11-0.2 0.21-0.12 0.096-0.16 0.096z"/><path d="m-1428 3342q-0.096 0-0.15-0.032-0.053-0.032-0.043-0.11 0.011-0.096 0.096-0.14 0.086-0.053 0.22-0.075 0.42-0.086 0.6-0.22 0.19-0.15 0.31-0.51l1.5-4.8q0.12-0.36 0.011-0.51-0.096-0.15-0.43-0.22-0.16-0.043-0.2-0.096-0.043-0.064-0.032-0.13 0.011-0.075 0.096-0.11 0.096-0.043 0.24-0.043 0.22 0 0.61 0.021 0.39 0.021 0.72 0.021h1.7q0.74 0 1.1-0.064 0.37-0.075 0.48-0.075 0.075 0 0.12 0.043 0.053 0.032 0.032 0.13 0 0.053-0.021 0.12-0.011 0.053-0.032 0.13-0.053 0.2-0.16 0.51-0.096 0.3-0.15 0.63-0.011 0.086-0.053 0.15-0.043 0.053-0.12 0.053-0.064 0-0.096-0.053-0.032-0.064-0.032-0.16 0-0.24-0.032-0.44-0.032-0.2-0.13-0.34-0.086-0.13-0.24-0.19-0.14-0.075-0.34-0.086h-0.98q-0.24-0.011-0.39 0.12-0.15 0.12-0.21 0.3-0.032 0.075-0.12 0.36-0.086 0.28-0.2 0.64-0.11 0.35-0.2 0.67-0.096 0.31-0.14 0.45-0.032 0.12 0.011 0.21 0.053 0.096 0.29 0.096l0.81-0.011q0.58-0.011 0.94-0.53 0.064-0.096 0.14-0.15 0.086-0.053 0.14-0.053t0.086 0.053q0.032 0.053-0.011 0.15-0.18 0.43-0.3 0.77-0.11 0.33-0.19 0.74-0.032 0.13-0.086 0.19-0.043 0.053-0.096 0.053-0.075 0-0.12-0.075-0.043-0.086-0.043-0.17 0-0.32-0.11-0.45-0.096-0.13-0.28-0.13-0.11 0-0.33 0-0.21-0.011-0.43-0.011-0.21 0-0.3 0-0.18 0-0.3 0.075t-0.16 0.24l-0.57 1.9q-0.086 0.29-0.053 0.45 0.043 0.16 0.21 0.24 0.18 0.075 0.5 0.13 0.12 0.011 0.16 0.064 0.043 0.043 0.032 0.14-0.011 0.075-0.096 0.11-0.075 0.032-0.17 0.032-0.25 0-0.52-0.021-0.28-0.011-0.55-0.021-0.27-0.011-0.48-0.011-0.34 0-0.72 0.032-0.37 0.032-0.75 0.032z"/><path d="m-1421 3342q-0.27 0-0.57-0.17-0.29-0.18-0.49-0.46-0.19-0.29-0.19-0.61 0-0.62 0.24-1.2 0.24-0.62 0.64-1.1 0.41-0.5 0.92-0.81 0.51-0.31 1.1-0.31 0.54 0 0.79 0.21 0.26 0.2 0.26 0.51 0 0.35-0.24 0.61-0.22 0.26-0.6 0.44-0.36 0.18-0.81 0.3-0.44 0.12-0.85 0.2-0.053 0.011-0.086 0.032-0.021 0.011-0.043 0.064-0.043 0.14-0.075 0.29t-0.043 0.29q-0.011 0.37 0.17 0.63 0.19 0.25 0.56 0.25 0.33 0 0.59-0.16 0.26-0.17 0.47-0.41 0.12-0.12 0.19-0.12 0.096 0 0.096 0.11 0 0.032-0.011 0.075 0 0.032-0.021 0.053-0.2 0.37-0.49 0.68-0.29 0.31-0.65 0.49-0.36 0.17-0.81 0.17zm0.24-2.8q0.18-0.043 0.44-0.12 0.26-0.085 0.49-0.24 0.25-0.15 0.41-0.36 0.16-0.22 0.17-0.53 0.011-0.13-0.064-0.24-0.075-0.11-0.22-0.11-0.2 0-0.42 0.15-0.21 0.15-0.41 0.39-0.18 0.22-0.31 0.49-0.13 0.27-0.16 0.5-0.011 0.075 0.075 0.064z"/><path d="m-1417 3342q-0.086 0-0.21-0.053-0.12-0.043-0.2-0.14-0.086-0.096-0.086-0.21 0-0.096 0.032-0.21 0.043-0.12 0.096-0.29l1-2.7q0.053-0.12 0.032-0.2-0.021-0.086-0.13-0.086-0.2 0-0.34 0.075-0.13 0.064-0.26 0.16-0.053 0.043-0.13 0.032-0.075-0.011-0.086-0.096-0.011-0.17 0.15-0.35 0.16-0.19 0.4-0.34 0.2-0.12 0.44-0.19 0.25-0.086 0.48-0.086 0.3 0 0.42 0.16t0.086 0.43q-0.021 0.27-0.16 0.62l-0.44 1q-0.032 0.075 0.021 0.096 0.064 0.011 0.11-0.064 0.4-0.68 0.77-1.2 0.39-0.52 0.76-0.81 0.37-0.3 0.72-0.3 0.31 0 0.47 0.19 0.16 0.18 0.16 0.44 0 0.26-0.12 0.5-0.11 0.25-0.28 0.4-0.16 0.15-0.32 0.15-0.11 0-0.17-0.11-0.053-0.11-0.086-0.31-0.021-0.18-0.075-0.3-0.053-0.13-0.18-0.13-0.16 0-0.35 0.21-0.18 0.2-0.44 0.6-0.086 0.14-0.26 0.42-0.16 0.27-0.36 0.59-0.19 0.32-0.39 0.65-0.19 0.32-0.33 0.57-0.22 0.41-0.42 0.64-0.19 0.24-0.36 0.24z"/><path d="m-1413 3342q-0.075 0-0.19-0.064-0.11-0.064-0.19-0.18-0.075-0.12-0.075-0.26 0-0.053 0.032-0.17 0.043-0.13 0.11-0.3l1.1-2.7q0.053-0.12 0.011-0.19-0.043-0.086-0.16-0.086-0.12 0-0.33 0.075-0.21 0.064-0.47 0.36-0.043 0.053-0.12 0.053-0.075-0.011-0.086-0.11 0-0.075 0.053-0.19 0.053-0.12 0.14-0.24 0.086-0.13 0.15-0.19 0.25-0.24 0.52-0.4 0.29-0.17 0.75-0.18 0.21 0 0.36 0.11 0.16 0.11 0.2 0.3 0.043 0.19-0.053 0.44l-0.61 1.5q-0.032 0.075 0.021 0.086 0.054 0.011 0.086-0.053 0.42-0.67 0.81-1.2 0.4-0.53 0.78-0.83 0.4-0.31 0.81-0.31 0.34 0 0.52 0.2 0.18 0.2 0.19 0.53 0.021 0.32-0.15 0.68l-0.22 0.6q-0.043 0.075 0.021 0.086t0.11-0.053q0.36-0.6 0.74-1.1 0.39-0.46 0.78-0.73 0.4-0.27 0.8-0.27 0.34 0 0.5 0.2t0.15 0.53q0 0.33-0.16 0.73l-0.8 1.9q-0.14 0.35 0.043 0.35 0.086 0 0.22-0.086 0.14-0.086 0.29-0.2 0.15-0.12 0.27-0.22 0.13-0.11 0.18-0.16 0.043-0.032 0.075-0.064 0.043-0.043 0.075-0.043t0.064 0.043q0.032 0.032 0.032 0.075-0.011 0.11-0.054 0.2-0.032 0.096-0.14 0.2-0.43 0.5-0.97 0.87-0.55 0.35-1.1 0.35-0.086 0-0.21-0.075-0.13-0.064-0.2-0.18-0.075-0.12-0.021-0.25l1.4-3.2q0.086-0.18 0.011-0.29-0.064-0.11-0.16-0.11-0.15-0.011-0.37 0.19-0.22 0.19-0.51 0.58-0.18 0.27-0.46 0.7-0.28 0.43-0.58 0.92-0.3 0.48-0.58 0.95-0.14 0.24-0.31 0.42-0.17 0.18-0.33 0.27-0.15 0.096-0.26 0.096-0.086 0-0.18-0.064-0.086-0.064-0.16-0.16-0.064-0.11-0.064-0.19 0-0.053 0.043-0.21 0.043-0.16 0.12-0.37l1.1-2.7q0.086-0.2 0.011-0.29-0.064-0.096-0.15-0.096-0.15-0.011-0.4 0.2-0.25 0.21-0.58 0.65-0.15 0.19-0.33 0.48-0.18 0.29-0.39 0.63-0.19 0.33-0.4 0.68-0.19 0.35-0.36 0.66-0.22 0.42-0.4 0.62-0.16 0.2-0.34 0.2z"/><path d="m-1403 3342q-0.35 0-0.67-0.18-0.31-0.19-0.5-0.5-0.18-0.32-0.18-0.73 0-0.5 0.2-1.1 0.21-0.57 0.6-1.1 0.39-0.51 0.92-0.83 0.55-0.33 1.2-0.33 0.65 0 1 0.4 0.4 0.39 0.4 1 0 0.48-0.2 1-0.2 0.57-0.6 1.1-0.4 0.5-0.95 0.82-0.55 0.32-1.3 0.32zm0.2-0.39q0.22 0 0.45-0.24 0.24-0.24 0.45-0.61 0.21-0.39 0.37-0.85 0.17-0.46 0.27-0.92 0.11-0.46 0.11-0.83 0-0.24-0.086-0.37-0.086-0.14-0.31-0.14-0.2 0-0.44 0.22-0.22 0.22-0.44 0.6-0.21 0.36-0.4 0.82-0.17 0.45-0.28 0.91-0.11 0.46-0.11 0.87 0 0.28 0.11 0.41 0.12 0.13 0.3 0.13z"/><path d="m-1396 3342q-0.27 0-0.57-0.17-0.29-0.18-0.49-0.46-0.19-0.29-0.19-0.61 0-0.62 0.24-1.2t0.64-1.1q0.41-0.5 0.92-0.81 0.51-0.31 1.1-0.31 0.53 0 0.79 0.21 0.26 0.2 0.26 0.51 0 0.35-0.24 0.61-0.22 0.26-0.6 0.44-0.36 0.18-0.81 0.3-0.44 0.12-0.85 0.2-0.053 0.011-0.086 0.032-0.021 0.011-0.043 0.064-0.043 0.14-0.075 0.29t-0.043 0.29q-0.011 0.37 0.17 0.63 0.19 0.25 0.56 0.25 0.33 0 0.59-0.16 0.26-0.17 0.47-0.41 0.12-0.12 0.19-0.12 0.096 0 0.096 0.11 0 0.032-0.011 0.075 0 0.032-0.021 0.053-0.2 0.37-0.49 0.68-0.29 0.31-0.65 0.49-0.36 0.17-0.81 0.17zm0.24-2.8q0.18-0.043 0.44-0.12 0.26-0.085 0.49-0.24 0.25-0.15 0.41-0.36 0.16-0.22 0.17-0.53 0.011-0.13-0.064-0.24-0.075-0.11-0.22-0.11-0.2 0-0.42 0.15-0.21 0.15-0.41 0.39-0.18 0.22-0.31 0.49t-0.16 0.5q-0.011 0.075 0.075 0.064z"/><path d="m-1395 3345q-0.043 0-0.086-0.032-0.043-0.021-0.043-0.075 0.011-0.086 0.096-0.14 0.075-0.053 0.17-0.064 0.29-0.075 0.44-0.16 0.14-0.075 0.22-0.32l1.9-5.6q0.043-0.12 0.064-0.2 0.021-0.086-0.011-0.13-0.021-0.043-0.15-0.021-0.22 0.053-0.4 0.11-0.16 0.043-0.4 0.14-0.086 0.043-0.17 0.021-0.086-0.021-0.086-0.12 0-0.11 0.075-0.17 0.075-0.064 0.16-0.096 0.17-0.075 0.43-0.19 0.26-0.13 0.66-0.28 0.075-0.021 0.13-0.086 0.064-0.075 0.12-0.24 0.17-0.5 0.4-0.74 0.22-0.25 0.52-0.25 0.17 0 0.24 0.11 0.075 0.096 0.021 0.31l-0.14 0.48q-0.021 0.11-0.011 0.17 0.011 0.053 0.053 0.043 0.14-0.021 0.27-0.043 0.13-0.021 0.27-0.021 0.56 0 0.91 0.19 0.36 0.18 0.53 0.5 0.18 0.31 0.18 0.72 0 0.55-0.25 1.1-0.25 0.58-0.66 1.1-0.42 0.49-0.95 0.8-0.53 0.3-1.1 0.3-0.15 0-0.3-0.075-0.14-0.064-0.24-0.13-0.12-0.096-0.19-0.064-0.064 0.021-0.13 0.22l-0.62 2q-0.075 0.21 0.043 0.34 0.13 0.13 0.47 0.2 0.085 0.011 0.16 0.053 0.086 0.043 0.086 0.14 0 0.064-0.086 0.096-0.075 0.032-0.17 0.032-0.17 0-0.41-0.011-0.24-0.011-0.45-0.011-0.2 0-0.34 0-0.27 0.011-0.59 0.032-0.33 0.021-0.63 0.021zm3.5-3.3q0.21 0 0.5-0.24 0.29-0.25 0.57-0.64 0.28-0.41 0.46-0.89 0.18-0.49 0.18-0.99 0-0.58-0.22-0.81-0.22-0.24-0.62-0.25-0.075 0-0.16 0.011-0.075 0-0.16 0.011l-0.94 2.9q-0.053 0.17-0.053 0.33 0 0.15 0.043 0.28 0.064 0.15 0.14 0.24 0.086 0.075 0.27 0.075z"/><path d="m-1390 3345q-0.043 0-0.086-0.032-0.043-0.021-0.043-0.075 0.011-0.086 0.096-0.14 0.075-0.053 0.17-0.064 0.29-0.075 0.44-0.16 0.14-0.075 0.22-0.32l1.9-5.6q0.043-0.12 0.064-0.2 0.021-0.086-0.011-0.13-0.021-0.043-0.15-0.021-0.22 0.053-0.4 0.11-0.16 0.043-0.4 0.14-0.086 0.043-0.17 0.021-0.086-0.021-0.086-0.12 0-0.11 0.075-0.17 0.075-0.064 0.16-0.096 0.17-0.075 0.43-0.19 0.26-0.13 0.66-0.28 0.075-0.021 0.13-0.086 0.064-0.075 0.12-0.24 0.17-0.5 0.4-0.74 0.22-0.25 0.52-0.25 0.17 0 0.24 0.11 0.075 0.096 0.021 0.31l-0.14 0.48q-0.021 0.11-0.011 0.17 0.011 0.053 0.053 0.043 0.14-0.021 0.27-0.043 0.13-0.021 0.27-0.021 0.56 0 0.91 0.19 0.36 0.18 0.53 0.5 0.18 0.31 0.18 0.72 0 0.55-0.25 1.1-0.25 0.58-0.66 1.1-0.42 0.49-0.95 0.8-0.54 0.3-1.1 0.3-0.15 0-0.3-0.075-0.14-0.064-0.24-0.13-0.12-0.096-0.19-0.064-0.064 0.021-0.13 0.22l-0.62 2q-0.075 0.21 0.043 0.34 0.13 0.13 0.47 0.2 0.086 0.011 0.16 0.053 0.086 0.043 0.086 0.14 0 0.064-0.086 0.096-0.075 0.032-0.17 0.032-0.17 0-0.41-0.011-0.24-0.011-0.45-0.011-0.2 0-0.34 0-0.27 0.011-0.59 0.032-0.33 0.021-0.63 0.021zm3.5-3.3q0.21 0 0.5-0.24 0.29-0.25 0.57-0.64 0.28-0.41 0.46-0.89 0.18-0.49 0.18-0.99 0-0.58-0.22-0.81t-0.62-0.25q-0.075 0-0.16 0.011-0.075 0-0.16 0.011l-0.94 2.9q-0.053 0.17-0.053 0.33 0 0.15 0.043 0.28 0.064 0.15 0.14 0.24 0.085 0.075 0.27 0.075z"/><path d="m-1382 3342q-0.18 0-0.34-0.15-0.16-0.16-0.24-0.37-0.075-0.21-0.011-0.37l1-2.4q0.075-0.17 0.075-0.27 0-0.096-0.086-0.096-0.064 0-0.21 0.096-0.15 0.086-0.32 0.21-0.17 0.13-0.28 0.24-0.096 0.096-0.18 0.096-0.075-0.011-0.075-0.086t0.043-0.17q0.043-0.096 0.13-0.2 0.29-0.37 0.63-0.65 0.34-0.28 0.67-0.43 0.34-0.15 0.61-0.15 0.12 0 0.24 0.11 0.13 0.11 0.19 0.27 0.064 0.15 0.011 0.28-0.26 0.53-0.57 1.2-0.3 0.67-0.66 1.5-0.086 0.18-0.086 0.32 0.011 0.14 0.12 0.14 0.11 0 0.31-0.21 0.21-0.21 0.48-0.55 0.27-0.33 0.55-0.68 0.27-0.33 0.52-0.67 0.26-0.35 0.46-0.65 0.2-0.31 0.31-0.49 0.14-0.22 0.26-0.36 0.13-0.14 0.27-0.14 0.16 0 0.29 0.11 0.13 0.096 0.19 0.24 0.064 0.13 0.011 0.26l-1.2 2.9q-0.043 0.13-0.043 0.21 0 0.086 0.075 0.086 0.11 0 0.32-0.14 0.22-0.14 0.46-0.33 0.24-0.19 0.39-0.33 0.021-0.032 0.043-0.032 0.053 0 0.085 0.043 0.043 0.043 0.043 0.096 0 0.096-0.11 0.24-0.096 0.13-0.27 0.28-0.16 0.15-0.35 0.29-0.19 0.13-0.37 0.22-0.18 0.096-0.33 0.13-0.17 0.12-0.36 0.17-0.18 0.043-0.36 0.032-0.18-0.011-0.33-0.075-0.064-0.032-0.11-0.14-0.032-0.12 0.011-0.22 0.11-0.24 0.24-0.51 0.14-0.29 0.26-0.57 0.13-0.29 0.22-0.55 0.043-0.096-0.021-0.11-0.053-0.011-0.11 0.064-0.4 0.48-0.76 0.92-0.35 0.43-0.67 0.76-0.32 0.32-0.61 0.51-0.28 0.18-0.51 0.18z"/><path d="m-1376 3342q-0.086 0-0.21-0.053-0.12-0.043-0.2-0.14-0.086-0.096-0.086-0.21 0-0.096 0.032-0.21 0.043-0.12 0.096-0.29l1-2.7q0.053-0.12 0.032-0.2-0.021-0.086-0.13-0.086-0.2 0-0.34 0.075-0.13 0.064-0.26 0.16-0.053 0.043-0.13 0.032-0.075-0.011-0.086-0.096-0.011-0.17 0.15-0.35 0.16-0.19 0.4-0.34 0.2-0.12 0.44-0.19 0.25-0.086 0.48-0.086 0.3 0 0.42 0.16t0.086 0.43q-0.021 0.27-0.16 0.62l-0.44 1q-0.032 0.075 0.021 0.096 0.064 0.011 0.11-0.064 0.4-0.68 0.77-1.2 0.39-0.52 0.76-0.81 0.37-0.3 0.72-0.3 0.31 0 0.47 0.19 0.16 0.18 0.16 0.44 0 0.26-0.12 0.5-0.11 0.25-0.28 0.4-0.16 0.15-0.32 0.15-0.11 0-0.17-0.11-0.053-0.11-0.086-0.31-0.021-0.18-0.075-0.3-0.053-0.13-0.18-0.13-0.16 0-0.35 0.21-0.18 0.2-0.44 0.6-0.085 0.14-0.26 0.42-0.16 0.27-0.36 0.59-0.19 0.32-0.39 0.65-0.19 0.32-0.33 0.57-0.22 0.41-0.42 0.64-0.19 0.24-0.36 0.24z"/><path d="m-1370 3342q-0.39 0-0.62-0.18-0.25-0.18-0.25-0.47 0-0.27 0.12-0.43 0.12-0.17 0.29-0.17 0.075 0 0.17 0.096 0.096 0.086 0.22 0.2 0.14 0.13 0.31 0.27 0.18 0.14 0.4 0.14 0.21 0 0.32-0.14t0.12-0.33q0.011-0.18-0.13-0.45-0.13-0.27-0.29-0.52-0.18-0.27-0.31-0.55-0.12-0.29-0.12-0.55 0-0.29 0.18-0.58 0.18-0.29 0.46-0.52 0.29-0.25 0.56-0.39 0.28-0.15 0.46-0.15 0.22 0 0.44 0.11t0.35 0.25q0.14 0.14 0.14 0.25 0 0.096-0.096 0.25-0.096 0.14-0.22 0.25-0.12 0.11-0.22 0.11-0.096 0-0.19-0.086-0.086-0.086-0.16-0.18-0.086-0.12-0.21-0.2-0.12-0.086-0.27-0.086-0.16 0-0.26 0.12-0.096 0.12-0.096 0.28 0 0.086 0.075 0.25 0.086 0.15 0.19 0.33 0.12 0.17 0.22 0.33 0.25 0.34 0.36 0.63 0.13 0.29 0.13 0.55 0 0.26-0.18 0.54-0.18 0.28-0.49 0.52-0.3 0.24-0.66 0.39-0.36 0.15-0.74 0.15z"/><path d="m-1366 3342q-0.22 0-0.4-0.16-0.17-0.17-0.17-0.34 0-0.053 0-0.096 0.011-0.053 0.043-0.12 0.35-0.75 0.63-1.5 0.28-0.71 0.52-1.3 0.032-0.086-0.043-0.086t-0.2 0.053q-0.13 0.053-0.27 0.14-0.14 0.075-0.27 0.16-0.11 0.064-0.17 0.032-0.053-0.043-0.053-0.12 0-0.064 0.12-0.2 0.13-0.14 0.32-0.3 0.2-0.17 0.45-0.34 0.25-0.17 0.49-0.31 0.25-0.15 0.45-0.24 0.14-0.053 0.28 0.021 0.14 0.075 0.22 0.2 0.086 0.12 0.043 0.21l-1.2 3q-0.032 0.053-0.043 0.12-0.011 0.053-0.011 0.096 0 0.054 0.032 0.075 0.043 0.021 0.075 0.021 0.12 0 0.31-0.13 0.2-0.14 0.42-0.32 0.22-0.18 0.4-0.35 0.021-0.032 0.043-0.032 0.043 0 0.075 0.043 0.032 0.032 0.032 0.075 0 0.19-0.22 0.47-0.21 0.27-0.55 0.55-0.33 0.27-0.7 0.46-0.35 0.18-0.63 0.18zm2-5.6q-0.21 0-0.35-0.16-0.14-0.17-0.14-0.37 0-0.33 0.22-0.58 0.24-0.26 0.58-0.26 0.22 0 0.35 0.19 0.13 0.18 0.13 0.4 0 0.3-0.24 0.55-0.22 0.24-0.56 0.24z"/><path d="m-1360 3342q-0.075 0-0.19-0.064-0.11-0.064-0.19-0.18-0.075-0.12-0.075-0.26 0-0.053 0.032-0.17 0.043-0.13 0.11-0.3l1.1-2.7q0.054-0.12 0.011-0.19-0.043-0.086-0.16-0.086-0.12 0-0.33 0.075-0.21 0.064-0.47 0.36-0.043 0.053-0.12 0.053-0.075-0.011-0.086-0.11 0-0.075 0.053-0.19 0.053-0.12 0.14-0.24 0.086-0.13 0.15-0.19 0.25-0.24 0.52-0.4 0.29-0.17 0.75-0.18 0.21 0 0.36 0.11 0.16 0.11 0.2 0.3 0.043 0.19-0.053 0.44l-0.61 1.5q-0.032 0.075 0.021 0.086t0.086-0.053q0.42-0.67 0.81-1.2 0.4-0.53 0.78-0.83 0.4-0.31 0.81-0.31 0.34 0 0.52 0.2t0.19 0.53q0.021 0.32-0.15 0.68l-0.22 0.6q-0.043 0.075 0.021 0.086t0.11-0.053q0.36-0.6 0.74-1.1 0.39-0.46 0.78-0.73 0.4-0.27 0.8-0.27 0.34 0 0.5 0.2t0.15 0.53q0 0.33-0.16 0.73l-0.8 1.9q-0.14 0.35 0.043 0.35 0.086 0 0.22-0.086 0.14-0.086 0.29-0.2 0.15-0.12 0.27-0.22 0.13-0.11 0.18-0.16 0.043-0.032 0.075-0.064 0.043-0.043 0.075-0.043t0.064 0.043q0.032 0.032 0.032 0.075-0.011 0.11-0.053 0.2-0.032 0.096-0.14 0.2-0.43 0.5-0.97 0.87-0.55 0.35-1.1 0.35-0.086 0-0.21-0.075-0.13-0.064-0.2-0.18-0.075-0.12-0.021-0.25l1.4-3.2q0.086-0.18 0.011-0.29-0.064-0.11-0.16-0.11-0.15-0.011-0.37 0.19-0.22 0.19-0.51 0.58-0.18 0.27-0.46 0.7-0.28 0.43-0.58 0.92-0.3 0.48-0.58 0.95-0.14 0.24-0.31 0.42-0.17 0.18-0.33 0.27-0.15 0.096-0.26 0.096-0.086 0-0.18-0.064-0.086-0.064-0.16-0.16-0.064-0.11-0.064-0.19 0-0.053 0.043-0.21 0.043-0.16 0.12-0.37l1.1-2.7q0.086-0.2 0.011-0.29-0.064-0.096-0.15-0.096-0.15-0.011-0.4 0.2-0.25 0.21-0.58 0.65-0.15 0.19-0.33 0.48-0.18 0.29-0.39 0.63-0.19 0.33-0.4 0.68-0.19 0.35-0.36 0.66-0.22 0.42-0.4 0.62-0.16 0.2-0.34 0.2z"/><path d="m-1351 3342q-0.18 0-0.34-0.15-0.16-0.16-0.24-0.37-0.075-0.21-0.011-0.37l1-2.4q0.075-0.17 0.075-0.27 0-0.096-0.086-0.096-0.064 0-0.21 0.096-0.15 0.086-0.32 0.21-0.17 0.13-0.28 0.24-0.096 0.096-0.18 0.096-0.075-0.011-0.075-0.086t0.043-0.17q0.043-0.096 0.13-0.2 0.29-0.37 0.63-0.65 0.34-0.28 0.67-0.43 0.34-0.15 0.61-0.15 0.12 0 0.24 0.11 0.13 0.11 0.19 0.27 0.064 0.15 0.011 0.28-0.26 0.53-0.57 1.2-0.3 0.67-0.66 1.5-0.086 0.18-0.086 0.32 0.011 0.14 0.12 0.14 0.11 0 0.31-0.21 0.21-0.21 0.48-0.55 0.27-0.33 0.55-0.68 0.27-0.33 0.52-0.67 0.26-0.35 0.46-0.65 0.2-0.31 0.31-0.49 0.14-0.22 0.26-0.36 0.13-0.14 0.27-0.14 0.16 0 0.29 0.11 0.13 0.096 0.19 0.24 0.064 0.13 0.011 0.26l-1.2 2.9q-0.043 0.13-0.043 0.21 0 0.086 0.075 0.086 0.11 0 0.32-0.14 0.22-0.14 0.46-0.33 0.24-0.19 0.39-0.33 0.021-0.032 0.043-0.032 0.053 0 0.085 0.043 0.043 0.043 0.043 0.096 0 0.096-0.11 0.24-0.096 0.13-0.27 0.28-0.16 0.15-0.35 0.29-0.19 0.13-0.37 0.22-0.18 0.096-0.33 0.13-0.17 0.12-0.36 0.17-0.18 0.043-0.36 0.032-0.18-0.011-0.33-0.075-0.064-0.032-0.11-0.14-0.032-0.12 0.011-0.22 0.11-0.24 0.24-0.51 0.14-0.29 0.26-0.57 0.13-0.29 0.22-0.55 0.043-0.096-0.021-0.11-0.053-0.011-0.11 0.064-0.4 0.48-0.76 0.92-0.35 0.43-0.67 0.76-0.32 0.32-0.61 0.51-0.28 0.18-0.51 0.18z"/><path d="m-1345 3342q-0.35 0-0.67-0.18-0.31-0.19-0.5-0.5-0.18-0.32-0.18-0.73 0-0.5 0.2-1.1 0.21-0.57 0.6-1.1 0.39-0.51 0.92-0.83 0.55-0.33 1.2-0.33 0.65 0 1 0.4 0.4 0.39 0.4 1 0 0.48-0.2 1-0.2 0.57-0.6 1.1-0.4 0.5-0.95 0.82-0.55 0.32-1.3 0.32zm0.2-0.39q0.22 0 0.45-0.24 0.24-0.24 0.45-0.61 0.21-0.39 0.37-0.85 0.17-0.46 0.27-0.92 0.11-0.46 0.11-0.83 0-0.24-0.086-0.37-0.086-0.14-0.31-0.14-0.2 0-0.44 0.22-0.22 0.22-0.44 0.6-0.21 0.36-0.4 0.82-0.17 0.45-0.28 0.91-0.11 0.46-0.11 0.87 0 0.28 0.11 0.41 0.12 0.13 0.3 0.13z"/><path d="m-1340 3342q-0.35 0-0.59-0.19-0.22-0.19-0.29-0.51-0.064-0.32 0.075-0.71l0.67-1.8q0.064-0.17 0.032-0.25-0.021-0.086-0.085-0.086-0.11 0-0.3 0.13-0.18 0.13-0.3 0.25-0.064 0.064-0.12 0.096-0.043 0.021-0.075 0.021-0.12 0-0.12-0.096 0-0.053 0.043-0.14 0.053-0.096 0.15-0.22 0.17-0.21 0.4-0.43 0.24-0.21 0.48-0.39 0.25-0.17 0.47-0.27 0.22-0.11 0.39-0.11 0.12 0 0.21 0.086 0.11 0.075 0.16 0.19 0.064 0.12 0.032 0.21l-0.89 2.7q-0.11 0.36-0.032 0.56 0.075 0.19 0.36 0.19 0.28 0 0.59-0.2 0.32-0.21 0.59-0.56 0.28-0.34 0.45-0.74 0.17-0.41 0.17-0.77 0-0.25-0.086-0.43-0.086-0.18-0.22-0.33-0.096-0.096-0.15-0.18-0.043-0.086-0.043-0.19 0-0.096 0.15-0.21 0.16-0.13 0.36-0.22 0.2-0.096 0.36-0.096 0.15 0 0.27 0.2 0.12 0.19 0.12 0.63 0 0.45-0.16 0.92-0.15 0.47-0.43 0.93-0.28 0.45-0.66 0.86-0.48 0.53-0.99 0.87-0.5 0.32-1 0.32z"/><path d="m-1336 3342q-0.27 0-0.57-0.17-0.29-0.18-0.49-0.46-0.19-0.29-0.19-0.61 0-0.62 0.24-1.2t0.64-1.1q0.41-0.5 0.92-0.81 0.51-0.31 1.1-0.31 0.53 0 0.79 0.21 0.26 0.2 0.26 0.51 0 0.35-0.24 0.61-0.22 0.26-0.6 0.44-0.36 0.18-0.81 0.3-0.44 0.12-0.85 0.2-0.053 0.011-0.086 0.032-0.021 0.011-0.043 0.064-0.043 0.14-0.075 0.29t-0.043 0.29q-0.011 0.37 0.17 0.63 0.19 0.25 0.56 0.25 0.33 0 0.59-0.16 0.26-0.17 0.47-0.41 0.12-0.12 0.19-0.12 0.096 0 0.096 0.11 0 0.032-0.011 0.075 0 0.032-0.021 0.053-0.2 0.37-0.49 0.68-0.29 0.31-0.65 0.49-0.36 0.17-0.81 0.17zm0.24-2.8q0.18-0.043 0.44-0.12 0.26-0.085 0.49-0.24 0.25-0.15 0.41-0.36 0.16-0.22 0.17-0.53 0.011-0.13-0.064-0.24-0.075-0.11-0.22-0.11-0.2 0-0.42 0.15-0.21 0.15-0.41 0.39-0.18 0.22-0.31 0.49t-0.16 0.5q-0.011 0.075 0.075 0.064z"/><path d="m-1329 3338q-0.064 0-0.053-0.096 0.011-0.11 0.032-0.18 0.064-0.18 0.096-0.33 0.043-0.15 0.096-0.3 0.11-0.32 0.17-0.61 0.064-0.3 0.15-0.6 0.032-0.14 0.15-0.25 0.13-0.12 0.24-0.18 0.19-0.11 0.34-0.17 0.15-0.075 0.31-0.075 0.13 0 0.13 0.16 0 0.15-0.064 0.31-0.096 0.27-0.26 0.56-0.15 0.28-0.33 0.56-0.17 0.28-0.34 0.51-0.16 0.22-0.3 0.39-0.086 0.11-0.2 0.21-0.12 0.096-0.16 0.096zm1.6 0q-0.064 0-0.053-0.096 0.011-0.11 0.032-0.18 0.064-0.18 0.096-0.33 0.043-0.15 0.096-0.3 0.11-0.32 0.17-0.61 0.064-0.3 0.15-0.6 0.032-0.14 0.15-0.25 0.13-0.12 0.24-0.18 0.19-0.11 0.34-0.17 0.15-0.075 0.31-0.075 0.13 0 0.13 0.16 0 0.15-0.064 0.31-0.096 0.27-0.26 0.56-0.15 0.28-0.33 0.56-0.17 0.28-0.34 0.51-0.16 0.22-0.3 0.39-0.086 0.11-0.2 0.21-0.12 0.096-0.16 0.096z"/></g><g transform="rotate(90)" fill="#00e676" stroke-linecap="square" stroke-miterlimit="30" stroke-width=".48" style="paint-order:markers fill stroke" aria-label='" Fermo eppur si muove "'><path d="m1328-3094q-0.064 0-0.053-0.096 0.011-0.11 0.032-0.18 0.064-0.18 0.096-0.33 0.043-0.15 0.096-0.3 0.11-0.32 0.17-0.61 0.064-0.3 0.15-0.6 0.032-0.14 0.15-0.25 0.13-0.12 0.24-0.18 0.19-0.11 0.34-0.17 0.15-0.075 0.31-0.075 0.13 0 0.13 0.16 0 0.15-0.064 0.31-0.096 0.27-0.26 0.56-0.15 0.28-0.33 0.56-0.17 0.28-0.34 0.51-0.16 0.22-0.3 0.39-0.086 0.11-0.2 0.21-0.12 0.096-0.16 0.096zm1.6 0q-0.064 0-0.053-0.096 0.011-0.11 0.032-0.18 0.064-0.18 0.096-0.33 0.043-0.15 0.096-0.3 0.11-0.32 0.17-0.61 0.064-0.3 0.15-0.6 0.032-0.14 0.15-0.25 0.13-0.12 0.24-0.18 0.19-0.11 0.34-0.17 0.15-0.075 0.31-0.075 0.13 0 0.13 0.16 0 0.15-0.064 0.31-0.096 0.27-0.26 0.56-0.15 0.28-0.33 0.56-0.17 0.28-0.34 0.51-0.16 0.22-0.3 0.39-0.086 0.11-0.2 0.21-0.12 0.096-0.16 0.096z"/><path d="m1333-3090q-0.096 0-0.15-0.032-0.053-0.032-0.043-0.11 0.011-0.096 0.096-0.14 0.086-0.053 0.22-0.075 0.42-0.086 0.6-0.22 0.19-0.15 0.31-0.51l1.5-4.8q0.12-0.36 0.011-0.51-0.096-0.15-0.43-0.22-0.16-0.043-0.2-0.096-0.043-0.064-0.032-0.13 0.011-0.075 0.096-0.11 0.096-0.043 0.24-0.043 0.22 0 0.61 0.021 0.39 0.021 0.72 0.021h1.7q0.74 0 1.1-0.064 0.37-0.075 0.48-0.075 0.075 0 0.12 0.043 0.053 0.032 0.032 0.13 0 0.053-0.021 0.12-0.011 0.053-0.032 0.13-0.053 0.2-0.16 0.51-0.096 0.3-0.15 0.63-0.011 0.086-0.053 0.15-0.043 0.053-0.12 0.053-0.064 0-0.096-0.053-0.032-0.064-0.032-0.16 0-0.24-0.032-0.44-0.032-0.2-0.13-0.34-0.085-0.13-0.24-0.19-0.14-0.075-0.34-0.086h-0.98q-0.24-0.011-0.39 0.12-0.15 0.12-0.21 0.3-0.032 0.075-0.12 0.36-0.086 0.28-0.2 0.64-0.11 0.35-0.2 0.67-0.096 0.31-0.14 0.45-0.032 0.12 0.011 0.21 0.053 0.096 0.29 0.096l0.81-0.011q0.58-0.011 0.94-0.53 0.064-0.096 0.14-0.15 0.086-0.053 0.14-0.053 0.053 0 0.086 0.053 0.032 0.053-0.011 0.15-0.18 0.43-0.3 0.77-0.11 0.33-0.19 0.74-0.032 0.13-0.086 0.19-0.043 0.053-0.096 0.053-0.075 0-0.12-0.075-0.043-0.086-0.043-0.17 0-0.32-0.11-0.45-0.096-0.13-0.28-0.13-0.11 0-0.33 0-0.21-0.011-0.43-0.011t-0.3 0q-0.18 0-0.3 0.075t-0.16 0.24l-0.57 1.9q-0.086 0.29-0.053 0.45 0.043 0.16 0.21 0.24 0.18 0.075 0.5 0.13 0.12 0.011 0.16 0.064 0.043 0.043 0.032 0.14-0.011 0.075-0.096 0.11-0.075 0.032-0.17 0.032-0.25 0-0.52-0.021-0.28-0.011-0.55-0.021-0.27-0.011-0.48-0.011-0.34 0-0.72 0.032-0.37 0.032-0.75 0.032z"/><path d="m1340-3089q-0.27 0-0.57-0.17-0.29-0.18-0.49-0.46-0.19-0.29-0.19-0.61 0-0.62 0.24-1.2t0.64-1.1 0.92-0.81q0.51-0.31 1.1-0.31 0.53 0 0.79 0.21 0.26 0.2 0.26 0.51 0 0.35-0.24 0.61-0.22 0.26-0.6 0.44-0.36 0.18-0.81 0.3-0.44 0.12-0.85 0.2-0.053 0.011-0.086 0.032-0.021 0.011-0.043 0.064-0.043 0.14-0.075 0.29-0.032 0.15-0.043 0.29-0.011 0.37 0.17 0.63 0.19 0.25 0.56 0.25 0.33 0 0.59-0.16 0.26-0.17 0.47-0.41 0.12-0.12 0.19-0.12 0.096 0 0.096 0.11 0 0.032-0.011 0.075 0 0.032-0.021 0.053-0.2 0.37-0.49 0.68-0.29 0.31-0.65 0.49-0.36 0.17-0.81 0.17zm0.24-2.8q0.18-0.043 0.44-0.12 0.26-0.086 0.49-0.24 0.25-0.15 0.41-0.36 0.16-0.22 0.17-0.53 0.011-0.13-0.064-0.24t-0.22-0.11q-0.2 0-0.42 0.15t-0.41 0.39q-0.18 0.22-0.31 0.49-0.13 0.27-0.16 0.5-0.011 0.075 0.075 0.064z"/><path d="m1343-3089q-0.086 0-0.21-0.053-0.12-0.043-0.2-0.14-0.086-0.096-0.086-0.21 0-0.096 0.032-0.21 0.043-0.12 0.096-0.29l1-2.7q0.053-0.12 0.032-0.2-0.021-0.086-0.13-0.086-0.2 0-0.34 0.075-0.13 0.064-0.26 0.16-0.053 0.043-0.13 0.032-0.075-0.011-0.086-0.096-0.011-0.17 0.15-0.35 0.16-0.19 0.4-0.34 0.2-0.12 0.44-0.19 0.25-0.085 0.48-0.085 0.3 0 0.42 0.16 0.12 0.16 0.086 0.43-0.021 0.27-0.16 0.62l-0.44 1q-0.032 0.075 0.021 0.096 0.064 0.011 0.11-0.064 0.4-0.68 0.77-1.2 0.39-0.52 0.76-0.81 0.37-0.3 0.72-0.3 0.31 0 0.47 0.19 0.16 0.18 0.16 0.44 0 0.26-0.12 0.5-0.11 0.25-0.28 0.4-0.16 0.15-0.32 0.15-0.11 0-0.17-0.11-0.053-0.11-0.086-0.31-0.021-0.18-0.075-0.3-0.053-0.13-0.18-0.13-0.16 0-0.35 0.21-0.18 0.2-0.44 0.6-0.086 0.14-0.26 0.42-0.16 0.27-0.36 0.59-0.19 0.32-0.39 0.65-0.19 0.32-0.33 0.57-0.22 0.41-0.42 0.64t-0.36 0.24z"/><path d="m1348-3089q-0.075 0-0.19-0.064-0.11-0.064-0.19-0.18-0.075-0.12-0.075-0.26 0-0.053 0.032-0.17 0.043-0.13 0.11-0.3l1.1-2.7q0.053-0.12 0.011-0.19-0.043-0.086-0.16-0.086-0.12 0-0.33 0.075-0.21 0.064-0.47 0.36-0.043 0.053-0.12 0.053-0.075-0.011-0.086-0.11 0-0.075 0.053-0.19 0.053-0.12 0.14-0.24 0.086-0.13 0.15-0.19 0.25-0.24 0.52-0.4 0.29-0.17 0.75-0.18 0.21 0 0.36 0.11 0.16 0.11 0.2 0.3 0.043 0.19-0.053 0.44l-0.61 1.5q-0.032 0.075 0.021 0.086t0.085-0.053q0.42-0.67 0.81-1.2 0.4-0.53 0.78-0.83 0.4-0.31 0.81-0.31 0.34 0 0.52 0.2 0.18 0.2 0.19 0.54 0.021 0.32-0.15 0.68l-0.22 0.6q-0.043 0.075 0.021 0.085 0.064 0.011 0.11-0.053 0.36-0.6 0.74-1.1 0.39-0.46 0.78-0.73 0.4-0.27 0.8-0.27 0.34 0 0.5 0.2 0.16 0.2 0.15 0.54 0 0.33-0.16 0.73l-0.8 1.9q-0.14 0.35 0.043 0.35 0.086 0 0.22-0.086 0.14-0.086 0.29-0.2 0.15-0.12 0.27-0.22 0.13-0.11 0.18-0.16 0.043-0.032 0.075-0.064 0.043-0.043 0.075-0.043t0.064 0.043q0.032 0.032 0.032 0.075-0.011 0.11-0.053 0.2-0.032 0.096-0.14 0.2-0.43 0.5-0.97 0.87-0.55 0.35-1.1 0.35-0.086 0-0.21-0.075-0.13-0.064-0.2-0.18-0.075-0.12-0.021-0.25l1.4-3.2q0.086-0.18 0.011-0.29-0.064-0.11-0.16-0.11-0.15-0.011-0.37 0.19-0.22 0.19-0.51 0.58-0.18 0.27-0.46 0.7-0.28 0.43-0.58 0.92-0.3 0.48-0.58 0.95-0.14 0.24-0.31 0.42t-0.33 0.27q-0.15 0.096-0.26 0.096-0.086 0-0.18-0.064-0.086-0.064-0.16-0.16-0.064-0.11-0.064-0.19 0-0.053 0.043-0.21 0.043-0.16 0.12-0.37l1.1-2.7q0.086-0.2 0.011-0.29-0.064-0.096-0.15-0.096-0.15-0.011-0.4 0.2-0.25 0.21-0.58 0.65-0.15 0.19-0.33 0.48-0.18 0.29-0.39 0.63-0.19 0.33-0.4 0.68-0.19 0.35-0.36 0.66-0.22 0.42-0.4 0.62-0.16 0.2-0.34 0.2z"/><path d="m1357-3089q-0.35 0-0.67-0.18-0.31-0.19-0.5-0.5-0.18-0.32-0.18-0.73 0-0.5 0.2-1.1 0.21-0.57 0.6-1.1 0.39-0.51 0.92-0.83 0.55-0.33 1.2-0.33 0.65 0 1 0.4 0.4 0.39 0.4 1 0 0.48-0.2 1-0.2 0.57-0.6 1.1-0.4 0.5-0.95 0.82-0.55 0.32-1.3 0.32zm0.2-0.39q0.22 0 0.45-0.24 0.24-0.24 0.45-0.61 0.21-0.39 0.37-0.85 0.17-0.46 0.27-0.92 0.11-0.46 0.11-0.83 0-0.24-0.086-0.37t-0.31-0.14q-0.2 0-0.44 0.22-0.22 0.22-0.44 0.6-0.21 0.36-0.4 0.82-0.17 0.45-0.28 0.91-0.11 0.46-0.11 0.87 0 0.28 0.11 0.41 0.12 0.13 0.3 0.13z"/><path d="m1364-3089q-0.27 0-0.57-0.17-0.29-0.18-0.49-0.46-0.19-0.29-0.19-0.61 0-0.62 0.24-1.2 0.24-0.62 0.64-1.1 0.41-0.5 0.92-0.81 0.51-0.31 1.1-0.31 0.53 0 0.79 0.21 0.26 0.2 0.26 0.51 0 0.35-0.24 0.61-0.22 0.26-0.6 0.44-0.36 0.18-0.81 0.3-0.44 0.12-0.85 0.2-0.053 0.011-0.086 0.032-0.021 0.011-0.043 0.064-0.043 0.14-0.075 0.29-0.032 0.15-0.043 0.29-0.011 0.37 0.17 0.63 0.19 0.25 0.56 0.25 0.33 0 0.59-0.16 0.26-0.17 0.47-0.41 0.12-0.12 0.19-0.12 0.096 0 0.096 0.11 0 0.032-0.011 0.075 0 0.032-0.021 0.053-0.2 0.37-0.49 0.68-0.29 0.31-0.65 0.49-0.36 0.17-0.81 0.17zm0.24-2.8q0.18-0.043 0.44-0.12 0.26-0.086 0.49-0.24 0.25-0.15 0.41-0.36 0.16-0.22 0.17-0.53 0.011-0.13-0.064-0.24t-0.22-0.11q-0.2 0-0.42 0.15-0.21 0.15-0.41 0.39-0.18 0.22-0.31 0.49-0.13 0.27-0.16 0.5-0.011 0.075 0.075 0.064z"/><path d="m1366-3087q-0.043 0-0.086-0.032-0.043-0.021-0.043-0.075 0.011-0.086 0.096-0.14 0.075-0.053 0.17-0.064 0.29-0.075 0.44-0.16 0.14-0.075 0.22-0.32l1.9-5.6q0.043-0.12 0.064-0.2 0.021-0.086-0.011-0.13-0.021-0.043-0.15-0.021-0.22 0.053-0.4 0.11-0.16 0.043-0.4 0.14-0.086 0.043-0.17 0.021-0.086-0.021-0.086-0.12 0-0.11 0.075-0.17 0.075-0.064 0.16-0.096 0.17-0.075 0.43-0.19 0.26-0.13 0.66-0.28 0.075-0.021 0.13-0.086 0.064-0.075 0.12-0.24 0.17-0.5 0.4-0.74 0.22-0.25 0.52-0.25 0.17 0 0.24 0.11 0.075 0.096 0.021 0.31l-0.14 0.48q-0.021 0.11-0.011 0.17 0.011 0.053 0.053 0.043 0.14-0.021 0.27-0.043 0.13-0.021 0.27-0.021 0.56 0 0.91 0.19 0.36 0.18 0.54 0.5 0.18 0.31 0.18 0.72 0 0.55-0.25 1.1-0.25 0.58-0.66 1.1-0.42 0.49-0.95 0.8-0.53 0.3-1.1 0.3-0.15 0-0.3-0.075-0.14-0.064-0.24-0.13-0.12-0.096-0.19-0.064-0.064 0.021-0.13 0.22l-0.62 2q-0.075 0.21 0.043 0.34 0.13 0.13 0.47 0.2 0.086 0.011 0.16 0.053 0.086 0.043 0.086 0.14 0 0.064-0.086 0.096-0.075 0.032-0.17 0.032-0.17 0-0.41-0.011t-0.45-0.011q-0.2 0-0.34 0-0.27 0.011-0.59 0.032-0.33 0.021-0.63 0.021zm3.5-3.3q0.21 0 0.5-0.24 0.29-0.25 0.57-0.64 0.28-0.41 0.46-0.89 0.18-0.49 0.18-1 0-0.58-0.22-0.81-0.22-0.24-0.62-0.25-0.075 0-0.16 0.011-0.075 0-0.16 0.011l-0.94 2.9q-0.053 0.17-0.053 0.33 0 0.15 0.043 0.28 0.064 0.15 0.14 0.24 0.086 0.075 0.27 0.075z"/><path d="m1371-3087q-0.043 0-0.086-0.032-0.043-0.021-0.043-0.075 0.011-0.086 0.096-0.14 0.075-0.053 0.17-0.064 0.29-0.075 0.44-0.16 0.14-0.075 0.22-0.32l1.9-5.6q0.043-0.12 0.064-0.2 0.021-0.086-0.011-0.13-0.021-0.043-0.15-0.021-0.22 0.053-0.4 0.11-0.16 0.043-0.4 0.14-0.086 0.043-0.17 0.021-0.086-0.021-0.086-0.12 0-0.11 0.075-0.17 0.075-0.064 0.16-0.096 0.17-0.075 0.43-0.19 0.26-0.13 0.66-0.28 0.075-0.021 0.13-0.086 0.064-0.075 0.12-0.24 0.17-0.5 0.4-0.74 0.22-0.25 0.52-0.25 0.17 0 0.24 0.11 0.075 0.096 0.021 0.31l-0.14 0.48q-0.021 0.11-0.011 0.17 0.011 0.053 0.053 0.043 0.14-0.021 0.27-0.043 0.13-0.021 0.27-0.021 0.56 0 0.91 0.19 0.36 0.18 0.53 0.5 0.18 0.31 0.18 0.72 0 0.55-0.25 1.1-0.25 0.58-0.66 1.1-0.42 0.49-0.95 0.8-0.53 0.3-1.1 0.3-0.15 0-0.3-0.075-0.14-0.064-0.24-0.13-0.12-0.096-0.19-0.064-0.064 0.021-0.13 0.22l-0.62 2q-0.075 0.21 0.043 0.34 0.13 0.13 0.47 0.2 0.086 0.011 0.16 0.053 0.086 0.043 0.086 0.14 0 0.064-0.086 0.096-0.075 0.032-0.17 0.032-0.17 0-0.41-0.011t-0.45-0.011q-0.2 0-0.34 0-0.27 0.011-0.59 0.032-0.33 0.021-0.63 0.021zm3.5-3.3q0.21 0 0.5-0.24 0.29-0.25 0.57-0.64 0.28-0.41 0.46-0.89 0.18-0.49 0.18-1 0-0.58-0.22-0.81-0.22-0.24-0.62-0.25-0.075 0-0.16 0.011-0.075 0-0.16 0.011l-0.94 2.9q-0.053 0.17-0.053 0.33 0 0.15 0.043 0.28 0.064 0.15 0.14 0.24 0.086 0.075 0.27 0.075z"/><path d="m1379-3089q-0.18 0-0.34-0.15-0.16-0.16-0.24-0.37-0.075-0.21-0.011-0.37l1-2.4q0.075-0.17 0.075-0.27 0-0.096-0.086-0.096-0.064 0-0.21 0.096-0.15 0.086-0.32 0.21-0.17 0.13-0.28 0.24-0.096 0.096-0.18 0.096-0.075-0.011-0.075-0.086t0.043-0.17q0.043-0.096 0.13-0.2 0.29-0.37 0.63-0.65 0.34-0.28 0.67-0.43 0.34-0.15 0.61-0.15 0.12 0 0.24 0.11 0.13 0.11 0.19 0.27 0.064 0.15 0.011 0.28-0.26 0.53-0.57 1.2-0.3 0.67-0.66 1.5-0.086 0.18-0.086 0.32 0.011 0.14 0.12 0.14 0.11 0 0.31-0.21 0.21-0.21 0.48-0.55 0.27-0.33 0.55-0.68 0.27-0.33 0.52-0.67 0.26-0.35 0.46-0.65 0.2-0.31 0.31-0.49 0.14-0.22 0.26-0.36 0.13-0.14 0.27-0.14 0.16 0 0.29 0.11 0.13 0.096 0.19 0.24 0.064 0.13 0.011 0.26l-1.2 2.9q-0.043 0.13-0.043 0.21 0 0.086 0.075 0.086 0.11 0 0.32-0.14 0.22-0.14 0.46-0.33 0.24-0.19 0.39-0.33 0.021-0.032 0.043-0.032 0.053 0 0.086 0.043 0.043 0.043 0.043 0.096 0 0.096-0.11 0.24-0.096 0.13-0.27 0.28-0.16 0.15-0.35 0.29-0.19 0.13-0.37 0.22-0.18 0.096-0.33 0.13-0.17 0.12-0.36 0.17-0.18 0.043-0.36 0.032-0.18-0.011-0.33-0.075-0.064-0.032-0.11-0.14-0.032-0.12 0.011-0.22 0.11-0.24 0.24-0.51 0.14-0.29 0.26-0.57 0.13-0.29 0.22-0.55 0.043-0.096-0.021-0.11-0.053-0.011-0.11 0.064-0.4 0.48-0.76 0.92-0.35 0.43-0.67 0.76-0.32 0.32-0.61 0.51-0.28 0.18-0.51 0.18z"/><path d="m1384-3089q-0.086 0-0.21-0.053-0.12-0.043-0.2-0.14-0.086-0.096-0.086-0.21 0-0.096 0.032-0.21 0.043-0.12 0.096-0.29l1-2.7q0.053-0.12 0.032-0.2-0.021-0.086-0.13-0.086-0.2 0-0.34 0.075-0.13 0.064-0.26 0.16-0.053 0.043-0.13 0.032-0.075-0.011-0.085-0.096-0.011-0.17 0.15-0.35 0.16-0.19 0.4-0.34 0.2-0.12 0.44-0.19 0.25-0.085 0.48-0.085 0.3 0 0.42 0.16 0.12 0.16 0.086 0.43-0.021 0.27-0.16 0.62l-0.44 1q-0.032 0.075 0.021 0.096 0.064 0.011 0.11-0.064 0.4-0.68 0.77-1.2 0.39-0.52 0.76-0.81 0.37-0.3 0.72-0.3 0.31 0 0.47 0.19 0.16 0.18 0.16 0.44 0 0.26-0.12 0.5-0.11 0.25-0.28 0.4-0.16 0.15-0.32 0.15-0.11 0-0.17-0.11-0.053-0.11-0.085-0.31-0.021-0.18-0.075-0.3-0.053-0.13-0.18-0.13-0.16 0-0.35 0.21-0.18 0.2-0.44 0.6-0.086 0.14-0.26 0.42-0.16 0.27-0.36 0.59-0.19 0.32-0.39 0.65-0.19 0.32-0.33 0.57-0.22 0.41-0.42 0.64-0.19 0.24-0.36 0.24z"/><path d="m1391-3089q-0.39 0-0.62-0.18-0.25-0.18-0.25-0.47 0-0.27 0.12-0.43 0.12-0.17 0.29-0.17 0.075 0 0.17 0.096 0.096 0.086 0.22 0.2 0.14 0.13 0.31 0.27 0.18 0.14 0.4 0.14 0.21 0 0.32-0.14 0.11-0.14 0.12-0.33 0.011-0.18-0.13-0.45-0.13-0.27-0.29-0.52-0.18-0.27-0.31-0.55-0.12-0.29-0.12-0.55 0-0.29 0.18-0.58 0.18-0.29 0.46-0.52 0.29-0.25 0.56-0.39 0.28-0.15 0.46-0.15 0.22 0 0.44 0.11 0.21 0.11 0.35 0.25t0.14 0.25q0 0.096-0.096 0.25-0.096 0.14-0.22 0.25-0.12 0.11-0.22 0.11-0.096 0-0.19-0.086-0.086-0.086-0.16-0.18-0.086-0.12-0.21-0.2-0.12-0.086-0.27-0.086-0.16 0-0.26 0.12-0.096 0.12-0.096 0.28 0 0.086 0.075 0.25 0.086 0.15 0.19 0.33 0.12 0.17 0.22 0.33 0.25 0.34 0.36 0.63 0.13 0.29 0.13 0.55t-0.18 0.53q-0.18 0.28-0.49 0.52-0.3 0.24-0.66 0.39-0.36 0.15-0.74 0.15z"/><path d="m1395-3089q-0.22 0-0.4-0.16-0.17-0.17-0.17-0.34 0-0.053 0-0.096 0.011-0.053 0.043-0.12 0.35-0.75 0.63-1.5 0.28-0.71 0.52-1.3 0.032-0.086-0.043-0.086t-0.2 0.053-0.27 0.14q-0.14 0.075-0.27 0.16-0.11 0.064-0.17 0.032-0.053-0.043-0.053-0.12 0-0.064 0.12-0.2 0.13-0.14 0.32-0.3 0.2-0.17 0.45-0.34 0.25-0.17 0.49-0.31 0.25-0.15 0.45-0.24 0.14-0.053 0.28 0.021 0.14 0.075 0.22 0.2 0.086 0.12 0.043 0.21l-1.2 3q-0.032 0.053-0.043 0.12-0.011 0.053-0.011 0.096 0 0.053 0.032 0.075 0.043 0.021 0.075 0.021 0.12 0 0.31-0.13 0.2-0.14 0.42-0.32 0.22-0.18 0.4-0.35 0.021-0.032 0.043-0.032 0.043 0 0.075 0.043 0.032 0.032 0.032 0.075 0 0.19-0.22 0.47-0.21 0.27-0.55 0.55-0.33 0.27-0.7 0.46-0.35 0.18-0.63 0.18zm2-5.6q-0.21 0-0.35-0.16-0.14-0.17-0.14-0.37 0-0.33 0.22-0.58 0.24-0.26 0.58-0.26 0.22 0 0.35 0.19 0.13 0.18 0.13 0.4 0 0.3-0.24 0.55-0.22 0.24-0.56 0.24z"/><path d="m1400-3089q-0.075 0-0.19-0.064-0.11-0.064-0.19-0.18-0.075-0.12-0.075-0.26 0-0.053 0.032-0.17 0.043-0.13 0.11-0.3l1.1-2.7q0.053-0.12 0.011-0.19-0.043-0.086-0.16-0.086-0.12 0-0.33 0.075-0.21 0.064-0.47 0.36-0.043 0.053-0.12 0.053-0.075-0.011-0.086-0.11 0-0.075 0.053-0.19 0.053-0.12 0.14-0.24 0.086-0.13 0.15-0.19 0.25-0.24 0.52-0.4 0.29-0.17 0.75-0.18 0.21 0 0.36 0.11 0.16 0.11 0.2 0.3 0.043 0.19-0.053 0.44l-0.61 1.5q-0.032 0.075 0.021 0.086t0.086-0.053q0.42-0.67 0.81-1.2 0.4-0.53 0.78-0.83 0.4-0.31 0.81-0.31 0.34 0 0.52 0.2 0.18 0.2 0.19 0.54 0.021 0.32-0.15 0.68l-0.22 0.6q-0.043 0.075 0.021 0.085 0.064 0.011 0.11-0.053 0.36-0.6 0.74-1.1 0.39-0.46 0.78-0.73 0.4-0.27 0.8-0.27 0.34 0 0.5 0.2 0.16 0.2 0.15 0.54 0 0.33-0.16 0.73l-0.8 1.9q-0.14 0.35 0.043 0.35 0.086 0 0.22-0.086 0.14-0.086 0.29-0.2 0.15-0.12 0.27-0.22 0.13-0.11 0.18-0.16 0.043-0.032 0.075-0.064 0.043-0.043 0.075-0.043t0.064 0.043q0.032 0.032 0.032 0.075-0.011 0.11-0.053 0.2-0.032 0.096-0.14 0.2-0.43 0.5-0.97 0.87-0.55 0.35-1.1 0.35-0.086 0-0.21-0.075-0.13-0.064-0.2-0.18-0.075-0.12-0.021-0.25l1.4-3.2q0.086-0.18 0.011-0.29-0.064-0.11-0.16-0.11-0.15-0.011-0.37 0.19-0.22 0.19-0.51 0.58-0.18 0.27-0.46 0.7-0.28 0.43-0.58 0.92-0.3 0.48-0.58 0.95-0.14 0.24-0.31 0.42-0.17 0.18-0.33 0.27-0.15 0.096-0.26 0.096-0.085 0-0.18-0.064-0.086-0.064-0.16-0.16-0.064-0.11-0.064-0.19 0-0.053 0.043-0.21 0.043-0.16 0.12-0.37l1.1-2.7q0.086-0.2 0.011-0.29-0.064-0.096-0.15-0.096-0.15-0.011-0.4 0.2-0.25 0.21-0.58 0.65-0.15 0.19-0.33 0.48-0.18 0.29-0.39 0.63-0.19 0.33-0.4 0.68-0.19 0.35-0.36 0.66-0.22 0.42-0.4 0.62-0.16 0.2-0.34 0.2z"/><path d="m1409-3089q-0.18 0-0.34-0.15-0.16-0.16-0.24-0.37-0.075-0.21-0.011-0.37l1-2.4q0.075-0.17 0.075-0.27 0-0.096-0.086-0.096-0.064 0-0.21 0.096-0.15 0.086-0.32 0.21-0.17 0.13-0.28 0.24-0.096 0.096-0.18 0.096-0.075-0.011-0.075-0.086t0.043-0.17q0.043-0.096 0.13-0.2 0.29-0.37 0.63-0.65 0.34-0.28 0.67-0.43 0.34-0.15 0.61-0.15 0.12 0 0.24 0.11 0.13 0.11 0.19 0.27 0.064 0.15 0.011 0.28-0.26 0.53-0.57 1.2-0.3 0.67-0.66 1.5-0.086 0.18-0.086 0.32 0.011 0.14 0.12 0.14 0.11 0 0.31-0.21 0.21-0.21 0.48-0.55 0.27-0.33 0.55-0.68 0.27-0.33 0.52-0.67 0.26-0.35 0.46-0.65 0.2-0.31 0.31-0.49 0.14-0.22 0.26-0.36 0.13-0.14 0.27-0.14 0.16 0 0.29 0.11 0.13 0.096 0.19 0.24 0.064 0.13 0.011 0.26l-1.2 2.9q-0.043 0.13-0.043 0.21 0 0.086 0.075 0.086 0.11 0 0.32-0.14 0.22-0.14 0.46-0.33 0.24-0.19 0.39-0.33 0.021-0.032 0.043-0.032 0.053 0 0.086 0.043 0.043 0.043 0.043 0.096 0 0.096-0.11 0.24-0.096 0.13-0.27 0.28-0.16 0.15-0.35 0.29-0.19 0.13-0.37 0.22-0.18 0.096-0.33 0.13-0.17 0.12-0.36 0.17-0.18 0.043-0.36 0.032-0.18-0.011-0.33-0.075-0.064-0.032-0.11-0.14-0.032-0.12 0.011-0.22 0.11-0.24 0.24-0.51 0.14-0.29 0.26-0.57 0.13-0.29 0.22-0.55 0.043-0.096-0.021-0.11-0.053-0.011-0.11 0.064-0.4 0.48-0.76 0.92-0.35 0.43-0.67 0.76-0.32 0.32-0.61 0.51-0.28 0.18-0.51 0.18z"/><path d="m1416-3089q-0.35 0-0.67-0.18-0.31-0.19-0.5-0.5-0.18-0.32-0.18-0.73 0-0.5 0.2-1.1 0.21-0.57 0.6-1.1 0.39-0.51 0.92-0.83 0.55-0.33 1.2-0.33 0.65 0 1 0.4 0.4 0.39 0.4 1 0 0.48-0.2 1t-0.6 1.1q-0.4 0.5-0.95 0.82-0.55 0.32-1.3 0.32zm0.2-0.39q0.22 0 0.45-0.24 0.24-0.24 0.45-0.61 0.21-0.39 0.37-0.85 0.17-0.46 0.27-0.92 0.11-0.46 0.11-0.83 0-0.24-0.085-0.37-0.086-0.14-0.31-0.14-0.2 0-0.44 0.22-0.22 0.22-0.44 0.6-0.21 0.36-0.4 0.82-0.17 0.45-0.28 0.91-0.11 0.46-0.11 0.87 0 0.28 0.11 0.41 0.12 0.13 0.3 0.13z"/><path d="m1420-3089q-0.35 0-0.59-0.19-0.22-0.19-0.29-0.51-0.064-0.32 0.075-0.71l0.67-1.8q0.064-0.17 0.032-0.25-0.021-0.086-0.086-0.086-0.11 0-0.3 0.13-0.18 0.13-0.3 0.25-0.064 0.064-0.12 0.096-0.043 0.021-0.075 0.021-0.12 0-0.12-0.096 0-0.053 0.043-0.14 0.053-0.096 0.15-0.22 0.17-0.21 0.4-0.43 0.24-0.21 0.48-0.39t0.47-0.27q0.22-0.11 0.39-0.11 0.12 0 0.21 0.086 0.11 0.075 0.16 0.19 0.064 0.12 0.032 0.21l-0.89 2.7q-0.11 0.36-0.032 0.56t0.36 0.19q0.28 0 0.59-0.2 0.32-0.21 0.59-0.56 0.28-0.34 0.45-0.74 0.17-0.41 0.17-0.77 0-0.25-0.086-0.43-0.085-0.18-0.22-0.33-0.096-0.096-0.15-0.18-0.043-0.086-0.043-0.19 0-0.096 0.15-0.21 0.16-0.13 0.36-0.22 0.2-0.096 0.36-0.096 0.15 0 0.27 0.2 0.12 0.19 0.12 0.63 0 0.45-0.16 0.92-0.15 0.47-0.43 0.93-0.28 0.45-0.66 0.86-0.48 0.54-0.99 0.87-0.5 0.32-1 0.32z"/><path d="m1425-3089q-0.27 0-0.57-0.17-0.29-0.18-0.49-0.46-0.19-0.29-0.19-0.61 0-0.62 0.24-1.2 0.24-0.62 0.64-1.1 0.41-0.5 0.92-0.81 0.51-0.31 1.1-0.31 0.53 0 0.79 0.21 0.26 0.2 0.26 0.51 0 0.35-0.24 0.61-0.22 0.26-0.6 0.44-0.36 0.18-0.81 0.3-0.44 0.12-0.85 0.2-0.053 0.011-0.086 0.032-0.021 0.011-0.043 0.064-0.043 0.14-0.075 0.29-0.032 0.15-0.043 0.29-0.011 0.37 0.17 0.63 0.19 0.25 0.56 0.25 0.33 0 0.59-0.16 0.26-0.17 0.47-0.41 0.12-0.12 0.19-0.12 0.096 0 0.096 0.11 0 0.032-0.011 0.075 0 0.032-0.021 0.053-0.2 0.37-0.49 0.68-0.29 0.31-0.65 0.49-0.36 0.17-0.81 0.17zm0.24-2.8q0.18-0.043 0.44-0.12 0.26-0.086 0.49-0.24 0.25-0.15 0.41-0.36 0.16-0.22 0.17-0.53 0.011-0.13-0.064-0.24t-0.22-0.11q-0.2 0-0.42 0.15-0.21 0.15-0.41 0.39-0.18 0.22-0.31 0.49-0.13 0.27-0.16 0.5-0.011 0.075 0.075 0.064z"/><path d="m1432-3094q-0.064 0-0.053-0.096 0.011-0.11 0.032-0.18 0.064-0.18 0.096-0.33 0.043-0.15 0.096-0.3 0.11-0.32 0.17-0.61 0.064-0.3 0.15-0.6 0.032-0.14 0.15-0.25 0.13-0.12 0.24-0.18 0.19-0.11 0.34-0.17 0.15-0.075 0.31-0.075 0.13 0 0.13 0.16 0 0.15-0.064 0.31-0.096 0.27-0.26 0.56-0.15 0.28-0.33 0.56-0.17 0.28-0.34 0.51-0.16 0.22-0.3 0.39-0.086 0.11-0.2 0.21-0.12 0.096-0.16 0.096zm1.6 0q-0.064 0-0.053-0.096 0.011-0.11 0.032-0.18 0.064-0.18 0.096-0.33 0.043-0.15 0.096-0.3 0.11-0.32 0.17-0.61 0.064-0.3 0.15-0.6 0.032-0.14 0.15-0.25 0.13-0.12 0.24-0.18 0.19-0.11 0.34-0.17 0.15-0.075 0.31-0.075 0.13 0 0.13 0.16 0 0.15-0.064 0.31-0.096 0.27-0.26 0.56-0.15 0.28-0.33 0.56-0.17 0.28-0.34 0.51-0.16 0.22-0.3 0.39-0.085 0.11-0.2 0.21-0.12 0.096-0.16 0.096z"/></g></g><g id="blocco-qr-code" fill="#008744"><path d="m3941 1528h-0.01v-5.1h5.1v5.1h-5.1"/><path d="m3931 1528h-0.016v-5.1h0.015"/><path d="m3931 1523h5v5.1h-5"/><path d="m3926 1528h-0.019v-5.1h0.019"/><path d="m3926 1523h5v5.1h-5"/><path d="m3921 1528h-0.023v-5.1h5.1v5.1h-5"/><path d="m3910 1528h-0.03v-5.1h5.1v5.1h-5"/><path d="m3905 1528h-0.035v-5.1h5.1v5.1h-5"/><path d="m3890 1528h-0.046v-5.1h5.1v5.1h-5"/><path d="m3870 1528h-0.061v-5.1h5.1v5.1h-5"/><path d="m3865 1528h-0.066v-5.1h0.066"/><path d="m3865 1523h5v5.1h-5"/><path d="m3860 1528h-0.07v-5.1h0.07"/><path d="m3860 1523h5v5.1h-5"/><path d="m3850 1528h-0.077v-5.1h5.1v5.1h-5"/><path d="m3840 1528h-0.085v-5.1h0.085"/><path d="m3840 1523h5v5.1h-5"/><path d="m3824 1528h-0.097v-5.1h5.1v5.1h-5"/><path d="m3809 1528h-0.11v-5.1h0.11"/><path d="m3809 1523h5v5.1h-5"/><path d="m3799 1528h-0.12v-5.1h5.1v5.1h-4.9"/><path d="m3774 1528h-0.14v-5.1h5.1v5.1h-4.9"/><path d="m3769 1528h-0.14v-5.1h0.14"/><path d="m3769 1523h4.9v5.1h-4.9"/><path d="m3764 1528h-0.14v-5.1h0.14"/><path d="m3764 1523h4.9v5.1h-4.9"/><path d="m3759 1528h-0.15v-5.1h0.15"/><path d="m3759 1523h4.9v5.1h-4.9"/><path d="m3754 1528h-0.15v-5.1h0.15"/><path d="m3754 1523h4.9v5.1h-4.9"/><path d="m3748 1528h-0.15v-5.1h0.15"/><path d="m3748 1523h4.9v5.1h-4.9"/><path d="m3743 1528h-0.16v-5.1h5.1v5.1h-4.9"/><path d="m3941 1523h-0.01v-5.1h0.01"/><path d="m3941 1518h5.1v5.1h-5.1"/><path d="m3921 1523h-0.023v-5.1h0.023"/><path d="m3921 1518h5v5.1h-5"/><path d="m3915 1523h-0.027v-5.1h0.027"/><path d="m3915 1518h5v5.1h-5"/><path d="m3910 1523h-0.03v-5.1h0.03"/><path d="m3910 1518h5v5.1h-5"/><path d="m3905 1523h-0.035v-5.1h0.034"/><path d="m3905 1518h5v5.1h-5"/><path d="m3900 1523h-0.039v-5.1h0.039"/><path d="m3900 1518h5v5.1h-5"/><path d="m3890 1523h-0.046v-5.1h0.046"/><path d="m3890 1518h5v5.1h-5"/><path d="m3885 1523h-0.05v-5.1h0.05"/><path d="m3885 1518h5v5.1h-5"/><path d="m3870 1523h-0.061v-5.1h0.061"/><path d="m3870 1518h5v5.1h-5"/><path d="m3855 1523h-0.073v-5.1h0.073"/><path d="m3855 1518h5v5.1h-5"/><path d="m3850 1523h-0.077v-5.1h0.077"/><path d="m3850 1518h5v5.1h-5"/><path d="m3824 1523h-0.097v-5.1h0.097"/><path d="m3824 1518h5v5.1h-5"/><path d="m3819 1523h-0.1v-5.1h5.1v5.1h-5"/><path d="m3804 1523h-0.11v-5.1h0.11"/><path d="m3804 1518h5v5.1h-5"/><path d="m3799 1523h-0.12v-5.1h0.12"/><path d="m3799 1518h4.9v5.1h-4.9"/><path d="m3794 1523h-0.12v-5.1h5.1v5.1h-4.9"/><path d="m3774 1523h-0.14v-5.1h5.1v5.1h-4.9"/><path d="m3743 1523h-0.16v-5.1h5.1v5.1h-4.9"/><path d="m3946 1518v-5.1"/><path d="m4e3 1518h-5.1"/><path d="m4e3 1513v5.1"/><path d="m3946 1513h5.1"/><path d="m3931 1518h-0.016v-5.1h5.1v5.1h-5"/><path d="m3926 1518h-0.019v-5.1h5.1v5.1h-5"/><path d="m3895 1518h-0.043v-5.1h5.1v5.1h-5"/><path d="m3875 1518h-0.058v-5.1h0.058"/><path d="m3875 1513h5v5.1h-5"/><path d="m3860 1518h-0.07v-5.1h5.1v5.1h-5"/><path d="m3845 1518h-0.081v-5.1h5.1v5.1h-5"/><path d="m3840 1518h-0.085v-5.1h0.085"/><path d="m3840 1513h5v5.1h-5"/><path d="m3819 1518h-0.1v-5.1h5.1v5.1h-5"/><path d="m3809 1518h-0.11v-5.1h5.1v5.1h-5"/><path d="m3794 1518h-0.12v-5.1h5.1v5.1h-4.9"/><path d="m3789 1518h-0.12v-5.1h5.1v5.1h-4.9"/><path d="m3774 1518h-0.14v-5.1h5.1v5.1h-4.9"/><path d="m3764 1518h-0.14v-5.1h5.1v5.1h-4.9"/><path d="m3759 1518h-0.15v-5.1h5.1v5.1h-4.9"/><path d="m3754 1518h-0.15v-5.1h5.1v5.1h-4.9"/><path d="m3743 1518h-0.16v-5.1h5.1v5.1h-4.9"/><path d="m3936 1513h-0.012v-5.1h0.012"/><path d="m3936 1508h5.1v5.1h-5.1"/><path d="m3931 1513h-0.016v-5.1h0.015"/><path d="m3931 1508h5v5.1h-5"/><path d="m3926 1513h-0.019v-5.1h5.1v5.1h-5"/><path d="m3915 1513h-0.027v-5.1h5.1v5.1h-5"/><path d="m3910 1513h-0.03v-5.1h5.1v5.1h-5"/><path d="m3905 1513h-0.035v-5.1h5.1v5.1h-5"/><path d="m3900 1513h-0.039v-5.1h0.039"/><path d="m3900 1508h5v5.1h-5"/><path d="m3895 1513h-0.043v-5.1h5.1v5.1h-5"/><path d="m3890 1513h-0.046v-5.1h0.046"/><path d="m3890 1508h5v5.1h-5"/><path d="m3870 1513h-0.061v-5.1h0.061"/><path d="m3870 1508h5v5.1h-5"/><path d="m3860 1513h-0.07v-5.1h0.07"/><path d="m3860 1508h5v5.1h-5"/><path d="m3850 1513h-0.077v-5.1h0.077"/><path d="m3850 1508h5v5.1h-5"/><path d="m3845 1513h-0.081v-5.1h0.081"/><path d="m3845 1508h5v5.1h-5"/><path d="m3824 1513h-0.097v-5.1h0.097"/><path d="m3824 1508h5v5.1h-5"/><path d="m3819 1513h-0.1v-5.1h0.1"/><path d="m3819 1508h5v5.1h-5"/><path d="m3809 1513h-0.11v-5.1h0.11"/><path d="m3809 1508h5v5.1h-5"/><path d="m3799 1513h-0.12v-5.1h5.1v5.1h-4.9"/><path d="m3794 1513h-0.12v-5.1h5.1v5.1h-4.9"/><path d="m3789 1513h-0.12v-5.1h5.1v5.1h-4.9"/><path d="m3784 1513h-0.13v-5.1h0.13"/><path d="m3784 1508h4.9v5.1h-4.9"/><path d="m3774 1513h-0.14v-5.1h5.1v5.1h-4.9"/><path d="m3764 1513h-0.14v-5.1h5.1v5.1h-4.9"/><path d="m3759 1513h-0.15v-5.1h5.1v5.1h-4.9"/><path d="m3754 1513h-0.15v-5.1h5.1v5.1h-4.9"/><path d="m3743 1513h-0.16v-5.1h5.1v5.1h-4.9"/><path d="m3926 1508h-0.019v-5.1h5.1v5.1h-5"/><path d="m3921 1508h-0.023v-5.1h0.023"/><path d="m3921 1503h5v5.1h-5"/><path d="m3915 1508h-0.027v-5.1h0.027"/><path d="m3915 1503h5v5.1h-5"/><path d="m3910 1508h-0.03v-5.1h0.03"/><path d="m3910 1503h5v5.1h-5"/><path d="m3905 1508h-0.035v-5.1h5.1v5.1h-5"/><path d="m3895 1508h-0.043v-5.1h5.1v5.1h-5"/><path d="m3885 1508h-0.05v-5.1h0.05"/><path d="m3885 1503h5v5.1h-5"/><path d="m3880 1508h-0.054v-5.1h5.1v5.1h-5"/><path d="m3875 1508h-0.058v-5.1h5.1v5.1h-5"/><path d="m3865 1508h-0.066v-5.1h5.1v5.1h-5"/><path d="m3855 1508h-0.073v-5.1h0.073"/><path d="m3855 1503h5v5.1h-5"/><path d="m3840 1508h-0.085v-5.1h0.085"/><path d="m3840 1503h5v5.1h-5"/><path d="m3829 1508h-0.093v-5.1h5.1v5.1h-5"/><path d="m3799 1508h-0.12v-5.1h5.1v5.1h-4.9"/><path d="m3794 1508h-0.12v-5.1h5.1v5.1h-4.9"/><path d="m3789 1508h-0.12v-5.1h5.1v5.1h-4.9"/><path d="m3774 1508h-0.14v-5.1h5.1v5.1h-4.9"/><path d="m3764 1508h-0.14v-5.1h0.14"/><path d="m3764 1503h4.9v5.1h-4.9"/><path d="m3759 1508h-0.15v-5.1h0.15"/><path d="m3759 1503h4.9v5.1h-4.9"/><path d="m3754 1508h-0.15v-5.1h0.15"/><path d="m3754 1503h4.9v5.1h-4.9"/><path d="m3743 1508h-0.16v-5.1h5.1v5.1h-4.9"/><path d="m3946 1503v-5.1"/><path d="m4e3 1503h-5.1"/><path d="m4e3 1498v5.1"/><path d="m3946 1498h5.1"/><path d="m3941 1503h-0.01v-5.1h5.1v5.1h-5.1"/><path d="m3936 1503h-0.012v-5.1h0.012"/><path d="m3936 1498h5.1v5.1h-5.1"/><path d="m3926 1503h-0.019v-5.1h5.1v5.1h-5"/><path d="m3905 1503h-0.035v-5.1h5.1v5.1h-5"/><path d="m3895 1503h-0.043v-5.1h5.1v5.1h-5"/><path d="m3880 1503h-0.054v-5.1h0.054"/><path d="m3880 1498h5v5.1h-5"/><path d="m3875 1503h-0.058v-5.1h0.058"/><path d="m3875 1498h5v5.1h-5"/><path d="m3865 1503h-0.066v-5.1h0.066"/><path d="m3865 1498h5v5.1h-5"/><path d="m3850 1503h-0.077v-5.1h0.077"/><path d="m3850 1498h5v5.1h-5"/><path d="m3845 1503h-0.081v-5.1h5.1v5.1h-5"/><path d="m3829 1503h-0.093v-5.1h5.1v5.1h-5"/><path d="m3804 1503h-0.11v-5.1h0.11"/><path d="m3804 1498h5v5.1h-5"/><path d="m3799 1503h-0.12v-5.1h5.1v5.1h-4.9"/><path d="m3794 1503h-0.12v-5.1h5.1v5.1h-4.9"/><path d="m3789 1503h-0.12v-5.1h0.12"/><path d="m3789 1498h4.9v5.1h-4.9"/><path d="m3774 1503h-0.14v-5.1h5.1v5.1h-4.9"/><path d="m3743 1503h-0.16v-5.1h5.1v5.1h-4.9"/><path d="m3941 1498h-0.01v-5.1h5.1v5.1h-5.1"/><path d="m3931 1498h-0.016v-5.1h0.015"/><path d="m3931 1493h5v5.1h-5"/><path d="m3926 1498h-0.019v-5.1h5.1v5.1h-5"/><path d="m3915 1498h-0.027v-5.1h0.027"/><path d="m3915 1493h5v5.1h-5"/><path d="m3905 1498h-0.035v-5.1h5.1v5.1h-5"/><path d="m3895 1498h-0.043v-5.1h0.043"/><path d="m3895 1493h5v5.1h-5"/><path d="m3855 1498h-0.073v-5.1h0.073"/><path d="m3855 1493h5v5.1h-5"/><path d="m3845 1498h-0.081v-5.1h5.1v5.1h-5"/><path d="m3840 1498h-0.085v-5.1h0.085"/><path d="m3840 1493h5v5.1h-5"/><path d="m3835 1498h-0.089v-5.1h5.1v5.1h-5"/><path d="m3829 1498h-0.093v-5.1h5.1v5.1h-5"/><path d="m3824 1498h-0.097v-5.1h0.097"/><path d="m3824 1493h5v5.1h-5"/><path d="m3814 1498h-0.1v-5.1h0.1"/><path d="m3814 1493h5v5.1h-5"/><path d="m3809 1498h-0.11v-5.1h0.11"/><path d="m3809 1493h5v5.1h-5"/><path d="m3799 1498h-0.12v-5.1h0.12"/><path d="m3799 1493h4.9v5.1h-4.9"/><path d="m3794 1498h-0.12v-5.1h0.12"/><path d="m3794 1493h4.9v5.1h-4.9"/><path d="m3774 1498h-0.14v-5.1h0.14"/><path d="m3774 1493h4.9v5.1h-4.9"/><path d="m3769 1498h-0.14v-5.1h0.14"/><path d="m3769 1493h4.9v5.1h-4.9"/><path d="m3764 1498h-0.14v-5.1h0.14"/><path d="m3764 1493h4.9v5.1h-4.9"/><path d="m3759 1498h-0.15v-5.1h0.15"/><path d="m3759 1493h4.9v5.1h-4.9"/><path d="m3754 1498h-0.15v-5.1h0.15"/><path d="m3754 1493h4.9v5.1h-4.9"/><path d="m3748 1498h-0.15v-5.1h0.15"/><path d="m3748 1493h4.9v5.1h-4.9"/><path d="m3743 1498h-0.16v-5.1h0.16"/><path d="m3743 1493h4.9v5.1h-4.9"/><path d="m3946 1493v-5.1"/><path d="m4e3 1493h-5.1"/><path d="m4e3 1487v5.1"/><path d="m3946 1487h5.1"/><path d="m3941 1493h-0.01v-5.1h0.01"/><path d="m3941 1487h5.1v5.1h-5.1"/><path d="m3936 1493h-0.012v-5.1h5.1v5.1h-5.1"/><path d="m3926 1493h-0.019v-5.1h5.1v5.1h-5"/><path d="m3905 1493h-0.035v-5.1h5.1v5.1h-5"/><path d="m3900 1493h-0.039v-5.1h0.039"/><path d="m3900 1487h5v5.1h-5"/><path d="m3890 1493h-0.046v-5.1h0.046"/><path d="m3890 1487h5v5.1h-5"/><path d="m3885 1493h-0.05v-5.1h5.1v5.1h-5"/><path d="m3875 1493h-0.058v-5.1h5.1v5.1h-5"/><path d="m3860 1493h-0.07v-5.1h0.07"/><path d="m3860 1487h5v5.1h-5"/><path d="m3850 1493h-0.077v-5.1h0.077"/><path d="m3850 1487h5v5.1h-5"/><path d="m3845 1493h-0.081v-5.1h5.1v5.1h-5"/><path d="m3835 1493h-0.089v-5.1h5.1v5.1h-5"/><path d="m3829 1493h-0.093v-5.1h5.1v5.1h-5"/><path d="m3819 1493h-0.1v-5.1h5.1v5.1h-5"/><path d="m3784 1493h-0.13v-5.1h5.1v5.1h-4.9"/><path d="m3936 1487h-0.012v-5.1h0.012"/><path d="m3936 1482h5.1v5.1h-5.1"/><path d="m3926 1487h-0.019v-5.1h5.1v5.1h-5"/><path d="m3921 1487h-0.023v-5.1h0.023"/><path d="m3921 1482h5v5.1h-5"/><path d="m3915 1487h-0.027v-5.1h0.027"/><path d="m3915 1482h5v5.1h-5"/><path d="m3910 1487h-0.03v-5.1h5.1v5.1h-5"/><path d="m3905 1487h-0.035v-5.1h0.034"/><path d="m3905 1482h5v5.1h-5"/><path d="m3885 1487h-0.05v-5.1h0.05"/><path d="m3885 1482h5v5.1h-5"/><path d="m3880 1487h-0.054v-5.1h0.054"/><path d="m3880 1482h5v5.1h-5"/><path d="m3875 1487h-0.058v-5.1h0.058"/><path d="m3875 1482h5v5.1h-5"/><path d="m3855 1487h-0.073v-5.1h5.1v5.1h-5"/><path d="m3845 1487h-0.081v-5.1h0.081"/><path d="m3845 1482h5v5.1h-5"/><path d="m3835 1487h-0.089v-5.1h5.1v5.1h-5"/><path d="m3829 1487h-0.093v-5.1h5.1v5.1h-5"/><path d="m3824 1487h-0.097v-5.1h0.097"/><path d="m3824 1482h5v5.1h-5"/><path d="m3819 1487h-0.1v-5.1h0.1"/><path d="m3819 1482h5v5.1h-5"/><path d="m3814 1487h-0.1v-5.1h0.1"/><path d="m3814 1482h5v5.1h-5"/><path d="m3794 1487h-0.12v-5.1h5.1v5.1h-4.9"/><path d="m3784 1487h-0.13v-5.1h0.13"/><path d="m3784 1482h4.9v5.1h-4.9"/><path d="m3774 1487h-0.14v-5.1h0.14"/><path d="m3774 1482h4.9v5.1h-4.9"/><path d="m3754 1487h-0.15v-5.1h0.15"/><path d="m3754 1482h4.9v5.1h-4.9"/><path d="m3743 1487h-0.16v-5.1h0.16"/><path d="m3743 1482h4.9v5.1h-4.9"/><path d="m3946 1482v-5.1h5.1v5.1"/><path d="m4e3 1482h-5.1"/><path d="m3941 1482h-0.01v-5.1h5.1v5.1h-5.1"/><path d="m3931 1482h-0.016v-5.1h5.1v5.1h-5"/><path d="m3926 1482h-0.019v-5.1h5.1v5.1h-5"/><path d="m3910 1482h-0.03v-5.1h0.03"/><path d="m3910 1477h5v5.1h-5"/><path d="m3895 1482h-0.043v-5.1h5.1v5.1h-5"/><path d="m3890 1482h-0.046v-5.1h5.1v5.1h-5"/><path d="m3855 1482h-0.073v-5.1h5.1v5.1h-5"/><path d="m3850 1482h-0.077v-5.1h5.1v5.1h-5"/><path d="m3835 1482h-0.089v-5.1h0.089"/><path d="m3835 1477h5v5.1h-5"/><path d="m3829 1482h-0.093v-5.1h0.093"/><path d="m3829 1477h5v5.1h-5"/><path d="m3804 1482h-0.11v-5.1h0.11"/><path d="m3804 1477h5v5.1h-5"/><path d="m3799 1482h-0.12v-5.1h5.1v5.1h-4.9"/><path d="m3794 1482h-0.12v-5.1h0.12"/><path d="m3794 1477h4.9v5.1h-4.9"/><path d="m3789 1482h-0.12v-5.1h5.1v5.1h-4.9"/><path d="m3769 1482h-0.14v-5.1h5.1v5.1h-4.9"/><path d="m3946 1477v-5.1h5.1v5.1h-5.1"/><path d="m3941 1477h-0.01v-5.1h0.01"/><path d="m3941 1472h5.1v5.1h-5.1"/><path d="m3931 1477h-0.016v-5.1h5.1v5.1h-5"/><path d="m3926 1477h-0.019v-5.1h0.019"/><path d="m3926 1472h5v5.1h-5"/><path d="m3921 1477h-0.023v-5.1h5.1v5.1h-5"/><path d="m3895 1477h-0.043v-5.1h0.043"/><path d="m3895 1472h5v5.1h-5"/><path d="m3890 1477h-0.046v-5.1h0.046"/><path d="m3890 1472h5v5.1h-5"/><path d="m3885 1477h-0.05v-5.1h5.1v5.1h-5"/><path d="m3880 1477h-0.054v-5.1h5.1v5.1h-5"/><path d="m3870 1477h-0.061v-5.1h5.1v5.1h-5"/><path d="m3855 1477h-0.073v-5.1h5.1v5.1h-5"/><path d="m3850 1477h-0.077v-5.1h5.1v5.1h-5"/><path d="m3845 1477h-0.081v-5.1h0.081"/><path d="m3845 1472h5v5.1h-5"/><path d="m3824 1477h-0.097v-5.1h0.097"/><path d="m3824 1472h5v5.1h-5"/><path d="m3819 1477h-0.1v-5.1h0.1"/><path d="m3819 1472h5v5.1h-5"/><path d="m3809 1477h-0.11v-5.1h5.1v5.1h-5"/><path d="m3799 1477h-0.12v-5.1h5.1v5.1h-4.9"/><path d="m3789 1477h-0.12v-5.1h5.1v5.1h-4.9"/><path d="m3784 1477h-0.13v-5.1h0.13"/><path d="m3784 1472h4.9v5.1h-4.9"/><path d="m3774 1477h-0.14v-5.1h0.14"/><path d="m3774 1472h4.9v5.1h-4.9"/><path d="m3769 1477h-0.14v-5.1h5.1v5.1h-4.9"/><path d="m3743 1477h-0.16v-5.1h0.16"/><path d="m3743 1472h4.9v5.1h-4.9"/><path d="m3946 1472v-5.1"/><path d="m4e3 1467v5.1h-5.1"/><path d="m3946 1467h5.1"/><path d="m3936 1472h-0.012v-5.1h0.012"/><path d="m3936 1467h5.1v5.1h-5.1"/><path d="m3931 1472h-0.016v-5.1h0.015"/><path d="m3931 1467h5v5.1h-5"/><path d="m3921 1472h-0.023v-5.1h0.023"/><path d="m3921 1467h5v5.1h-5"/><path d="m3910 1472h-0.03v-5.1h5.1v5.1h-5"/><path d="m3905 1472h-0.035v-5.1h0.034"/><path d="m3905 1467h5v5.1h-5"/><path d="m3900 1472h-0.039v-5.1h0.039"/><path d="m3900 1467h5v5.1h-5"/><path d="m3885 1472h-0.05v-5.1h0.05"/><path d="m3885 1467h5v5.1h-5"/><path d="m3880 1472h-0.054v-5.1h0.054"/><path d="m3880 1467h5v5.1h-5"/><path d="m3870 1472h-0.061v-5.1h0.061"/><path d="m3870 1467h5v5.1h-5"/><path d="m3865 1472h-0.066v-5.1h5.1v5.1h-5"/><path d="m3860 1472h-0.07v-5.1h5.1v5.1h-5"/><path d="m3855 1472h-0.073v-5.1h0.073"/><path d="m3855 1467h5v5.1h-5"/><path d="m3850 1472h-0.077v-5.1h5.1v5.1h-5"/><path d="m3835 1472h-0.089v-5.1h5.1v5.1h-5"/><path d="m3809 1472h-0.11v-5.1h0.11"/><path d="m3809 1467h5v5.1h-5"/><path d="m3799 1472h-0.12v-5.1h5.1v5.1h-4.9"/><path d="m3789 1472h-0.12v-5.1h5.1v5.1h-4.9"/><path d="m3769 1472h-0.14v-5.1h5.1v5.1h-4.9"/><path d="m3754 1472h-0.15v-5.1h5.1v5.1h-4.9"/><path d="m3941 1467h-0.01v-5.1h5.1v5.1h-5.1"/><path d="m3915 1467h-0.027v-5.1h5.1v5.1h-5"/><path d="m3910 1467h-0.03v-5.1h5.1v5.1h-5"/><path d="m3890 1467h-0.046v-5.1h5.1v5.1h-5"/><path d="m3875 1467h-0.058v-5.1h0.058"/><path d="m3875 1462h5v5.1h-5"/><path d="m3865 1467h-0.066v-5.1h5.1v5.1h-5"/><path d="m3860 1467h-0.07v-5.1h0.07"/><path d="m3860 1462h5v5.1h-5"/><path d="m3850 1467h-0.077v-5.1h5.1v5.1h-5"/><path d="m3840 1467h-0.085v-5.1h0.085"/><path d="m3840 1462h5v5.1h-5"/><path d="m3835 1467h-0.089v-5.1h0.089"/><path d="m3835 1462h5v5.1h-5"/><path d="m3819 1467h-0.1v-5.1h0.1"/><path d="m3819 1462h5v5.1h-5"/><path d="m3814 1467h-0.1v-5.1h5.1v5.1h-5"/><path d="m3799 1467h-0.12v-5.1h0.12"/><path d="m3799 1462h4.9v5.1h-4.9"/><path d="m3789 1467h-0.12v-5.1h0.12"/><path d="m3789 1462h4.9v5.1h-4.9"/><path d="m3779 1467h-0.13v-5.1h5.1v5.1h-4.9"/><path d="m3774 1467h-0.14v-5.1h0.14"/><path d="m3774 1462h4.9v5.1h-4.9"/><path d="m3769 1467h-0.14v-5.1h5.1v5.1h-4.9"/><path d="m3764 1467h-0.14v-5.1h5.1v5.1h-4.9"/><path d="m3759 1467h-0.15v-5.1h0.15"/><path d="m3759 1462h4.9v5.1h-4.9"/><path d="m3754 1467h-0.15v-5.1h5.1v5.1h-4.9"/><path d="m3748 1467h-0.15v-5.1h5.1v5.1h-4.9"/><path d="m3946 1462v-5.1h5.1v5.1"/><path d="m4e3 1462h-5.1"/><path d="m3941 1462h-0.01v-5.1h5.1v5.1h-5.1"/><path d="m3926 1462h-0.019v-5.1h5.1v5.1h-5"/><path d="m3921 1462h-0.023v-5.1h0.023"/><path d="m3921 1457h5v5.1h-5"/><path d="m3915 1462h-0.027v-5.1h0.027"/><path d="m3915 1457h5v5.1h-5"/><path d="m3910 1462h-0.03v-5.1h5.1v5.1h-5"/><path d="m3905 1462h-0.035v-5.1h5.1v5.1h-5"/><path d="m3890 1462h-0.046v-5.1h0.046"/><path d="m3890 1457h5v5.1h-5"/><path d="m3885 1462h-0.05v-5.1h0.05"/><path d="m3885 1457h5v5.1h-5"/><path d="m3880 1462h-0.054v-5.1h0.054"/><path d="m3880 1457h5v5.1h-5"/><path d="m3865 1462h-0.066v-5.1h0.066"/><path d="m3865 1457h5v5.1h-5"/><path d="m3850 1462h-0.077v-5.1h5.1v5.1h-5"/><path d="m3845 1462h-0.081v-5.1h5.1v5.1h-5"/><path d="m3824 1462h-0.097v-5.1h0.097"/><path d="m3824 1457h5v5.1h-5"/><path d="m3814 1462h-0.1v-5.1h5.1v5.1h-5"/><path d="m3794 1462h-0.12v-5.1h5.1v5.1h-4.9"/><path d="m3779 1462h-0.13v-5.1h0.13"/><path d="m3779 1457h4.9v5.1h-4.9"/><path d="m3769 1462h-0.14v-5.1h0.14"/><path d="m3769 1457h4.9v5.1h-4.9"/><path d="m3764 1462h-0.14v-5.1h5.1v5.1h-4.9"/><path d="m3754 1462h-0.15v-5.1h5.1v5.1h-4.9"/><path d="m3748 1462h-0.15v-5.1h5.1v5.1h-4.9"/><path d="m3743 1462h-0.16v-5.1h0.16"/><path d="m3743 1457h4.9v5.1h-4.9"/><path d="m3946 1457v-5.1"/><path d="m4e3 1452v5.1h-5.1"/><path d="m3946 1452h5.1"/><path d="m3941 1457h-0.01v-5.1h5.1v5.1h-5.1"/><path d="m3926 1457h-0.019v-5.1h0.019"/><path d="m3926 1452h5v5.1h-5"/><path d="m3910 1457h-0.03v-5.1h0.03"/><path d="m3910 1452h5v5.1h-5"/><path d="m3905 1457h-0.035v-5.1h0.034"/><path d="m3905 1452h5v5.1h-5"/><path d="m3875 1457h-0.058v-5.1h0.058"/><path d="m3875 1452h5v5.1h-5"/><path d="m3870 1457h-0.061v-5.1h0.061"/><path d="m3870 1452h5v5.1h-5"/><path d="m3850 1457h-0.077v-5.1h5.1v5.1h-5"/><path d="m3845 1457h-0.081v-5.1h5.1v5.1h-5"/><path d="m3829 1457h-0.093v-5.1h0.093"/><path d="m3829 1452h5v5.1h-5"/><path d="m3814 1457h-0.1v-5.1h5.1v5.1h-5"/><path d="m3809 1457h-0.11v-5.1h5.1v5.1h-5"/><path d="m3794 1457h-0.12v-5.1h0.12"/><path d="m3794 1452h4.9v5.1h-4.9"/><path d="m3789 1457h-0.12v-5.1h5.1v5.1h-4.9"/><path d="m3784 1457h-0.13v-5.1h5.1v5.1h-4.9"/><path d="m3774 1457h-0.14v-5.1h0.14"/><path d="m3774 1452h4.9v5.1h-4.9"/><path d="m3764 1457h-0.14v-5.1h5.1v5.1h-4.9"/><path d="m3754 1457h-0.15v-5.1h0.15"/><path d="m3754 1452h4.9v5.1h-4.9"/><path d="m3748 1457h-0.15v-5.1h0.15"/><path d="m3748 1452h4.9v5.1h-4.9"/><path d="m3941 1452h-0.01v-5.1h0.01"/><path d="m3941 1447h5.1v5.1h-5.1"/><path d="m3931 1452h-0.016v-5.1h0.015"/><path d="m3931 1447h5v5.1h-5"/><path d="m3900 1452h-0.039v-5.1h5.1v5.1h-5"/><path d="m3895 1452h-0.043v-5.1h0.043"/><path d="m3895 1447h5v5.1h-5"/><path d="m3860 1452h-0.07v-5.1h0.07"/><path d="m3860 1447h5v5.1h-5"/><path d="m3855 1452h-0.073v-5.1h0.073"/><path d="m3855 1447h5v5.1h-5"/><path d="m3850 1452h-0.077v-5.1h5.1v5.1h-5"/><path d="m3845 1452h-0.081v-5.1h5.1v5.1h-5"/><path d="m3835 1452h-0.089v-5.1h5.1v5.1h-5"/><path d="m3824 1452h-0.097v-5.1h5.1v5.1h-5"/><path d="m3814 1452h-0.1v-5.1h0.1"/><path d="m3814 1447h5v5.1h-5"/><path d="m3809 1452h-0.11v-5.1h0.11"/><path d="m3809 1447h5v5.1h-5"/><path d="m3804 1452h-0.11v-5.1h0.11"/><path d="m3804 1447h5v5.1h-5"/><path d="m3789 1452h-0.12v-5.1h5.1v5.1h-4.9"/><path d="m3784 1452h-0.13v-5.1h0.13"/><path d="m3784 1447h4.9v5.1h-4.9"/><path d="m3779 1452h-0.13v-5.1h0.13"/><path d="m3779 1447h4.9v5.1h-4.9"/><path d="m3769 1452h-0.14v-5.1h5.1v5.1h-4.9"/><path d="m3764 1452h-0.14v-5.1h0.14"/><path d="m3764 1447h4.9v5.1h-4.9"/><path d="m3759 1452h-0.15v-5.1h0.15"/><path d="m3759 1447h4.9v5.1h-4.9"/><path d="m3946 1447v-5.1"/><path d="m4e3 1447h-5.1"/><path d="m4e3 1442v5.1"/><path d="m3946 1442h5.1"/><path d="m3915 1447h-0.027v-5.1h5.1v5.1h-5"/><path d="m3910 1447h-0.03v-5.1h0.03"/><path d="m3910 1442h5v5.1h-5"/><path d="m3905 1447h-0.035v-5.1h0.034"/><path d="m3905 1442h5v5.1h-5"/><path d="m3900 1447h-0.039v-5.1h5.1v5.1h-5"/><path d="m3890 1447h-0.046v-5.1h0.046"/><path d="m3890 1442h5v5.1h-5"/><path d="m3885 1447h-0.05v-5.1h0.05"/><path d="m3885 1442h5v5.1h-5"/><path d="m3880 1447h-0.054v-5.1h5.1v5.1h-5"/><path d="m3870 1447h-0.061v-5.1h5.1v5.1h-5"/><path d="m3865 1447h-0.066v-5.1h5.1v5.1h-5"/><path d="m3850 1447h-0.077v-5.1h5.1v5.1h-5"/><path d="m3845 1447h-0.081v-5.1h5.1v5.1h-5"/><path d="m3840 1447h-0.085v-5.1h5.1v5.1h-5"/><path d="m3835 1447h-0.089v-5.1h5.1v5.1h-5"/><path d="m3829 1447h-0.093v-5.1h0.093"/><path d="m3829 1442h5v5.1h-5"/><path d="m3824 1447h-0.097v-5.1h0.097"/><path d="m3824 1442h5v5.1h-5"/><path d="m3799 1447h-0.12v-5.1h5.1v5.1h-4.9"/><path d="m3789 1447h-0.12v-5.1h0.12"/><path d="m3789 1442h4.9v5.1h-4.9"/><path d="m3774 1447h-0.14v-5.1h0.14"/><path d="m3774 1442h4.9v5.1h-4.9"/><path d="m3769 1447h-0.14v-5.1h0.14"/><path d="m3769 1442h4.9v5.1h-4.9"/><path d="m3754 1447h-0.15v-5.1h5.1v5.1h-4.9"/><path d="m3748 1447h-0.15v-5.1h0.15"/><path d="m3748 1442h4.9v5.1h-4.9"/><path d="m3936 1442h-0.012v-5.1h0.012"/><path d="m3936 1437h5.1v5.1h-5.1"/><path d="m3926 1442h-0.019v-5.1h0.019"/><path d="m3926 1437h5v5.1h-5"/><path d="m3921 1442h-0.023v-5.1h5.1v5.1h-5"/><path d="m3915 1442h-0.027v-5.1h5.1v5.1h-5"/><path d="m3900 1442h-0.039v-5.1h5.1v5.1h-5"/><path d="m3895 1442h-0.043v-5.1h0.043"/><path d="m3895 1437h5v5.1h-5"/><path d="m3880 1442h-0.054v-5.1h0.054"/><path d="m3880 1437h5v5.1h-5"/><path d="m3870 1442h-0.061v-5.1h5.1v5.1h-5"/><path d="m3865 1442h-0.066v-5.1h0.066"/><path d="m3865 1437h5v5.1h-5"/><path d="m3860 1442h-0.07v-5.1h5.1v5.1h-5"/><path d="m3850 1442h-0.077v-5.1h5.1v5.1h-5"/><path d="m3845 1442h-0.081v-5.1h0.081"/><path d="m3845 1437h5v5.1h-5"/><path d="m3840 1442h-0.085v-5.1h5.1v5.1h-5"/><path d="m3835 1442h-0.089v-5.1h0.089"/><path d="m3835 1437h5v5.1h-5"/><path d="m3819 1442h-0.1v-5.1h5.1v5.1h-5"/><path d="m3804 1442h-0.11v-5.1h0.11"/><path d="m3804 1437h5v5.1h-5"/><path d="m3799 1442h-0.12v-5.1h0.12"/><path d="m3799 1437h4.9v5.1h-4.9"/><path d="m3784 1442h-0.13v-5.1h5.1v5.1h-4.9"/><path d="m3779 1442h-0.13v-5.1h5.1v5.1h-4.9"/><path d="m3764 1442h-0.14v-5.1h0.14"/><path d="m3764 1437h4.9v5.1h-4.9"/><path d="m3759 1442h-0.15v-5.1h0.15"/><path d="m3759 1437h4.9v5.1h-4.9"/><path d="m3754 1442h-0.15v-5.1h5.1v5.1h-4.9"/><path d="m3941 1437h-0.01v-5.1h5.1v5.1h-5.1"/><path d="m3931 1437h-0.016v-5.1h5.1v5.1h-5"/><path d="m3921 1437h-0.023v-5.1h5.1v5.1h-5"/><path d="m3915 1437h-0.027v-5.1h5.1v5.1h-5"/><path d="m3910 1437h-0.03v-5.1h5.1v5.1h-5"/><path d="m3905 1437h-0.035v-5.1h5.1v5.1h-5"/><path d="m3900 1437h-0.039v-5.1h0.039"/><path d="m3900 1432h5v5.1h-5"/><path d="m3890 1437h-0.046v-5.1h0.046"/><path d="m3890 1432h5v5.1h-5"/><path d="m3885 1437h-0.05v-5.1h5.1v5.1h-5"/><path d="m3870 1437h-0.061v-5.1h5.1v5.1h-5"/><path d="m3860 1437h-0.07v-5.1h5.1v5.1h-5"/><path d="m3850 1437h-0.077v-5.1h5.1v5.1h-5"/><path d="m3840 1437h-0.085v-5.1h5.1v5.1h-5"/><path d="m3819 1437h-0.1v-5.1h0.1"/><path d="m3819 1432h5v5.1h-5"/><path d="m3814 1437h-0.1v-5.1h5.1v5.1h-5"/><path d="m3784 1437h-0.13v-5.1h0.13"/><path d="m3784 1432h4.9v5.1h-4.9"/><path d="m3779 1437h-0.13v-5.1h0.13"/><path d="m3779 1432h4.9v5.1h-4.9"/><path d="m3774 1437h-0.14v-5.1h0.14"/><path d="m3774 1432h4.9v5.1h-4.9"/><path d="m3754 1437h-0.15v-5.1h5.1v5.1h-4.9"/><path d="m3748 1437h-0.15v-5.1h0.15"/><path d="m3748 1432h4.9v5.1h-4.9"/><path d="m3946 1432v-5.1"/><path d="m4e3 1432h-5.1"/><path d="m4e3 1427v5.1"/><path d="m3946 1427h5.1"/><path d="m3941 1432h-0.01v-5.1h5.1v5.1h-5.1"/><path d="m3931 1432h-0.016v-5.1h0.015"/><path d="m3931 1427h5v5.1h-5"/><path d="m3921 1432h-0.023v-5.1h5.1v5.1h-5"/><path d="m3915 1432h-0.027v-5.1h5.1v5.1h-5"/><path d="m3910 1432h-0.03v-5.1h5.1v5.1h-5"/><path d="m3905 1432h-0.035v-5.1h0.034"/><path d="m3905 1427h5v5.1h-5"/><path d="m3885 1432h-0.05v-5.1h0.05"/><path d="m3885 1427h5v5.1h-5"/><path d="m3875 1432h-0.058v-5.1h0.058"/><path d="m3875 1427h5v5.1h-5"/><path d="m3870 1432h-0.061v-5.1h5.1v5.1h-5"/><path d="m3860 1432h-0.07v-5.1h5.1v5.1h-5"/><path d="m3850 1432h-0.077v-5.1h0.077"/><path d="m3850 1427h5v5.1h-5"/><path d="m3840 1432h-0.085v-5.1h5.1v5.1h-5"/><path d="m3824 1432h-0.097v-5.1h5.1v5.1h-5"/><path d="m3814 1432h-0.1v-5.1h0.1"/><path d="m3814 1427h5v5.1h-5"/><path d="m3809 1432h-0.11v-5.1h0.11"/><path d="m3809 1427h5v5.1h-5"/><path d="m3804 1432h-0.11v-5.1h5.1v5.1h-5"/><path d="m3769 1432h-0.14v-5.1h0.14"/><path d="m3769 1427h4.9v5.1h-4.9"/><path d="m3759 1432h-0.15v-5.1h0.15"/><path d="m3759 1427h4.9v5.1h-4.9"/><path d="m3754 1432h-0.15v-5.1h5.1v5.1h-4.9"/><path d="m3743 1432h-0.16v-5.1h5.1v5.1h-4.9"/><path d="m3941 1427h-0.01v-5.1h0.01"/><path d="m3941 1422h5.1v5.1h-5.1"/><path d="m3936 1427h-0.012v-5.1h0.012"/><path d="m3936 1422h5.1v5.1h-5.1"/><path d="m3921 1427h-0.023v-5.1h5.1v5.1h-5"/><path d="m3915 1427h-0.027v-5.1h0.027"/><path d="m3915 1422h5v5.1h-5"/><path d="m3910 1427h-0.03v-5.1h5.1v5.1h-5"/><path d="m3890 1427h-0.046v-5.1h0.046"/><path d="m3890 1422h5v5.1h-5"/><path d="m3880 1427h-0.054v-5.1h5.1v5.1h-5"/><path d="m3870 1427h-0.061v-5.1h5.1v5.1h-5"/><path d="m3860 1427h-0.07v-5.1h5.1v5.1h-5"/><path d="m3855 1427h-0.073v-5.1h5.1v5.1h-5"/><path d="m3845 1427h-0.081v-5.1h0.081"/><path d="m3845 1422h5v5.1h-5"/><path d="m3840 1427h-0.085v-5.1h0.085"/><path d="m3840 1422h5v5.1h-5"/><path d="m3835 1427h-0.089v-5.1h5.1v5.1h-5"/><path d="m3829 1427h-0.093v-5.1h5.1v5.1h-5"/><path d="m3824 1427h-0.097v-5.1h0.097"/><path d="m3824 1422h5v5.1h-5"/><path d="m3819 1427h-0.1v-5.1h5.1v5.1h-5"/><path d="m3804 1427h-0.11v-5.1h0.11"/><path d="m3804 1422h5v5.1h-5"/><path d="m3799 1427h-0.12v-5.1h5.1v5.1h-4.9"/><path d="m3789 1427h-0.12v-5.1h5.1v5.1h-4.9"/><path d="m3774 1427h-0.14v-5.1h0.14"/><path d="m3774 1422h4.9v5.1h-4.9"/><path d="m3764 1427h-0.14v-5.1h5.1v5.1h-4.9"/><path d="m3754 1427h-0.15v-5.1h5.1v5.1h-4.9"/><path d="m3748 1427h-0.15v-5.1h0.15"/><path d="m3748 1422h4.9v5.1h-4.9"/><path d="m3743 1427h-0.16v-5.1h0.16"/><path d="m3743 1422h4.9v5.1h-4.9"/><path d="m3921 1422h-0.023v-5.1h0.023"/><path d="m3921 1417h5v5.1h-5"/><path d="m3910 1422h-0.03v-5.1h0.03"/><path d="m3910 1417h5v5.1h-5"/><path d="m3900 1422h-0.039v-5.1h0.039"/><path d="m3900 1417h5v5.1h-5"/><path d="m3885 1422h-0.05v-5.1h0.05"/><path d="m3885 1417h5v5.1h-5"/><path d="m3880 1422h-0.054v-5.1h0.054"/><path d="m3880 1417h5v5.1h-5"/><path d="m3870 1422h-0.061v-5.1h0.061"/><path d="m3870 1417h5v5.1h-5"/><path d="m3860 1422h-0.07v-5.1h5.1v5.1h-5"/><path d="m3855 1422h-0.073v-5.1h0.073"/><path d="m3855 1417h5v5.1h-5"/><path d="m3835 1422h-0.089v-5.1h0.089"/><path d="m3835 1417h5v5.1h-5"/><path d="m3829 1422h-0.093v-5.1h5.1v5.1h-5"/><path d="m3819 1422h-0.1v-5.1h0.1"/><path d="m3819 1417h5v5.1h-5"/><path d="m3799 1422h-0.12v-5.1h5.1v5.1h-4.9"/><path d="m3794 1422h-0.12v-5.1h0.12"/><path d="m3794 1417h4.9v5.1h-4.9"/><path d="m3789 1422h-0.12v-5.1h5.1v5.1h-4.9"/><path d="m3784 1422h-0.13v-5.1h5.1v5.1h-4.9"/><path d="m3769 1422h-0.14v-5.1h5.1v5.1h-4.9"/><path d="m3764 1422h-0.14v-5.1h5.1v5.1h-4.9"/><path d="m3754 1422h-0.15v-5.1h5.1v5.1h-4.9"/><path d="m3946 1417v-5.1h5.1v5.1"/><path d="m4e3 1417h-5.1"/><path d="m3926 1417h-0.019v-5.1h0.019"/><path d="m3926 1411h5v5.1h-5"/><path d="m3915 1417h-0.027v-5.1h5.1v5.1h-5"/><path d="m3890 1417h-0.046v-5.1h5.1v5.1h-5"/><path d="m3875 1417h-0.058v-5.1h0.058"/><path d="m3875 1411h5v5.1h-5"/><path d="m3865 1417h-0.066v-5.1h5.1v5.1h-5"/><path d="m3860 1417h-0.07v-5.1h0.07"/><path d="m3860 1411h5v5.1h-5"/><path d="m3845 1417h-0.081v-5.1h5.1v5.1h-5"/><path d="m3840 1417h-0.085v-5.1h0.085"/><path d="m3840 1411h5v5.1h-5"/><path d="m3829 1417h-0.093v-5.1h5.1v5.1h-5"/><path d="m3814 1417h-0.1v-5.1h5.1v5.1h-5"/><path d="m3809 1417h-0.11v-5.1h5.1v5.1h-5"/><path d="m3804 1417h-0.11v-5.1h5.1v5.1h-5"/><path d="m3799 1417h-0.12v-5.1h5.1v5.1h-4.9"/><path d="m3789 1417h-0.12v-5.1h5.1v5.1h-4.9"/><path d="m3784 1417h-0.13v-5.1h5.1v5.1h-4.9"/><path d="m3779 1417h-0.13v-5.1h0.13"/><path d="m3779 1411h4.9v5.1h-4.9"/><path d="m3774 1417h-0.14v-5.1h0.14"/><path d="m3774 1411h4.9v5.1h-4.9"/><path d="m3769 1417h-0.14v-5.1h5.1v5.1h-4.9"/><path d="m3764 1417h-0.14v-5.1h5.1v5.1h-4.9"/><path d="m3754 1417h-0.15v-5.1h5.1v5.1h-4.9"/><path d="m3946 1411v-5.1"/><path d="m4e3 1406v5.1h-5.1"/><path d="m3946 1406h5.1"/><path d="m3941 1411h-0.01v-5.1h5.1v5.1h-5.1"/><path d="m3936 1411h-0.012v-5.1h0.012"/><path d="m3936 1406h5.1v5.1h-5.1"/><path d="m3931 1411h-0.016v-5.1h0.015"/><path d="m3931 1406h5v5.1h-5"/><path d="m3921 1411h-0.023v-5.1h5.1v5.1h-5"/><path d="m3915 1411h-0.027v-5.1h0.027"/><path d="m3915 1406h5v5.1h-5"/><path d="m3890 1411h-0.046v-5.1h5.1v5.1h-5"/><path d="m3865 1411h-0.066v-5.1h0.066"/><path d="m3865 1406h5v5.1h-5"/><path d="m3845 1411h-0.081v-5.1h0.081"/><path d="m3845 1406h5v5.1h-5"/><path d="m3829 1411h-0.093v-5.1h5.1v5.1h-5"/><path d="m3824 1411h-0.097v-5.1h5.1v5.1h-5"/><path d="m3819 1411h-0.1v-5.1h0.1"/><path d="m3819 1406h5v5.1h-5"/><path d="m3814 1411h-0.1v-5.1h0.1"/><path d="m3814 1406h5v5.1h-5"/><path d="m3809 1411h-0.11v-5.1h0.11"/><path d="m3809 1406h5v5.1h-5"/><path d="m3804 1411h-0.11v-5.1h0.11"/><path d="m3804 1406h5v5.1h-5"/><path d="m3799 1411h-0.12v-5.1h0.12"/><path d="m3799 1406h4.9v5.1h-4.9"/><path d="m3789 1411h-0.12v-5.1h5.1v5.1h-4.9"/><path d="m3784 1411h-0.13v-5.1h5.1v5.1h-4.9"/><path d="m3769 1411h-0.14v-5.1h5.1v5.1h-4.9"/><path d="m3764 1411h-0.14v-5.1h0.14"/><path d="m3764 1406h4.9v5.1h-4.9"/><path d="m3754 1411h-0.15v-5.1h0.15"/><path d="m3754 1406h4.9v5.1h-4.9"/><path d="m3748 1411h-0.15v-5.1h5.1v5.1h-4.9"/><path d="m3941 1406h-0.01v-5.1h0.01"/><path d="m3941 1401h5.1v5.1h-5.1"/><path d="m3921 1406h-0.023v-5.1h0.023"/><path d="m3921 1401h5v5.1h-5"/><path d="m3905 1406h-0.035v-5.1h5.1v5.1h-5"/><path d="m3890 1406h-0.046v-5.1h5.1v5.1h-5"/><path d="m3855 1406h-0.073v-5.1h0.073"/><path d="m3855 1401h5v5.1h-5"/><path d="m3850 1406h-0.077v-5.1h5.1v5.1h-5"/><path d="m3829 1406h-0.093v-5.1h5.1v5.1h-5"/><path d="m3824 1406h-0.097v-5.1h0.097"/><path d="m3824 1401h5v5.1h-5"/><path d="m3789 1406h-0.12v-5.1h0.12"/><path d="m3789 1401h4.9v5.1h-4.9"/><path d="m3784 1406h-0.13v-5.1h0.13"/><path d="m3784 1401h4.9v5.1h-4.9"/><path d="m3779 1406h-0.13v-5.1h0.13"/><path d="m3779 1401h4.9v5.1h-4.9"/><path d="m3774 1406h-0.14v-5.1h0.14"/><path d="m3774 1401h4.9v5.1h-4.9"/><path d="m3769 1406h-0.14v-5.1h0.14"/><path d="m3769 1401h4.9v5.1h-4.9"/><path d="m3759 1406h-0.15v-5.1h0.15"/><path d="m3759 1401h4.9v5.1h-4.9"/><path d="m3748 1406h-0.15v-5.1h0.15"/><path d="m3748 1401h4.9v5.1h-4.9"/><path d="m3743 1406h-0.16v-5.1h5.1v5.1h-4.9"/><path d="m3915 1401h-0.027v-5.1h5.1v5.1h-5"/><path d="m3905 1401h-0.035v-5.1h0.034"/><path d="m3905 1396h5v5.1h-5"/><path d="m3895 1401h-0.043v-5.1h5.1v5.1h-5"/><path d="m3890 1401h-0.046v-5.1h0.046"/><path d="m3890 1396h5v5.1h-5"/><path d="m3880 1401h-0.054v-5.1h0.054"/><path d="m3880 1396h5v5.1h-5"/><path d="m3865 1401h-0.066v-5.1h0.066"/><path d="m3865 1396h5v5.1h-5"/><path d="m3850 1401h-0.077v-5.1h5.1v5.1h-5"/><path d="m3835 1401h-0.089v-5.1h0.089"/><path d="m3835 1396h5v5.1h-5"/><path d="m3829 1401h-0.093v-5.1h0.093"/><path d="m3829 1396h5v5.1h-5"/><path d="m3819 1401h-0.1v-5.1h0.1"/><path d="m3819 1396h5v5.1h-5"/><path d="m3809 1401h-0.11v-5.1h0.11"/><path d="m3809 1396h5v5.1h-5"/><path d="m3804 1401h-0.11v-5.1h0.11"/><path d="m3804 1396h5v5.1h-5"/><path d="m3799 1401h-0.12v-5.1h5.1v5.1h-4.9"/><path d="m3754 1401h-0.15v-5.1h0.15"/><path d="m3754 1396h4.9v5.1h-4.9"/><path d="m3743 1401h-0.16v-5.1h0.16"/><path d="m3743 1396h4.9v5.1h-4.9"/><path d="m3946 1396v-5.1"/><path d="m4e3 1396h-5.1"/><path d="m4e3 1391v5.1"/><path d="m3946 1391h5.1"/><path d="m3941 1396h-0.01v-5.1h5.1v5.1h-5.1"/><path d="m3931 1396h-0.016v-5.1h5.1v5.1h-5"/><path d="m3926 1396h-0.019v-5.1h0.019"/><path d="m3926 1391h5v5.1h-5"/><path d="m3915 1396h-0.027v-5.1h5.1v5.1h-5"/><path d="m3900 1396h-0.039v-5.1h0.039"/><path d="m3900 1391h5v5.1h-5"/><path d="m3895 1396h-0.043v-5.1h0.043"/><path d="m3895 1391h5v5.1h-5"/><path d="m3875 1396h-0.058v-5.1h5.1v5.1h-5"/><path d="m3850 1396h-0.077v-5.1h0.077"/><path d="m3850 1391h5v5.1h-5"/><path d="m3799 1396h-0.12v-5.1h0.12"/><path d="m3799 1391h4.9v5.1h-4.9"/><path d="m3789 1396h-0.12v-5.1h0.12"/><path d="m3789 1391h4.9v5.1h-4.9"/><path d="m3779 1396h-0.13v-5.1h0.13"/><path d="m3779 1391h4.9v5.1h-4.9"/><path d="m3774 1396h-0.14v-5.1h0.14"/><path d="m3774 1391h4.9v5.1h-4.9"/><path d="m3764 1396h-0.14v-5.1h0.14"/><path d="m3764 1391h4.9v5.1h-4.9"/><path d="m3759 1396h-0.15v-5.1h0.15"/><path d="m3759 1391h4.9v5.1h-4.9"/><path d="m3748 1396h-0.15v-5.1h5.1v5.1h-4.9"/><path d="m3941 1391h-0.01v-5.1h5.1v5.1h-5.1"/><path d="m3936 1391h-0.012v-5.1h0.012"/><path d="m3936 1386h5.1v5.1h-5.1"/><path d="m3931 1391h-0.016v-5.1h5.1v5.1h-5"/><path d="m3915 1391h-0.027v-5.1h5.1v5.1h-5"/><path d="m3910 1391h-0.03v-5.1h0.03"/><path d="m3910 1386h5v5.1h-5"/><path d="m3905 1391h-0.035v-5.1h5.1v5.1h-5"/><path d="m3890 1391h-0.046v-5.1h5.1v5.1h-5"/><path d="m3885 1391h-0.05v-5.1h0.05"/><path d="m3885 1386h5v5.1h-5"/><path d="m3880 1391h-0.054v-5.1h5.1v5.1h-5"/><path d="m3875 1391h-0.058v-5.1h5.1v5.1h-5"/><path d="m3865 1391h-0.066v-5.1h5.1v5.1h-5"/><path d="m3855 1391h-0.073v-5.1h5.1v5.1h-5"/><path d="m3845 1391h-0.081v-5.1h0.081"/><path d="m3845 1386h5v5.1h-5"/><path d="m3840 1391h-0.085v-5.1h0.085"/><path d="m3840 1386h5v5.1h-5"/><path d="m3835 1391h-0.089v-5.1h0.089"/><path d="m3835 1386h5v5.1h-5"/><path d="m3829 1391h-0.093v-5.1h5.1v5.1h-5"/><path d="m3819 1391h-0.1v-5.1h0.1"/><path d="m3819 1386h5v5.1h-5"/><path d="m3809 1391h-0.11v-5.1h5.1v5.1h-5"/><path d="m3804 1391h-0.11v-5.1h5.1v5.1h-5"/><path d="m3794 1391h-0.12v-5.1h0.12"/><path d="m3794 1386h4.9v5.1h-4.9"/><path d="m3769 1391h-0.14v-5.1h0.14"/><path d="m3769 1386h4.9v5.1h-4.9"/><path d="m3754 1391h-0.15v-5.1h0.15"/><path d="m3754 1386h4.9v5.1h-4.9"/><path d="m3748 1391h-0.15v-5.1h0.15"/><path d="m3748 1386h4.9v5.1h-4.9"/><path d="m3743 1391h-0.16v-5.1h5.1v5.1h-4.9"/><path d="m3946 1386v-5.1"/><path d="m4e3 1386h-5.1"/><path d="m4e3 1381v5.1"/><path d="m3946 1381h5.1"/><path d="m3941 1386h-0.01v-5.1h0.01"/><path d="m3941 1381h5.1v5.1h-5.1"/><path d="m3931 1386h-0.016v-5.1h0.015"/><path d="m3931 1381h5v5.1h-5"/><path d="m3921 1386h-0.023v-5.1h5.1v5.1h-5"/><path d="m3915 1386h-0.027v-5.1h5.1v5.1h-5"/><path d="m3905 1386h-0.035v-5.1h0.034"/><path d="m3905 1381h5v5.1h-5"/><path d="m3900 1386h-0.039v-5.1h0.039"/><path d="m3900 1381h5v5.1h-5"/><path d="m3895 1386h-0.043v-5.1h5.1v5.1h-5"/><path d="m3890 1386h-0.046v-5.1h0.046"/><path d="m3890 1381h5v5.1h-5"/><path d="m3880 1386h-0.054v-5.1h0.054"/><path d="m3880 1381h5v5.1h-5"/><path d="m3875 1386h-0.058v-5.1h0.058"/><path d="m3875 1381h5v5.1h-5"/><path d="m3870 1386h-0.061v-5.1h5.1v5.1h-5"/><path d="m3865 1386h-0.066v-5.1h0.066"/><path d="m3865 1381h5v5.1h-5"/><path d="m3855 1386h-0.073v-5.1h5.1v5.1h-5"/><path d="m3850 1386h-0.077v-5.1h5.1v5.1h-5"/><path d="m3829 1386h-0.093v-5.1h0.093"/><path d="m3829 1381h5v5.1h-5"/><path d="m3809 1386h-0.11v-5.1h5.1v5.1h-5"/><path d="m3804 1386h-0.11v-5.1h0.11"/><path d="m3804 1381h5v5.1h-5"/><path d="m3799 1386h-0.12v-5.1h5.1v5.1h-4.9"/><path d="m3774 1386h-0.14v-5.1h0.14"/><path d="m3774 1381h4.9v5.1h-4.9"/><path d="m3743 1386h-0.16v-5.1h5.1v5.1h-4.9"/><path d="m3936 1381h-0.012v-5.1h5.1v5.1h-5.1"/><path d="m3926 1381h-0.019v-5.1h0.019"/><path d="m3926 1376h5v5.1h-5"/><path d="m3921 1381h-0.023v-5.1h5.1v5.1h-5"/><path d="m3915 1381h-0.027v-5.1h5.1v5.1h-5"/><path d="m3895 1381h-0.043v-5.1h5.1v5.1h-5"/><path d="m3885 1381h-0.05v-5.1h0.05"/><path d="m3885 1376h5v5.1h-5"/><path d="m3870 1381h-0.061v-5.1h5.1v5.1h-5"/><path d="m3855 1381h-0.073v-5.1h0.073"/><path d="m3855 1376h5v5.1h-5"/><path d="m3850 1381h-0.077v-5.1h5.1v5.1h-5"/><path d="m3845 1381h-0.081v-5.1h0.081"/><path d="m3845 1376h5v5.1h-5"/><path d="m3824 1381h-0.097v-5.1h5.1v5.1h-5"/><path d="m3819 1381h-0.1v-5.1h5.1v5.1h-5"/><path d="m3814 1381h-0.1v-5.1h5.1v5.1h-5"/><path d="m3809 1381h-0.11v-5.1h0.11"/><path d="m3809 1376h5v5.1h-5"/><path d="m3799 1381h-0.12v-5.1h5.1v5.1h-4.9"/><path d="m3794 1381h-0.12v-5.1h0.12"/><path d="m3794 1376h4.9v5.1h-4.9"/><path d="m3789 1381h-0.12v-5.1h0.12"/><path d="m3789 1376h4.9v5.1h-4.9"/><path d="m3784 1381h-0.13v-5.1h5.1v5.1h-4.9"/><path d="m3764 1381h-0.14v-5.1h0.14"/><path d="m3764 1376h4.9v5.1h-4.9"/><path d="m3754 1381h-0.15v-5.1h5.1v5.1h-4.9"/><path d="m3743 1381h-0.16v-5.1h0.16"/><path d="m3743 1376h4.9v5.1h-4.9"/><path d="m3941 1376h-0.01v-5.1h0.01"/><path d="m3941 1371h5.1v5.1h-5.1"/><path d="m3936 1376h-0.012v-5.1h5.1v5.1h-5.1"/><path d="m3931 1376h-0.016v-5.1h5.1v5.1h-5"/><path d="m3921 1376h-0.023v-5.1h5.1v5.1h-5"/><path d="m3915 1376h-0.027v-5.1h5.1v5.1h-5"/><path d="m3910 1376h-0.03v-5.1h5.1v5.1h-5"/><path d="m3900 1376h-0.039v-5.1h0.039"/><path d="m3900 1371h5v5.1h-5"/><path d="m3895 1376h-0.043v-5.1h0.043"/><path d="m3895 1371h5v5.1h-5"/><path d="m3875 1376h-0.058v-5.1h0.058"/><path d="m3875 1371h5v5.1h-5"/><path d="m3870 1376h-0.061v-5.1h0.061"/><path d="m3870 1371h5v5.1h-5"/><path d="m3850 1376h-0.077v-5.1h0.077"/><path d="m3850 1371h5v5.1h-5"/><path d="m3840 1376h-0.085v-5.1h0.085"/><path d="m3840 1371h5v5.1h-5"/><path d="m3824 1376h-0.097v-5.1h0.097"/><path d="m3824 1371h5v5.1h-5"/><path d="m3819 1376h-0.1v-5.1h5.1v5.1h-5"/><path d="m3814 1376h-0.1v-5.1h5.1v5.1h-5"/><path d="m3804 1376h-0.11v-5.1h5.1v5.1h-5"/><path d="m3799 1376h-0.12v-5.1h5.1v5.1h-4.9"/><path d="m3784 1376h-0.13v-5.1h5.1v5.1h-4.9"/><path d="m3779 1376h-0.13v-5.1h5.1v5.1h-4.9"/><path d="m3774 1376h-0.14v-5.1h0.14"/><path d="m3774 1371h4.9v5.1h-4.9"/><path d="m3769 1376h-0.14v-5.1h5.1v5.1h-4.9"/><path d="m3754 1376h-0.15v-5.1h5.1v5.1h-4.9"/><path d="m3748 1376h-0.15v-5.1h0.15"/><path d="m3748 1371h4.9v5.1h-4.9"/><path d="m3946 1371v-5.1h5.1v5.1"/><path d="m4e3 1371h-5.1"/><path d="m3936 1371h-0.012v-5.1h0.012"/><path d="m3936 1366h5.1v5.1h-5.1"/><path d="m3931 1371h-0.016v-5.1h5.1v5.1h-5"/><path d="m3921 1371h-0.023v-5.1h5.1v5.1h-5"/><path d="m3915 1371h-0.027v-5.1h0.027"/><path d="m3915 1366h5v5.1h-5"/><path d="m3910 1371h-0.03v-5.1h0.03"/><path d="m3910 1366h5v5.1h-5"/><path d="m3905 1371h-0.035v-5.1h0.034"/><path d="m3905 1366h5v5.1h-5"/><path d="m3885 1371h-0.05v-5.1h0.05"/><path d="m3885 1366h5v5.1h-5"/><path d="m3865 1371h-0.066v-5.1h0.066"/><path d="m3865 1366h5v5.1h-5"/><path d="m3845 1371h-0.081v-5.1h5.1v5.1h-5"/><path d="m3835 1371h-0.089v-5.1h5.1v5.1h-5"/><path d="m3829 1371h-0.093v-5.1h0.093"/><path d="m3829 1366h5v5.1h-5"/><path d="m3819 1371h-0.1v-5.1h5.1v5.1h-5"/><path d="m3814 1371h-0.1v-5.1h0.1"/><path d="m3814 1366h5v5.1h-5"/><path d="m3809 1371h-0.11v-5.1h0.11"/><path d="m3809 1366h5v5.1h-5"/><path d="m3804 1371h-0.11v-5.1h0.11"/><path d="m3804 1366h5v5.1h-5"/><path d="m3799 1371h-0.12v-5.1h5.1v5.1h-4.9"/><path d="m3784 1371h-0.13v-5.1h0.13"/><path d="m3784 1366h4.9v5.1h-4.9"/><path d="m3779 1371h-0.13v-5.1h0.13"/><path d="m3779 1366h4.9v5.1h-4.9"/><path d="m3769 1371h-0.14v-5.1h0.14"/><path d="m3769 1366h4.9v5.1h-4.9"/><path d="m3764 1371h-0.14v-5.1h0.14"/><path d="m3764 1366h4.9v5.1h-4.9"/><path d="m3754 1371h-0.15v-5.1h0.15"/><path d="m3754 1366h4.9v5.1h-4.9"/><path d="m3946 1366v-5.1"/><path d="m4e3 1361v5.1h-5.1"/><path d="m3946 1361h5.1"/><path d="m3941 1366h-0.01v-5.1h0.01"/><path d="m3941 1361h5.1v5.1h-5.1"/><path d="m3931 1366h-0.016v-5.1h0.015"/><path d="m3931 1361h5v5.1h-5"/><path d="m3926 1366h-0.019v-5.1h0.019"/><path d="m3926 1361h5v5.1h-5"/><path d="m3921 1366h-0.023v-5.1h0.023"/><path d="m3921 1361h5v5.1h-5"/><path d="m3900 1366h-0.039v-5.1h0.039"/><path d="m3900 1361h5v5.1h-5"/><path d="m3875 1366h-0.058v-5.1h5.1v5.1h-5"/><path d="m3855 1366h-0.073v-5.1h5.1v5.1h-5"/><path d="m3845 1366h-0.081v-5.1h0.081"/><path d="m3845 1361h5v5.1h-5"/><path d="m3835 1366h-0.089v-5.1h5.1v5.1h-5"/><path d="m3819 1366h-0.1v-5.1h0.1"/><path d="m3819 1361h5v5.1h-5"/><path d="m3799 1366h-0.12v-5.1h5.1v5.1h-4.9"/><path d="m3789 1366h-0.12v-5.1h5.1v5.1h-4.9"/><path d="m3774 1366h-0.14v-5.1h0.14"/><path d="m3774 1361h4.9v5.1h-4.9"/><path d="m3759 1366h-0.15v-5.1h0.15"/><path d="m3759 1361h4.9v5.1h-4.9"/><path d="m3905 1361h-0.035v-5.1h5.1v5.1h-5"/><path d="m3890 1361h-0.046v-5.1h0.046"/><path d="m3890 1356h5v5.1h-5"/><path d="m3880 1361h-0.054v-5.1h0.054"/><path d="m3880 1356h5v5.1h-5"/><path d="m3875 1361h-0.058v-5.1h5.1v5.1h-5"/><path d="m3865 1361h-0.066v-5.1h5.1v5.1h-5"/><path d="m3855 1361h-0.073v-5.1h5.1v5.1h-5"/><path d="m3850 1361h-0.077v-5.1h0.077"/><path d="m3850 1356h5v5.1h-5"/><path d="m3840 1361h-0.085v-5.1h0.085"/><path d="m3840 1356h5v5.1h-5"/><path d="m3835 1361h-0.089v-5.1h5.1v5.1h-5"/><path d="m3829 1361h-0.093v-5.1h0.093"/><path d="m3829 1356h5v5.1h-5"/><path d="m3804 1361h-0.11v-5.1h5.1v5.1h-5"/><path d="m3799 1361h-0.12v-5.1h0.12"/><path d="m3799 1356h4.9v5.1h-4.9"/><path d="m3794 1361h-0.12v-5.1h5.1v5.1h-4.9"/><path d="m3789 1361h-0.12v-5.1h0.12"/><path d="m3789 1356h4.9v5.1h-4.9"/><path d="m3946 1356v-5.1h5.1v5.1"/><path d="m4e3 1356h-5.1"/><path d="m3941 1356h-0.01v-5.1h0.01"/><path d="m3941 1351h5.1v5.1h-5.1"/><path d="m3936 1356h-0.012v-5.1h0.012"/><path d="m3936 1351h5.1v5.1h-5.1"/><path d="m3931 1356h-0.016v-5.1h0.015"/><path d="m3931 1351h5v5.1h-5"/><path d="m3926 1356h-0.019v-5.1h0.019"/><path d="m3926 1351h5v5.1h-5"/><path d="m3921 1356h-0.023v-5.1h0.023"/><path d="m3921 1351h5v5.1h-5"/><path d="m3915 1356h-0.027v-5.1h5.1v5.1h-5"/><path d="m3905 1356h-0.035v-5.1h5.1v5.1h-5"/><path d="m3895 1356h-0.043v-5.1h5.1v5.1h-5"/><path d="m3885 1356h-0.05v-5.1h0.05"/><path d="m3885 1351h5v5.1h-5"/><path d="m3875 1356h-0.058v-5.1h0.058"/><path d="m3875 1351h5v5.1h-5"/><path d="m3865 1356h-0.066v-5.1h5.1v5.1h-5"/><path d="m3855 1356h-0.073v-5.1h0.073"/><path d="m3855 1351h5v5.1h-5"/><path d="m3845 1356h-0.081v-5.1h5.1v5.1h-5"/><path d="m3835 1356h-0.089v-5.1h0.089"/><path d="m3835 1351h5v5.1h-5"/><path d="m3824 1356h-0.097v-5.1h5.1v5.1h-5"/><path d="m3814 1356h-0.1v-5.1h0.1"/><path d="m3814 1351h5v5.1h-5"/><path d="m3804 1356h-0.11v-5.1h0.11"/><path d="m3804 1351h5v5.1h-5"/><path d="m3794 1356h-0.12v-5.1h5.1v5.1h-4.9"/><path d="m3784 1356h-0.13v-5.1h5.1v5.1h-4.9"/><path d="m3774 1356h-0.14v-5.1h5.1v5.1h-4.9"/><path d="m3769 1356h-0.14v-5.1h0.14"/><path d="m3769 1351h4.9v5.1h-4.9"/><path d="m3764 1356h-0.14v-5.1h0.14"/><path d="m3764 1351h4.9v5.1h-4.9"/><path d="m3759 1356h-0.15v-5.1h0.15"/><path d="m3759 1351h4.9v5.1h-4.9"/><path d="m3754 1356h-0.15v-5.1h0.15"/><path d="m3754 1351h4.9v5.1h-4.9"/><path d="m3748 1356h-0.15v-5.1h0.15"/><path d="m3748 1351h4.9v5.1h-4.9"/><path d="m3743 1356h-0.16v-5.1h5.1v5.1h-4.9"/><path d="m3946 1351v-5.1h5.1v5.1h-5.1"/><path d="m3915 1351h-0.027v-5.1h5.1v5.1h-5"/><path d="m3905 1351h-0.035v-5.1h0.034"/><path d="m3905 1346h5v5.1h-5"/><path d="m3900 1351h-0.039v-5.1h0.039"/><path d="m3900 1346h5v5.1h-5"/><path d="m3895 1351h-0.043v-5.1h0.043"/><path d="m3895 1346h5v5.1h-5"/><path d="m3880 1351h-0.054v-5.1h5.1v5.1h-5"/><path d="m3865 1351h-0.066v-5.1h5.1v5.1h-5"/><path d="m3845 1351h-0.081v-5.1h0.081"/><path d="m3845 1346h5v5.1h-5"/><path d="m3824 1351h-0.097v-5.1h0.097"/><path d="m3824 1346h5v5.1h-5"/><path d="m3809 1351h-0.11v-5.1h5.1v5.1h-5"/><path d="m3799 1351h-0.12v-5.1h0.12"/><path d="m3799 1346h4.9v5.1h-4.9"/><path d="m3794 1351h-0.12v-5.1h5.1v5.1h-4.9"/><path d="m3784 1351h-0.13v-5.1h5.1v5.1h-4.9"/><path d="m3774 1351h-0.14v-5.1h5.1v5.1h-4.9"/><path d="m3743 1351h-0.16v-5.1h5.1v5.1h-4.9"/><path d="m3946 1346v-5.1h5.1v5.1h-5.1"/><path d="m3936 1346h-0.012v-5.1h5.1v5.1h-5.1"/><path d="m3931 1346h-0.016v-5.1h5.1v5.1h-5"/><path d="m3926 1346h-0.019v-5.1h5.1v5.1h-5"/><path d="m3915 1346h-0.027v-5.1h5.1v5.1h-5"/><path d="m3890 1346h-0.046v-5.1h5.1v5.1h-5"/><path d="m3885 1346h-0.05v-5.1h0.05"/><path d="m3885 1341h5v5.1h-5"/><path d="m3880 1346h-0.054v-5.1h0.054"/><path d="m3880 1341h5v5.1h-5"/><path d="m3875 1346h-0.058v-5.1h5.1v5.1h-5"/><path d="m3865 1346h-0.066v-5.1h5.1v5.1h-5"/><path d="m3860 1346h-0.07v-5.1h5.1v5.1h-5"/><path d="m3850 1346h-0.077v-5.1h0.077"/><path d="m3850 1341h5v5.1h-5"/><path d="m3840 1346h-0.085v-5.1h0.085"/><path d="m3840 1341h5v5.1h-5"/><path d="m3835 1346h-0.089v-5.1h5.1v5.1h-5"/><path d="m3814 1346h-0.1v-5.1h0.1"/><path d="m3814 1341h5v5.1h-5"/><path d="m3809 1346h-0.11v-5.1h0.11"/><path d="m3809 1341h5v5.1h-5"/><path d="m3794 1346h-0.12v-5.1h5.1v5.1h-4.9"/><path d="m3789 1346h-0.12v-5.1h5.1v5.1h-4.9"/><path d="m3784 1346h-0.13v-5.1h5.1v5.1h-4.9"/><path d="m3774 1346h-0.14v-5.1h5.1v5.1h-4.9"/><path d="m3764 1346h-0.14v-5.1h5.1v5.1h-4.9"/><path d="m3759 1346h-0.15v-5.1h5.1v5.1h-4.9"/><path d="m3754 1346h-0.15v-5.1h5.1v5.1h-4.9"/><path d="m3743 1346h-0.16v-5.1h5.1v5.1h-4.9"/><path d="m3946 1341v-5.1h5.1v5.1h-5.1"/><path d="m3936 1341h-0.012v-5.1h5.1v5.1h-5.1"/><path d="m3931 1341h-0.016v-5.1h5.1v5.1h-5"/><path d="m3926 1341h-0.019v-5.1h5.1v5.1h-5"/><path d="m3915 1341h-0.027v-5.1h5.1v5.1h-5"/><path d="m3900 1341h-0.039v-5.1h0.039"/><path d="m3900 1336h5v5.1h-5"/><path d="m3890 1341h-0.046v-5.1h5.1v5.1h-5"/><path d="m3875 1341h-0.058v-5.1h0.058"/><path d="m3875 1336h5v5.1h-5"/><path d="m3870 1341h-0.061v-5.1h5.1v5.1h-5"/><path d="m3865 1341h-0.066v-5.1h5.1v5.1h-5"/><path d="m3860 1341h-0.07v-5.1h5.1v5.1h-5"/><path d="m3855 1341h-0.073v-5.1h0.073"/><path d="m3855 1336h5v5.1h-5"/><path d="m3835 1341h-0.089v-5.1h5.1v5.1h-5"/><path d="m3824 1341h-0.097v-5.1h0.097"/><path d="m3824 1336h5v5.1h-5"/><path d="m3794 1341h-0.12v-5.1h0.12"/><path d="m3794 1336h4.9v5.1h-4.9"/><path d="m3789 1341h-0.12v-5.1h5.1v5.1h-4.9"/><path d="m3784 1341h-0.13v-5.1h0.13"/><path d="m3784 1336h4.9v5.1h-4.9"/><path d="m3774 1341h-0.14v-5.1h5.1v5.1h-4.9"/><path d="m3764 1341h-0.14v-5.1h5.1v5.1h-4.9"/><path d="m3759 1341h-0.15v-5.1h5.1v5.1h-4.9"/><path d="m3754 1341h-0.15v-5.1h5.1v5.1h-4.9"/><path d="m3743 1341h-0.16v-5.1h5.1v5.1h-4.9"/><path d="m3946 1336v-5.1h5.1v5.1h-5.1"/><path d="m3936 1336h-0.012v-5.1h0.012"/><path d="m3936 1330h5.1v5.1h-5.1"/><path d="m3931 1336h-0.016v-5.1h0.015"/><path d="m3931 1330h5v5.1h-5"/><path d="m3926 1336h-0.019v-5.1h0.019"/><path d="m3926 1330h5v5.1h-5"/><path d="m3915 1336h-0.027v-5.1h5.1v5.1h-5"/><path d="m3890 1336h-0.046v-5.1h5.1v5.1h-5"/><path d="m3870 1336h-0.061v-5.1h5.1v5.1h-5"/><path d="m3865 1336h-0.066v-5.1h0.066"/><path d="m3865 1330h5v5.1h-5"/><path d="m3860 1336h-0.07v-5.1h5.1v5.1h-5"/><path d="m3850 1336h-0.077v-5.1h5.1v5.1h-5"/><path d="m3835 1336h-0.089v-5.1h5.1v5.1h-5"/><path d="m3829 1336h-0.093v-5.1h5.1v5.1h-5"/><path d="m3814 1336h-0.1v-5.1h5.1v5.1h-5"/><path d="m3809 1336h-0.11v-5.1h0.11"/><path d="m3809 1330h5v5.1h-5"/><path d="m3789 1336h-0.12v-5.1h5.1v5.1h-4.9"/><path d="m3774 1336h-0.14v-5.1h5.1v5.1h-4.9"/><path d="m3764 1336h-0.14v-5.1h0.14"/><path d="m3764 1330h4.9v5.1h-4.9"/><path d="m3759 1336h-0.15v-5.1h0.15"/><path d="m3759 1330h4.9v5.1h-4.9"/><path d="m3754 1336h-0.15v-5.1h0.15"/><path d="m3754 1330h4.9v5.1h-4.9"/><path d="m3743 1336h-0.16v-5.1h5.1v5.1h-4.9"/><path d="m3946 1330v-5.1h5.1v5.1h-5.1"/><path d="m3915 1330h-0.027v-5.1h5.1v5.1h-5"/><path d="m3905 1330h-0.035v-5.1h0.034"/><path d="m3905 1325h5v5.1h-5"/><path d="m3890 1330h-0.046v-5.1h0.046"/><path d="m3890 1325h5v5.1h-5"/><path d="m3880 1330h-0.054v-5.1h5.1v5.1h-5"/><path d="m3875 1330h-0.058v-5.1h5.1v5.1h-5"/><path d="m3870 1330h-0.061v-5.1h5.1v5.1h-5"/><path d="m3860 1330h-0.07v-5.1h0.07"/><path d="m3860 1325h5v5.1h-5"/><path d="m3855 1330h-0.073v-5.1h0.073"/><path d="m3855 1325h5v5.1h-5"/><path d="m3850 1330h-0.077v-5.1h5.1v5.1h-5"/><path d="m3840 1330h-0.085v-5.1h0.085"/><path d="m3840 1325h5v5.1h-5"/><path d="m3835 1330h-0.089v-5.1h5.1v5.1h-5"/><path d="m3829 1330h-0.093v-5.1h0.093"/><path d="m3829 1325h5v5.1h-5"/><path d="m3824 1330h-0.097v-5.1h5.1v5.1h-5"/><path d="m3819 1330h-0.1v-5.1h0.1"/><path d="m3819 1325h5v5.1h-5"/><path d="m3814 1330h-0.1v-5.1h5.1v5.1h-5"/><path d="m3804 1330h-0.11v-5.1h0.11"/><path d="m3804 1325h5v5.1h-5"/><path d="m3789 1330h-0.12v-5.1h5.1v5.1h-4.9"/><path d="m3784 1330h-0.13v-5.1h5.1v5.1h-4.9"/><path d="m3774 1330h-0.14v-5.1h5.1v5.1h-4.9"/><path d="m3743 1330h-0.16v-5.1h5.1v5.1h-4.9"/><path d="m3946 1325v-5.1"/><path d="m4e3 1320v5.1h-5.1"/><path d="m3946 1320h5.1"/><path d="m3941 1325h-0.01v-5.1h0.01"/><path d="m3941 1320h5.1v5.1h-5.1"/><path d="m3936 1325h-0.012v-5.1h0.012"/><path d="m3936 1320h5.1v5.1h-5.1"/><path d="m3931 1325h-0.016v-5.1h0.015"/><path d="m3931 1320h5v5.1h-5"/><path d="m3926 1325h-0.019v-5.1h0.019"/><path d="m3926 1320h5v5.1h-5"/><path d="m3921 1325h-0.023v-5.1h0.023"/><path d="m3921 1320h5v5.1h-5"/><path d="m3915 1325h-0.027v-5.1h0.027"/><path d="m3915 1320h5v5.1h-5"/><path d="m3900 1325h-0.039v-5.1h0.039"/><path d="m3900 1320h5v5.1h-5"/><path d="m3895 1325h-0.043v-5.1h0.043"/><path d="m3895 1320h5v5.1h-5"/><path d="m3880 1325h-0.054v-5.1h0.054"/><path d="m3880 1320h5v5.1h-5"/><path d="m3875 1325h-0.058v-5.1h0.058"/><path d="m3875 1320h5v5.1h-5"/><path d="m3870 1325h-0.061v-5.1h0.061"/><path d="m3870 1320h5v5.1h-5"/><path d="m3865 1325h-0.066v-5.1h0.066"/><path d="m3865 1320h5v5.1h-5"/><path d="m3850 1325h-0.077v-5.1h0.077"/><path d="m3850 1320h5v5.1h-5"/><path d="m3845 1325h-0.081v-5.1h0.081"/><path d="m3845 1320h5v5.1h-5"/><path d="m3835 1325h-0.089v-5.1h0.089"/><path d="m3835 1320h5v5.1h-5"/><path d="m3824 1325h-0.097v-5.1h0.097"/><path d="m3824 1320h5v5.1h-5"/><path d="m3814 1325h-0.1v-5.1h0.1"/><path d="m3814 1320h5v5.1h-5"/><path d="m3809 1325h-0.11v-5.1h0.11"/><path d="m3809 1320h5v5.1h-5"/><path d="m3789 1325h-0.12v-5.1h0.12"/><path d="m3789 1320h4.9v5.1h-4.9"/><path d="m3784 1325h-0.13v-5.1h0.13"/><path d="m3784 1320h4.9v5.1h-4.9"/><path d="m3774 1325h-0.14v-5.1h0.14"/><path d="m3774 1320h4.9v5.1h-4.9"/><path d="m3769 1325h-0.14v-5.1h0.14"/><path d="m3769 1320h4.9v5.1h-4.9"/><path d="m3764 1325h-0.14v-5.1h0.14"/><path d="m3764 1320h4.9v5.1h-4.9"/><path d="m3759 1325h-0.15v-5.1h0.15"/><path d="m3759 1320h4.9v5.1h-4.9"/><path d="m3754 1325h-0.15v-5.1h0.15"/><path d="m3754 1320h4.9v5.1h-4.9"/><path d="m3748 1325h-0.15v-5.1h0.15"/><path d="m3748 1320h4.9v5.1h-4.9"/><path d="m3743 1325h-0.16v-5.1h0.16"/><path d="m3743 1320h4.9v5.1h-4.9"/></g><g transform="translate(631 44)"><rect x="3173" y="1337" width="86" height="86" fill="#fff6ec" style="paint-order:markers stroke fill"/><g transform="translate(-500 244)"><path class="UnoptimicedTransforms" transform="matrix(1.2 0 0 1.2 1400 691)" d="m1903 345c-1.7 14-7.5 41 1.9 41l3.8 0.024c6 0.039-7.6-0.88-3.9-23 7.8 6.3 20-5.2 10-9.3-3.4-1.2-5.4 0.43-4.1 3.4 0.49 1.1 1.3 1.5 2.6 0.99 2.4-0.84 4.4 0.91 2.8 2.5-2.7 2.8-11 2.3-11-5.9l0.69-5.7c6.7 1.9 17-4 19-8-1 0.53-4.9 2.6-7.6 3.2-2.7 0.59-12 1.3-15 0.35z" fill="#008744" style="paint-order:markers fill stroke"/><path d="m3731 1103c-6.9 0-13 1.1-17 2.8-5.7 2.2-9.8 5.4-13 8.9-4.1 4.8-6.1 10-7.1 14s-0.95 7.2-0.95 7.3v32c-6e-4 0.069 0.052 0.12 0.12 0.13h46c0.068-4e-4 0.12-0.061 0.12-0.13l-0.044-0.81c-0.43-7.9-4.3-13-8.8-17s-9.5-5.1-12-5.7c-1.8-0.44-3.3-1.8-3.8-3.6-0.43-1.5-0.15-2.8 0.33-3.9 0.47-1.1 1.1-1.9 1.5-2.3 1.1 0.33 2.2 0.52 3.3 0.52 1.2 0 2.6-0.31 3.8-0.73l0.46 0.81c1.4 2.4 3 3.4 4.3 3.8 1.5 0.43 2.7 0.049 3.4-0.18 1.5 1.1 2.2 0.97 3.2 1 1.2 0.041 1.8-0.51 2.6-1.1 0.72-0.56 0.94-0.5 1.8-2.1 0.9-1.6 0.97-3.4 0.012-5.1l-9.9-19-1.6 0.84 9.9 19c1.1 2.6-0.45 0.42-1.6 0.4-1.2 0-2.2 0.99-2.2 2.2 0 1.2 0.98 2.2 2.2 2.2 0.37 0 0.67-0.19 0.97-0.38 0.03-0.017 0.061-0.035 0.09-0.053-0.39 0.69-1.5 1.4-2.4 1.5-0.66 0.053-0.93-0.048-1.8-0.75l-0.58-0.64-0.039-0.074c-0.03-0.058-0.1-0.081-0.16-0.052l0.062-0.033-2.4-3c-0.041-0.05-0.11-0.057-0.16-0.014l-1.2 1c-0.052 0.045-0.058 0.13-0.013 0.18l1.9 2.4c-0.45 0.061-0.96 0.11-1.6-0.074-1.1-0.31-2.2-1.1-3.3-3l-1.2-2c-0.029-0.053-0.091-0.076-0.15-0.053l-0.63 0.26c-1.2 0.48-2.7 0.86-3.9 0.86-1.1 0-2.2-0.2-3.2-0.55l-0.52-0.2c-0.16-0.068-0.31-0.14-0.46-0.21l-0.07-0.035c-3.4-1.7-5.8-5.5-5.8-9.8v-0.77c-7e-4 -0.068-0.053-0.12-0.12-0.12h-1.5c-0.064 4e-4 -0.12 0.055-0.12 0.12v0.77c0 4.8 2.5 8.9 6.1 11 0.012 0.034 0.032 0.063 0.062 0.079l0.58 0.29c-1.1 1.4-2.8 4.1-1.8 7.4 0.71 2.5 2.7 4.3 5.1 4.9 2.5 0.63 7.1 2.1 11 5.1 4.1 3 7.7 7.6 8.4 15h-43v-30c0-0.012-0.17-11 7.6-20 3.1-3.7 7.6-7 14-9 3.6-1.1 7.7-1.9 13-2l-3.4 3.6c-0.038 0.039-0.046 0.1-0.021 0.15l0.067 0.13 2.6-0.49 4.8-5c0.074-0.079 0.021-0.21-0.084-0.21zm-8.8 13-0.77 0.012c-0.066 5e-4 -0.12 0.056-0.12 0.12l0.012 1.5c8e-4 0.068 0.053 0.12 0.12 0.12h0.77s0.37 0.012 0.84 0.053c0.017 0.48 0.062 1.1 0.23 1.8 0.25 0.97 0.73 2 1.6 2.7 0.93 0.75 2.3 1.2 4.4 0.77l0.69-0.14c0.061-0.012 0.1-0.072 0.095-0.14l-0.078-0.7c-0.23-2.1-0.9-3.1-1.1-3.3-0.74-1.1-2-1.8-3.2-2.2-0.29-0.093-0.57-0.17-0.85-0.23-0.16-0.035-0.24-0.051-0.28-0.061-0.021 0-0.03-0.012-0.039-0.012 0-9e-4 -0.021 0-0.021 0 0-6e-4 -0.012 0-0.021 0-0.038-0.012-0.12-0.022-0.27-0.053l-0.012-0.012c-1.1-0.2-1.9-0.19-1.9-0.19zm2.2 0.27 0.049 0.11-0.072-0.096c-1e-4 0 0.012-0.012 0.023-0.012zm0.46 1.9c0.079 0.023 0.16 0.045 0.24 0.07 0.88 0.29 1.8 0.75 2.3 1.5l0.012 0.012 0.097 0.13s0.32 0.57 0.55 1.5c-0.89 0.049-1.5-0.14-2-0.51-0.55-0.45-0.84-1.1-1-1.7-0.087-0.34-0.12-0.67-0.15-0.96zm11 17c0.22 0 0.38 0.2 0.38 0.43 0 0.24-0.16 0.43-0.38 0.43-0.22 0-0.38-0.2-0.38-0.43 0-0.24 0.16-0.43 0.38-0.43z" color="#000000" fill="#004221" style="-inkscape-stroke:none"/></g></g></g></svg>
