<?xml version="1.0" encoding="UTF-8" standalone="no"?>
<!DOCTYPE svg PUBLIC "-//W3C//DTD SVG 1.1//EN" "http://www.w3.org/Graphics/SVG/1.1/DTD/svg11.dtd">
<svg width="100%" height="100%" viewBox="0 0 4033 2010" version="1.1" xmlns="http://www.w3.org/2000/svg" xmlns:xlink="http://www.w3.org/1999/xlink" xml:space="preserve" xmlns:serif="http://www.serif.com/" style="fill-rule:evenodd;clip-rule:evenodd;stroke-linejoin:round;stroke-miterlimit:2;">
    <g transform="matrix(1,0,0,1,-8504.220084,-32798.415365)">
        <g transform="matrix(1,0,0,0.714286,10073.566554,24490.205122)">
            <g transform="matrix(27.825957,0,0,40.811201,-7283.583211,-32901.746177)">
                <path d="M231.302,1125.076C230.44,1125.942 228.195,1128.587 229.171,1131.832C229.771,1133.824 231.472,1135.287 233.495,1135.768C239.576,1137.211 255.881,1142.669 256.828,1159.251L256.878,1160.116L205.375,1160.116L205.375,1126.526C205.372,1126.347 205.226,1113.74 214.248,1103.642C220.284,1096.887 230.42,1091.219 247.493,1091.219L249.502,1091.219L243.454,1097.267L257.443,1122.739C258.499,1124.565 258.813,1126.769 258.141,1128.769C257.555,1130.513 256.274,1132.072 253.613,1132.052C251.665,1132.039 249.827,1131.141 248.513,1129.706C247.79,1129.949 246.368,1130.269 244.718,1129.808C243.21,1129.385 241.473,1128.307 239.964,1125.793L239.402,1124.854C238.035,1125.314 236.438,1125.64 235.058,1125.64C233.751,1125.64 232.49,1125.442 231.302,1125.076ZM255.339,1127.051C255.339,1126.733 255.103,1126.458 254.786,1126.458C254.469,1126.458 254.232,1126.733 254.232,1127.051C254.232,1127.368 254.469,1127.643 254.786,1127.643C255.103,1127.643 255.339,1127.368 255.339,1127.051ZM256.736,1125.904C256.637,1125.073 256.359,1124.258 255.93,1123.518L241.358,1096.985L245.456,1092.888C230.292,1093.314 221.104,1098.497 215.556,1104.707C206.9,1114.395 207.094,1126.502 207.094,1126.509L207.094,1158.476L255.047,1158.476C253.647,1143.567 238.689,1138.691 233.08,1137.36L233.079,1137.36C230.475,1136.741 228.291,1134.85 227.519,1132.286C226.464,1128.78 228.42,1125.831 229.627,1124.429L229.618,1124.425C229.59,1124.411 229.561,1124.398 229.533,1124.384L228.849,1124.063L228.862,1124.037C224.824,1121.796 222.07,1117.423 222.07,1112.386L222.07,1111.566L223.789,1111.566L223.789,1112.386C223.789,1117.039 226.445,1121.062 230.3,1122.916L230.38,1122.953C230.553,1123.035 230.729,1123.112 230.906,1123.185L231.116,1123.006L231.489,1123.403C232.609,1123.789 233.809,1123.999 235.058,1123.999C236.474,1123.999 238.15,1123.594 239.454,1123.078L240.154,1122.802L241.456,1124.978C242.66,1126.984 243.998,1127.896 245.202,1128.233C246.013,1128.46 246.745,1128.425 247.286,1128.328L244.586,1125.29L245.896,1124.229L248.964,1127.68L248.986,1127.669L249.036,1127.76L249.745,1128.557C250.737,1129.674 252.132,1130.401 253.626,1130.412L253.626,1130.412C255.125,1130.423 255.919,1129.626 256.345,1128.674C255.937,1129.053 255.386,1129.284 254.786,1129.284C253.543,1129.284 252.513,1128.294 252.513,1127.051C252.513,1125.807 253.543,1124.817 254.786,1124.817C255.608,1124.817 256.337,1125.25 256.736,1125.904ZM239.851,1105.48L240.574,1105.542L240.567,1105.619C240.872,1105.686 241.186,1105.768 241.501,1105.866C242.839,1106.283 244.167,1107.002 244.961,1108.159C245.204,1108.421 245.944,1109.387 246.203,1111.626L246.288,1112.369L245.521,1112.519C243.28,1112.96 241.787,1112.506 240.782,1111.729C239.836,1110.999 239.309,1109.949 239.039,1108.94C238.842,1108.205 238.781,1107.498 238.768,1106.989C238.139,1106.923 237.718,1106.925 237.718,1106.925L236.858,1106.93L236.847,1105.29L237.707,1105.284C237.707,1105.284 238.637,1105.278 239.851,1105.48ZM240.502,1107.294C240.527,1107.654 240.585,1108.087 240.704,1108.533C240.889,1109.222 241.218,1109.956 241.863,1110.454C242.434,1110.895 243.241,1111.125 244.367,1111.028C244.104,1109.813 243.663,1109.236 243.663,1109.236L244.282,1109.488L243.554,1109.104C242.98,1108.23 241.962,1107.736 240.968,1107.426C240.812,1107.377 240.656,1107.333 240.502,1107.294ZM271.108,1112.505L275.973,1099.717L279.1,1099.717L284.036,1112.505L280.926,1112.505L279.887,1109.789L274.934,1109.789L274.043,1112.505L271.108,1112.505ZM279.249,1107.64L277.816,1103.508C277.776,1103.386 277.723,1103.176 277.659,1102.879C277.595,1102.582 277.528,1102.218 277.458,1101.787C277.382,1102.201 277.31,1102.572 277.24,1102.901C277.17,1103.23 277.118,1103.45 277.083,1103.561L275.703,1107.64L279.249,1107.64ZM284.56,1110.88L286.08,1109.159C286.272,1109.631 286.581,1110.002 287.006,1110.273C287.431,1110.544 287.908,1110.679 288.438,1110.679C289.079,1110.679 289.586,1110.528 289.958,1110.225C290.331,1109.922 290.517,1109.514 290.517,1109.002C290.517,1108.396 289.897,1107.794 288.657,1107.194C288.255,1107.002 287.938,1106.844 287.705,1106.722C286.587,1106.14 285.812,1105.571 285.381,1105.014C284.95,1104.458 284.735,1103.796 284.735,1103.027C284.735,1101.973 285.153,1101.107 285.988,1100.428C286.824,1099.75 287.908,1099.411 289.242,1099.411C290.017,1099.411 290.685,1099.546 291.247,1099.817C291.809,1100.088 292.305,1100.511 292.736,1101.088L291.12,1102.634C290.928,1102.261 290.673,1101.983 290.356,1101.8C290.038,1101.616 289.655,1101.525 289.207,1101.525C288.666,1101.525 288.229,1101.66 287.897,1101.931C287.565,1102.202 287.399,1102.553 287.399,1102.983C287.399,1103.659 288.057,1104.276 289.373,1104.835C289.635,1104.946 289.836,1105.033 289.976,1105.097C291.059,1105.592 291.861,1106.151 292.382,1106.774C292.904,1107.398 293.164,1108.108 293.164,1108.906C293.164,1110.106 292.755,1111.062 291.937,1111.775C291.119,1112.489 290.02,1112.845 288.639,1112.845C287.661,1112.845 286.823,1112.676 286.124,1112.339C285.425,1112.001 284.904,1111.515 284.56,1110.88ZM295.401,1112.505L295.401,1099.717L298.886,1099.717C300.261,1099.717 301.344,1099.813 302.136,1100.005C302.928,1100.197 303.624,1100.518 304.223,1100.966C304.998,1101.542 305.585,1102.269 305.984,1103.145C306.382,1104.022 306.582,1105.019 306.582,1106.137C306.582,1107.273 306.378,1108.279 305.97,1109.155C305.563,1110.032 304.966,1110.755 304.18,1111.326C303.597,1111.745 302.949,1112.046 302.236,1112.23C301.523,1112.413 300.479,1112.505 299.105,1112.505L295.401,1112.505ZM298.135,1110.199L299.655,1110.199C301.087,1110.199 302.131,1109.873 302.786,1109.221C303.442,1108.569 303.769,1107.535 303.769,1106.12C303.769,1104.71 303.442,1103.678 302.786,1103.023C302.131,1102.368 301.087,1102.04 299.655,1102.04L298.135,1102.04L298.135,1110.199ZM271.807,1130.42L273.327,1128.7C273.519,1129.172 273.828,1129.543 274.253,1129.814C274.678,1130.084 275.155,1130.22 275.686,1130.22C276.326,1130.22 276.833,1130.068 277.205,1129.765C277.578,1129.463 277.764,1129.055 277.764,1128.543C277.764,1127.937 277.144,1127.334 275.904,1126.735C275.502,1126.543 275.185,1126.385 274.952,1126.262C273.834,1125.68 273.059,1125.111 272.628,1124.555C272.197,1123.999 271.982,1123.336 271.982,1122.568C271.982,1121.514 272.4,1120.648 273.235,1119.968C274.071,1119.291 275.155,1118.952 276.489,1118.952C277.264,1118.952 277.932,1119.086 278.494,1119.358C279.056,1119.629 279.552,1120.052 279.983,1120.629L278.367,1122.175C278.175,1121.802 277.92,1121.523 277.603,1121.341C277.285,1121.157 276.903,1121.065 276.454,1121.065C275.913,1121.065 275.476,1121.2 275.144,1121.472C274.812,1121.743 274.646,1122.093 274.646,1122.524C274.646,1123.2 275.304,1123.816 276.62,1124.376C276.882,1124.486 277.083,1124.573 277.223,1124.638C278.306,1125.133 279.108,1125.691 279.629,1126.314C280.15,1126.939 280.411,1127.649 280.411,1128.447C280.411,1129.646 280.002,1130.602 279.184,1131.315C278.366,1132.03 277.267,1132.386 275.886,1132.386C274.908,1132.386 274.069,1132.218 273.371,1131.88C272.672,1131.542 272.151,1131.055 271.807,1130.42ZM292.946,1122.585C292.393,1122.09 291.825,1121.728 291.242,1121.497C290.66,1121.268 290.037,1121.152 289.373,1121.152C288.011,1121.152 286.924,1121.56 286.115,1122.375C285.306,1123.191 284.901,1124.286 284.901,1125.66C284.901,1127.005 285.277,1128.072 286.028,1128.861C286.779,1129.65 287.804,1130.045 289.102,1130.045C289.842,1130.045 290.529,1129.921 291.164,1129.674C291.798,1129.426 292.387,1129.055 292.928,1128.56L292.911,1131.364C292.329,1131.708 291.719,1131.964 291.081,1132.133C290.443,1132.301 289.772,1132.386 289.067,1132.386C287.029,1132.386 285.356,1131.753 284.049,1130.486C282.742,1129.219 282.088,1127.611 282.088,1125.66C282.088,1123.715 282.743,1122.11 284.053,1120.847C285.364,1119.583 287.053,1118.951 289.12,1118.951C289.813,1118.951 290.483,1119.024 291.129,1119.17C291.775,1119.315 292.413,1119.539 293.042,1119.842L292.946,1122.585ZM293.968,1132.045L298.833,1119.257L301.96,1119.257L306.896,1132.045L303.786,1132.045L302.747,1129.329L297.794,1129.329L296.903,1132.045L293.968,1132.045ZM302.109,1127.18L300.676,1123.048C300.636,1122.926 300.583,1122.716 300.519,1122.419C300.455,1122.122 300.388,1121.758 300.318,1121.327C300.242,1121.741 300.17,1122.112 300.1,1122.441C300.03,1122.77 299.978,1122.99 299.943,1123.101L298.563,1127.18L302.109,1127.18ZM318.226,1122.585C317.673,1122.09 317.105,1121.728 316.523,1121.497C315.94,1121.268 315.317,1121.152 314.653,1121.152C313.291,1121.152 312.204,1121.56 311.395,1122.375C310.586,1123.191 310.181,1124.286 310.181,1125.66C310.181,1127.005 310.556,1128.072 311.308,1128.861C312.059,1129.65 313.084,1130.045 314.382,1130.045C315.122,1130.045 315.809,1129.921 316.444,1129.674C317.079,1129.426 317.667,1129.055 318.209,1128.56L318.191,1131.364C317.609,1131.708 316.999,1131.964 316.361,1132.133C315.723,1132.301 315.052,1132.386 314.347,1132.386C312.309,1132.386 310.636,1131.753 309.329,1130.486C308.022,1129.219 307.368,1127.611 307.368,1125.66C307.368,1123.715 308.023,1122.11 309.334,1120.847C310.644,1119.583 312.333,1118.951 314.4,1118.951C315.093,1118.951 315.763,1119.024 316.409,1119.17C317.055,1119.315 317.693,1119.539 318.322,1119.842L318.226,1122.585ZM331.066,1122.585C330.513,1122.09 329.945,1121.728 329.363,1121.497C328.78,1121.268 328.157,1121.152 327.493,1121.152C326.131,1121.152 325.044,1121.56 324.235,1122.375C323.426,1123.191 323.021,1124.286 323.021,1125.66C323.021,1127.005 323.396,1128.072 324.148,1128.861C324.899,1129.65 325.924,1130.045 327.222,1130.045C327.962,1130.045 328.649,1129.921 329.284,1129.674C329.919,1129.426 330.507,1129.055 331.049,1128.56L331.031,1131.364C330.449,1131.708 329.839,1131.964 329.201,1132.133C328.563,1132.301 327.892,1132.386 327.187,1132.386C325.149,1132.386 323.476,1131.753 322.169,1130.486C320.862,1129.219 320.208,1127.611 320.208,1125.66C320.208,1123.715 320.863,1122.11 322.174,1120.847C323.484,1119.583 325.173,1118.951 327.24,1118.951C327.933,1118.951 328.603,1119.024 329.249,1119.17C329.895,1119.315 330.533,1119.539 331.162,1119.842L331.066,1122.585ZM333.608,1132.045L333.608,1119.257L336.342,1119.257L336.342,1124.384L341.889,1124.384L341.889,1119.257L344.623,1119.257L344.623,1132.045L341.889,1132.045L341.889,1126.699L336.342,1126.699L336.342,1132.045L333.608,1132.045ZM350.257,1119.257L350.257,1132.045L347.523,1132.045L347.523,1119.257L350.257,1119.257ZM272.628,1151.585L272.628,1138.797L280.158,1138.797L280.158,1141.103L275.362,1141.103L275.362,1143.732L280.158,1143.732L280.158,1146.056L275.362,1146.056L275.362,1151.585L272.628,1151.585ZM282.272,1151.585L282.272,1138.797L289.802,1138.797L289.802,1141.103L285.006,1141.103L285.006,1143.732L289.802,1143.732L289.802,1146.056L285.006,1146.056L285.006,1149.261L289.802,1149.261L289.802,1151.585L282.272,1151.585ZM301.733,1151.585L298.58,1151.585L295.217,1145.611L295.217,1151.585L292.483,1151.585L292.483,1138.797L296.396,1138.797C297.951,1138.797 299.116,1139.099 299.89,1139.701C300.665,1140.304 301.052,1141.211 301.052,1142.422C301.052,1143.302 300.787,1144.053 300.257,1144.676C299.727,1145.299 299.043,1145.663 298.204,1145.768L301.733,1151.585ZM295.217,1144.248L295.628,1144.248C296.734,1144.248 297.465,1144.127 297.82,1143.885C298.175,1143.644 298.353,1143.223 298.353,1142.623C298.353,1141.994 298.162,1141.547 297.781,1141.282C297.399,1141.017 296.681,1140.885 295.628,1140.885L295.217,1140.885L295.217,1144.248ZM302.214,1151.585L304.162,1138.797L307.027,1138.797L309.49,1146.326C309.543,1146.484 309.599,1146.714 309.661,1147.016C309.722,1147.319 309.779,1147.666 309.831,1148.056C309.877,1147.66 309.93,1147.306 309.988,1146.995C310.046,1146.683 310.102,1146.455 310.154,1146.309L312.661,1138.797L315.483,1138.797L317.439,1151.585L314.845,1151.585L313.91,1143.872C313.84,1143.301 313.794,1142.87 313.771,1142.579C313.747,1142.288 313.736,1142.017 313.736,1141.767C313.736,1141.633 313.737,1141.532 313.74,1141.465C313.743,1141.398 313.747,1141.339 313.753,1141.286C313.666,1141.787 313.583,1142.22 313.504,1142.583C313.426,1142.947 313.354,1143.223 313.29,1143.409L310.582,1151.585L309.045,1151.585L306.381,1143.409C306.357,1143.333 306.306,1143.124 306.228,1142.78C306.149,1142.436 306.04,1141.936 305.9,1141.278L305.9,1141.653C305.9,1142.247 305.848,1142.975 305.743,1143.837L305.734,1143.872L304.808,1151.585L302.214,1151.585ZM332.306,1145.217C332.306,1146.132 332.136,1146.997 331.795,1147.812C331.455,1148.627 330.964,1149.343 330.324,1149.961C329.66,1150.595 328.911,1151.082 328.079,1151.419C327.246,1151.757 326.384,1151.926 325.493,1151.926C324.713,1151.926 323.948,1151.794 323.2,1151.529C322.452,1151.264 321.766,1150.884 321.143,1150.389C320.339,1149.748 319.723,1148.982 319.295,1148.091C318.867,1147.2 318.653,1146.243 318.653,1145.217C318.653,1144.297 318.822,1143.434 319.16,1142.628C319.498,1141.821 319.993,1141.103 320.645,1140.474C321.286,1139.851 322.029,1139.368 322.877,1139.024C323.724,1138.681 324.596,1138.509 325.493,1138.509C326.384,1138.509 327.25,1138.681 328.092,1139.024C328.933,1139.368 329.677,1139.851 330.324,1140.474C330.97,1141.103 331.462,1141.823 331.8,1142.632C332.137,1143.441 332.306,1144.303 332.306,1145.217ZM325.493,1149.489C326.652,1149.489 327.608,1149.083 328.363,1148.27C329.117,1147.458 329.494,1146.44 329.494,1145.217C329.494,1144.006 329.112,1142.987 328.349,1142.16C327.586,1141.333 326.634,1140.92 325.493,1140.92C324.334,1140.92 323.373,1141.332 322.61,1142.156C321.847,1142.98 321.466,1144 321.466,1145.217C321.466,1146.452 321.842,1147.473 322.593,1148.279C323.344,1149.086 324.311,1149.489 325.493,1149.489Z" style="fill:rgb(35,31,32);stroke:white;stroke-width:0.04px;"/>
            </g>
        </g>
    </g>
</svg>
