<?xml version="1.0" encoding="UTF-8" standalone="no"?>
<!DOCTYPE svg PUBLIC "-//W3C//DTD SVG 1.1//EN" "http://www.w3.org/Graphics/SVG/1.1/DTD/svg11.dtd">
<svg width="100%" height="100%" viewBox="0 0 3312 4786" version="1.1" xmlns="http://www.w3.org/2000/svg" xmlns:xlink="http://www.w3.org/1999/xlink" xml:space="preserve" xmlns:serif="http://www.serif.com/" style="fill-rule:evenodd;clip-rule:evenodd;stroke-linejoin:round;stroke-miterlimit:2;">
    <g transform="matrix(1,0,0,1,-8864.488399,-31410.200461)">
        <g transform="matrix(1,0,0,0.714286,10073.566554,24490.205122)">
            <g transform="matrix(40.542163,0,0,59.461544,-10450.370267,-53029.722351)">
                <path d="M268.156,1088.619C267.294,1089.484 265.049,1092.13 266.025,1095.375C266.625,1097.366 268.326,1098.829 270.349,1099.31C276.43,1100.754 292.735,1106.211 293.682,1122.794L293.732,1123.659L242.229,1123.659L242.229,1122.838L242.229,1090.068C242.226,1089.889 242.08,1077.283 251.102,1067.185C257.138,1060.429 267.274,1054.761 284.347,1054.761L286.356,1054.761L280.308,1060.809L294.297,1086.281C295.353,1088.108 295.667,1090.311 294.995,1092.311C294.409,1094.055 293.128,1095.614 290.467,1095.595C288.519,1095.581 286.681,1094.683 285.367,1093.249C284.644,1093.492 283.222,1093.812 281.572,1093.35C280.064,1092.927 278.327,1091.85 276.818,1089.335L276.256,1088.396C274.889,1088.856 273.292,1089.182 271.912,1089.182C270.605,1089.182 269.344,1088.985 268.156,1088.619ZM292.193,1090.593C292.193,1090.276 291.957,1090 291.64,1090C291.323,1090 291.086,1090.276 291.086,1090.593C291.086,1090.91 291.323,1091.185 291.64,1091.185C291.957,1091.185 292.193,1090.91 292.193,1090.593ZM293.59,1089.446C293.491,1088.615 293.213,1087.8 292.784,1087.06L278.212,1060.528L282.31,1056.43C267.146,1056.856 257.958,1062.039 252.41,1068.249C243.754,1077.937 243.948,1090.045 243.948,1090.051L243.948,1122.018L291.901,1122.018C290.501,1107.11 275.543,1102.234 269.934,1100.903L269.933,1100.903C267.328,1100.283 265.145,1098.392 264.373,1095.828C263.318,1092.323 265.274,1089.373 266.481,1087.971L266.472,1087.967C266.444,1087.954 266.415,1087.94 266.387,1087.927L265.703,1087.605L265.716,1087.58C261.678,1085.339 258.924,1080.965 258.924,1075.928L258.924,1075.108L260.643,1075.108L260.643,1075.928C260.643,1080.582 263.299,1084.604 267.154,1086.458L267.234,1086.496C267.407,1086.577 267.583,1086.654 267.76,1086.727L267.97,1086.548L268.343,1086.946C269.463,1087.331 270.663,1087.541 271.912,1087.541C273.328,1087.541 275.004,1087.136 276.308,1086.621L277.008,1086.344L278.31,1088.52C279.514,1090.527 280.852,1091.438 282.056,1091.775C282.867,1092.002 283.599,1091.967 284.14,1091.87L281.44,1088.833L282.75,1087.771L285.818,1091.222L285.84,1091.211L285.89,1091.302L286.599,1092.1C287.591,1093.216 288.986,1093.944 290.48,1093.954L290.48,1093.954C291.979,1093.965 292.773,1093.168 293.199,1092.217C292.791,1092.595 292.24,1092.826 291.64,1092.826C290.397,1092.826 289.367,1091.836 289.367,1090.593C289.367,1089.35 290.397,1088.359 291.64,1088.359C292.462,1088.359 293.191,1088.793 293.59,1089.446ZM276.705,1069.022L277.428,1069.084L277.421,1069.161C277.726,1069.229 278.04,1069.31 278.355,1069.408C279.693,1069.825 281.021,1070.544 281.815,1071.701C282.058,1071.963 282.798,1072.929 283.057,1075.168L283.142,1075.911L282.375,1076.062C280.134,1076.502 278.641,1076.048 277.636,1075.272C276.69,1074.542 276.163,1073.492 275.893,1072.482C275.696,1071.747 275.635,1071.041 275.622,1070.531C274.993,1070.465 274.572,1070.468 274.572,1070.468L273.712,1070.473L273.701,1068.832L274.561,1068.827C274.561,1068.827 275.491,1068.821 276.705,1069.022ZM277.356,1070.836C277.381,1071.197 277.439,1071.63 277.558,1072.076C277.743,1072.764 278.072,1073.498 278.717,1073.996C279.288,1074.437 280.095,1074.668 281.221,1074.571C280.958,1073.355 280.517,1072.779 280.517,1072.779L281.136,1073.031L280.408,1072.646C279.834,1071.772 278.815,1071.278 277.822,1070.968C277.666,1070.92 277.51,1070.876 277.356,1070.836ZM227.943,1145.048L229.526,1143.256C229.725,1143.748 230.047,1144.134 230.49,1144.416C230.932,1144.698 231.429,1144.839 231.982,1144.839C232.648,1144.839 233.176,1144.682 233.564,1144.366C233.952,1144.051 234.146,1143.626 234.146,1143.093C234.146,1142.462 233.5,1141.835 232.209,1141.21C231.79,1141.01 231.46,1140.845 231.218,1140.718C230.054,1140.112 229.246,1139.519 228.798,1138.94C228.349,1138.361 228.125,1137.672 228.125,1136.871C228.125,1135.773 228.56,1134.871 229.43,1134.164C230.3,1133.458 231.429,1133.105 232.818,1133.105C233.625,1133.105 234.321,1133.246 234.906,1133.528C235.491,1133.81 236.008,1134.251 236.457,1134.852L234.774,1136.462C234.574,1136.073 234.308,1135.784 233.978,1135.593C233.647,1135.401 233.249,1135.307 232.782,1135.307C232.218,1135.307 231.763,1135.447 231.418,1135.729C231.072,1136.012 230.899,1136.377 230.899,1136.825C230.899,1137.529 231.584,1138.171 232.955,1138.753C233.227,1138.869 233.437,1138.96 233.583,1139.026C234.71,1139.542 235.545,1140.124 236.088,1140.773C236.631,1141.422 236.902,1142.162 236.902,1142.993C236.902,1144.242 236.476,1145.238 235.625,1145.98C234.773,1146.724 233.628,1147.094 232.19,1147.094C231.172,1147.094 230.298,1146.92 229.571,1146.568C228.843,1146.216 228.301,1145.709 227.943,1145.048ZM249.955,1136.889C249.38,1136.374 248.788,1135.997 248.181,1135.756C247.575,1135.518 246.926,1135.397 246.235,1135.397C244.817,1135.397 243.685,1135.822 242.842,1136.67C242,1137.52 241.578,1138.66 241.578,1140.091C241.578,1141.492 241.97,1142.603 242.752,1143.424C243.534,1144.246 244.601,1144.657 245.953,1144.657C246.723,1144.657 247.439,1144.528 248.1,1144.271C248.76,1144.013 249.373,1143.626 249.937,1143.111L249.919,1146.031C249.313,1146.389 248.678,1146.656 248.013,1146.832C247.349,1147.006 246.65,1147.095 245.916,1147.095C243.794,1147.095 242.052,1146.436 240.691,1145.116C239.33,1143.797 238.649,1142.123 238.649,1140.091C238.649,1138.066 239.331,1136.394 240.695,1135.079C242.06,1133.763 243.819,1133.105 245.971,1133.105C246.693,1133.105 247.391,1133.181 248.063,1133.333C248.736,1133.484 249.4,1133.717 250.055,1134.033L249.955,1136.889ZM251.02,1146.74L256.086,1133.423L259.342,1133.423L264.482,1146.74L261.244,1146.74L260.162,1143.911L255.004,1143.911L254.076,1146.74L251.02,1146.74ZM259.497,1141.674L258.005,1137.371C257.963,1137.244 257.908,1137.025 257.842,1136.716C257.775,1136.407 257.705,1136.027 257.632,1135.579C257.553,1136.01 257.478,1136.396 257.405,1136.739C257.332,1137.081 257.278,1137.31 257.242,1137.426L255.805,1141.674L259.497,1141.674ZM276.28,1136.889C275.704,1136.374 275.112,1135.997 274.506,1135.756C273.899,1135.518 273.25,1135.397 272.559,1135.397C271.141,1135.397 270.009,1135.822 269.166,1136.67C268.324,1137.52 267.902,1138.66 267.902,1140.091C267.902,1141.492 268.293,1142.603 269.076,1143.424C269.858,1144.246 270.925,1144.657 272.277,1144.657C273.047,1144.657 273.763,1144.528 274.424,1144.271C275.085,1144.013 275.697,1143.626 276.262,1143.111L276.243,1146.031C275.637,1146.389 275.002,1146.656 274.338,1146.832C273.673,1147.006 272.974,1147.095 272.24,1147.095C270.118,1147.095 268.376,1146.436 267.015,1145.116C265.654,1143.797 264.973,1142.123 264.973,1140.091C264.973,1138.066 265.655,1136.394 267.02,1135.079C268.384,1133.763 270.143,1133.105 272.295,1133.105C273.017,1133.105 273.715,1133.181 274.387,1133.333C275.06,1133.484 275.725,1133.717 276.38,1134.033L276.28,1136.889ZM289.651,1136.889C289.075,1136.374 288.483,1135.997 287.877,1135.756C287.27,1135.518 286.622,1135.397 285.93,1135.397C284.512,1135.397 283.38,1135.822 282.538,1136.67C281.695,1137.52 281.273,1138.66 281.273,1140.091C281.273,1141.492 281.664,1142.603 282.447,1143.424C283.229,1144.246 284.296,1144.657 285.648,1144.657C286.419,1144.657 287.134,1144.528 287.795,1144.271C288.456,1144.013 289.069,1143.626 289.633,1143.111L289.614,1146.031C289.008,1146.389 288.373,1146.656 287.709,1146.832C287.044,1147.006 286.346,1147.095 285.611,1147.095C283.489,1147.095 281.747,1146.436 280.386,1145.116C279.025,1143.797 278.344,1142.123 278.344,1140.091C278.344,1138.066 279.026,1136.394 280.391,1135.079C281.755,1133.763 283.514,1133.105 285.667,1133.105C286.388,1133.105 287.086,1133.181 287.759,1133.333C288.431,1133.484 289.096,1133.717 289.751,1134.033L289.651,1136.889ZM292.298,1146.74L292.298,1133.424L295.145,1133.424L295.145,1138.763L300.921,1138.763L300.921,1133.424L303.768,1133.424L303.768,1146.74L300.921,1146.74L300.921,1141.173L295.145,1141.173L295.145,1146.74L292.298,1146.74ZM309.635,1133.423L309.635,1146.74L306.788,1146.74L306.788,1133.423L309.635,1133.423ZM237.717,1167.088L237.717,1153.771L245.558,1153.771L245.558,1156.172L240.564,1156.172L240.564,1158.91L245.558,1158.91L245.558,1161.33L240.564,1161.33L240.564,1167.088L237.717,1167.088ZM247.759,1167.088L247.759,1153.771L255.6,1153.771L255.6,1156.172L250.606,1156.172L250.606,1158.91L255.6,1158.91L255.6,1161.33L250.606,1161.33L250.606,1164.668L255.6,1164.668L255.6,1167.088L247.759,1167.088ZM268.024,1167.087L264.741,1167.087L261.239,1160.866L261.239,1167.087L258.392,1167.087L258.392,1153.771L262.467,1153.771C264.086,1153.771 265.299,1154.085 266.105,1154.712C266.912,1155.34 267.315,1156.284 267.315,1157.545C267.315,1158.462 267.039,1159.244 266.488,1159.893C265.936,1160.541 265.223,1160.92 264.35,1161.03L268.024,1167.087ZM261.239,1159.447L261.667,1159.447C262.819,1159.447 263.58,1159.321 263.95,1159.069C264.319,1158.818 264.505,1158.38 264.505,1157.755C264.505,1157.1 264.306,1156.634 263.909,1156.358C263.511,1156.082 262.764,1155.945 261.667,1155.945L261.239,1155.945L261.239,1159.447ZM268.525,1167.088L270.554,1153.771L273.537,1153.771L276.102,1161.611C276.157,1161.776 276.215,1162.015 276.28,1162.33C276.343,1162.645 276.403,1163.007 276.457,1163.413C276.505,1163 276.56,1162.632 276.62,1162.308C276.681,1161.983 276.739,1161.746 276.793,1161.594L279.404,1153.771L282.342,1153.771L284.379,1167.088L281.678,1167.088L280.704,1159.056C280.632,1158.461 280.584,1158.013 280.56,1157.709C280.535,1157.406 280.523,1157.124 280.523,1156.864C280.523,1156.724 280.524,1156.619 280.527,1156.549C280.531,1156.48 280.535,1156.418 280.541,1156.363C280.45,1156.885 280.364,1157.336 280.282,1157.714C280.2,1158.093 280.125,1158.38 280.059,1158.574L277.239,1167.088L275.638,1167.088L272.864,1158.574C272.839,1158.495 272.786,1158.277 272.705,1157.919C272.623,1157.561 272.509,1157.04 272.363,1156.355L272.363,1156.745C272.363,1157.364 272.309,1158.122 272.2,1159.019L272.191,1159.056L271.226,1167.088L268.525,1167.088ZM299.861,1160.456C299.861,1161.409 299.684,1162.31 299.329,1163.158C298.975,1164.007 298.463,1164.753 297.797,1165.396C297.105,1166.056 296.325,1166.563 295.459,1166.914C294.592,1167.266 293.694,1167.442 292.766,1167.442C291.954,1167.442 291.157,1167.305 290.378,1167.029C289.6,1166.753 288.885,1166.357 288.236,1165.842C287.399,1165.174 286.758,1164.377 286.312,1163.449C285.866,1162.521 285.644,1161.524 285.644,1160.456C285.644,1159.498 285.82,1158.599 286.172,1157.76C286.523,1156.92 287.039,1156.172 287.718,1155.517C288.385,1154.868 289.159,1154.365 290.042,1154.007C290.924,1153.65 291.832,1153.471 292.766,1153.471C293.694,1153.471 294.596,1153.65 295.473,1154.007C296.348,1154.365 297.123,1154.868 297.797,1155.517C298.47,1156.172 298.982,1156.922 299.334,1157.764C299.685,1158.607 299.861,1159.504 299.861,1160.456ZM292.766,1164.905C293.973,1164.905 294.969,1164.482 295.755,1163.635C296.54,1162.79 296.933,1161.73 296.933,1160.456C296.933,1159.195 296.535,1158.134 295.74,1157.273C294.946,1156.412 293.954,1155.982 292.766,1155.982C291.559,1155.982 290.559,1156.411 289.764,1157.269C288.97,1158.127 288.573,1159.189 288.573,1160.456C288.573,1161.742 288.964,1162.805 289.746,1163.645C290.528,1164.485 291.535,1164.905 292.766,1164.905Z"/>
            </g>
        </g>
    </g>
</svg>
