<?xml version="1.0" encoding="UTF-8" standalone="no"?>
<!DOCTYPE svg PUBLIC "-//W3C//DTD SVG 1.1//EN" "http://www.w3.org/Graphics/SVG/1.1/DTD/svg11.dtd">
<svg width="100%" height="100%" viewBox="0 0 2154 2927" version="1.1" xmlns="http://www.w3.org/2000/svg" xmlns:xlink="http://www.w3.org/1999/xlink" xml:space="preserve" xmlns:serif="http://www.serif.com/" style="fill-rule:evenodd;clip-rule:evenodd;stroke-linejoin:round;stroke-miterlimit:2;">
    <g transform="matrix(1,0,0,1,-9443.666621,-32339.997955)">
        <g transform="matrix(1,0,0,0.714286,10073.566554,24490.205122)">
            <g transform="matrix(40.542163,0,0,59.461544,-10450.359357,-51728.005859)">
                <path d="M268.156,1088.619C267.294,1089.484 265.049,1092.13 266.025,1095.375C266.625,1097.366 268.326,1098.829 270.349,1099.31C276.43,1100.754 292.735,1106.211 293.682,1122.794L293.732,1123.659L242.229,1123.659L242.229,1122.838L242.229,1090.068C242.226,1089.889 242.08,1077.283 251.102,1067.185C257.138,1060.429 267.274,1054.761 284.347,1054.761L286.356,1054.761L280.308,1060.809L294.297,1086.281C295.353,1088.108 295.667,1090.311 294.995,1092.311C294.409,1094.055 293.128,1095.614 290.467,1095.595C288.519,1095.581 286.681,1094.683 285.367,1093.249C284.644,1093.492 283.222,1093.812 281.572,1093.35C280.064,1092.927 278.327,1091.85 276.818,1089.335L276.256,1088.396C274.889,1088.856 273.292,1089.182 271.912,1089.182C270.605,1089.182 269.344,1088.985 268.156,1088.619ZM292.193,1090.593C292.193,1090.276 291.957,1090 291.64,1090C291.323,1090 291.086,1090.276 291.086,1090.593C291.086,1090.91 291.323,1091.185 291.64,1091.185C291.957,1091.185 292.193,1090.91 292.193,1090.593ZM293.59,1089.446C293.491,1088.615 293.213,1087.8 292.784,1087.06L278.212,1060.528L282.31,1056.43C267.146,1056.856 257.958,1062.039 252.41,1068.249C243.754,1077.937 243.948,1090.045 243.948,1090.051L243.948,1122.018L291.901,1122.018C290.501,1107.11 275.543,1102.234 269.934,1100.903L269.933,1100.903C267.328,1100.283 265.145,1098.392 264.373,1095.828C263.318,1092.323 265.274,1089.373 266.481,1087.971L266.472,1087.967C266.444,1087.954 266.415,1087.94 266.387,1087.927L265.703,1087.605L265.716,1087.58C261.678,1085.339 258.924,1080.965 258.924,1075.928L258.924,1075.108L260.643,1075.108L260.643,1075.928C260.643,1080.582 263.299,1084.604 267.154,1086.458L267.234,1086.496C267.407,1086.577 267.583,1086.654 267.76,1086.727L267.97,1086.548L268.343,1086.946C269.463,1087.331 270.663,1087.541 271.912,1087.541C273.328,1087.541 275.004,1087.136 276.308,1086.621L277.008,1086.344L278.31,1088.52C279.514,1090.527 280.852,1091.438 282.056,1091.775C282.867,1092.002 283.599,1091.967 284.14,1091.87L281.44,1088.833L282.75,1087.771L285.818,1091.222L285.84,1091.211L285.89,1091.302L286.599,1092.1C287.591,1093.216 288.986,1093.944 290.48,1093.954L290.48,1093.954C291.979,1093.965 292.773,1093.168 293.199,1092.217C292.791,1092.595 292.24,1092.826 291.64,1092.826C290.397,1092.826 289.367,1091.836 289.367,1090.593C289.367,1089.35 290.397,1088.359 291.64,1088.359C292.462,1088.359 293.191,1088.793 293.59,1089.446ZM276.705,1069.022L277.428,1069.084L277.421,1069.161C277.726,1069.229 278.04,1069.31 278.355,1069.408C279.693,1069.825 281.021,1070.544 281.815,1071.701C282.058,1071.963 282.798,1072.929 283.057,1075.168L283.142,1075.911L282.375,1076.062C280.134,1076.502 278.641,1076.048 277.636,1075.272C276.69,1074.542 276.163,1073.492 275.893,1072.482C275.696,1071.747 275.635,1071.041 275.622,1070.531C274.993,1070.465 274.572,1070.468 274.572,1070.468L273.712,1070.473L273.701,1068.832L274.561,1068.827C274.561,1068.827 275.491,1068.821 276.705,1069.022ZM277.356,1070.836C277.381,1071.197 277.439,1071.63 277.558,1072.076C277.743,1072.764 278.072,1073.498 278.717,1073.996C279.288,1074.437 280.095,1074.668 281.221,1074.571C280.958,1073.355 280.517,1072.779 280.517,1072.779L281.136,1073.031L280.408,1072.646C279.834,1071.772 278.815,1071.278 277.822,1070.968C277.666,1070.92 277.51,1070.876 277.356,1070.836Z"/>
            </g>
        </g>
    </g>
</svg>
